<mxfile host="drawio-plugin" modified="2021-09-14T13:44:06.267Z" agent="5.0 (X11; Linux x86_64) AppleWebKit/537.36 (KHTML, like Gecko) Chrome/84.0.4147.105 Safari/537.36" etag="LcCo88Psw0mh6wB-9lZy" version="14.7.4" type="embed"><diagram id="UvMRwzgXFazDbm_i6gcq" name="Page-1"><mxGraphModel dx="548" dy="1079" grid="1" gridSize="10" guides="1" tooltips="1" connect="1" arrows="1" fold="1" page="1" pageScale="1" pageWidth="850" pageHeight="1100" math="0" shadow="0"><root><mxCell id="0"/><mxCell id="1" parent="0"/><mxCell id="Pg3yXxrsNYTh1cJ3KZXr-1" value="" style="verticalLabelPosition=bottom;html=1;verticalAlign=top;align=center;strokeColor=none;fillColor=#00BEF2;shape=mxgraph.azure.user;" parent="1" vertex="1"><mxGeometry x="60.48" y="200" width="47.5" height="50" as="geometry"/></mxCell><mxCell id="Pg3yXxrsNYTh1cJ3KZXr-2" value="" style="points=[];aspect=fixed;html=1;align=center;shadow=0;dashed=0;image;image=img/lib/allied_telesis/computer_and_terminals/Personal_Computer.svg;" parent="1" vertex="1"><mxGeometry x="120.47999999999999" y="190" width="59.03" height="80" as="geometry"/></mxCell><mxCell id="Pg3yXxrsNYTh1cJ3KZXr-9" value="&lt;div&gt;Resource Allocation&lt;/div&gt;&lt;div align=&quot;center&quot;&gt;Development UI&lt;br&gt;&lt;/div&gt;" style="text;html=1;strokeColor=none;fillColor=none;align=center;verticalAlign=middle;whiteSpace=wrap;rounded=0;fontStyle=1" parent="1" vertex="1"><mxGeometry x="95" y="150" width="110" height="30" as="geometry"/></mxCell><mxCell id="Pg3yXxrsNYTh1cJ3KZXr-12" value="" style="group" parent="1" vertex="1" connectable="0"><mxGeometry x="250.48" y="160" width="140" height="111" as="geometry"/></mxCell><mxCell id="Pg3yXxrsNYTh1cJ3KZXr-7" value="" style="rounded=1;whiteSpace=wrap;html=1;" parent="Pg3yXxrsNYTh1cJ3KZXr-12" vertex="1"><mxGeometry x="20" y="30" width="120" height="60" as="geometry"/></mxCell><mxCell id="Pg3yXxrsNYTh1cJ3KZXr-3" value="" style="aspect=fixed;html=1;points=[];align=center;image;fontSize=12;image=img/lib/mscae/Docker.svg;" parent="Pg3yXxrsNYTh1cJ3KZXr-12" vertex="1"><mxGeometry y="70" width="50" height="41" as="geometry"/></mxCell><mxCell id="Pg3yXxrsNYTh1cJ3KZXr-10" value="" style="shape=image;verticalLabelPosition=bottom;labelBackgroundColor=#ffffff;verticalAlign=top;aspect=fixed;imageAspect=0;image=data:image/png,iVBORw0KGgoAAAANSUhEUgAAAyAAAAJYCAYAAACadoJwAAAABGdBTUEAALGPC/xhBQAAACBjSFJNAAB6JgAAgIQAAPoAAACA6AAAdTAAAOpgAAA6mAAAF3CculE8AAAABmJLR0QAAAAAAAD5Q7t/AAAACXBIWXMAAA4sAAAOLAH5m+4QAAAAB3RJTUUH4gMdCzgJEJ0OBQAANGpJREFUeNrt3XecZXld5/9XTSDPEASRIBIUQSWnNaziui4mDLgu6K6rEvr2EETCz7CukZyDyvRtwDXvKrjuCrIYCIIgogIGkCQiIghIhplpJtTvj28V3QM9M91dVfecqno+H49+0D1U3fM5N5x73t9YAAAAAAAAAAAAAAAAAAAAAAAAAAAAAAAAAAAAAAAAAAAAAAAAAAAAAAAAAAAAAAAAAAAAAAAAAAAAAAAAAAAAAAAAAAAAAAAAAAAAAAAAAAAAAAAAAAAAAAAAAAAAAAAAAAAAAAAAAAAAAAAAAAAAAAAAAAAAAAAAAAAAAAAAAAAAAAAAAAAAAAAAAAAAAAAAAAAAAAAAAAAAAAAAAAAAAAAAAAAAAAAAAAAAAAAAAAAAAAAAAAAAAAAAAAAAAAAAAAAAAAAAAAAAAAAAAAAAAAAAAAAAAAAAAAAAAAAAAAAAAAAAAAAAAAAAAAAAAAAAAAAAAAAAAAAAAAAAAAAAAAAAAAAAAAAAAAAAAAAAAAAAAAAAAAAAAAAAAAAAAAAAAAAAAAAAAAAAAAAAAAAAAAAAAAAAAAAAAAAAAAAAAAAAAAAAAAAAAAAAAAAAAAAAAAAAAAAAAAAAAAAAAAAAAAAAAAAAAAAAAAAAAAAAAAAAAAAAAAAAAAAAAAAAAAAAAAAAAAAAAAAAAAAAAAAAAAAAAAAAAAAAAAAAAAAAAAAAAAAAAAAAAAAAAAAAAAAAAAAAAAAAAAAAAAAAAAAAAAAAAAAAAAAAAAAAAAAAAAAAAAAAAAAAAAAAAAAAAAAAAAAAAAAAAAAAAAAAAAAAAAAAAAAAAAAAAAAAAAAAAAAAAAAAAAAAAAAAAAAAAAAAAAAAAAAAAAAAAAAAAAAAAAAAAAAAAAAAAAAAAAAAAAAAAAAAAAAAAAAAAAAAAAAAAAAAAAAAAAAAAAAAAAAAAAAAAAAAAAAAAAAAAAAAAAAAAAAAAAAAAAAAAAAAAAAAAAAAAAAAAAAAAAAAAAAAAAAAAAAAAAAAAAAAAAAAAAAAAAAAAAAAAAAAAAAAAAAAAAAAAAAAAAAAAAAAAAAAAAAAAAAAAAAAAAAAAAAAAAAAAAAAAAAAAAAAAAAAAAAAAAAAAAAAAAAAAAAAAAAAE1ibugBOwrK16rrVl1V3rr6mumV1peoT1RuqV1Z/Wb25RZ+YuuQ9bdlZ1a2rO1ZfVd2uukZ1pHpz47X4i+qNrffBDrY+dck78Bx8TfXIxnuQy3dJ9fQW/f7UhWyLZadXN2lci+5e/dvq2hvn+e7qpdWfVG9orfd3YKL3/6jz86ovqm5WXb+6euOa+S/VO6q3t9b7OtAlEz6je9/4Dvuc6gurW1Q3arxnLmi8Fu+s3tp67+5gF05UY9U1N2q8ZfUFjffPJdV7P11jvaML+3gPnurJ3CeWndl4n9yy8Z75/Oqs6iPVP1Vvb7we723RxVOXy4kTQHaLZdetvrE6UN2m8QE87Tg/eVH1ocYX/7nVq1p0/tTl7ymHu1rrfVX1wOrLq+tUZxznJy+uPl79TXWoenGLPjR1+dtm2dWr/1ndc+pSdpE/qr6rRR+ZupBTNm4iv6D6nup7N/5+1eP85HrjJv9NjWvRC1v0wRXWeXqjgeC7qu9o3LhcvfFZXduo78Lqk42byt+qfqd6uxuZbXaotdb6/Oqbq//SuJk8uzqzo/chF1XnN4LIi6vfqF7foiMrqfGZ1ZW7XvV11X2r21bXajSubNa43mhg+nD1uuq51ctb9OFJn9+96HBntt5tqv/ceN/csLpadfoxP3VR4/P7rur5G3/e4vO7Owggc7fstOpu1aOqr25csE/UxxsX8ce36J1Tn8qesOzm1U9U/7HR23GiPlW9vPrv1V+22AMtrcu+rfrVRhjmxJxX3btFL5y6kFNyqDNb657Vz1Rf0vEbQY7nwuqPG+//P9/x9/+y61UPaDQS3LAT+65bb9zIPK365V0dEudk2dUaAfDHqlt16RvIy/Oh6teqp3V+7+yHdrTGMxojCn6q8X17oj26R6pXND4Pr3Hju02W3aB6SHW/6nNP8LfWGz2vz6x+cU819u1RAsicjRa876ye3Gi9O1WvqR7UotdNfUq72rK7VD9f3XULj/LO6mHVC3b1l9WyazVai+8+dSm70Iur+7Too1MXclKWXbX6oepHG63Xp+Jd1SOq39mx9/+yWzZCxD068ZvdY13UeG//sIabLVr2OY2b+vt3/F6yK7LeGFL80Nb70x0ZxrrsytWi0bB03VN8lPdW/636jRZ9attr3E+W3aZ6RiMQnmgDx7Euqn63emSL/mHq0+GyncqLyyqc21p1r8YN71bCR9W/qX5p4waaU7Hs9tVz2lr4qLppYzjWN/eLU5/Ulnxro6WQk/dVjaF7u8eyK1U/XP1kpx4+aswZeVZ1r569Aw1gy764+h/VN3Vq4aPGEK3vqp7Tsi/Y9hr3i9EL9YxGL9SphI8ajaR3rn6ptb5yB2o8s9Eg9LhOPXxU3WDjXBcbnxVOxbI7Vb9cfW2nfn96RuPe6Tktu+nUp8RlE0Dm6rRuUz2hut42PeJtqucKIadg2fWrpzbGBG+H8XgXdvupT+0Un4/rVQ/u1G8q9rtrVA/cWMRg/g631hiH/YjqKtvwiNerntIlfcW21jnmyT2ttu1xv656wkZvHydjXCOeVn13px4Ej/VF1c9v9G5tj1+o6t6NoWFX24ZHPLt6bHVQCDkFy+7cmFNzh216xH9XPd7nd74EkDkaNyb/vbFiy3YSQk7WoU6rfrDRHbydblH9RMsttSZP5Xtql4an+bh7u6UHab0va1yPtjMwfX712JYnPL778i0//Tn9D9t89veq/kvPMlz5hF06fGznPcbtqh/fWPxi687oVm29R+8zXaN6THWOEHISRvh4TuM13k73qv5zh6Y+QY5HAJmnr2oMIdgJQsjJWOuLG62/O/FZ+YbGwgK7x7KbNCb3nsxiCHy2sxotpdtzM7VTxk3UI6ub78Cjf0Vjjtt2+NLq+9ue1vZjjSE6p/dFO3D+e8/OhY9N92os97w1hzqjenjtyOt6jerRCSEnZtyL7ET4qPH5/aHW+sKpT5PPJoDMzbghuV/t6I2JEHLiNpcZ3QlXq+6/sUrM/I1W5kVj9SO27msbN85zduvq63fosc9ohLAbbulRxrLA92vrc+Uuy82qb9mhx947dj581Li5X2z5mrnWzRuLFOyUzRDywI1J7hzPzoaPTbdo5xp02QIBZH5u0Zg0vtOEkCsyxo5+3Q4f5W61aybK3box/MpwlO1xnepeG8P85uq7GhNsd8ot2/rNx/UaYW6nrFXfvbGiE8ezmvCx6Ssa35Nb8S3VjXe4zmN7QoSQz3Q0fGzX3MrLslbdZ2OOGDMy5y++/erWtbIvOiHk8t2gsWrPTtrcFXjelhtd2bsnLO0W39XaTJ/Tw12t7ZvQfVmuUt19iyti3bSd/5zebAXH2J1WGz5qXDNvvYV6r9TWVlk6GVdPT8hnW3bXVhM+Nt0i312zI4DMzxfVSi9UI4QcFkKO48bVNXf4GGe2M+Prt9tdG0vvsr1u0lz3UlnvWtWNVnCkL299S0NOb9fOb4Z5djvfYr77rD581Jjns5Ves7Na7Wt59cZGwkJITRE+anx+Lak9MwLI/Ny81Q9xuU3rPXdjJQqOunGrmWx9kw7NeFjT2IDuEZ34jrScuDOq+7bs2lMXchxXbwwj2WnXbn1LSzqfzO7ap+rMVtczvTssu06rDx+bbrWFCd5Xa+cblj7TZgh50L6emH502NVtVnzkM9u+LQ3YJgLI/Ey1Ks5tqmdtbLjHcI1W8xm5Ruuz/izevZ0dY7/f3bbVtgaeqDPb+Rv77TjOKkJSbc8eKHvDCMyPbeyjMcW165pbOO7pjeC/alevfro60KF9GEKW3bGxCe+qw0eNRl29TzMz55ue/WrKlvC7VM9uuW0bAe12q3ot5vs5XHbNxnKV15q6lD3srOp7Ojy7pY3XWs1nYK21LR1nVZ+f+X5OV2mEj8c1Vh6b4ka+xmtxqu+Zi6uLJqr7rOqxrbXo8D66IR47nD+7uuNEFVxSHZn6aeDSXFD5THeuDusJYcO3tvMTkalvbn0XLEawM9anLoATNI/wsVXnVR+d8PhnVY9pvQP7Yk7IGNo9ZfiourB6/9RPBZcmgHA844IhhOxvY5fqh9Qu2adkd7th9Y1TFwGXaW+Ej6qPV/80cQ2jJ2Tsg7N3Q8hyo0GzyUdVfKz6x6mfDi5NAOGy6AnhvzT9F8d+sVZ9b8s+b+pC4LPsnfBRiz5VvawxLGdKm/uE7M0QMp/wUfW26p1TF8GlCSBcns05IbefuhBWbNnNqge02282dpdbNTamhPnYS+HjqBdU75q6iPZqCJlX+Lik+s0WfXDqQrg0AYQrMoZjHZrFhYRVONzp1cHqi6cuZZ+5SvV9LQ15Yyb2Zvio0Rr+e1MXsWFvhZCjcz7mcs/wtupFUxfBZxNAOBF3bs1wrH1jvds01vaf794ke9dXV18ydRGwh8NHLbqoekb15qlL2bAZQs7Z1atjLTdGTTSbe4Uj1dNb9I6pC+GzCSCcqM2ekNtPXQg7aGyS9dDq86cuZZ/6nOo7OuzazIT2cvjYtOhtjZv+D09dyoZrVI9qfZfumD52OJ9T+Fivnlf9xtSFcHy+5DgZd25NCNnjvqL6lqmL2Ofu3Xo3mboI9qn9ED6O+s3q8dUnpi5kwwgh7bIQMsLH4ep2U5dyjBdXP9aij01dCMcngHCyNkPIXMZ3sl2WXb16RHXdqUvZ576gsfs8rNb+Ch+bQ7GevnHOcwkhV2+EkAe17CpTF3OF5hc+1qs/qB7condPXQyXTQDhVIw5IULIXvMN1ddMXQSdUf3Axs0grMZ+Cx+bxrK8T25+IeRnGz0h8w0hR4ddzS18HDTvY/4EEE7VnVtr2SETZveEcfPx0MYGWUzvDtVtpy6CfWK5sTv3fgsfmxZ9qrWe3BiOdd7U5WzYDCEHO9SZUxfzWQ51p0b4mNN16iXVOS36h6kL4YrtvwsN2+kurXVuhzrYwf5u6mLYkns19n1ZpfOrX6ne3fwbQ9YbO8J/X3WDFRzvrOreLXt1iy6c+uTZw0b4eFT7NXxsOtCnWvaU6vTqR2oWy2FfvfqZ1rqkZYc2emumt+yO1aHmFz4eJHzsHvv3YsN2+erWOiSE7GJj9+0H1sq7+l/emCQ4l1VoLt+hTm+tq1Q/tKIj3rN6ZvNZKpS95mj4OKe60tTlTG7RBR3uia1X8wkhZzdW61rrUOd2cOIQcrg7td6hxsqYc/GS6oEteuvUhXDi5t7qyO6wGUJuPXUhnKRlVd/f6luyPlY9bdeEj6qDXVw9p/qnFR3xhtU9pj5t9ijh4/gOdEFrPbF5Dccar9Va53Rowtdq2Z1ab9m8wscfNYZdCR+7jADCdhkhZCmE7DK3qH6g1feG/p/qVVOf/Cl4S/WCFR3rtOp7W3b9qU+aPUb4uHwjhDypEUI+OXU5G46GkMMTvGbL7tRosrrT1E/EMf6wET7eNnUhnDwBhO301SWE7BqHO70x9OqWKz7y+6ufazGb1sUTN5btPFz984qO+CXNq7WR3U74ODEHuqD1nlQ9obmFkPXO2dg0djWW3bl5ho8HtujtUxfCqRFA2G5CyG6x3u2re09w5F+p/mrq09+CN1X/b0XHumr1fS276tQnzR4gfJycg58ejvW45hZCxhK9O/8aLrtLwgc7QABhJwghczd22f2h6kYrPvI/VM/d1Ss7jdoPVe9d0RHvXpa7ZotG+PjZhI+Tc6AjG0v0zi2E/Gxjs8Kdey2Pho87Tn3CxxA+9ggBhJ0ihMzbV1fftOJjXlyd2yW9ZeqT3wZ/0/giXIXrVd/e4damPml2qRE+fqYx5FL4OFkHOlKzDiFX3vZHPxo+5rTh8O835nwIH3uAAMJOEkLmaNyMPKy6zoqP/NfV/+ycjUUud7OxHv+5jfksq3Dv1rvJ1KfNLnQ0fDwo4ePULTrSek+uHtt8Qsg12okQMt/w8aAW/f3UhbA9BBB2mhAyP9/SeF1W6Uj19Ba9e+qT30avb6w/vwo3bfWvGbud8LG9Dnak9Z7SCCGfmLqcDddo8zXejhCy7K7NM3w8UPjYWwQQVkEImYtl161+sLHD7iq9svq9qU9/Wy060ugF+dcVHO3M6vtbdq2pT5tdQvjYGfMOIQ/eUghZdrfmFz5e3Agf75i6ELaXAMKqCCHz8D2tfkLhJxqbDn5w6pPfAX/e2NF9Fe7c6jeMZDcSPnbWwY601lOrxzSvEPLT1UM6dAoh5Gj4uP3UJ3KMFzeGXQkfe5AAwip9dfWsln3h1IXsS8tuVN2/1d+QvLh6xdSnvyMWXdBYEesjKzja2dV9Wq5800h2k7Fk808kfOyssTrW0xr7hJw/dTkbRghZa9Hhzjzh31p220Zv7u2mPoFjvCzhY08TQFi1u1fntuwWUxeyryxbq+7X6pdz/VD1zBazaSXcCa+pXr2iY31zdfOpT5iZWna16qeqByd87LwRQp7S2DF9LiHk6tXPtt7BEwohI3wcbl7Drl7WWO1K+NjDBBCm8O8TQlbti6r/Wp2+4uP+r+q1U5/8jlr0yepZ1cdWcLQbV18/9SkzQ6Pn4ycbc7xsXLkqBzp/Y8f0x1bnTV3Ohms2dkw/2KHLCSHLblc9u7rb1AUfYzN87IXl2rkcAghT+fqEkNUYQ3YeUit/rv+5Wm5M1t7r/rj6sxUc57Tqv7bselOfMDMywsdPJXxM42DnH7NZ4bxCyFoPbHmcEHI0fNx16kKPIXzsIwIIUxJCVuMO1Xeu+JjrjS+3N0598isxhpg9q9VMSP2yxoR0ED7m4kAX1Kf3CZlTCPnZ+owQcjR83GXqAo/xkuqg8LF/CCBMTQjZScuuUj28usGKj/yW6ldbdPHUT8EKvbSxKtZOu1r1fRs3nuxnwse8jEUpNpfonUsIObvNEHKoM2YcPs5p0VunLoTVEUD2p/XGxXEuO1ILITvna6t7rPiYFzUmnu+vCYSLPtZYEWsVuyR/bfXFU58yEzo64XxO4WM/NTgc36ILNiamzy2E/HRrPb75hY8/aoSPt01dCKslgOxPl1RPr/5k6kKOYWL6dlt2dvWw6torPvJfVP976tOfyB9Ur1vBcT63+vYOtzb1CTOBoxPOH9p8wsd7q1+pfTHn6/Id+HRPyGOaTwi5VqM3fG7h44HCx/4kgOxff10dqP506kI2rKUnZLt9R/WVKz7m+dVTW/S+qU9+Eos+0tjMaxVLct6n9T5/6lPeBkLUybh0z8dVpi5nw/sbYeh3pi5kNkZPyFOrRzefEDKnz5rwsc/Z0Gp/WqvWWvTmli0aa4D/m6mL2rAZQs5p0d9PXcyuNVZJelBjvsAq/VGjF2A/e0Fjw8ez2tlhjhe2s63N761+rJ19D61VH241SxjvfkfDx0OaT8/HCB+Lnteyb566mFk50AUte9rGv368sUcH4zviQS16+9SFMB0BZL9b9DctO5AQstd8X3X7FR/zI9XTW/TRqU9+UmMuyG9MXcY2nMeHql+cugw2HB12Nb/wsd7zNv49pxb2eVh8OoSsV/89IUT4oDIEixohZAzHes3UpRzDnJBTteym1X3rBHbB3V7Pb31lO4LD/jHP1a6Oho+DJp9frjEc6+mN4VirWKRirn6/MexK+EAAYcP8QshaQsjJW3ZadU51qxUf+V+qZ3WwC6Z+CmBPET72hjEx/enVo9qfIeT3Gz0fRjVQCSAca4SQg61mFZ8TsTkx/edadpOpi9klblX9p1Y/FOJXq7+Z+uRhTznclasfbV7h40PVI4WPU7DogtZ7emPDwlUsVDEXf1L9oPDBsQQQLm3RX1X3az4hpOobGj0hQsjlGTvdPrS66YqP/A/VL7booqmfAtgzDnfl1vtv1SObV/h4WPU/hY9TdLAj1ROqJ7Y/Qsgrq/vbZJDPJIDw2Ra9oXmFkLXqGxNCrsidq29b8TEvrn6h03rL1CcPe8alw8eqV7K7LJvh4zc0NmzRovPbHyHkFdUDWvh+4LMJIBzfCCH3r14/dSkbhJDLM8aJP7K6/oqP/LfVb/WAHV1uFvYP4WN/OBpCntDeDCHCB5dLAOGyLXp9Qshu8XUbf1bpU41NB/9p6pOHPUH42F+OhpDHt7dCyGb4MOyKyySAcPkWvS4hZN6WXat6eHXNFR/51dXvTX36sCcIH/vTogsaQ7Ee194IIX+c8MEJsBEhV2zR61p2/+o51R2mLqdLh5BzWvSuqQua2HdWX77iY36ienKLPrjys112RiNsXbtxo/aZ17HjNaysdfyVwU67nP9+Iv/teI+7tlHTZ/73M47zGJf1s9tpc7fxV7XoUyf8W8uuVN2wOn0Ha6v6VGu9pwP7eFLzodmGj4cnfOy8sVnhkxqf1R9tPosOnKyXVwda9LapC2H+BBBOjBAyT8tuWD24usqKj/yiRkvXahyq1rpW9VXVfaovq65bXbnPDhGXdTN/vKCwdgI/t+m0k/jZk3ncnV4yea16bGsn/XrdtPqt6nq1Y3N8TqveVn1XY2+J/We+PR8Pr35d+FiREUKe2Pis/Vi7L4S8POGDkyCAcOKEkHk53FrrHahus+Ijf7B6eos+sZKjLbty9U2NG6I7VFdf8fnudu+pnt+BLjnJ3zuzukH1uTtc38fb+V6WeRI+ONbRnpDNEDKX98QVeXnCByfJHBBOjjkh87HerarvbfU3b79e/cVKjrTs+o3dg3+50fshfJy8X2+9v5u6iMuxP1dQEz44njEn5MnVY6vzpi7nBLysMedD+OCkCCCcPCFkemPTwYdVN1/xkd9VHW7RhSs4xy+onls9oDprxee5V7y3+jWbxs3Mcpbh48PVIxI+pnc0hDymeYeQlzV6Pt4+dSHsPgIIp2beIeTzpy5mBe5WffuKj3lJdW6n9aYdP9Lo+fiF6pvbr8Nztsf/qhW8Xpy4MaRwbuFjc7WrXxM+ZmLRkeop1aOb5+pYL2n0fAgfnBIBhFM33xByaE+HkHED87DG5OBVek/1v3d808Fxfj/ZeC05de+rfsUN5YzMN3w8vHU9H7MzQsjLq49MXcpnWK9eVf3j1IWwewkgbM0IIec0dsSeg80Q8rSNFaL2oourD0xw3GtVX7yC4/y76rtzfdqq321N78dsjGWNH9KYYzGX8PHR6serX++g8DE7y27TmAN3g6lL+Qxr1UOr+24MB4aT5guerVv0Z42ekDmFkHtVz9yTIWS0Uj69+vsVH/ka1Y+03MFVkZad1RiHfu0Vn9te86/VczpwEvt+sHNG+PjB6qcan6M5+Gj1o633HD0fM7Tsto05cHedupTLcM3GBoo/IIRwKgQQtocQslqn95bqV2rlk4vvWn3HDj/+XVZ8TnvRC6q/mroImn/40PMxPyN8PKf5XwuFEE6ZAML2EUJW5/6tV89u9TeZY/WtZbfY9kdettbYZPDsFZ/TXvOhxkplR6YuZN8TPjhZuyd8bLpm9aTqfh0SQjhxAgjbSwhZnUXvrX6u1a+Qcsvq+zu87atTnd3qN1Xci36vesPURex7wgcna9ntGsOudkv42HR29YTWup+eEE6UAML2E0JW6X9Xr1zxMdeqB7TeHbb5cc9u53fd3us+XC039hFgKvMMHx9J+JivET6eU9156lJO0QghCSGcGAGEnSGErMaijzW6vz+04iNfv3poy21dzeeq1VVWfB57zYur101dxL42z/Dx0erHhI+ZWnb7Rs/Hbg0fmzZDyP2FEK6IAMLOEUJW5ZXVCyc47rdVd9/Gx1vf+MOp+Uh1botZblq2P8w3fOj5mKsRPp5T3WnqUrbJ2dXjE0K4AgIIO0sI2XlHd8x914qPfFb1wy277jY93ic3/nBq/rD6y6mL2LeED07W3gsfmzZ7Qh6w8bmAzyKAsPOEkFX42+rXq0tWfNwvb/SEbIePVe9dcf17xUerZ7XovKkL2ZeED07Wsjs0hl3ttfCx6axGT4gQwnEJIKyGELKzFl1SPat644qPfKXq4S272Tacwyeq1664/r3ipdWfT13EviR8cLJG+HhOdcepS9lhZ1WPSwjhOAQQVudoCHnT1KVsODaEXH/qYrZs0burX6iV7/9w6+p7O7wt15PfrD6w4vp3u49Xv9DC8LWVO9yZ1UOaV/j4ePVjrQkfs3S052Ovh49Nx4YQc0L4NAGE1Roh5MHVW6YuZcNaY2fvJ7TcE0vAPq/V9yJsLsv7pdvwSG+sXrHi+ne7V6T3Y/WWndl6B6qfaD7h4xPVo6rndkD4mJ2xyeC5te1LmM/dWdWjq++3WSGbBBBWb9HLqnOaTwg5rfre6om7PoQs+lD11MYQjFW6cfXAll15S49yoPOrJ1fvWXH9u9UnG70fH5u6kH1ltOQeqB7T2Al6Dj5R/Wz1jBZ9aupi+AwjfByu7jZ1KRO5VvWk1rqvnhBKAGEqQshO+v2NP6t2n+ortvwoa722embZTO8EvKJ69dRF7CvCBydrbDL47PZv+Nh0zcbqWPfVE4IAwnTmHUI+p926J8Visl6Ea1WPaNm1tvQoB7qk+vnGOOkLV3wOu8knq59vsfLerv3rF1pL+OBkjKV2D1d3nbqUmRghRE/IvieAMK05h5Cx2/fuDCFjN+zfnKD+r6u+acuPMiZU/3hjvLSlZY/vT9L7sUpndEYPSPjgRAkfl2WzJ+R+VsfavwQQpjfPEPJfqx9oTLDefRZd3OhFWPVzepXqkS278Tacw1hKdASRd6z4PObuvEbvx0emLmQf+a7qsQkfnIij4eMuU5ey4ZLqrY33zRxcs7FPyH2FkP1JAGEe5hdCzqhu2G7+jCx6R2Pc8aqHMd22+u4ObUN4W3R+az2j+s7Guvn/2Oo3W5yjP9n4w+p8VfU5UxexQfiYs7HU7pzCR435Yv+pekrz6VXWE7KPnTF1AfBpi17WsnMaw26+eOpy9ohfady8b31y+Ik7vXpQa72o7dgY8UDr1RtadrDxvvjWxjKWN6qu3qVD4rHhZL2jQ9Au6++bv3N5/99l/f2SjePfqVY6lvm8xspXH1nhMZmPET7WekYHhI/ZORo+7jx1Kcd4WXWwRW9t2Vsa18xHVFeburDq7EZPSC17rkC9fwggzIsQsr0W/WvLnl7dprEW+6p8QbXoUI/s4DZ9oYxhZW/qd3pT7+uM1rpKYyf201prMzasfzo+rH1WmDje39c3fq5P//ax/1q73N+/pLpfq99Q7NXVK1d8TOZB+JizuYePqkUXtOwxjevXIxuNKFPbDCFrLXuOELI/CCDMjxCy3V5U/WFj1/dV+s+t9fy2e2PB76jqoqYeyzxWSvu+WunQgfMbcz8+POm5M4Wjw66Ej/lZdsdG+LjT1KUc49LhY9OiIy173Ma/5hRCRk2He473+N63e8e3s7fNb07I7jVWlHpS9S8rPvJ1qoe1nM2k3e12z+p2Kz7mq7NT/H5kzseczTd8LD4rfGxadKT1Htf4bvjk1MVuGCFkvQPmhOx9AgjzJYRsp7+onjfBce+x8WdvGb0fi8aqX6ui92N/Ej7mbJ7h46WN8PG2y/2pgx1pDH2aWwh5bAkhe50AwryNEPLALMO6NYsuqn6uevuKj3zVxrK8nzf1U7DNvrG6/YqP+efp/dhvzq8enfAxT4e7bfMLH3/ciYSPTYtPh5AnN95vc3BWI4Tcv0OmCuxVAgi7wUurh1T/MHUhu9olvb36pcb8iVW6ffUfpz79bTN2en9Aq+39OFKd26IPTX36rMz5jZuwZwofM7Tstq13bvMKH6+ozmlxkg1NI4Q8obFE75xCyGNa634dFkL2IgGE+VtUYyL1gxNCTt05rVfPrf56xUc+s/rBln3R1E/BNvmGVr/KzV9UL5n6xFmZzfDxlBazuSFk07LbVoda7fLmV+QVjQnnf3dKv7045j03nxByrerxrXe/litd6pwVEEDYHYSQ7bHoX6pntPqNqL6wuv+ub8kaE+oPttr184809v34wNSnz0oIH3M2wsey+vKpSznGK1rfQvjYNOcQUvcXQvYWAYTdQwjZHuv9TqufS7BWfX/r3WHq09+ie7T63o+/TO/HfiF8zNmy2zXCx7+ZupRj/HF1sINbDB+bFp3feo9tXnNCrtVYolcI2UMEEHYXIWTrDvbxxpfLB1d85M+tHtpyFmvOn7xlZzd6P1ZZ/5HqWS16/9Snz44b4WNd+JilET4ONa/w8fK2Muzqshzs/MYN/5xCyDUTQvYUAYTdRwjZDq+s/s8Ex/226munPvlT9PXVXVZ8zNc3NpFkbzsaPg7O5oaPTctu3/x6Pl7emHD+5h159NETsrlPyKqH7F6WzRDyACFk9xNA2J2EkK0Zq+o8rXrnio98jeoRLbve1E/BSVl2VmNPmmus8KifSu/HfiB8zNnR8HG3qUs5xssbPR87Ez42jffj5j4hcwohj60e0GEhZDcTQNi9hJCtWe9NjWV5L17xkb+yutfUp3+S/n2rvwF5ffUHU584O0r4mLNld2iEj7tOXcoxXtYIH6vZoHcMB3xCcwwh6y2EkN1LAGF3E0JO3cHWq2dXf7PiI5/ZmAty86mfghMybe/H+6Y+fXaM8DFnI3wcal7h46WNYVerCR+bFrPtCXlM6y06JITsRgIIu58QcuoWvaf6+VY/0fBW1X1b7oplef9dqx/7/Vfp/djLhI85m2fPxzThY9OiC1rr8dUTm08IObuxWaGekF1oN3z5wxVbVId7Ues9uHFDfbOpS9pFnl/dpzHMaFXWGruJf7xlH9r49xydVn1/Y1feVdns/fiXqU+eHSF8zNmyOzZ6Pla94MTleUn1wBa9ddIqDnRBy55QrVc/0mr3Q7osI4SsV4dadrALpy6IEyOAsHccqM7tRZ0mhJyURR9t2ZOrO1bXWeGRP7fRrc+l/XX1+1MXwY4QPuZshI9lq9/r5/K8pPUe2MGJw8emRRd0uCe2Xs0thKy11rLlxiIrzJwhWOwt51Sf6EXVD1bvnrqcXeTluemdg4uqZYveO3UhbLtPVU8UPmbqcLeuzm1e4ePV1YNmEz42HeiC1npiY8f0I1OXs+Hs6tHVfTvU6VMXwxUTQNh7HlGt93uNOSFCyIlYdKR6avXPU5eyz/1d9eKpi2DbHame0HpPEj5maNmtW+/ZzWvOx6uqxWRzPq7IgS7o6MT0C6YuZ8NmT8j9OtcIn7kTQNibDrbeer+bEHLi1np99Ru10bnOql1UndvC+3WPOdKYuPuEDvbJqYvhMyy7VWM1wK+cupRj/EkjfPzt1IVcrkXndXTH9LmEkOtUj+u0fqDDekLmTABh7zrYepcIISfsQBdXz2q0wrN6b65eMHURbKuj4WMhfMzOshs15gvOLXwcbNEbpy7khBwNIXPqCblOY67Vt01dCJdNAGFvO0cIOSmL3tkIISbxrdbF6f3Ya0b4WBc+ZmnZVaqfbCyzPRevbDeFj02Lzjtmid65hJDrVo9t2ZdMXQjHJ4Cw953TeqNl+SEJISfif1WvnbqIfUbvx95i2NX83aO6d/NZAnx3ho9NBzqvsWP6nELIF1ePbNlVpy6EzyaAsD8suqQ1PSEnZNEHG6ubfGzqUvaJi6tDLfqnqQthW4zVrgy7mq9l16ge2NhNew5e0Zjz8aapC9mSxSxDyLdVt5u6CD6bAML+caBLTEw/YX9Q/eHURewTb6l+d+oi2BafatyACR/zduvqTlMXseEVjZ6PvTH3boSQxzc+B3NY8e061bf3LPe7c+MFYX85aDjWCRlfIk8q+1HssIsb+368a+pC2DLhY/e4Z/U5UxfRXgsfmxad3+ZnYR4h5Bs6vetPXQSXJoCw/yy6pPq/CSFX5C+r35y6iD3urY33Irub8LFbLLtSdcepy6j+uL0YPjaNEPLERm/I1CHkBtWNp35KuDQBhP1p0XpCyOVbdFFjicp5boS1+232fvzj1IVMbC6TgE+V8LG7XK363IlreHl7OXxsGiHkSU0fQq5RekDmRgBh/7p0CJlyB/D5bvy36O+rQ9WFU5eyB72tefd+rLea9+b6jD8BV2TscF5PFD52jSvVpKsivawRPt489ROxEovOb23yEHJ6I4QwIwLI/KziS+yS3FAOI4RsTkyfKoSc19qsb8F+rfqLqYvYYy6pDm/suzJXFzZ6aVZxnIu28Ptb+d2tOHaTwU9MVMPcHGk1ofVTWzjOqoL18bysOqfFPutVPjCLEHLJ1E8DlyaAzM8qluK8uHxhftrROSEPq943QQXv6eCML46L/rV6RqsJx/vFO5p370fVea3mNf9oW1uy80OreTou5cLqma3r+fgMn2w1gfD9WzjOkaa5lr2metC+Cx+bDnx6ONYzG6/BKl2YZeVnRwCZn7e387tQf6JpbrTna9F6a/129YOt9rm5uHEzOne/1xi3zNatV8+p/mHqQq7AR6r3rOA4f9ZpW2oQ+at2/pp5rAurp1eP6qCGnM/woerjKzjO32zMUTsV51f/srqnpBrh4/57fs7HFRlzQh7V+PysMoR8vNW/5lwBAWR+3tz44t9J/9xqbix2lwNd0lrPb7Uh5CON0DlvY4jJk6oPTF3KHvCO6rc3hv/N12jZ/7MdPsqR6qU9YEvPxRurD6/oWTkaPhYrudHebd7fzi/dfaT621P+7UUXVq9qdcOw/rQRPnbnDufbbVxXHlU9rdWFkH/MYjOzI4DMz1vbysX1xLyg091IHtfqQ8gb2x09IFWvbv7DhuZuvXpua/391IWcoN9sZz8Hb2/0YGzFPzUm9O804eOKfbh67Q4f4z215Qnc/6/VtIgLH8ez6JOt9ehWF0J+Z2MoMTMigMzNoo9Uv9jODSn41+r/dP+Zt75O6UCX1EpCyIXVc1v00alP+YSMlsOntnsC0xy9s3p+B3bN5++N1Ut36LEvbkzE31rL5KKPNT6vOzn34MLGPCjh4/KMXr1frR292fu/bXWu5Hpvr/5kh5+NzfDxph0+zu504NM9IU9tZ0PIe6oXTX26fDYBZJ7+oJ0b+vAb1V9PfYKzt1hJT8hrqxdPfaon6c3VL7Wa1ZH2mvVG48L8h9xtWnSkMfRuJ/Yq+bPqedv0WL9V/c0OPQub4eNnhY8T8rrqJTv02O+pfnkL8z+Ggx1ptL7vVC/IqxM+rtii81rv0dVT2tpCFJdl85q7v+fezJQAMkeLPlD9TNvfivRX1TNbrHTC5u61s8Ox/rX66Ra9f+rTPCmLjSFEO3ezt5e9q3re7Od+fKb13tBYPvO8bXzU91Y/3mKb5guMx3li27/SjfBxshZdUD2u7e8pvah6Rmvb1IC23murZdu/JP2rEj5O3MHOqx7T6AnZ7hDyZ41eVg1mMySAzNcfNza42q4v/XdXj9zYWI4TtTMh5Lzqpxtrwu8+i97TuCnbiRarveyXW1/JXIXtdbD1Rq/Xz7c9Q0M/VP1/1Su2udLfqZ7d9g3FEj5O3V9XP9X2Lqjy29WzN4bIbt3BLm70gjyv7ZuQ/qrqAft+tauTtei81npM29sT8vfVI1qsZGsDTsHpUxfAZXhhl3TPXtf4ErxrdeUtPNo/Vg9urT/oBbus9XUOXtB639rfNS5oX1FdcwuP9rHqJ6vlxpyK3eme/UP15dXNpy5ll3h39aMd3GU9Xpte2EXds9dUa9WdGrtJn4r3NPbb+a1tb5V8YRd3z/6suk51u7b2/Xak0SL7aOHjFLywumdvalzvvqK6yhYebb16QfVD295j/MKOdM9eVd2ounWn3ii73hh2tti3+3xs1Qu6sG/tNY0GhLt26teYqrdU51Sv7IVTnxiXRQCZs/Gl/9rGje9tG1+sayfxCBc1JtodrF6264Z+zMkLWu+evaUxb+OWjS+sk/myWm+scPaw6ld3/TC48cX9/upb2trNxX7xrOp5vXAXfwZf2Ke6Z69uXI9u08ldjy5qjIs/p3rxjg2JGO/LVzb2erh9ddVTeJT3NxoJnm6TwS14YZf0Lb2+td5R3aHxfjlZ51WHqx/e6HndiTo/2T17WaPl/TbV1U7yET7eGMr1yBa9c0dq3C9e0IUbDR3v6NTueS5szKE9p3qNe555O5kXlqksW2vc9B6o/lN1gy4/PB5pLEt5qDHmfHe2us7Vss+r7t14PW7R5fdOXdRo9f316hdb6+930QpIV/Q8XKX6H9V9pi5l5t5TfUOLPTJvZlyPvrC6b+O1v1F15mX89PmN4L2sfrtP9f4espIaz6y+qvqRjf+9+gn81scbK349sXrtlic6MxxurfW+tHp49W3Vtbvie48jjTmLT6xetLGB3U7XeWbr3aUx3Pbfb9R5WY1M643enT9tDNN7+cbcF7bDeM/csrp/47v2BtUZl/Mb51dvqn6h+r8t+tDUp8AVE0B2k3GBvFl1l+oe1ZdWZzU+mEcaa7D/aaMr+A2t9S/bNl6WS1t2WuOieIfGl9VdG601V2qEjo829nP5g+rPq3fuyRuaZbdvTFA+u9Vt7LWbnNYYPvKkXT3k7niWnVHdpNHT8DUb/3uNxvvgg41r0asaCxa8v8UE16Jl12wMGbtX9W+rz230ipzeWMntvMZKSC+pfrd6gyFXO2Q0WHxp9U0bf27ceL+cUV3S6IH4YON6+fzGBOIPrLwVe9nVGg1+d6v+Q3WzRq/IWuNG95+rP2r06P3dxjLQ7IRDndlaN218hr+++rLGd83pjfloH6he2ZhP9tet9YE908C3Dwggu9E9qnt1pcYH8eqNm5yLGi14H7fiw4od7vTWO7ujX6bjxmatj3Vglw+1uiLLTmvt0+9Bju/8Pf8+OLfTO62rN3oD1xs3audPEjqOZzTeXLe6fnWtRkPBpxoT4t9X/avr5oqMxptrN16L6zaGcG422ryvETpWtUP2ZTu3Oq2rNL5nr9y4XzpSfbz1zt9YnIFVGb2aZzXC4OmN4VYfrz45m+sMAAAAAAAAAAAAAAAAAAAAAAAAAAAAAAAAAAAAAAAAAAAAAAAAAAAAAAAAAAAAAAAAAAAAAAAAAAAAAAAAAAAAAAAAAAAAAAAAAAAAAAAAAAAAAAAAAAAAAAAAAAAAAAAAAAAAAAAAAAAAAAAAAAAAAAAAAAAAAAAAAAAAAAAAAAAAAAAAAAAAAAAAAAAAAAAAAAAAAAAAAAAAAAAAAAAAAAAAAAAAAAAAAAAAAAAAAAAAAAAAAAAAAAAAAAAAAAAAAAAAAAAAAAAAAAAAAAAAAAAAAAAAAAAAAAAAAAAAAAAAAAAAAAAAAAAAAAAAAAAAAAAAAAAAAAAAAAAAAAAAAAAAAAAAAAAAAAAAAAAAAAAAAAAAAAAAAAAAAAAAAAAAAAAAAAAAAAAAAAAAAAAAAAAAAAAAAAAAAAAAAAAAAAAAAAAAAAAAAAAAAAAAAAAAAAAAAAAAAAAAAAAAAAAAAAAAAAAAAAAAAAAAAAAAAAAAAAAAAAAAAAAAAAAAAAAAAAAAAAAAAAAAAAAAAAAAAAAAAAAAAAAAAAAAAAAAAAAAAAAAAAAAAAAAAAAAAAAAAAAAAAAAAAAAAAAAAAAAAAAAAAAAAAAAAAAAAAAAAAAAAAAAAAAAAAAAAAAAAAAAAAAAAAAAAAAAAAAAAAAAAAAAAAAAAAAAAAAAAAAAAAAAAAAAAAAAAAAAAAAAAAAAAAAAAAAAAAAAAAAAAAAAAAAAAAAAAAAAAAAAAAAAAAAAAAAAAAAAAAAAAAAAAAAAAAAAAAAAAAAAAAAAAAAAAAAAAAAAAAAAAAAAAAAAAAAAAAAAAAAAAAAAAAAAAAAAAAAAAAAAAAAAAAAAAAAAAAAAAAAAAAAAAAAAAAAAAAAAAAAAAAAAAAAAAAAAAAAAAAAAAAAAAAAAAAAAAAAAAAAAAAAAAAAAAAAAAAAAAAAAAAAAAAAAAAAAAAAAAAAAAAAAAAAAAAAAAAAAp+z/B1y+0rcZzwSqAAAAJXRFWHRkYXRlOmNyZWF0ZQAyMDE4LTAyLTI1VDA5OjUyOjQ0KzAwOjAwm9lukQAAACV0RVh0ZGF0ZTptb2RpZnkAMjAxOC0wMi0wNlQxMzoxNToxOCswMDowMG1leaMAAABNdEVYdHNvZnR3YXJlAEltYWdlTWFnaWNrIDYuOC45LTkgUTE2IHg4Nl82NCAyMDE3LTA3LTMxIGh0dHA6Ly93d3cuaW1hZ2VtYWdpY2sub3JnU2FVxgAAABh0RVh0VGh1bWI6OkRvY3VtZW50OjpQYWdlcwAxp/+7LwAAABh0RVh0VGh1bWI6OkltYWdlOjpIZWlnaHQANTA2kfum2QAAABh0RVh0VGh1bWI6OkltYWdlOjpXaWR0aAAyNDAw0oilDQAAABl0RVh0VGh1bWI6Ok1pbWV0eXBlAGltYWdlL3BuZz+yVk4AAAAXdEVYdFRodW1iOjpNVGltZQAxNTE3OTIyOTE43Vg1aQAAABN0RVh0VGh1bWI6OlNpemUANDUuOEtCQlUsXEIAAABBdEVYdFRodW1iOjpVUkkAZmlsZTovLy9vcHQvcG5nX2JhdGNoXzQvbmdpbngtbG9nby1wbmctdHJhbnNwYXJlbnQucG5n53NMawAAAABJRU5ErkJggg==;" parent="Pg3yXxrsNYTh1cJ3KZXr-12" vertex="1"><mxGeometry x="25" y="16.879999999999995" width="115" height="86.25" as="geometry"/></mxCell><mxCell id="Pg3yXxrsNYTh1cJ3KZXr-11" value="&quot;dm3k_nginx&quot;&lt;br&gt;&lt;div&gt;&lt;font size=&quot;1&quot;&gt;&lt;i&gt;&lt;span style=&quot;font-weight: normal&quot;&gt;Reverse Proxy&lt;/span&gt;&lt;/i&gt;&lt;/font&gt;&lt;/div&gt;" style="text;html=1;strokeColor=none;fillColor=none;align=center;verticalAlign=middle;whiteSpace=wrap;rounded=0;fontStyle=1" parent="Pg3yXxrsNYTh1cJ3KZXr-12" vertex="1"><mxGeometry x="10" width="125" height="30" as="geometry"/></mxCell><mxCell id="Pg3yXxrsNYTh1cJ3KZXr-13" value="" style="shape=flexArrow;endArrow=classic;startArrow=classic;html=1;" parent="1" edge="1"><mxGeometry width="100" height="100" relative="1" as="geometry"><mxPoint x="179.51" y="215" as="sourcePoint"/><mxPoint x="269.51" y="215" as="targetPoint"/></mxGeometry></mxCell><mxCell id="Pg3yXxrsNYTh1cJ3KZXr-19" value="" style="group" parent="1" vertex="1" connectable="0"><mxGeometry x="437.56" y="90" width="182.92000000000002" height="130" as="geometry"/></mxCell><mxCell id="Pg3yXxrsNYTh1cJ3KZXr-20" value="" style="rounded=1;whiteSpace=wrap;html=1;" parent="Pg3yXxrsNYTh1cJ3KZXr-19" vertex="1"><mxGeometry x="20" y="30" width="120" height="60" as="geometry"/></mxCell><mxCell id="Pg3yXxrsNYTh1cJ3KZXr-22" value="&lt;div&gt;&quot;dm3k_ui&quot;&lt;/div&gt;&lt;div&gt;&lt;font size=&quot;1&quot;&gt;&lt;span style=&quot;font-weight: normal&quot;&gt;&lt;i&gt;UI Container&lt;/i&gt;&lt;/span&gt;&lt;/font&gt;&lt;br&gt;&lt;/div&gt;" style="text;html=1;strokeColor=none;fillColor=none;align=center;verticalAlign=middle;whiteSpace=wrap;rounded=0;fontStyle=1" parent="Pg3yXxrsNYTh1cJ3KZXr-19" vertex="1"><mxGeometry x="25" width="110" height="30" as="geometry"/></mxCell><mxCell id="Pg3yXxrsNYTh1cJ3KZXr-25" value="" style="group" parent="Pg3yXxrsNYTh1cJ3KZXr-19" vertex="1" connectable="0"><mxGeometry y="36.53000000000003" width="135" height="74.46999999999997" as="geometry"/></mxCell><mxCell id="Pg3yXxrsNYTh1cJ3KZXr-24" value="" style="shape=image;verticalLabelPosition=bottom;labelBackgroundColor=#ffffff;verticalAlign=top;aspect=fixed;imageAspect=0;image=data:image/png,iVBORw0KGgoAAAANSUhEUgAAA1wAAAFvCAYAAABelMruAACAAElEQVR42uyd918T+fb/v/8Pd3fv3Vs/9y67bqQzGnQE7H3ooIIdFRUZe6/Ye++6yoCiYq/YsDdUEATpuD+eb97vUCbJlPdMJiHA+eH5AEIySSYzk/N6n3Ne5//9+eefgCAIgiAIgiAIgljP/8OdgCAIgiAIgiAIgoILQRAEQRAEQRAEBReCIAiCIAiCIAiCggtBEARBEARBEAQFF4IgCIIgCIIgCAouBEEQBEEQBEEQBAUXgiAIgiAIgiAICi4EQRAEQRAEQRAUXAiCIAiCIAiCIAgKLgRBEARBEARBEBRcCIIgCIIgCIIgKLgQBEEQBEEQBEEQFFwIgiAIgiAIgiAouBAEQRAEQRAEQVBwIQiCIAiCIAiCICi4EARBEARBEARBUHAhCIIgCIIgCIKg4EIQBEEQBEEQBEFQcCEIgiAIgiAIgqDgQhAEQRAEQRAEQcGFIAiCIAiCIAiCoOBCEARBEARBEARBwYUgCIIgCIIgCIKCC0EQBEEQBEEQBEHBhSAIgiAIgiAIgoILQRAEQRAEQRAEBReCIAiCIAiCIAiCggtBEARBEARBEAQFF4IgCIIgCIIgCAouBEEQBEEQBEEQBAUXgiAIgiAIgiAICi4EQRAEQRAEQRAUXAiCIAiCIAiCIAgKLgRBEARBEARBEBRcCIIgCIIgCIIgKLgQBEEQBEEQBEEQFFwIgiAIgiAIgiAouBAEQRAEQRAEQVBwIQiCIAiCIAiCIN1IcH3/8zvizvfeDZ6cXp5Tvfz4wWuIJ3heIAiCIEgvFFwkCKhvaYSvzfUO6tqod/u7TuV/9Sr3rTdAnc7f9SqvzQzsj69u/AaVX79CZXXvpKqmFhqamvAENUlrayt8/fat1x4/5Nz5UlcLX5vqNM5Db89nq64RdQyvrU7hf8aeq8bBt+YGaHEcG3iOIAiCIEgvElyNLc1wreIZbCqTYGNZAWx82obS7/KfZSr/k/9f7TYlnur8VLu/2v/UXksZ223r7pyFFfv3w/LNu9XJ3w3L8ne1/b0LlqncZ3nbfZYxbcf9frLb850o/k/29zL5ffPVn1P+9zK3n2t3HYSr9x9gcGiStxWfYceRUxqfnQnyO2nfluoxJTs21I8XFvQf4/6+6N8798Lqi8dhw+Pz+ud8mYHrg5nHlln4WC+eI99xjT359hZ8rK/GcwRBEARBepPgam5tAan8AYy+shb6Fy6EfpLowPGT/F4o0r85x+9cYfttrnCS9t9siKr/4wqt3R4TjvcQfSoXwudOhr5xidB3UIJl2CzcFhO81u2C6muKGJ4COWvz4UX5BywvNAgRqbv/OAf2cZNU9r9g/eepej/B4u0zbC8uAULTMyBqV47sWhJIiD7dPieJis8VX7yCCq9PDV/xPEEQBEGQ3tbD9aWpFlY8OgUDLyxpEzmiRwDREURInmKI81vw4vk3q4AydDuhQISonXMgNCmNMVAV2O/Dm3y86cBdUPhb+7EhsYkQnzoNjkhF0NjcjCeqgb6t0tcvIWXuIgjxRqzz5sWZzeUxgm8EndaxMzIZIpZOB+5snrFzXfN/onXntqHnFlW3zbq4RLYdU7QIsm7thBsVz6HlO2aNEQRBEKTXCa7vDm5UPIOUa/ltAYUsyGj7XUlwudxHRwhxbgELeyZM9CJzpiIaGbNx3B95EL5wGvQdnGhI2HQGvIJCICxYlL0S2ANoXkHUMQT04UNSYNLC5XD/+XNs+GekrrEBNh85DuHDUsx/bryKSHbcbuMFi7OggoH7CG6/K9w3PhHCJk+E6P1zLVlg6Wfhog4nu6aoLhbJnp+TGAQf4+scXLwC9ry8THu48DxBEARBkF7qUtj6vRW2PSuC+IsrPEUXo6gynWmyCh9sP/rwPAibNAH6xloQ1FoeLJvJYgiGHm8fMwk2Hz4O1d9q8WTVK89taYGLd+9C3ITpBgSMyc+Mt+JYsBjHORIyPhUiN2QHaClh19C/aBHk3j8ML2o/4XmCIAiCIL1ZcBHefKuAybd2gt0RIDCX9PgDyc+Pl2XgyIp75JoZEDIq2XfCiLemlEu/PNF4MB4Snwijp+bAlfv3ab8fnrDqlH+phAWbtrmKc97HPXm8n3r+WBiSBOE5WcAdn892zrHeR3K7v+T2WKPPJSlso1DlNguuO6Mur4XzH+5jLySCIAiCoOBy9p+cfX+Hlr94BCZSAGWy/Cr2ROBO5kLYtEm0XMq/WYMuzFbIiB6RDrmbtkJlDTb7q0Es9E9fKYF+4yf2kmPE83lDU9Ihasds7zPhPYhBF5fCktITUNFYg+cJgiAIgqDgclLdVAfZd/fBgDYDDW+yROZ7LALDbUz+XqK2z4GQ0ckBIYA0DRN8ULZIzB/iUqfB6ZISXKVX4UNFJaTkLqJmIz7NQAUqw5IgPG+KMaMMSSXjZHSRR0vgSSrbN2K6IZm7ZhDX1/RrW+Hypyd43iAIgiAICi7XLFfxp8cw+vI62nvQ0TxupIdLUg5UuEJ/iDDflB1SA405WRoGGkIXZyqEDrMFG2/96wgfmgLpC5ZCTX09nrRu1Dr2yb6C8xA+PLXrs1B8F2S9YhMgNCMDovbN9ZtbaXdgaPFKyC8rgMpG7H9EEARBEBRcbpAAYc3js3RujIdhhqQvrKzLevkuyDLTkxZ9YB6ECqltPTqC4T4YZ/ZJsK6fhheMBfa8d/b2/cZMgJ1/nMPVehlk5lbZmzcwevpcBsEjeJH1Eqzv0eITLDH3CBmTAhHLptNFiZ4moMwu+MQULYYZt/fBg6o3aAOPIAiCICi4lBwLv8N9R6CQeXOnZ2mhDzJKXAA5HXIdA58VnvN8Hg0sQ0YEemmhYKHhhuBSWijMXACP377BE7ctG/ypqgqW7twNEWo28LwV89asHZpts7LMcUgihM3MhOjD8xXPJU6rjE/NuKJQ43bWhR7JYLmgVtmhon28dinh+Csb4OibG1CLNvAIgiAIgoJLjZrmetj36gp12Oovz3KpzaaRfONoaGz+lsjuUmbWJv7QPAjNmuhZWsgLXji+CW2PFwzcV6Ffi7feMtz9ObhRGbB89z6obcDSwrrGRii8eQtGZs7x7N0yVeIn+L4MUS3DxQvGjxdSSpiUBpEbZ0G/c3n+66kM5NJkB7EXl8Gi0uPwvOYjXbzCLzkEQRAEQcGlkuVqhSdf38O8+4eBv7C0c3Cw5LtgiOsOJUbnRIhcOxNCxqWCLTbBz705CsOTeYsyX2qZF76zrIw8NxEWo6bk0HlTvXkYMiklfP7ecX6s3wyRw9K6p9EF700WzXEsDE+C8PlTIProfJ9lngPjmiAyvw7S95p8fTNI5aU45BhBEARBUHAxrOA3N8KJtzdBuLrRmeUyWrpjUbBjdXkhZzqD1pblOjIfwmdlQd+hSaoBq83q0i0LS8p0hRiv9P/O+0QOT4MFm7ZCeVVlrzbKOCwVwZCMGa7ZrYB3JRSseUxcIoSmZ0DUttnQ77wYGG6iASDiBl1cBhvKCuB93RfsdUQQBEEQFFwMPSp/OochL3t4kgYSquYZFg4c9rB6lrp2ZVvxdkeAGZU/C0KT0xyBp6+zEIL3PTq80ra8KC+MTYDY1Klw5kpJrxyG3NzSAvefP4dpS1dD2JAkPwlpJcMNVpMUwXKr+pARSRCxZBqdUcciqjipCxZkusBcJ+PGdrhR+RyaWpvxyw1BEARBUHAxlk59b6U28anXtyhnuWipobJ44oyKMIkhSNNpmOckMwJQ7PwpMWyTvLeTCyBiwRRaVqWXEWgXQFSw8AmdMGUeBMvKxbx7nOAxm2uKQ3C8+PC+163kf6mpgS1HjoN9/KSAGU6t+rnx3vYXKjwmLgHCJk+EaGIDXyCqz8VSyX5zrIsvbXCSgSy3pGGG0X5Nkhhem4n5XGRR6sCrq3SWIX6xIQiCIAgKLkN8ba6HzWWFEF+83JLZVpwfs1KcoddobDU7ancOhE6c4Mxy8exW2jZ/ZMAUbrd5VUomeGwzalQ67Dp9lpbX9abereI7d0GYkeuFgBGsFclWCTPG4yBkTDJEbMh2tYGXvDuXujy7JRN1nIkMl71oEcy8uw+e15RjKSGCIAiCoOAyR2n1W8i6ucsRWCz2gUW76F2pj8RWtmS10CMBZ8SKGRAyOtmv/TU20wG6YOL5tN3rxs2cD6UvXvSaIPNj1RdYtGWn+pBjPqF7GmiwZuriEiFsVhZEH5sfYIY2ovXmPQaub6OvrIVTb29DXUsjfqkhCIIgCAouc9S3NMGel1dg1JV2m3gfBk8S46BUybXsj9O8v2i9UJSIgcY8CJsyEfrGJ/qmxM/rIF4wXvbGs2fFQockw8o9+3tFlquhqQkKrt+A+PTp1vdsdROhFpKQBpGbZyuXEvr4GmDtNkXLnpPMKlzy8AS8qv1E+17xSw1BEARBUHCZNtAoqymHefcPwcCipcaDJamt38sl0PGze1l7P4ikXEpkCkfgGbkum9rEe9q3yw0s2kryeFZhxVCa2D6PizlToWyaYeO1yh8FDaHgFHMDkibDnbKn0NzSc40CSAbv2bt3kLMuH0LikzQMLQRXkcvrmZsIDJb9JgQ5z2q84Wn/r/qahiRCeO4UiO4wynAbFm7VOS2xZKTNPU9nFlxk3Kb29YosPhEb+AsfH9FFKfxCQxAEQRAUXF7bxJ9+dxsSr+V7ZrnahAvHEKQw91t5aTnPtRl6yEUe54MyJe5ELoTPyqQBqUegyus4CCoJoI4A2Ji7nE3LWZBX+5+g4GLoKQxtWuWIsQLM3bQFKqqre2xpIRn0fLigCAYlT1Hen7yB0jw+wVOMKw5Jdv0cXISxiYyYoTEF7gOSyZDjjAyI2jmn0wZeEq0t15XU5/K1Z6yNuB1yfnAljL2wHDY8LYCP9dXYu4UgCIIgKLisyXKR+TKrHp+F+OIVyuLEi8Z5/WDHm1V0UXW1W+l5ORZnMqkzy0XmEYWmpdPA1D9lguomGTbeeG+W+mPYyhFjxmXC2ZKrUNfQ84a9Ehv4m4+fQPqCpRA6OMlN3LLuR4MGKLwVroLejQGQPz5kZDJELJ8O3JkF+iV4kkUlgi7np6juZCqxuZWqndOcywKNqLCA5FmiTF4TMcqYfGsn3P3yCpp64XgEBEEQBEHB5SMaW5rh6uenkHVzJ8TIDTS0+qf07NjVTC8k7eyYankiU8AnmspsqVndc6fzIGLRNOg7KlmlpNBo4Cx0ZqC0xJV7No03WZrm9jibwSA9JD4RMvKWwuPXr6lA6UmlhOVfKmH9gcNgHzvJtAhyzU5p2LTzOo/10jhFu3xU6TUJtD8xbNokiD44T30MRLsokozN3dLstZSdcx127u5ZcZcMtgi+GXqsvN2hl1bBgdcl8K2lAb/IEARBEAQFl7VUNNbAzhfFNOAwtIJtZHaWZGKIqqRSiqhlT29Vcz7Jcu3JgdAsBgMNtV4p3vv+HZvRmUuGSuEEnSzXJNh24hRU1db0mPKqhqZGKLx5C4TsBVRUepqKeIpfpiwX731W02amr0tF2Nk0npP0J0auzwbunM48LElkX7xwL0eWRH1hJnlfBshJ1vSNksWmnHsH4WXtJ2j93opfZAiCIAiCgstayDDkB9VvIPvuftUsl96sG8Usl2ShW5lKYMUZGZRskOgzeRCxagaEjE1RKTkTvAzAVcwZeIUsCW9GPAnGXod7lisuEZLnLISS0lJobO7+BhpENL75+BHETduh3+gJzJkh2yCr7PoFg6JNsN75cHAihM0mNvC5vnUm9fPcLUPDlxX+N6R4JUjlD6CxtRm/xBAEQRAEBZdvIGU0J97ekmW5RNOlO8olQaJOWaGoneFSWQH3WA2XrHVBJGVXYTMyaaBqvndGJahX7PHx7CFi7iPi27IxctMM3lkGqb0NQTV7QoYhr9lzED5VVXX7LFd9YyMcu1gMwyfNgpDYRPPlehplgvLPS/mzE8wJN95TYNt0xaLnc4WMT4WonTnAnRcVzx+ORQwZOYcLRZcyQs7jWsJYPsg8k0801Vcqlh6FL03f4PufaJSBIAiCICi4fGag8Z2W0+TdP2JycLFS0zqj2YVi35bI2IMlqgozrdfKMTyGvi5HYBqVP6vDJt7m0RslmCrZsykG9oJrjxivYfnOM5S7tQsuBftwZQt65dc4YspsOH/9OjQ2dW+bbJLdmrZkDYQNSdb+DM04BrpYx2tbyNt4hYwXrz6QWs2N0KbZQyYoDjkOF6d2GGV0mMwwluVxhaLH+c06VJj5OWQ9ZZzO0GJOqY9TUlu0Edu25/ke4i6ugIfVb6EVXQkRBEEQBAWXP0quSj49hdFX1lkw1FTUXB3nNLJYnLRQ0ZJeHrRpGXkY7+sQNVfBqU183pTOXi55CSCv7TJoM5rN4JUzWzZd8wXBY2aYa9AuqAsyHfc7Ulo4f+1meFX+oduelC2trbDm4EHoP36SbD+xzk7TKA/kO7djU+zLEpQFEK/kRqmWCWUQ9wwlkKEJaRDtOJZdzg+Nc4pzmbMnmp5t5XGbJMoyX6J+Bl13cLqo+D+l64D7uU2cCbc8K4S6lkb88kIQBEEQFFz+gZTVbCyTgL+w1LRphpUlfV3bY9IZIEbtzYHQ1AxDphNdh2DB/V37v7hxE2D/uYJum+W69+I5jJs6n30/8Ub2o2BwvxsxQrHoGBucCJHrZnaUEiJO0q9vgVe1n/CLC0EQBEFQcPk3y3X7y0vIurXTmuGnPQIRuD/y6NyikGFJXgW+tkFCgIsvdZLnLoQnr193u16uL99qYenOvRA+LKVrBDDf9SI8bMokiD6Zq+se6OJOKPl44UTq2gUZMnvw2Nsb0NDShF9cCIIgCIKCy79UN32Dfa+uwNDiVT7PHHUHwcW1zQiLPjDXEbhOZB+GHPCZLWOPJYKF2MRX1nztNscy6cs5d+06jJo8JwA+m67JiIaMSoGoLbMxuyWjf9EimHf/MLz5VolfWgiCIAiCgqtr+l2efv0A8+4d6rCJ56QuKhW0yFqeeTaYlonGH3kQuXYmtYn3TSZE8HmWyrUHzPhjxs/MheulD7vNMOQX5R8gZ20+RA5LC9DMleBb4R3nEMpzJ0P0qVz2417SOcekhcyOooqDkyXfOIqyzg7s7/g5pmQ9nPtwD5paW/BLC0EQBEFQcHWdTfypd7dh7JX1xuybDQooZxO7F66IklI2ytqMGiebLRZ9ZD6EzcpiG4bMGx82rN8XJhjqA7LxBgYqMwTyUSPTYcn2XfDmU+D3vZDZYUelIohLncZgAy94IYrNDEYW1B0LWR7PM/wemwChiWkQtWMOcAWY3Wpn4IWlsOThSTrwHb+wEARBEAQFV5f2cpXXV8HyR6fYDDQKvbCFlhZaOgCVMzE7jJlzeRC1dTaEpqTTgNbwfCszJWe8n8vXNJ6PCJdhE2bCiYvFUNtQH9DH792yMkjPXQJhg5MDpt/KpjqMWtAYmGzStGNYEkQsnkaP2e5Q6svpzuqzppQw7fpWuFX5otvPlUMQBEEQFFw9gKbWZrhe8QxSrm+mZTiB4RjoQzHFMuiZZLlO5kLEwqkQMjyZLRMin6fFCz4sXfNPj1DE8FSYvnwtPHzxkpafBuKxW1VbCxsPHgH7uEl+K7cMqH69uEQInTiB9h12twwUV+g7wRV/cQVsf3YB6tEoA0EQBEFQcAVEluDP71DV9A22PSuyJMtlWb+XpCKIJIv7yFT6Toj5ALWJn5hBe2QCOzD3gQmDI5iPS5kK24+fhqqa2oDsQbz6oBTGTZ8PYYOTeoipicHPaHQyRK6eQQd36x77UgCOdvDBayIztzJv7oTnNR/xiwpBEARBUHAFUvDaAmU15ZB+Y1vXzcWSLM5SWbEKfyYPIlbNgJARyb1OcFGb8SFJkD5vCVwLQAON6tpaWJC/DaJHpgeUCPIb8YkQNm0SRB/PDeD5eKJF92EsJXQwpHgltYFvRqMMBEEQBEHBFWjUtTTCUUegMlApyyX5KDCTrJvro9Q/xkleOiM6tkkMNEKnTvQ6y2HryuCcF0yXMNrHToRVu/dDZU1gmQ+cu3EdYlOmKhhlWGDNzgeGSNOa50ayW1FbZilnaJUWIiSLhJakcF5JOo6hks7j3R0IJY37aTznwKIlMPveAfhQX4VfUgiCIAiCgiswSwvf1X2B6bf3dooXH2S7VI01pK7tI1HrKeHO5UHkltnQd3hSm3ARvDBe0HOrE3yTqeHdX6/A/lodgmbMlLlQcPNmwByrNQ11kJ63tK2UUP/zsPFmzClY95eB//HeiD/ZtoYkQlh2JvT7I6+b9l2JpoSf1vMTo4zxJRugoPwBtHxvxS8pBEEQBEHBFbgGGsUfH8PIy2u8K/NTElXkNsmHQZrkm6CRrLKT0sKwuVkew5D1TRcEC4wytFztBL+U04UPTYHsVRvhbUVFlx+jpFRs1/lzjKWE/urHErSPBSvNOeISqHtm9J65PhdJXKD1fGlsa0jxClj/5BxUNtbiFxSCIAiCoOAK5CzXn1DRUAOrnpyBmAtLujYTJXkfrHESo1GGpD2slQjIqN05EJLg58G6vLclaG2ZET5Bw6acbdvEQONQYRE0NHWt89vjN69BmLWAmnp4vY/57tLb1fk6Q0YmQ8SSadDvD9HYOSNZXFqodb4ZMauRTGzDbQAyuVZl3doJNytfYHYLQRAEQVBwdQcDjVZqE596bbPxoEtSy0yJlgZ4nF/Kp1zfA3dmAYQvngYhQ5P852DHJ3g5s8k6ERg6OBmmLlkND1503Wyj2vp6WLv/EHCjMnqliUnfwYkQljURovfP89PCR/cYpDzi8hrY9aKYuq3ilxOCIAiCoODqFlQ31cHmskKILV5uUd9W12S4rFzBp1mufXMhbMIEj9JCY5kTQSUzJfhoIK912x2YkAVbj52E6m/+D2yJyLvy4D6MnjrXWHbLTOaQ93Hm0gyOYy5kXApErJ4BXHvvltQN3EQlL7bBcD9i8pNz7yCUVr+FVhxyjCAIgiAouLpNaaEjcHngCGBImQ5pRvdZFkne6yUxOJxpbEfVjMOS3hXntkmg62oTL3S4D3o/RFfwwujBB6KL9xzoTEwqUnIWwZX7D/w6DJkcjxVfq2Hxlp0QPizV8mHGNqUB1rw1+9LGe5GVlD92aBI1yog+PE+nV9KirLDbtjkfiztOMvcax5ZsgGNvbsC35gb8YkIQBEEQFFzdzUCjBQ68vgpDL62ybDVcy7pdv7lfZLO/tqhUSm27xCY+bOok6MuUZRFcA2/e19kSQTHI7/ibZxMG7Rk3T7EgQP8xE2HVrv3wseqL347FxqYmOHv1KsSlT5P1qQmGnCD1hQ+rAYngRQmpYE4sk+xWUhpEbsoGrkD0TYZZMlpGaO5+Wue50YUTkt1a8vAEvKr9TF1W8YsJQRAEQVBwdTs+1lfD3PuHaFM6x9yv5YUwU2ygF81lpiS1cibR4OsQ2x7T+bjIzbMhZFyqxX1TQmdGgzEr0ikiBBOGESaEguMxpJxv2KRsOHOlBBqaGv2S3Xr+/j1MX75Wu5ST942RiY2pdFRgF2O8YGjeFjXKGJEE4eJU4E4t0D/mXY5ZNxMKpjJdsUMUcVrnB6u5hTeLNZL66yZDjlOvb4Ern592WU8hgiAIgiAouCzhwqdHMOrKWhrgGJqr5YOmfM7gCr7qarpKhowrZAhOyf2IgUbOZDoPyVcW5DYjDnq8ymN47Z4yQ88he31Rw1Mhe9V6eFVe7vNglxhl7PvjPESPybBUXOnZuNt4z/vYjG5Pbb/LSlF1RbtDZIZOnEBdMr0SMRLD4oIkX5AQFc+h9vOdYyxXVJ1vp1VGzPAe4oqXw8an52m/KX4hIQiCIAgKrm4N6Y1Y/PA4DCxaGjiN+D51JGQjas9cCElM651ueQ4RMChpCuw/L/nUJp6IuSevnTbwfjepsNT633z2k/QLRiyfTgdw+80UQwpQd8K264S9aBFk3toJd768wi8jBEEQBEHB1TO4V/UaxpdsgH5FrCVJPjDVMFu2KJnPuHFar+O8COELpylmuYwbXggWZGws2IZS75lc0MhEDTHQSJojwssPH3yX3WqohzUHD0PI4CQTwkbQnVVmM/xZGOjJ4gUVR0oDx0FcgtMG/sh8lRJCMbAcCf20fWIDv/vlJahtacQvIwRBEARBwdUzqHMENvllBRB/cbmKOBGZHM84Tbt3UVsEyf7PmeoVE91KqUSNXhiRydY6+sQCZ5YrNsFgIM6YpfEoEfROxNl0RJpWL5GSoIselQErDxzwiWMh2eajV69gYOpU431XvLowcjHdUNufvhyIzLOXJYaMTYVIYgNfIMrMZTTKaSU210FO79yTLDLkkNTvo3Yt0CpRJud9TNFiyLl/CMpqyrF3C0EQBEFQcPUgm3gHz2s/QtbNHTTg8ccwYuUgTfR+tZzFZp6aDrBtL5LYxA9PsmDIseCle55eT5K+WYNNUZioPyYkNhGGps+Ah6+tL+0iLoizN21yztziVd7TICN27grvy6RzpI3X3zdef9ZkyPGsLIeoz3U1vjDqQChZl33iLJqNp3geM2yD9JEmXtsEp9/dgbpmzG4hCIIgCAquHkZ9SxOcencbRl1Z5wh8OhvrmUwzVG3cO8sPOa2VedNiivGxspV4TjJic7+QOsdRm/jBibpBenugbnO3i2cUTjatUjleKWMjdIgtRZHAq5dCspYohg1Jguy1G+BbQ711fYMNDXC6pAQGjs8y1J/FYv1u4133lapI4gWGz0MwkdUSOjNZMrMTm3y/E6OM1AyI3DaHlq5qDg+WGMwxWI9vK4YWS0YWP0RD/WPEKGP1k7NQXl+FX0IIgiAIgoKrZ/LmWyUsKj0Og1xKCw0EZJIF/R1WlDtJOvbTRl5ngQhRW2dDiJCqbVveZQg+N5SIS5kKxy9ftqTEi5QSPnnzBiYuXAEh8Uk+NrMITJONkJHJELFoKnCnFxg7DyQGEaRmtS5p2LJb3ZslaS9iKD2GGGVMvLEdrlWUQWNrM34JIQiCIAgKrp4JGYZ84eMjSLm+Bfo7AiCfNtZLXeOAZqr88VQuhOdOhr7DknqoM6F2Jid0cBJMXrwKXn4s9/oYq66tha3HT0HM+Ek9YF8JxktL4xMhLHMiRO3JoWLed06ELAJO1BRHlp93kgqO/8UXr4CdL4qhsrEWv4AQBEEQBAVXz+ZzQw1sIAYajgAoECzdmeeBSQZ7XwwFjSJE7ZwDoekZ0DcusctcBn1tAKFVQtdv7ETYe/YcNDWbzz40Oh57tbQUUnIWOnu3eopgNZBJCxmTQvsCyaw3UxlXlmyvZDALxTKc2IoFDLUhx0WLYOadfVBa/RZavrfiFxCCIAiCoODq2bR+/w43K55D1s2dnVkuX668MwdyCnb0klWliKJubxd3Jg8ilkyj5WD+Lmuz+cthTyur4xBIiTl58ODlC9PGLBVV1bBm9wGIGpUekGLI+DYFY89BslszMiH64DznAoKk4UIoeTFzTtJ3ETRUtih5d+5yOvclizukf5TMBMQvHwRBEARBwdVrDDT2vyqBIcUrld3MlDJK8gDPsK27vvmFmm02k7iTGLJhett3/D/6wDwImzKJBs6mBBNvhWjw1tVQYN8O32llTt5D+LBUWH/wCFR/+2Yqu3W25CoMz5zVYeBh49Ut0z2t4FlL/PTFlk3vcSz7k9d6TcqPJ32AkVtmAXdO1BQlLNlZpvu0LxZIBsSaib4sl3OHRTTKxkj0L1wEYulReFdX2ats4Ftbv9N+xlYK2t8bWrxxHCdknzU7rinNzS3Q0tKCIwQQBEFQcHVPXn/7DHPu7le1iTc0E4vFfY1lhd1oBqu9R0ViDDL1yqcKRIhcnw0h41P9XzqoV07IW9ezpcWgtGlw9X6p4dlcz9+9g9mrNtJ+MKuGQQesOYbSMeAQ6eHiVOBO5LIbWxg5D9SMM7y1jZc8FyUURZVkzlBnXMkGuPz5CTR/b+kVQqG+oRE+fq6ER2Uv4Na9R3D5+h14+vwV1NR+Q9HAKFQrq6rhwaMyOH6uCI6dkaD46i149uINfK2ppeIL9xOCIAgKrm4D6aU49fY2DYh85khoVSO+kWGxkne22GQYcvicLF2beCvETSDgLiBDHMJhzrp8qKj+yhwg1jU2wKGCQrAnZPphELEQkGIsNDWdGmVwBaJ6uZ7kmQniWBcYlASR1rkhMZhb6CySGO4bc2PQxWWw8WkBfGr42rOvpQ4RUPmlGkofP4MjpwtAXJUPk2YvhpSpC2BsxmyYMnc5bNt3DB49fYHCS6vyor4BSp88gy27D8PEWYuAHzsB7CMzYFTaTJg+fwXk7zoEV27cgY+fKqCpCZ0uEQRBUHB1E97XfYElD09AbPHygDDO8DtKAWXBQojaPgdCE1N9LrRsfGCKtX7jJsK56zeYDDRI8Pjw5UuYIC5TN8rgu5dro2Eb+OHJtP+PO5tnjQmFxFg2K/nQ2VPybuRCf8f9SJ/ojYpn1B21p/bDVn+thet3HsDqzXsgISsHQmPHw/9FD4V/hQ+Gf4YNhr+HxsG/I4aAbeBYSJ2WC8fPFtHHoOhyE1sNjXDhyg0qtEL48Y79NwR+sg2EH38fCH8PiYX/RA6B3+yjYHDCZFi0ZqvjvjehqroG9yOCIAgKru5hE1/88RGk39jaYaDBsQ459QrRvOOgbqApqpQTiszbJoFz+PzJ0Hd4UpcF8Z7izHfCxd29kAinjLxl8O7zZ9qDonUMVdZ8hW3HT0O/MRPUTSf8LY54E48zu29jEyBs8kSI3jeXKWtkWGwxCDh3h09WEw1OYpyppSD2NB/r+H3YpVWw58UlagP/vYeWD75+Vw7b9x8HITMHfo8ZQ4XBD7/GwF8cBAU7f7bzw28xDgEWDyPTZkJxyS1obGrCL2JZGSEpIUydtsAhTofCj30GQNCvrvvvL7/a6b79ycbDL/1G0qzXjgMn4N2Hj9gjhyAIgoIrwIMGB5/qv0L+0wIYSgw0dMv0RHYxJmu0JwEhpbD9J4MdvKQRFEr6wSFX6EWvGDHQ2JUDoRnEJt76YF2e2dLNcvHqpg4ez83rzI3iGfqS2u4TPTID9p4vgG8N9arHT3NLC5TcfwCJ2QvoflJ+X2omHkLn86ruA4H9vfkxw0UEartIJTbwEatnOLNbHseazCxGfpxLBk0tGHoVXc4nLeEnGegZ0zi/tUohSV/o7LsH4FH1O2juodmt8k8VsHbrPogcnAQ/2xxC67cBTmHQLrSC3QWDk/9EDoXFa7bCp4pKzM7ISglJyeX/ood37kcViJAl9/nZIW7tI9Mhf/dhmunC/YggCIKCK6AhAdG9L69g5t19MPDCEuNzfLw1AzBa9iRpBKoa/+NYt9su2BwBdOSK6RAyNsUz0+TLmVm8FY/3/nWQLNf4mblwp6yMCiulFf5X5eWweNsu4Eamd9H7Fnza12bT2/7gRAibnQXRR+bTUlRLsltqvVoS+znBGemLlAz2e+ktsjgYU7IeTrfZwH//s2eJCpLx/fatDo6cOg9hcYJMINjdMlt2BcFgp4yZkA237j1EA4g2PldWQfLUBfC3voMgiOyjYHvn/gu2K+xD58+/2ngYMDoDzkiXqKMh7ksEQRAUXAHN1+Z6OPLmBg2U+hsJ4liNLcz2krSX+LlkClTKqlhfq0aA624SQOYphc/IhJAhicozs5iCf0FfYGgINVWBx6uLPrUMms2g4QTJci3fvQ8+VVV5rMbX1tfD8QvFMCJzlkOcdcHMLd5EH5zWfY2K5dgECE1Oh8gts4E7l+eZwZI0rOAlg32FJo1qOKWMr2LGWFTOLLtnoSXX7SidZ3zRUlj68CTtD23tgRkcUgpIHAhn5K2EH/soZGGC7SoioVMohMcLcPS0RDM7+P3zJ9wpfQxhjn3yQ58BHsIqqEN02WVZLntHySHpj5uxYBV8rfmG+xJBuoPJEFm0qquHL9VfqdlQO1+qvkKdI64w6pCMoODqds3fz2rLYWHpMRh0YZnxQawWwGm4CnJqhgGSqOj8ZoVxAHlO7o88p018YhoNsP1nCCF4tX3X+Veykj7eWJaHZLlGTZkLBTduQF1Dg8sq/6OXr2DWyg0QNSJN+7V2ZNz0xZ7NTSwyGYzwvu2fUxPYIcOSIDxvCrWB53SOOebFB8ni7LDGooTRbLR7GbDSeyaLNQnXNkHJ5zJobO2ZGQfiMlh46TqMnzRHteRNqySO8K+IwbB84074VPEFy9od3z2kD44IJyqk2vZfu6AK6sh0Ke/LH/vwEC9MhjfvyvG7HEECXGiR8t+HT5/D4VMFsCp/NyxcvQUWr91Kfy7bsAOOnS2E+w+f0hEQ2JuJgqvHQsp/CsrvQ9LV/M4sV6C4CEo+sJ5nfH5SLhY+dzL0HZakLhZ4K00rhABy6xMgcnga5G7YAi/ev+8w0Pj67RvsOnUW4tOmQ0hsIvOQ5cCYoWVBiSLJbqVnQNTuHOh3XjRWvqc1rJjFiVBrsYGhVLaflQskCr1b+WWFUNVU1+NKCTuqARyBwMWSm5A4eZ5G6aA2xBSCGESQwKO393GRUsC0mSItD+wQrMHuWUHn30EK+/qH3wbCoHGZ8PbDR/weR5AAXVRpaGyEZy/fwJ7DpyB9Rh5ED02B4P6j4P+ih8F/CVHD4H/9hkP/Een02rj/2Fl4+eYdNDaiuRAKrh5poPEd3tVVwron52DAhcXM/VRcodglYowrtMB+myUr4Aioo7bOhtC0dMUsl40lWOetcQ/smhldAgxOnwGHpSJaRkhE1+0nT2DigqUQPiRZ9X3aDJT32eSuhrxV+0bwSoSS12RTNPwQqPiOWDEduDN5hkcPcEZEjGavlshgtmHkfDJwHqtk9Eh2q6ymnM7467GrtC0t8OZ9OeQu3+QQTgNdsjEumS6XErjOUrj2bA0JOAqKrzq217vLZ0iWL3TQeFlJZoxK75Zy9vAfofHUSp5kHvF7HEECD1ImePNuKb1mRg1NpqMyFBej2s558n/7iDTIW5kPdx48pmIN9yMKrh5ooNEKNytfQPK1fJ9ZwHsGgWLHij9XqLHyL5kobZS0rLSV+7c4pSD55AKIWDzNmeXS6rcyGOSz3J+pR4lnLIXj9cvmlERGaHwSTF+2Fh6+egVVtTWwcs9+sI+baG3miDfxP83eN8Fnxh2hEydA9NH5rmV1EuPgbZbMraTSX6XSY+W5CNJ5LqmORpAMmNQw9HMOvLAYDrwugYaWnr8iSYbuHj51ns6FcmZelEwdtPl7aCxs2XuU9jL05u+cy9fvtAVgstLB9tJCd4GlILiC+42EDTsOYFCGIAF6rbx59yFkzVkCv0QPp9l9tXNZXkb8428x8J+IoZA5ZzEdGYEGQyi4eiS1zQ2w5+VliC9e4RFYafWicAaHqjJZwxvpFdM1IhC1e8L0SgsPzKPzltQDc8F0JsamNrdKMQtkpu/I+0xZ1JgMyD98DI5fugSjsnLMlysy91wJ5kWU6Tlggv7zDU+GyK2zaeZTMeMqeWkOU6ix8MDcqygymNqIxs1tVAxqyJDjmXf2wcf6r73K6GFk2nSGPi67gnGGkwnZC+ksr95carRgVT4dcNye/ev4+avaT3lp5kCIGZ0B128/wH4PBAlAHj19AZmzF8Pfw+Jk57iryAqSOZIGuWW2iQvs9NyV8PrtBzzHUXD1TB5/fQ/Zd/d3DEPWnMFlphzQyyHK5kqotGeF6W2fONFFrsuGviOT/V4SaON91aslGHrM2GnzYOT0HAgfmmLwuQWN7Qum3yMt++OVzTjYt2dgJlpsAoTPzPScuVVoYjyCZHLxwAuzGq5QtKwEVz5uYVjxaigsL+2xRhlKfPxcCXMWr3N11tMyzFD4H5kjRezhe2sfF3EmG540lXl/tWe/2v/+Z+hgKlrfYf8WggQcDQ2NsHHHQfi1/yjV8kHl89xVdP2PGwGHTp2n/bO4X1Fw9TwDjZZGOPrmBoy+ss41O2TUaU2ywOlQMp7Z4jqyWKKlpZGkjCxsRib0jU+0VgDxxsvbbF3Q0xUyOAlC4pN8MyPLbfCypWWAvDXCN2R8KkTtnANcgWjZsd/PC+dAs66HnIU9jgOKllAb+E8NX3vVNbLeEUzQYb39huuUD9pV/yYlM0d6sT18yc27YBs4tk1IxSj2wwV5WMF37r/fHIHc+m37MRBDkADkxau3kJg118NxNEhzYUU+VsP588ffBsCk2Qup6QYOi0fB1SNt4l/WfoIlD0+4DEP2qqzPj2YanNbAY29euyPQjtyYDSEJqX50zmsXDEJguPwZeg8C+H3ws9Y2vdm2Q2RHLJzGZpRh5bngL4dOEwsb/YoWQfK1zXD1c1mPNspQvEa2tlJ7+NhxmbLhxzGGs115q/Lh4+eK3vcd0/odtu49Su3gPeZu/arc3yEXXD/0GUiHHp+/WEL7RPB7G0ECiwtXbkLk4CRFIyEWnIss5DEDgBuWAleu38EB5yi4eugKbksjLRMiAVX/Qtf+Er8He0bs480OP2Y0Dog+ngvh8ydD3yFJyqVovLeZL8FCW3fWzE9XiDkDGa2utpQnNvBp6RC1b65q75ThvkAjGWCFocrmSnkVDDskY2MY5IOPB11cBhufFkBNc+8zfiArrWTFdfLcpfBX20D9LJesTEYuKkamzYCHT3qXPTx5r8RVkNhDkzlanhktu3JDvWwfEtORlKm5tEcEV70RJPDO8RN/XID/ccN1+lzlfVt2D8HVLtT6DBgDp88X47B4FFw91yaelAmtefoH8BeXGg/sCr1wFZS0e6y0nlOzP0xSC2RFhSyZqFiSSMwSIrfPoXOY3LMntnZbc56lnM3dAl1LtAka5YQCu5EGr9xnZuP1BZFNa/YYb6RPSvt2pT4qmy8yVhrOjO6Do0OGJkHE8um0j89wn2Ch2kKFyCbUZMez0rHN6Z1/kqdQUjPgUDt3OIXXbS9aCJNubod7Va8d14reeY0komH99v3wCzfCzRxDRTS0lc7JBVd4fAIUXrrWq7I0JLtV+rgMBoye4NEkH9S2f+QmGkoW+2R2z5J123B4NIIE6PiMQyfPw38ihypkqjsHnNPrYcc5r1wdQG7/pf9I2HPkNI5/QMHVk23iW+BB9RtHYLXDzUCDsTdEUm/a5xTKAJUfo2N0ISk4r5mduaVlIy9/TWfzINIRgIcYMNAwbwMvaAsod4E3SLCk70vZQEKh94w36C7I+6KEUQCfDYKOS4SwaZOAO5brOjqA4TjxyslT5dziFAYey88FuWhSPXckz/PP6NDkYZdWwcE3V3t1doFYkUsOsUQG73au1GqUzQTbPRrC/xkWD0vX74CPn3pPWSEpC9p37Gybrb5KuVHbvnQVW23lhL8OgNDYBDh6WsJyQgQJUM5duAK/DxjjmtV3X2CRL07Jr48uYyHsdDtke6R3FvctCq4ebKDRQOfrxF1cYcIpzf9DkTmJzcWQ08lUcGolXG1/Rx9ss4mPS/TCCZBdXKi58ekLIJY5V4KXZXyCwZJAg/fnjZmLGHI85FXEcNvtIWNTaN+eqXJAyVh5K6dTyscFQI+kM7u1GHLuHYTPvcwow2MVt7UVHpe9gIyZIvz1d56hL8Huunrr+P0nGw+p03LpdnqDeCXvsfprLeQsXg9/6zuoM+AK7vyp1etBVrvJ4xKycuBu6RP8jkaQAIUMOx40bpLH+RykUl4dpDg83tnDRRxdbzi214zzuFBw9fQvyLffKuicHc5fQZ0U2MYcNAD+Iw8iN2RDyJgU/5hR8D7oZeIDqE8qEBmcCGGzs9iNMgIFH54j/Wl2azUUf3qM10dibV5VDavz98Av3HC2ZnC3chliuBE9NAWk4mvQ2NTzh0aTcsInz17C2AmzO0sGg91nl2lD3B0XrMiH9+Wf8BhEkACl4ksVzF60Bv7WN1bRedS99DooWLnP66ffeZi7dD2e7yi4egdkvs7lT08g9uKyrgsGJY15RlbZZkvGhB8x0AiblSXLcvnY5KK70u3EnPNzChFSIWpPDrv9u6SAN2YXkra9u8+cDCX1XjBilCE+OAp1zVjaQairr4eT5y5C9LBktgyXwu2/9BsJG3cecgQo1b2it6PgYglEDU3S7XlTKskkAjV00HjYd/QsNDY24TGIIIFaOuw410+dv0jdRP9CnVztCuXDSmMzXIeg20ekQ3HJLWjA8x0FV28x0KhuqoM8R6Dlk4HFZge6Mriq9ZNEn2XWiIFG1K4cZ5aLpeeJdcCuKadBvTI7wdBrtHamlWDQTMOIy6FgyZBoj8cNSYTwvKn0M7ZMJAVCJktaaHyGntReSrgIEq9tgttfXuJ1UWYPT5zyxqRnw49kCLKBTE07/wofDLMWroHX78p7hdHIxp0H6Xs2up/oTB7HPh6WPBWu3LiDxx+CBDifPlfC6s274beYUR5CSm6O497b1ZnNHgL5Ow/RMmTcnyi4ek9g8b0V7lS+hFGX15oTUgas15n6VyTl7XKSiayWxJA1ULTPFoE7swDCF01lNHQwaPnuYjYhdK+Mlpr5B++HGV+8BTbwSWl00LVpZ06VxQDVHkO349Bov5bqeSB5IdTcXvuQ4hWw5Vkh1DajNa9LUFHxBcRVm+HfEYMVSgftGlkue0fJzLDkaXD5+p0ebQJB5js+f/UWJmQvhB/6DFA0ywjyWAW3u/RzkMfNyFsJb99/xGMPQbrBghQZgJy3ahP80n8EzVDLRRZ1LFQ498n9/hs1DHJXbIJXb95DS0sr7k8UXL0LEmjtenEJYmTDkA2vlpsZ8qoQzDoNBkRtYWQmO8aQoeDcnBGjj8yHkNQMH2WHLCxT5F0zOjbFgcpqfwt+fl9+LsmUvYeQUSkQuWYmHXTtIX5MiCHNxQRpofGSRZ1zRW6+oW0Hz74YMbBoKe3jfFZTjnOP3I2F6urh2JlCxzE0jq00TkGIhcYKsOvQyR5te0xMRq7ffgD8GCU7eLviPgpycTCLoXN9dhw40Sv63RCkp/RtvvvwCbbsPQrxQib8KyyeOo06nQhdBRcRWv8IiwN+7ETYsf847dtCsYWCq5dmub7Dk6/vYfKtXbR53nhJodK8KxMiydveFdayL4mt7JHMZyIBesiwJGsyOszDkIWuESq82eHMgo/7uYQ2R0cvMl9DEiFsxiSIPpbr09JZb+6v2idmxCHUwHlDRkKMLdkAJ97exN4tlV6F0ifPYHjKdGdZoU7PlmLpTOQQmLtsQ49uDK9zCNO9R87Avx3vVWtfBGncNnD0BLh07TaKfgTpZpmuL1XVUHLjLs1a8WMm0hmEfWJGQ3D/UfQnWXSKF7IgZ8k6uFhyE6q+1qDYQsHVy5vEHQHX0TfXYWjxSt/0qUg6Aaa/HNkMmHG0Z7nIvCZSjoYOf92UuAQITUyDqPxZ0O+86GnXLjGKd8lk/xRL1kpLbEkmzimG+8VeXA6LSo/Dy5qPvXbIsZ6T68fPlZC7fCP81cbrZLOURdhPvw+EcRNnw+37j6ixRE/cT2QfEbexH37zFKWuJYR2jwxXu+AiFvzoVoYg3fM6SYwvyMxBkukmVQHb9h2DTTsPwZY9R+HwqQK48+AxlDv+39DQiIsqKLgQYqDxqvYTzL13CGL0hiF707wvmShVlJR7Zky9DoPijma5Ns6ic5vMW797n4lymmMk9EDXRMH3fWfDkyB8/mTgjue6iR3RdDbUzIBkwxktNddOyUSGze1xdgep17dAYfkDaGjBMi6tssKjjgDiH2HxivbvLPQfkUqH+fbU4Z6Pnj6HIYlTFDNXQQyZrv9EDoXV+bvRnRBBurnwIr2q5JpJSqiJIcbXmlqo/VZHh6Kj0ELBhchoam2Bs+/vwugra9VLCyWLeryMlv+pBqWi62BZyXzZIacSDEefyIXwOVnQNz7R5wJE0+mQ7wqLdkGhP8yi5/SHrXxcIoSmZ0DU9tnO3i2lQdmSF/bqkgUZXi2TF5VtcXriTtJ+3fHFK2D90/PwsaGaLrbg9U/d7vzBozJaJqOc3bJ7ZG887eFHwPKNOx0BSE3PK7t0BFJnCy/TRvjOYcd22U/X4dBB8v93CNI0OF1wCY83BEEQFFy9h8rGWlj68ATwZDaX5GX/lGSunJBjylSJ3pczMj1epIF61I45tCzN8l4oHuds+ZKQUckQsWQacKcXKHzmor6pi2R8jptapovTEVqcxJgZ1nDd9HAxVHj9/R1/T765C25UPKf9m3jd0ymZq6iEjJkLVQSW2m2d4uuvfXlIm74Anr160+P2zdeab7DCISZ/cDPJCPIQWDGKLoU/9BkI4zNz4OGT53isIQiCoODqXdz78gqSr+cbMwOQNESRXBxJ1vdpkdIwjlEIcgpCreM2jSCV+yMPwhdOhb4uBhoqdvE8ozU87/tZXTYD1uuK9+Xd7s8bs2+3qWbvXF0SbSZFrFJGsON9xCVA2NRJEH1grvHjTWLJxIqKDoJOl01RZXFAu4yRs2pGl6Ruaz+keCUcfH0VvqENPFt/a3097Dp0Cn7swzsEhTxbw15WSIaEnr9Q0uPKaj58/AxjMrIVbPN1hkO3uROScsKFq7dAFc7jQRAEQcHV2yA9HdueXYDYi0vZypwkL620jZQDSl64GkpmXBA7g+roA/MgNCODBvKWZrp8lEmy+aw/ytd9V4Il2biQcakQuTYb+p0TtcteJS8XAiS2LBlnsi/MfWGAM2Bl7/7/mKLFMOvufnhRiwYFRnoTbt97BLaB4zSyWmqZL+fP4H4jYe3WfT1qHhdxcSRmIOS9/UVl7pbn/pL97hBd0UNTaFM92sEjCIKg4OqVEAONjOtbIaZwsYHgUzTe4yVZ4Tooep0JYMqknRchYtUMCBmRpC1EeBXr+PasFu8PIwqhd5cXDk6E8OwsNht4icFoRfLSLMaIqYtkkUlNoWcp4fiSDXDs7Q1oam3G65wB3rwvh+Sp8zWyN2olhU6IyyEZDEycunpOOWEt7Dx0En7sM9A1sxWsMxi67b7kceMnzoY7xMGxFW2iEQRBUHD1xmbx761w4NVVGHppVaeBRpu44VyyP6JuAKnWk+VR3icxDpAtNJHRUplhxMl/Sjp9YuS9n8yFsKyJ7FkuNcFiMItjKlvlrTsiH0AZLIOvh/TbRW6epfgZqvUAcpL3pa5kJh1nZPab5KWpjIGs8aCLy2HJw5Pw+ttnvMaZEBckQ/Vz31jG4ceugoNYpseNz4Rb9x72mKwfEY8z81bR9xYkF1PBMcomIh1mGs7byYwyYrlPyhLRwQxBEAQFV+9d1f1WATn3DgB/YYlbf4mo0m8iKgaQHIN5AKchdDj35+gQTqIpYwHXEjCRyRFO/ndk/ixqxuCdG6GSCLOwpI+3TjTZjAoknfvbVJ7DqhJIMqg6fN5kiCZGGS5ZUFFV4HCSAWMWSX0BoaPsj9HUpf1Y5hjLbDus7OWW9pJ6j1n7du1FiyDt+la48PEh2sCbcXBtaobCS9cgZNC4zllSwZ6Oe3JxERTsenufAWPg0MnzPUJc0KHQj8sgXpjc1tfm2r8VRN9/jNvsLdeSw4j4BNh58CR8rf2GxxiCIAgKrt5LY2szSOUPIPHqRrAXLjJR2iRq9kQZXq1XMrgo1BFNEkt/i+iS4eI0+nm4NgONsFlZ0HdIIkMWRjCcqdE0gnAvWeSVDC8ETeHlnOkluG1PUBdNCv+3WTBbrC/v+lq0BZegmfWTG2WETsiAqJ1zoF+BXmZIZJplJe+dYnUS5JjOBeXjS/m41+oBk58TyufXsEurIL9Mgs8NX3HIsQlaW7/Do6cvYOyE2QoGEHKxYVfNfJFM0IKV+T3CHp7M2jl2tgh+6T/STWQplxIGuTgVxsCPvw2EkanT4dqte9Dc3ILHGIIgCAqu3s3nxhpY9/QcxBcv98JF0ICrmkoGwFnK6JYN0AiYOSOZC10nOs/7R+3OgdCUdNfSQjdxYzObpfJm3hbvZdaK17iPqRlhgu8zgLLXFTImBSKWTQfuzALvDV6UylHdjz1Jw9SCJWPlnqV1yeCyLmJ4lujKtzHgwhLIvrsP7n55Bc2tGNyaLaH7Uv0Vlm/YAT/2GeBaMhdsZy4vTMjMgfsPn3Z/q/xPFZC7YlPHQGgXoRUs/9vzJ8lu/St8MMzMWw2v337A4wtBEAQFF9L8vRWuVzyDSTd2QExbaaERK2uu0Brrd0tcEiXRs6TQxcrbzYRDqy/tTB6EL5oGfUcmW1yO1xUztljs5QXvXjtvpF/NRB8b2f6QJAib3mYDL4mm5q9xWtlVt2wWp/QcrD2HSsOXJZM9XBpmNaT/cvTldXDkzTWobqrDa5o3Gf/GJjh2thB+tY/StjzvKJ+ze/QwkSG/pwqKaUlet+3vJcOgHz+jdvA/UPGpJzRd9wERXL8PGANb9hyhIhaPLQRBEBRciIMqR6C283kxDL+0utNAw1uxpOnGJnaW+XntYOhlhkNj29H75kJo5gToG5/I3Ndk84dxBe98HpsRt0I1R0WXzJ3+7DAbaw8aL1guHEOENIhclw3c2TxrPmOVLBenJNyNHP+mzget2XLqzznwwhLIe3AUymrKofU7OsF5W1Z4t/QJDE+eBj/8FqM7eypIodTwv1HDYfXmPd26rJCUExLRGDk4ybOEMNje8Z7V5pQRkcaPnQSFl65DQ2MjHlsIgiAouJD2cprS6rcw++4BOseHyVzCqBBSmpMlaQwslgzafEs6s5MYZym5D0OmNvFjUqBvrIWzrHhfz8sSNIw1BI3XIOj0mQlsr8d0WaTG8OOhSRA+Jwuij8z3OFY4NfdLlrlsWjPfNFw1OQPumXoGG+6DvTlJOxMn/3vMlXUglZdCXTMGtlZcBz9VfIE5i9fC3/ryDMN9Pf9PXA4nz10Kz16+6bb7gWSl1m/bD8Gy/i2P+VvByvuAiLC/h8TChFkL4cnzl+hOiCAIgoILcSmnaWmm83tGXVmr78AmKViuM2WXPHtgOMlEP5ih4ceiwQyYa7lh9OH5ED4jk859Us8UaWV03GZz8c7bbGpztVRNOdyMMnhtR0D316jVr2WTZ6TaM3WqPWCCWx+Y2mwwQaek0S3Dxstfi4INfFIaRG2dDf3Oiwq9eqJ6aal7P5XusS3quhVaWz4r6i5WqIm8/kWLYPWTM/Cu7gt8/xMDW6vcCncfOtUhNoJcMjnKvVxBv9pdZk/FjsuEosvXu6XYaHW85uev3sKEmQvhJxuvmsUKCla3zf9PxFDYsOMAVH6pxmMKQRAEBRfi0SjdUA2LS4/TLBfn1ujvaVYhc3bTaPbnWHu/JIPlV25BNeduQy+5ZeUYy744hQCc2sQnptEsl63D0c/VeY/anvMmsj2DXEsRbTJR5vF4nmHGFa8h+hT7pQTX59Pq81J0EpSJM56hDJE3YVk/JBEilkwDjtjAK2SNdLOjelkptYyZW0mfopmLtFDf5EJSN7/QHfCtJMza7pdwdSPcq3oNLZhFsLSs8M6Dx1Q0eQ77VcrquJpJkFJEZ//SUajphnboDY1NUHTlBgxyvH95n1qQfM6WWtarzVyjLz8OpOJr0NiE4wkQBEFQcCGKXPn8BBKvbtKYtyV61a/i6tCmHbhyeo5wDGYDHNNwZe33RAw0InKnQN+hibIeKkFTXBky0+A1ygN5didAueCzqZbnKQglljJFZlMNQTnDxettR1C2yCfZrYkTnEYZCllQF/EiGXP/U3ILZJ+v5f3xymlZyUvaLoX8xWWw5+VlqG1pwOuWxWWFFZVVkDp9gUM8DVQcctx5m90t6+P8mzj0TV+wAl68ftft3j8RiUQs/j5gbOf7C47pcGoMcu/fktvBE8H56wBIyMqBJ89e4vGEIAiCggtRbZhuboC1T85C3MUVnsOLJVE1M6AZqErarnBqK/4cy/wtt54bzn1WkfsAWZbZXgpBctSeHAhNS1fJ/DDanjPOnPIwn7BiuLF7aaNbKZ/qfC9dMSbPkBkx8WC7X8jwZIhcOxP6nVP4HE24FOq6BSpkSQ2bZEjaQ8BdXDMZRiy4DCR3PI4Y28y8sw8eVb/DmVu+cOlrbYUN2w/AvyOGaNjBq1vDk/6vkWkz4Mbd0m5VVkhe67sPn2De0g1UNGqVEgapWOWTkspl63fAx8+VeCwhCIKg4EJUv3Qd3PnyCibf3AX2okXe96hIDPbckgXzlAwYH5iaNXY+DyIWT4O+I5L8Y+vurTGHT23m/URsAu2fI0YZbOWm3h2TprcvGTCMseDYHnF5DRx/e5MujuA1yzeU3LwLobGCsvW5quByQsoKQwaNh4MnzkF9Q/cxMyF28NfvPIDR6dkKPVp2T2dChT6u/0YNgz+KrqA7IYIgCAouRLesxBHIkXKlkY7ATrNkyr2XRfJu5pZHz4ukUsLF6oKo8fxcR8+MyPy6ow/Ng9DMiYo28TbegnlVvNZtAttz8YJhIWZTEXM2dzMQo/1Xba/VtdRRVnKpk+UKFdIgatMs6Hc+j60HUMe10rTLpqTiaMngWKjXX+biSCjJ/lY59mMKF8PCB8fgVe1nanCA1yvf8LWmFkakTHeIpwGMGS7X2/4veigsWLkJPlV0n0wP6bk65BCJ4fEJuu9ZzTRjSOIUeFz2Ao8hBEEQFFwIi1NVWc0HmHvvEPAXlur0nIjeWbcbDYZNZrnIa/faAfFcHkSsmQkh41ItEDQ9BN5HjxmcCOHzJkP0iVzvs0RaJYISm1gz7JDJMhKB9fllJF7bBEUfS6G+BQ0JfF1et3T9dvg5JFZDYKn9dFqjk16mshevu817rqqugaXrtsE/wuJdbN6VZm4FdWS87C77Ze7S9dRaH48hBEEQFFwIA2Suz/n39yDh6ib9fiejw2AZ5iJxakNfzQw7lhTMDYwKwnab+GO5dB5UyNAkJkdCm6ZJhEI2ile2hHffjnuGyNP23ZjQUdy+Vl+ZiR4tG8/Qy0YeF5sAoRkZELVrDi3ldHGhZB0azOyQKeoYY4jsc+FMiDJXAxDt7cVeXA4bywqgsrEGe7f8AHHr+1/0cNd+peAYpr4ukhkjJYknz12kVvPd4f3eLX0K4zNzGPvWPPm13wg4cuo8uhMiCIKg4ELYe7m+w9tvFbDmyVmIL16hGehy3gSiKgNqOZbMmWQ+o2Y2YObOixC1bTaEpqa7DUMWvO+v4gOgV0u1VNF/zx0yMhkilk132sBrDbLWdQE0XnaoV67KSQbNOSSVclbWMty2+5CZWxNubIfS6jfQ3NqC1yg/ZXwGC5OVywqDFbJbwa6CjIi11fm7ofZbXbfI6JHeq37DU11t3mVCM8gl49U+e6zz/ccLWbQHDIcdIwiCoOBCjNT0tzbD1c9PaaDnYaAhmRxUrNMP45X5gVWGBZJ28EvK3CIWTqXCwH/CSOi5ZYly4hIhbPJEpw18gah9nEjaYstwz5bEeAwYXFzgJO8zY3HFK+DA6xKobW7AgNaPImTBik3KZYXBdt2Mz88hcZA0dT6Uf6oI+PdaX98A67Yd8HAnDGLsWyOidHruSnj97gMeOwiC9LjvAuJe29TcAs0tLb3mOxgFl5+zXJ8ba2Dni2KVLJeJQFKyuFfLm6DapIkC5xACUbtzICxzAhUI+kOJBe8t3XuD2CLZrdEpELk+G7izeWzlo5JFJX5GHCsLLdg+i8W9jGm398CbbxVolOFnzl8sabOHtzOZZchvIyIkelgKXLt1P+Df57v3H2FyzlL4wa1sMkjVndG1h+vfkUNh614y7LkOjxvEO7dMR2BLssKfK7/A0+ev4P7Dp3Dr3kN6Hl26dpuW+l4suUmdRG/cKaWDyh+VvaC9g2SOXEsvCogRa8RUQ0MjVH+tgffln+DR0xdw6/4juHLjLj3Wii5fd3wPXIVjZ4vgwPE/4OiZQvr3hSs34eqte3DPcXySXl0yCoNso66uHlpbv6PgQkxc/L63Qmn1W5h+Z6/3FvFWPs7gwGXm8i2WzBgpCzu9ACJXzqACwTJTCRMugN3WCp5XtoEPy86E6OO5He5+nKQ/x82wGJKMjw/gLBhJwEnmxhgMurgMCssfQmNLM16T/MyrN++h//BU+LHPANd5W8HKw49dBwHb4Zd+I+gg4UB/n7fuPYJ4YbKraAx2n7flKb7aBdfA0RkgFV+D5mbflruSTBwZKH3bERCRAJz8JJ9RQ2PP7Bsj+/OzQ0iQIJCIi5Kb96jAKHv5Br7W1vYYYVFHP9e3jiD3Dhw6eR5Wb94D85dthEmzF0Ni1jwYO2E2jEidDoMTJsOgcZMgdlwmDE+eBmMyskHIzIG06Xl0ftzSddtpUHzZIcyICKtyBMA9JfjtcjM1hxAmgoIMNSfnHREbpIT44dPn8KX6a7daDCSinFQe3HQI+XMXSiB/1yFYuHoLzFq4BlKnLXAcb7NgaNJU4MdOpAxwXN8iqDv1OPqT/E2OwREpMxzH51zInLMYcpaso9tYu2UfHD9TBFcd5+rrtx+gsbkZBRfCzreWBjj65gYMUcpyaVhks5RScQx9ORxDGRmnMOCYM1qqaKSXy/F8UQfnQdiMzM5eLl0zCaMW64KqWGGxVVc26VCymRcUnk/wPjvHqxtzKFnFh4xOhqidc2ifnLHPQmnQsGi4VFSrTNZ9gDFnQJyzl7IqG3TMu3cIvjTW0owzXo/8PCKj9hvN/PzcN9aUkcQ/QuPp45sC+EuXrO4ePS1Bn5jRht5bkGzY8YTshdQO3hfBLREVFV+q4eKVG7Bu2z4ahI/JmOUIuKfTn2T/btt3jAaBxM6/Ryx0OgLCpy9ewa6DJ2HO4nWQPGUeHaY9NHEqFRkTskUqLshKe8WXqm4pvIhIJiWoRKiv3rwbJs1aRINcEtD+X9RQ6pZJ3D7/ahsEP/3OO37y9Cc53gjk958ct/2t7yB6fpL7/ydiCITHCVSYJU+dD7nLN8Leo2fg/sMyh0D9hpkvk8ciyfycLbxMS6yJICHH4DDHZ0WOyaTJ82D+8k0OoXsOyl68CViTIPLZE8FIFmp27D8O2XmrYExaNhVPZGHsn+R4C41zHE+xHseakwG0aoH8bL/tr23H398djyGP/WfYYPiv49iNGppMx4oQIbbWcc06/kcR3C19ApWO6xgpSUTBhWjytq4C8kqPQf8iY26DqhbYOqYX8sCZY856id5l1lhL2KROA43IzbMgZHxqzxx27OferfCFU4H7I8/5OUra2S3NmWtSew+XqP2ZSgwmFu5iTtIZP8Bi+86QeWsfYzCuZAPcqnyBpYRdBAke9h//g34hk4HGypkeu+og5B8dX9D9R6bRLEygvkcSTC1YtRn+ZnMTle0ZruB20wzPjB657b/RQ2Hd9v3UZMTqgJZktK7ffgBzl6wH+4h0Wt75gyPQcX4W9rYAaCD8jxsOQxKmwMr83VT4dRdnSM8swne6H88VXaGZm1/7j6JBndO4xd5WqhpDgz4S3JHAjgTBj54+p6V4Ad8X3tQEFZVVcPn6bVi+cSfNDkQPTaG9gz/K3qPrzDe7Tgmve7bZ3nFskH1H9uHQpCk0A3bsbCG8ePUWvvWgsi9fChQiUkn55rT5yyFycBIVwGS/dl4LnccjESm/DxgDiQ7xRQa+k/K6QNi/5HuTZE/J9Ze8LtJnSgQWuV78SK8jA2Rl0/ZO8yOXcmq7bAyG63HovD6636/zWPyxTwy9ZoUMGgfxQiZkzVkCOw+eoBlrsjhErlOBvAiAgqsLDTQKP5ZC0rV86G/GhVAy2VMlmZh15OYGx2llRSQD5YpKz3EyF8LnT6Fzo/wqmvieNaOLuD5GH5znOijYi15ATjI4LJuxt4oz4JJotN/M/TgdeGEpbH5WBDXN9XgN6sKg48HjMuDHTKQrnq6lg0pzuDx/J1/uJ85dDNj3d+f+Ixg/aTbjkOf2wKLzPcaMyoDzxVctt4Mn2yPBHgni/hM51Pn6gu0KgXZnps02cBzMWbQWSp88pyvz3e1YI2Jk7+EzNDj76+8DPcs3g+0ewvcXbgQNiEmpV6C+ZyKcP36qgFPniiF3+SaIT5hMFzF+bD+ngl1Lcl1dMDtvCwq2t7ll2hVLW11EWXDnzx/aAl/iwjlp1mLYfegU3V8ovDQqmxz7hvQvkQzWv93MdP7yq931s2q7jWR7yMLIzgMn4EvV1y49l0gf4JPnL2H/8bM0Kx41xCEYQ+PdhrbblYe6M4l8/Z5e9+OUZMFC4wQYN3EOLNuwg2ao3374SKsMAlF4oeDqMgONP+F9fRWsf3oe4i+u8MrAgpNE6/q+9NzhpIXeDarVe56ChRC5fY7TJl5NdPCBLpSELn2OkGFJELFyhjO7ZSR7WuiFEUqhSmlgoFC0CCbd3EH7J7EMpmshtf5T5i2jX9asc7jcv2RzV2wKyPlU5DWRWWHh8QkMzoSewQXJtBBB9LjsJe3xsDJgevn6HS0XpFktRjFI7kdW2hev20ZL7brTcUZESeGl67SsjgiRIAPHGinBW7/9ADWaCLTj68PHz7QcjWSY7CPTVT9PxfcbbHfrIzRe8io/Xkk2hpzHUUOSHef0cmqE8PzVW6h3BLx4rXM1Lnn28g1dvPhP5BDlfRysLEJ+cFwTSH8TMTXpivI50vdIjrnT54thxoIV0H9EKvw9LK5jtIX7+A5dgnX+NsGPfXj4pd9I2jdLMtQFxVdpVjDQstQouLo4y3Wtogyybu5UtYn32jXQreSQ89bhTWLv6eEKGZ5TgehTCyBi8TQIGZHslamFLVDKCP0pColRBrGBPzxfWYhb7XjpUe4nemfU4k3JqsrCA8kgk37Jfa+cNvB47en6Pq4te4/S0qQfPMqe7LqrnOQxo9Jmwss37wLuvX2urIKVm3ZRl0HXwFfZEKQzKHb+j/TNLFiRT40drFwYIEHTsTMS9HGIJ6dhiV5w7ZrpGjh6Aly7fb9bLVaQfbhs/Xb4b9Qwj2MpyEVAKK+uj0nPhgePygKjlKvV2S9Dgu4lDvFLAnCapfx1QIeACnIXRS7lWTGqmUx9ceUm1oLlgbK945wk/V6kvIwIwcLL16lY7Q5lmf4qpS68dI32wnWKY7uHQ2mQS7a7cz+Tnrote47Qa6e/BX7pk2ewdute+tqJWHS5fgTLM/SyjL2isJcde8HuhklsC1La56zzWvVL9HC6yEIWTJ47RG4gLcyh4OriLFdlYy3sfH4Rhl1aZdgim9NyY3MPPiX9jBhnuByRLaB3H7qsOoS5I8slQtSeHAjLmshoE29QiPFaAkxuxCFoPMbVtKLTfMNkpopXfx4Wwdj+Wjps4M/l+ce63e246nBDZH686DH8m2PN2jK6Fg64sARm390Pz2s/0nMOrz1dv9p78eotGsS7lBXKv8SD1b+ISVBCem1I9iLQSthIvxMpt/k5NM4jePX42Sa4gmR9NX35cdQVjlghW22osGLjLmo6oh5QKwfc5DUSA5Ddh093G8FFXueb9+W0NPDvbXPf2svn1N53R4DY9jMsXqDHWGMXOzaS9/L2/UfYe+QM7UP7HzeCBpZBCiLJJasVbNcV1UHB7mVadte/gxUEwK8xqlky0g/436jh1OBg086D1N4bKwr+pBm/w6cK6FgL930YpJflafsfce37VFHp1xJI4po41XEO/T5wDDVUcS1HdTv22oVXsJrLbAxT1j9I8di1q5RhK2fJSK9hyKDxNNtFBGOg9KCi4Opqm9rWFlrmlH13H8QULTZUisd1mBSwCyjOaImfgZJGpdfBFRp1W3SaG3BnFkDkqhkQMibFC2ElWDaHS21bHaKMFzSFkF+yYfGJED4zE6KP5bKLaAvhVG8X2W3c3RYSvBoE3pbdGnVlLZx8e5Oea3jNCQzIPCBiPf330FiNoMOuGjT+L3o4XcEMpBX05uZmKLp8A+LGZyoGxC4Zh2DPhvG//DaAlsTcuf/Ycjv4hsZGWLxmKy3HVMpkBGkEPySQIvt79Za93aY/p1Nwreh0xAxW6VNqD3zdmvv7DBgLZwuv0H6QrsyMkHNlybrtEBor0J4ed8HjMWpAJiCDdPtg7Iq9MR6PC/bMECqNbyDP2W68QrKp2eJqePjkeUC7ivrLuXT/sbPUKENxFl+w22fh8tk5f06et5Qa8vhHbNXRa1nKtFzqNtielXMxvgi26wxx9xTySmWuQYqizO6y+OZybgbHePS7KZe7DoDgfiNoxvXZy9cBYZSFgisQZmY0N8KZ93dgtCMwdDrKiex9W5KXJVla2SiVEkEjVt2cZHCel6xkMfrIfAifnQV9hyRqZqtsFg1ItvF+LC/kVQQWb76UMDQpDaJ2zNE8frhC47PVuEITzoBW9RCaKXeVZc4GXVwKSx6epJlkvNYEVlnh2q37aLmX3KFLUWAprHaSgI7YKZN+sEB5T2RG0ebdh+E3++iOwNcz6LWrvieSiZklrvGJOyERXEvWboN/dAiutuxGsFKWwzMQJ0YlxI65uwmu6bkrnBmuYKVjyd7pFqnQ+E8E1x9FV7qkH4m8fnKOFF+9BRNmitS1Tq0/K0hFCKnNfAuSiaO/MAg3LTMN96Db/W9i752QmUPNImp60Jwzc4LrjzbBpbyvgtxL7dwEGel7Jb1U/jDHKLh4lc7O+pttkEtZdJBHmXSMZpYuyCNjqiDo3Y5B92uma8ZLORvrkr12e61E+G/ZeyQgRlyg4AqQL4cP9VWw+OFxiCla4iytYhBd2gGqqPsYTmIxOxC9HKosGgvWO163CNw5p008ERIds7n0RBTPMsNL8FLkCAwZKkG7XFGh38ym8Ry6mbJhSRCeN6XTKENrVIDaPpcUXAPlx5NB4dQp3kXP/i55CSFLaaqkcExK8lEHyq8v6domuFHxDK8zgWbX7bjmnZEuATcsRaOnyK5h5hBDnQ7JYNdACeJIT9lMcRXtrVFd/Q22K2YIaBYpajjsP3rWJwG+u+AK+tWYcQIpYyMCufsJrpWymW/uVtTKAWO7mOkqwUX2MRl8S547ISunoySS3YDF7b7BMaqGIUGyjKt+X5dnJiLITXgpHfc/O17/qLQZcPxsIXyuqOqVLoZyweVqga5eTuj+mflDcBGjmcvX79DqAzJaIMhtjEAQQ1lpkFoZYbDG8aS0GKDQG6Z6bAbHqJYc/is8HibPXUZNS1BwIc7SgdZmuP65DMaWrPeNwYAvzQt8+Lq4E7kQnjsF+g5N6pnzsiwyyghNy4Do/XP993kH6jEjE2Sxxcth49MCqG9pwmtMAEJq65OmzGtbRTUmAIhZADHdIAM3mwOgXInYh5N+B2Lm0V72Zcy5y06DMTLM0xdW5O2Cy72kUN9NzC4TXPu7p+AKiTVQ+tRJVwgusn+Juxqx3h6ROl3h87Krf1bBrqYCQarud+5lrsYWO9TFnfpjfnac46Rnk5yv5P31tkyXkuDy7D/SPh59LbhIeTYp/yRluM7KgwFMIp91EcC4O6ZdNfPuWVKo3vNFFiyI8yv5vkHBhXQOxWuqg41lBcq9XKy9MywZLj1nwUKD2zBZVsYxlIdxxEBjb46mTTxzT5aRrJeeoYaRXi/ejLMiezlkyPAkiFgxnQ6ONjWbTeWY0jQ3YdwuJxk3WWEy29CaA+fA7jiH0q5vhbKacry+BChkFX/h6i2OL/eh2vbBSiujbc5dxGa58kt1l78XUoZDejTIbJr2Ekl5+Y3SCqx7MEL6JcjcKF8Eo54lhUYyJPZuLbg6SgqD9UpV3UsKx/hdcJFZS7sOnaRuf38lwl3m9uba38KejZLfl5gJEOMUYiVPIPb3pD+PBNjkb5LV+EfoYKdI/Y1RiLUf38Har40YakTEJ8J2h+gKhPKuLhdcKtlu5bJq3wuuyi9VsHzDTvh9wFjaT8qySOR+nVPtAw12WreTazY5tshCAukNI5BrEjlHnQPJY1QcDmMMOBrGuJwz5LiesWAlHYuBgguRldm00gBRuLqRccirqOtI6Hlfz+BUU3QVejGEVm1WmEFRyJ3No3OliCmEIee+QWZMMwQD25cJOd6gyOO1t6/4GpWeIy4RQidMAO7kAjZRq2NGwUms5YLsxwjniwyaxv+JUcawS6th78srdPQCXlsC9HrnCN6JcxcJQtTmQgVpzl4ZCGMnzoZHZS+6/L0Q9zBx1eYOC/IglT4Xz76NdsOMGNi857DPgntFwRXcOXDavfnc5XUGd+cM1woXl0KXfhGdY43MHzt3oYTuO78E5Y7nIXOs7KMy4Kc+AzuNCVxW8z1X/VWdCdsMLEiQS4JO4jQ5LHkqzWAsdByrqzbvgS17jsKugyfpz2Xrd8D8ZRvp/xOz5sJv9lHwr4jB8BMZGE2HZMsHlLtlGDyMOuwufXOdr3kA2AaOhRPnLlhuDNMdBFfE4ETduVRqrqa+FFzkfDnxxwXoPzLdxfAnyMVNUd3GXUlsEYFFhBU59sixREYZkKHPpFwxa85iyM5bBTMcTJy1CFKn5sKI1BnADU+l9yULAf8Mcx57cht9j3LgYBWXVZngItsjPVz+ttRHwdUd7EObG+Hg66sQc2EJu9EFQ7+WJeVgEoOtu2REhCmbOCgF6NHHcyE0PYPRYl27x4rNZMOEk6FR10FepweN1xCKbf8LGZUCkRuzGSzX1YUVZ1ZYSSp9X1qCzg8li/yFpZB9dz+8/VaJNvABzsOnz2HcpNnqg3iDYxS/XJ1uaE4bdZKF6MoSJWoH//QFjJ0wu806WW6n7d7QrbxCS8wFSDlPq49cF9V6uJQMFIIUVpS7s+DqKCkMVpjlo2BS0D7Pqo8fBRdxIyQGGYMTJ9OeRuU+M7tHn5maoyA5n0gmK3TQeJiQvRB2HDgOl67dgnfln2jgSSy/Sb8OEfjk/ZGfdfX1NFP71fF/soBA5katdoiykWkzqPgkwTPN3io6FiobjwQFe96P3BY1OKltxllrLxNcSR3HV9Cvaq6sMjMX2b70peD68LGClt0RcxZPkwp7h1upmvGP/HgkAj+YDCFOyIJZC9fA7kOnaK8tee3VX2tpdpMcg3LIbWSw+rMXr2kP2eGT52n1w8i06dSdkw737jNA5nao9FrsHucEEWxkJtela7cD4lhDwRVws7kcXxTfKmCWI2DsLwua3YNazsN4gDFToer2Jmpaens9xFZiC7pVrcVJaeGW2dQcQrF8T6WUz2ZUdCm6B+rZvQsMGTGDjoks9x+SBGGzMmkGsJ+GJT+7AYqoMqRaNJgF0zmWWOexqbwXLYOX/kWLIPHqJij6WIrZrW4AceQj1tHtblgs/SHykpOfQ2NhxaZdXbp6SVbqiQFIPzJjJ1g5Q6TZe+P4SYaK+vI9eAiuYDe3sWCtFevuXVLYbpqhVvKkJoL91cNFBrOSgcYJWfOc2QXWY0chK0IEEQlO44UsWLp+B5Tcuuv1cUWC4Ss37kLuik1gH5lOBax7f4+aaYZ7OaT8/6PTs+H12w/Q0tLaawSX3KXQswfPrmkI4SvBRa5fpMwzuN8ozecPClYZ3SFbACPCnGStzl+8Cl+qqr1aCCOPJYsAdx48hvzdh2F85hw6f9EpvjqdVrVKConwW7tlX0CUnaPgClgDjRaQyktpWZSmSNItC2MLcFXneCneX9R4XtF8mZredkgm5WSu0yY+VkEk8QoZKp6tfE9VtPF65YLy7QnaGS21bJbarDA9QRiXAKHJaRC1a46m2PV2jpXikO0uNWrRFmnxxStg9ZOz8LHhK15LuklgvPfoGZpNMNqo7yxbiaHlT6/evu+6sR6OoICUY/3Sb4SbMFSw5Faw7iaBCnm8L2cV6fVwBSn16ATLBdfw7tvD1TdW3+RBwUKdZrh8LLjI/nz09DlMnru0Yyi1y2p9sEK/lMpwWJIBID2E4uotjm2+sHxgMxFuZGA5KQEjow9++G2gW7YwRtEC3D0Qbi85JKWec5esh/KPFQExI8l/gquzNC5IzSxCQXz5SnCR84Rkt374TUW4BNt1yyDJsRs3PgsOHj9Hs6RWVxyQ7ZHFOWJMRK6VgxOyOo09gpXNRkhJY+bsxfC47GXAHAcouAI0y/XJETCS+UF2gwYahku3mMwT/PR8ekE4yXLtmAMhQqqx7JE/5muZKEH0hpCRyRCxeCodEG3l58H5QCRxFh6PWhCzmYk3t8PVz2XQ8r0VryXdhDsPnlCLd+MuVs7SqYj4JLhxt7TLygrJMNKMmSL8rCRmgvWbu0m/wiVHIOvL12/GNMPTFr6bC65gvc/GVRi3Cy5flhSSlfd12w7QbJpLWW2wthGB+/sgq/5kbtKR0wX/n73z/IsiW/r4H9Sud9Pd3XvvtroqBmxtEBFzxojZVcx5zJhzXrNijo2AmDBiVgyYUVHEQPB5WU/XGYbpcE6HmR6YwfOiPiJhpqfndE/9TlV9f/C2JLK7+ViVWrN1L7lmf26W7I5mqDX+Vr/Gc/zPnkNEzNVncqERmiFYwUgY6zQSggvP+ZFTfnuOH5yAMij3X4SujJ+1BK5cvx0RwirtXnb95l1Yv20fDBk3k8wm/hCYMQwIwBadoOfQCaRNtyKKTLe54IriD4xzr++R9qh2SqziucMUXJTX1ubILGjpGwvNOg0IWazYelpFe6QMgBajhkObHdM8N772/HFqcX12zl0Mmwtz4H35J34PiTETZBQsPwbmn3RD0bKDKlcSbNt7xPMdfadx9uJVQpXTk71k9rEbIBqYuKJoi3SSQhVcDkVuzEMzRJntPUYDmYiRF1xf1PV64vQ5Uhnwr32ZLdBF9vfQ923y3GVwteA2mcuqFaJy6Uc4mX2OVEb+3TLF2rRcZJnY+sE33QaNgwuXC+o1RKNGcKUMZCD5ZSYAIvC7kRBcSIqduWg1EezWdgDmCjCKHGzZw79HD8Lavjfg9VP4qIhsMiDspWO/UdAsqQ8k9BwKM9RjwmoYtutG0zrggiuKo6ziC6y8dwI6ZC8I0fw4zCTYSSujUrtJPJnlUoUG+k7ZY+CjRSSlendsyf2hee/B0HrJBJCO+8I7r4qD9UKjGlqsN4m1foxETMUGW68wEPSMv5Gz5sLEazvg1vunpELM7x+xtbm0ZvNuQpNi46etEwFMRt6W1E0bKe604i6rYBralh15GmGyUFpaVruCS5TZ+HBRD2jwC65uMU8pNK8b2dIEOpJYeDw+xFSPmboAflOT3ZrzTQVSGGlssmYnPwVmZawhLbW1LVhQRODs2ZD0WWSW0rF5uaZlEjccEMYxd9kGAk2or1UuquAyeXDJDKx+5KAZBbfukcpocLPLLK5YFgNY0ceNMhQ9lXUEpMD1gsIL7TQQOnT+0nXiZfiq+E1UVba44IqReFD6Eobmb3A5AzXHm0ScBitwSLdzJcBcAjmkk7Oh1aJ0aN5tkHdtfw5hGWYiolsRlcomGjo51k4DoMWEUdBm3wxnlErX68AXVhui5LStUPFWkPfIWw77i/KJgTi/b8RenM7LB7nHMIKNtm3Fo/wsvvMgePjkae0nUqqQGTsjI4TWquDsA6LAI50s285w2bTbxb4Pl+yizTPy0AxMwFdt2kUQ6YF2KDs/I2P8668kmLV4LTESrqv3BSsISKDrP3qaIWlnWzrQ5gWxQoz3AKQ11ndKYXA2yp3RtNeCC6+R/UezoGVKf0LGdOPPh2sW56guXrkRNdATfD14HeC/0SrcueCK8sBZlH1FF6FTTgbV4DUcL6WQqlyK/eNLdsa4dlUOJ62FB2dCizEjiA+V2wqXiQCY5FYwhYKM96aNsfnANGi9bjJ7HbipGLEqT6FWPlnPHwq4Q7FG1UsasZmQNQ/m3zwAr7685/eMGA3ckdSBAyxMVhs0MuO9cYB/3xGlVmYItHHjzgOCHfYPnMtM1DjNhwv/JqnPCLh190GtCEMaFl5/LmVzm5OOUrgjZgWXYFl9kammwZEUXPied0wdVbNu6NVRWZ+Ya7D2mPCOnb4oKqpCKLqyzlwkLV0N/0rSVw9FDVJcZABL1PipWQeYtmAlPH3x6vuqcDFb9hjQjJfeCS60Bli+fjuZITXPb8k17aA0gYwV7/Xb9tZbgcwF13ccb76UQvqV7QQK4MX8jJTlQUKc5SLZVhwm2IrPLMaYaHAftF47ibTXRdwvK9zwamas8wBoOetvkI7Mcl8dVEIQN5GYAWO9p6HYGih+k+OBF9ZCzuvbxDic3y9itH1a/fBfsnYrmQmwSjrMiXLw65kLV9eaSS0hzKmJ7r7Dp4jXEbMFkmm0KxOPGEQoY4WitgWXE2NpbYtTTPtwBbDwjehzXALjvYuU4MJZw1WbdhKqpVZc6YyFjXQ4jYj/oUl7ItSxHSxa3g+cw9y5/xihJDYwEvgoxt9Go21M+BE5f/psfr305rIXXFbrMTIVrqfq9YGi/efm1hRPwbCB1FC9b6GNxf2HT/hnFxdc9XPGIevlLeiet8zvzWVXMfIimWbMz0huZm9cPIdkbDtzMJeG/lMEE99xgDNQhq3wiWKYRnJ/iEsbCvHbpupbCBWPoRV1CeFwK+SrMfAr7p2At18/8ntFDAe21B07nQdy97SgcbDojpiV0GsYIbTV1o4/4o99S9bBv1uk2BybGf+MCSYOqm/edbBWBrvDoRRiwhXLM1xu2z0j7cOFiSrOzfxLFU6O554066Z5h76w88BxYkcQTef72YvXMH3BKvitZSfLdjSWyEea5MJVm6HkQ2m9pxS6EVqRElxoHZA6aqqpFdQu8L41Zd6Keg054YLrO4+S8jKYe/MAJOUsDHsGytHPFXYrmuQBlEM7Dya5rcpofi9++zRo3mew2ZsrpEpU9OLiCQZ+7jhoe2K2izZSH6OSGNo8nytvLi/FPwOagZYJf1/5B/LfFnIMfIwH8SO6/xAG/j095AQZhQ/OFNRWIoDD4oPHziSktQa2lSL91zgz0U4VlznnLtWKQDQLLm3rI6XyI+pNbWPZh8u/nmQdKETQeR3J1PcsEtAMPC4US82S+lJaGekVXK1A+alpMoybkUFeW7TNqWB72anc86T60bCmRc3crimIWn+n4GtEMdkzbTw8UK+r+gbP0AsuWbcRI1TP7elMpEXzOvBacKEdR9dBY0mlndZmzOoqaJrUB3bsP8Y/t7jgqt+zXBfe3IdBF9f5WwsVBqBA0YAUqES6EM2JFfbjSKHOhdlBHwLfV6y9ubDNrlnngdQ2Pj8CPlU/f5XEnq9q6kpIpTpvHwyluhaoyiEGfvQIaLNrWmjVIcfzdT7zOnLStqqE1jZoufYciD6s+P7z6AzZjOD3iNiP4rfvYO7S9fCn1N2xX5Jx93/V5l21gsbGOJlzjgz718w/MLDONBgCirQh42bBo1oCfVhVuAQGlEQwQTNid4aLacRby9CM12/ewUTfEkLmMz6nQDsu3ZpJJHCYQydzonJ2Bs/585fFMH/FpuA1LMqGa0BmmIP7479tuhHRFm0478gILvOas6pyeS24zuZfIx0FeC8SKJU2gWGh0KbLYIJc559ZXHDV6/hQ8Rk2FWZDp9zF4Ve3FGfVJHY1y2eB7vbZJ9Nu2xEt6Hltdk+HuKHDHLUWhuzJVYfeXc37DYHWyydC2wAGnnIupCwPwBSM90WiCWPF+RpyUj2VFHfVsaTsBTCjYC/c/fCCV7fqSaBQQmpW225DqkWMbMKVW5twJkDfEZNJUhvpHXI81jVb9gRNN03mpXTcuh/wkUi8kxav2QqfakkcBgQXSfQ1nlTmXW1Zl+wHqkAxXeGqmVGhzGqJtTvDde7Sdeg84G81yTW2m8pUTLg26cXXMXbGIs/R4F4DNBAVj6az/sqvbILFCCLL9sH/vRUbdxBD6Hp1b6O2FLJ814xAG++x8Hh9KKqwjUvqVw1uoXkH0smeCb2Gw617hfwziwuuet52oyaWtz88hUnXdpGE0z3K2+cO2a4+rpTlc44TtyMNKtZkO0mhVGJo1Tvj35/0QeulE6B5L0NrIbWSRZvl0la+NNWuJAb+3S0wI8mqvdCaeti860BoOWWMHwOvOKQ/aj2xwiEGVoNMpEiZFytssWhFYWx3ei4MuLAGjj2/Bh8rvvB7Qz1qKyy4fZ+YqZI2MNF9W2GLlFS4XHA74m2Fj4qeEw+lX2qof85muDDxxEqF1HUwnMg5V6v4erczXNpWp1jGwuNaEhwYHkd6hgvFyIYdmeRxf2C03BmrPjVfq78f1zEVdh08XuskTrfnHYmj6Kv1R3xX//GLhtdkZQquBlZ+Hzws+s5muMyQEcFQHfRScOF1jGu7aVJfChLeosLVGBH+w8n8F//M4oKr/tO8Kr9A5tN86HNuFUk8vQIYSIpLpLcyx3mVJRwEuUODZxQkLdJHmVsLXVSrmkYbKKNjf4gbMhRar58MbU/43M3bhUskVBxYAHjtt2a3drKCoIwld47B47LiemuU+b0GJhRzlq2H/7bpUo3FTrDAJZv//982XWHrnsMRBQrgmsu7eNU/q/JXkhmlbNqd1h8n+if1GzkFHjwuqiPBJdckvQLLaNWQ7MX8DJexZU80vjdmo2qvBder129g0pxl6nvQSTe/ZK52mMmWuGa6D06H67fuRf25R5gMWjSgv5NJ2IoyxRhc386KbbrYslZRWVnvBFerlIEm7LqRCEq1bBDlyAiu9n2IiAo+T4Kl+TL+rtwjDa7fvMs/r7jg+g6Ihf/3DQo/voI5N/ZDcs4iOrhAoRjNOvQ4YkIKHPojeUqtc4O/PzEbWq+eCM0HpJkBGklWs1V2gItUB2CNVEMlK3RIR9MkPSijpW8stDkw012VSYkwTdBhNVUKp+2QEbjJMDx/I5wtvgefK8v5PaGeBeKld2QegxYdU+GHRomOTI91pLPmyTBh9pKIthXi/Mz2zCN+01rH1TdZR/malbGGoPDrqsIlNHI2z1QfjI+dQFgEXWUpMoILxVKf4ZPhp2ZJjo5Ht67V9w0NttF3K+rnzVWhdE1NyLsPSSf+eG6qivi6Gyf0hD2HTpJ7QX0UXNawltqjFGaduQBxyanQsLHmvQlUIy3ep9YpA8jf8s8rLri+i/haWQGnXhQQgIY/gfVZY9QVClDDkV+Xz/XslRRm4i+FUelqs38mtJw2Bpp1HWjRppcaWQS8V6TDjgMgbsRwiN86lbRM2rWOWs5XGWalaOJNUrwWyD4TJVHyQGAn5y6EzYU5UPzlA9l84PeDegYHqqqC85euk2SN4IpFluCiJwTYHtN5wFi4duNOxNoKMen1LVkLf6jCSaCAAIzD74Ko38Fu3qEf7D18ivh41WVLIW2WhjW0Xz9aCukVFUGM/AwXHg9CVtBrisw2McyxWRVHrDCu2LgzqtsJ9fAMPyL+1xadmLOMrKre7626wLL122NCXIbcUihSgCLM+bbICC6s0iMpNUCUrKF3WvodJhCvRIQT8c8rLri+m3j9+T0sv3scOiAmXvGuiiQpbuiC9mLJNrlXnCHqJSuhEXi8Uz6I3ziZ+FVhO5570EVqCL+X6hyskeTClLnnIGiVke43OVbYFEHH76fiEPvvpP2UtVacvK+htpFWP/aoS5vh5vunHJRRjwPnoybPXVbT/uYEs679F42I0ZD485fIzPcF/Gt+btrBBD4QGhnMa03VikRI7juKzKrVasJnqnDRh+PrpeBqzqhwMchwgaTTS8GFj7Fl98FqyAoNUJDAWC/+QIw8Vn1ixsbmfSms354J/2vT1SCytO2Tsq69LvA+/NqiI8zKWEtEW32e4RJYVSTRDLFBIUYE10vvBNeVG3egy8Cx8C/iw0Uzate0OIrBY/s5LhmGpM8mnof884oLru+ktVC9YN49hhFqAkqtdCgRbh1TDO1jNN+niBnmWlR6js2GVvPGkXY8s5hJdUUqtPx+krUgoz1XU0taov7vW4wfBW32TK+paklOKls6oeWznqmznOXzhVZlVOzfHzZsxWd6XZLhPe+cmwEHii5BGQdl1OvAGZCtew+D2K6nJbacBUHwJ2xrCOnM67ZCrJphEh7feWCN/5bgoi3oJ1WkoRnvp0+f61Zw2VQKBVED+iAVlu4xa3z8S/NkhwbPkYNmvC35QEyy0RS4BgEuGvHvMsUk2J/0YqKu5MZOG9eH0o+kNVhs18PWBNx4Df3UrAOMmDwXHtaSZUJtCy7BoRl0wI9LiFCF6879h9B/1FT1npRkb5WgmSXzb0b0Jn5ykdrU4oKLR/ShRivLYfPDHOhyZqmjSgKrnaytGyNjJUTggQNPLdsWRoWCD2dh4v8e4Y0ZcoRMjpsmsR+jee/BEL9+MkgnfdYkyDBBI7aeWIqWVumMIOi6UuYQ5oImxzML9sLjj6/5tV/fN5OqoRQpqWMMeHh2cmqM/qOnkoSiqsrbSijOlSDOnSTOjWSdZ42grZbovKyCx/rf+K6wPfNo7Sd8TEqhbBIaDSjI+FiGZgR9uGQDLc9adHopuDBRnuhbSs6/YFgvNW1cYoKZTlf9PWz9ysu/Gjtwr0+f4OCJbGgi92S0TibooBGCxogbQTRo73D3waP6J7hSBjKFjWDji+e14MIK4vjZS+Dn5h2dATM0mxIN/2pP2r7zLlwhM60cXsUF13cR90pfwqRrO6F99vzQ6YJKmJQ5g/+W5GUVTQnB3+mUD1ovq8bER5HIckRL7DQAWk4dDdKhWZEBjDglDtYSeENysCbbqZF6fjWZW+SgjO8jCh8/JclAEJ9tBRUwE+ZwVuZE9lkiNLw8rqdqEj9k3MzqNrXqZFmUHSXxPzRJgPjOA+Dm3QfRI7hExtyZoeUw5qEZosw0ORYYlEYvBdeTpy90NgINdEJdtq6Siv71nH/tZkz5Tp3KOQ9/JfZme6AZ2zgDgquJP5m/cft+zKw3N4JLsK2yyiaPLjw/Xgsu9ABcvWUP/K9NN93GFtt8Wf993HQaNsEHFy4XQGlpGRddXHB9H1WuzKJ86IeYeCVEmIXiwmzYi+qF4kIQKiFU1bDKdXAmtEgfSQRM5OAWHoM3kvtD3OA0aL1xsioaHbyPrFZLxQkQxdm8nWuhlhXGjBbjd5JzFpJ5xWef3pFWWn7d1//48PEjbNq5n4Ap7IleZpNYxMPjYDe2Nnl1TJj8Xb5+q9qYub1NcmIWXyjSBo2dQVomo6fCZQ3MEGJ+hovSUijS2vYSajyjAj/HtimvBNe9wsfkvXdCTKRFQs9hcPXG7dgBe5WXQ+6Fy9C8Q19G1YR9Hf/QJJFYLlwpuE0gOvV1hku3Fg1gHdqMl9eCCyMIcklkCiuWDQeKNAScDBg9jVQzkQxbWY9Q/lxw8aDOcj35WAzzbh4gmHjmnJPiHH7hZFaKWZXwACfuCMLgoGWu9RoGJp41q+VChDW1eBzd/FaSC4gGmhzPHQvS4ZmOxaeJTpgVuk+XZGWWrUSwomaa39JUt07PhRH5m+B88X34WlXBr/nvJJDgl302H1p3HhgSQhl3yf+evggePnnmmUjA1plNOw6QtsAG1ch6QbRIHg0/w79bsm5bnewE0wWXbDJXNUNI6pPgks0zMjp6nhyxlkIErfQZPonMJwlGY1kTvEM2taOi4LpyPXYE15ev5eT6RdiH8RoRtG2TFHAEYso79B1Zr7y49IJLNle1NG3SgihTK7KREFyFj4tg+ESfASxDOz6ZuWGBmwgo2hau2gS37hWSDaXKSg614oKrnsaXSvXm9uoWDLm4jiSokqWQ8Vkk7L6wkmmnuHknUAbJwcyXnWiTDs/yY+K7DQypuhWEZqRGHgmP1a1RwyF+21TSEhk6it27+Snz++pjz9q5bSOsEXM+y/cxJScDNhZmQ0l5Ga9ufW9thY+KSFXAqQ+XMXnrNngcXLxS4NmuKyYS2BZWU6UQg4PtxuOitRm2ShkA5y5dq6MEmAXNsJqLk+sFpTA4w2XdmiqYZri8q3BhG2nPtAlEcJnWiKivdOjWjhhskcWKT6xcu2g8fkQ5Y9FSqJ9R074/WG3p2G80XLp2s94JrladbFoKaRVnMXKCq7y8HDbsyCRrnVnlFq3vt0L1e/Z76y6Q1HcEbN55kFR0P34s4xUvLrjqZ6Av0doHCiG5Rcxg2CEiXnJSLdOg3qVwQRCsShxi4lUBEzd8mB8TbyOUmloQDZs6MU4OQ3AhKAPnzqTjs10KGB+dVFiDzPeFTX503YrqkeiTT8+FCVd3wP3SlxwD/x0GGgMvXLXZRNFyGoik3r7vCJlV8GrIvGVK/yDW26GBsFBNJ+w9bGKdoa5ZLYUCc/bMWOFCaMaOmDY+FkTja5bZHmqitxUu3PkPCC6hEb2iRd1UqP6aCK4YqnCVvFfzkX/2ktZeQbRrX9VWWmWSvCOu/OqNO/VuhqtVYIZLNEB2NOfB6OEnRFBwBdYmQkoC1FWzTYTej0tg2Reo38c2Q7TLSOw1DOav2AQ55y7Bo6JnZMYLxTNel9/zrBcXXPUkMCG9VvIYxl35BxJOz3MGo6BVRxRzZcNRtUnxKFlnCQQltFki6ehsaLUonQgaWx8tL42L3VTAUgZAiwmjoE3mDOvzQnmNUqTBFtXCWAr18RULfH0WnYIYWJ9dzyyFw0+vwOfKr/wa/07jqJIH8Z0HMSovsuX3MXGbsWCVZyInK+8iGRSn7vJatBZi0oLthAtXboYPauIRTYKrQSOZuastGIx3Y77CxWhhM35PEL1vKfQLronwY9MOZh8wreijQDwEMXYqXHjecX7r2q27MCR9pnlmzSBwjdRIPBcNmySR9stbdwvrTXKuFVx2lSMWMj5SggvPMXrENZZ7UjaQZGrVTTAZN9M3DRq160ney+UbtsOZC5fh4eOnxKMN7TW+R/HFBVc9ivfln2DvkwvQXYuJj8KQavP51MS9za5p0GLsCDZAIyxQRmrYEI3mqUP8GPgTPntEegSJgZ4QJT16PGyNRQz86y/vOf3oO46CW/cI4l2woGVZRbdB4+DajTueHAt6e/2kSZgFJspZ1hG//HTCgXD4ZC5JRqNCcNHaIK2qhaSlMDYrXL8EKlwOX2sgkfSypZAquKwqW4bfwYpBwe17UX3OMYl+XfwOcs9fhnEzM+A/8V0d0e5MXnXNOsDQ8bPhwaOieoeFb6WlFIqyw9ZCjeB6WRyR48NNqeET56j3h06O3idBNPqHyVSxFvj6x6ZJpDtg8LiZsGDlRjhw/DSpYBa/KSHrhgsuHjEI0PgGhR9fwayCfSRhdeuLxARrKFaVsTBbzhTn/5dCESCK3wy59YqJ0LzfEBuARmqYAizVfbULMfAzxpB5MyYkw87rSrFA/CtzPINquK+aOngOhi9c55zFcOXtQ6io4j3g33O8LXkPc5euN+G0nYUMf0rd4NCJ7LBnCUo+lELHfqNq8MmmthpR055maAvCgfR+I6cQX7C62jzQCS4jCl6U6SQ5TbWlXsxw2aLJ9RWvSFS4tDNcxlatBlqQhAGk0aJjKqF2ns67SAyQoyGyzlyAkznnYd+RU+TYFq/9B8ZMWwjte42Af7fopIPHCDbnXjtH+GuLFJiZsabO2m8ji4UfQKUQ0jaUjObkkRRcGBev3IBug9Kr16hVWyGlMkwVj/T3+MdmSfBXYi9I6T+arJfVm3cTWuL9h0+IIXx93mDlgquexdfKCjj98iZ0O7Mk6qoW4bSkhfw71a+hTeZMaIEAjZCqXKmMf8NvMUSKYvzOaSCdsidCSpF+HxSL56jlKhpi4MsquIv9dw8EUoXCvsOn9G2FooMqheZDf9n67WG38iEx7c+23aktaSzvpMDX/2nTBeYu3wDFb9/V6Xk0VbiskiOxHlW4micHZ7acAAtqS3CJdNw27X3ByioS/7BS2jqc6KT5t5PLvzFEfJeBBASDlcD/xHchIuuHmjkgh0ERHX+07gKrt+yGdyXv66HgGmj52umwitoRXHiPOHIqlwBL9BsDCQ68EN1XMv3ehInk/cY11iMtHabMWw47Mo8S6EZ5eTkXXDyiP15/+QCL7hwJO3mmVks0yb/ktAqWZVGpMc36UExx3RjxMo4ZBU3rjVP8mHiNYGqaZDAgToqgQTLlsVsvYYAyFGcVSMmpaFYcVi4pMBTJybHYVNVY5lWsJzoAAFzeSURBVNo139fMePU+uxIefHzFqYQ8SGUKyX7dh4x36ONjTujQqPjhk6dhHQd6ev1C8bBiCTDtjj6S2nbsP+oZvMPrGS7TudNV6OpThct63QgGwRmJlkItFr6BAZhg5YcW8D3yB+trYyTURAP8t+YxtF/ro4Hp/wmMx02sMSUXGtlVOhzMKmnm2Vp07E8qHl++fKl/gkvjw2VuG7S+l0Rqhkt7zeDGFHpqdew7Cn78K8laYImM9Ss6MU7W/35gPeH9CTe2kvqMIC3caJ79uvgtVFRUcMHFI3o/bPLfPoBh+RugXYgzVJLi0ojYgTmvxEjspXAMdBXnnmDSsVnQatE4j2a5XLYkUsRW3LDhIB2aScfpKwwSJEXcWAMpbNoHDY/pCscfDl2S8beJ2fMh8+klYnXAr2UeeC97+bqYtBgFgRWyA9EV/B00X0XRFqo3DAolnCMLJJjs5Fg/u4UJCUIDeg+dSAhzddkqExBcAdEoaI+zkdl0tYGo/3nsVrgyDB5DbOy2kR7oZYXr5l0nLYVOoTDOKgl6nzE7QScbKi40IW5BGTSsJ8GmCiIwvM8wBvw9He4VPqlXrWV0wSVThYv52kyoFcGlvd+dPptP2qB/a5nirB3Ukbm1bDB4NkN7Al/j3CtWdX9v1ZlUdcfPWgx7Dp2AV6r4+qweX6zSK7ngqqeBvkVbHuVCx5wMb1r2FIdGxFkuqmcuj0XK8oXVsohios3OaRA3crh/lsupH5cnLYT6x2jebSC0XjvJ1EoouTof4ZEHHc1e1WY76em5MOnaTnj88TWZR+TXMQ+M0o9lsHXPYYjr0M/Sh4s5hK9+cK/fto/QsUJJ3Atu3Yd23dMcttLo5zPQm2bS3GXw5OmLOm/NpFe4WC2FejES08bHzZJtPdzqwoeLXS2gt3YKLqtHOgKgGBp0xsljs3HvDvzzDK8Jz8+6f/aGdK3GcoXLSdSW4MJrB0VX/tUbROj82bYH/OuvJMetoaEHq7KbQDaK/mjdGfqPmgabdh6AG3cekM+FqqoqLrh4REErjroQC0qewGQ1gXWEiQ+lLS0SPkyKR3NgjMqcdGI2tFoyHpr3GuTRHJZNVYsm6jr2hxaTR0Obg4bqlhLCOVciDLvwYhbPweO1U3+n+5llcOz5NTKHyK9hHoEor6ggFarOA8dqqkzuPrDHTlsYUlshfqCjlxeZ32ok2+zmyjUeToHnbZrUhyCXcRg8ugSXbGinky0FSExXuLRocjEYgihbioTIzXCxqosUSAGjqiRYVJusH182QDrsWmJlPfyCec5kR2bkdsIsqfcIQq+rb+Q66gwXE94i16ng0uL9cZZq5cadhPaKm0cNNPdf+40nqzUmO6j06gUdriXcPEPUfL8Rk2G9Ksxv3L4HZZ8+ccHFo+6JhR8qPkNm0UXofXZ5eKLF62TfbsZL8SihZ4iJNnumE98r9L+yFEyeUAzNf48Y+NYbJ4N00mc/F6V42M6n1AEq3uHvtT89H+bcOADPP7/j1S0eBtHzDR4/fQ5jZyyCn5kVGovBbDVJ6NB3JORfuwlVLtuUPpZ9gilzl5MPesFBZUCbhKCRaOcBf8OZC1fqvD3KrsIl2GCpY7nC9TMFC+9k+L/2KIX2lQOhkRHD7VXIDs6HbEHUs0++nR53k4RepBL9ofRjvSPVWQsuFlZdfw5rU3BpZ2gR3Y4thtjWjfYEpnuw6+qWzFgjsuP7+c/qddS0fR8YNHYGbNt7hJgrl5dXcMHFow6rXN+qoLD0FfhuZEJS9gJm4i25hGf42wGNlRmfM6HgNYEwy6V4w+M/Phtar55YDdDwsLplI96a4s8RAz/rb2hzZJZzQEYI83JWZskRE3DG8x54foUxfxaobqnR//wayH19Byq+VfFrl4cp3r3/AKu27AaxbQ+b+QGZ+jNM5nYdPE7aUNwk7Y+ePIPewycFK2uiTJ33oaGdf2qaDGOmLYgKPyGW4BIolRS2D9fO2K9wUWabWFWYyLUUyo7IhDTRZXqfagAnhvVf/X1TpcpE+DRXIQTTvI15DodW4RJ01TU7c239caHp7pylG+Cher3F6nyO25ZC/fmtXocWVce6EFyBawnnprAt+vjpPAKzQKgF3t+01VTB8UaCHEZrq6zZ0EokQBwUsekzMuDMhavw6fNnLrh41F18rvwKp1/dUhPa1a7w4MwEX3EIa7Aj2FETfJ8jxLtrOINihkS02T8TWkz/G5p1GehtdctKdCX3h7i0YRC/fZo7zy0rhHuotELGe0F9TxVn60RSHJIMDcfRMTcDlt89QSqy/JrlQb2PqQlLzrlL0L7XcGho2VZIb19C4MasjLXw7MVrF5W1KuIzhEPbLMiAQBv+rk6axLY9Yc2WPa5EXm23FArGxFo0QDOqX8v/pG71Y4ZLpFVlaJRCOQIVLlVwNU2qAapo20+1HmDsOSi2d5Vp/Yl6AIogWvgqibLpsQUG8EBgJMukxVEMPhZVYImyqZqDbbdI8Zy3fAMUPi4K2y8v2gVXq04DNd53CQxKpX5joLYohU46DfA+gseQc/4SLFy1BfoMnwx/St0J3j1IrbRpM9S2Dho8AIPCTaaSD2k/Q+GFhs29hk6EXQf9YI1ovU9xwfUdtBYWf/0Aq++dhI45i8KfiVLCBDgoBoHlFHjhaaub+rwnfRC/dSrEDRtGN0O2AWo0DQirJIooS6I9Vio07zEIWi1KN7cSujWDzqKfQ8khrdG+vdNn+TzhmFebqlun58LIi5vh7ocX/HrlYZlAY1vh0PGz4cemSa53RnHou/ewiXCl4A6Zb3XyfKUfP8Hy9dvhj1ZdHBnmGqsoKA5P5V6IivYoo+CqmQES6VADY9Unln24aloKXQJXIt1SKLgFYohetxP6jyHcNkWhpqLmpB3Mfy2iZxdWtQaOnU4sEzCJr4+VLZrgChWCUteCy7gZ9f5DKdy+/xAOncwh7YbdBo8j81W4uYX3aBRhOqHvYL0Lokz9ud3vB+7xuDm2YOVmuPPgUVS2GHLB9R1ERVUl3CgpguH5G515WDn0zDIJIgufJUlxgHI3tic6SNolu8qNwq62SIdnQasF44gQ8gKg0dTq5ykDIG7MCGiTOcOZjxXteLOcIeAlu/NgUQGUFJ/jKqJtRctB9bFzbgbsfnIevlZxUAYPG/Kq+gG/fMN2//C23e6pYRcUE734LoPh4PFsKHMAsMDk7+HjpzB8oo/MYhnbowTTLq1BjKnPh+IwGtoJbWe4RFrbmayrhsRuhWtxDRZecIRPjwwWvkZwkc0CbbWIDrYwztBhMim26wEtU/oTnyokdsYlp/r/7dC3+t9+6mdNX2iu/uuP4NdomowzL4HAqlIgmmi+/iuxl//fBIxeRBQ1wUjwR2MM2R+N2qqhHhMJ9Ws8PrFd9+p//fGnGvi7+Jh4HO16pJGNj+kLVqkC5Bg5L1gBrm8zW46x8CJlhkvUVyKFWjI+DvU6w9eGnQNXb9yGnQeOw8xFqwlSXuo6GP5U7xs/N+0APzRKpMBdzK9Rd08SKe3ONtYJDRu3V6+DVJidsRZu33sYdRVTLri+k93h0orPJLGtmeWKNLkuy2Pog9uKkOIg8T/lg/hd06HF6BGEHBgZb65qDHzvwdB61UTynEzcvlM4iTLHUeul5MY0WrF/76VQ58EYQh49t9KvbocXn0v4dcrDUdKSdeaCej31c91SiP/i/NfSddug+O07R8PieRevQEKv4YyZGfMOq3Zm5ufmHWHRqi2OxF3dCi7ZEQTEL7h2xKzgordx1V6FKzjDlWTpb8WmRHaDafNXwP6jWbD38CnYc+gk7D54nMQuNclF8bIj8xhszzzqj31HCEzgnz2H4Z+9h2HrnkOwZddB2LzrgD92HoBNO/fDRowd/tiwPRPWb99HAtHs6/7ZB2u37CGxestuEmgAvmrTTkKuW7FxR00sW7+dXFu0wJ/j4+Pxncg+C1dv3oGiZy+/C6FFE1yCLTRDjvoKF+uaQ8gQXnfXb92DzCMKLFixCYaMmwWJ6n20kSq8Ee+OrYeuqqqijUm5abarPRH3viXryNxZNK0xLri+F9KXuuielr2F0Ze3hAZooIEaHCb+luInbOHlc2nc7NO34R2bDa1XTKBXuZKczHGlav5lzG/hruTEUSBpQRlWM1N2latapgxKLgiHkpPZseroeXYFHHl2VV2bHJTBw9k9rPBREZkbYLXCWQXStUZMmkfaTeyEAw6Jb1MT1T+o1TTrBBn/jevYHw6dzI0agWJV4RIcCa7usV/hEt15SnktuHqkjWf7cNm8D1i92nPwBBHwmNRqo7SsjIiXD6VqfPRHqSaQ+mcMbAd7/+EjCfS8CgTCaXRR8h7elnwIxrv3NfHmXUkw3paQjQxa4M+xOo3Hh+eyPrcOuoJmRKkPl1fzXrg2X71+Q6qYR5U8WLLmHxg2wQfJfUeRiiduSmHnQSgtrAKlSm0kxLZITiWbCLhWueDiUft+NlUVcOT5VUgJmCEr1ka7kh11MBwhoLgUekxwg889dVFHWPSBdGCGHxMfCihDA8mgGiQn94fmfYdA/JYptvRHW/hHVojAEMO5sapUSUwR5bNu2TSuF5t5v+SchTDn5n54/eUDvzZ5uKIVLly1WTfIT/VyoZDAGjZJgI79RsHJnHNEgFgl6y+L38CMRavJHIKR/mYGLvg/7AOJO/5Nj7QJJMmOmoSPSSlkYbv18IPYrXBlaASXzKh+mtua8OtICK4fAy2FrBZH0dxOGBBcB45l8XtAvaIUWtD6KDNxsSS4jBtleA29VcX73cJH5P67duseGDN1AXRUxRd2Hvgrv7Qqn5biyKgMaq9rzTn9QRVdeL9HsYcbaFxw8ah1gMbLzyUw+0YmtD091xEJz1KIWX3PgVDzBPtuh01XKELLeOwI0NgyFZr3HBSEYbid32L9XZeB0HLG39D2xGxTZVBizUKFCrswnVufo/MuKXbADMrslkOaIm3OSz49D4ZcWA/niu9xDDwPV/FVFQ7ZZ/NrkmgtpY3djhL4sJbJ/Aq2RuEuv9Xu7I3b96HroLHU5NhMfNMnCf9ukQIzFq6OCjohXXDJJu8bwZjQ1BtohoZSaNNyaiTseYmFr6EUGipcgkXblBYFj3MpXHDFNmXV2FIoNKJg4S1MgmNVcBnvrWhqXfb5Mzx7+Qpyz18m9+PhE9XcoNsQMp9LNrlEigGy6MRkWf/9X+KSYfikOXDjzoOouHdxwfW9eXNVVcH54vuQGsDEO4Uk1FTEfO6Sflb1RDEk90oorW4+2+qYo5Y9fKyjs6HV7LF+M+SQBVeqGZQxbBjE75rmEsfvc4Z5D6EtkdnOqDmnkq1wtbEOsFg36LnVJXcJbHyQDSXln/g1ycN1Iv1UTaSRAMicybH4YEZiHXpjFT1j9/Yj3erIqVz4X5tuGpy4Bp8tJjCraPhvK/W6x+HxaBInAcH1ixELLzJa2kQtFCQhtrHwAXFuQJPrKluUteRthSuIhadX2GgiTNZUuFBwneb3gJiucB0j9wY9kp/lT2XGxNcHwUWFuqkCDO/px7LyYPbitWSjCzd4dDRakeUbZ1UdxJ8lQmO5F6zctJNU2Ljg4lHrVa6S8jJYe1+BpJyFlq1okmHeSfd9p2LJKwNkO8w79fF89uRFzWuK3zEV4oYM9cyXq3mvwdAqI50YLTsWXIrVLJzPGs9uV4liVSQVq/ZQn7uWUSZN0r9mkrLnw4SrO6CgpIi0GvBrkofbwPmTKXOXBc2ImcPmstnPRv3gxg/0i1cKCNqY9vhY/Vq8Zivxd7F7bGPS9IMa2Dp26dqtqBrWNguuBAMpTw56QIkJmt322G8pDFS4WN5SVMGjvv6/VMF1Ivuct9CMph1qEkZBlzxqvqaIPxRcmUd5hSvmsfBEcFE2iChkUP2mjlxvBZcWVPTy9Rs4c/4yLFq9GboPHgf/ie9CCJ36+5Xh/iSyIDR+4YXXf+rIqXBBveejuOOCi0ct99RWwfWSJzDi0ibig9TWKeggkmTBEEOyIuspDuEd1YJNOjaLCKTm3TzAxHceAC3GjYQ2e6brBSBLMLnAsbsFiIQyRydF4H3Etdbn3ArY++QCoWbya5FHqOIByWy/t+xEF0TGuS5R3yaHaO1/9h5RH6ec+vhPn7+CQWNnUISJPdXv17gUGD97sSuD5do6ZwtWbqoRXEIj44yIpuKlTQCrzxlW+5BEF9sVLovZGdHcYogo9VM55+FreXnYx3Pn/kPoO3KKv6XQ2Lop2nllyeqx9CN0Qn7912dohmy5mRONWPhItR0iaAWN7tGsHvHyP5JWXNlAKZRt78cBSxC8ltGEHsEwXHDxqPX4VPEVtj3Kg065Gew2QcXnXgAptUzS8zJO+YhAajFmBN0M2WkgKKP/EGi9ciK0PeGL/LlyC9RQvHlOSXHXttkhewHMLsiEB6UvSaWVX4c8Qk2mr964A3L3NPu5HEr83qozMepEAId5l7UKLl+/pX5A99GBFIRGMqNdUV+RwBkxRGpH0/wWmX1TRQMiulEQBqsres8f02yJRqj+N74rLFy1JWYEFx4neqDhbMiPzZI0Rs/612X2UQsGCvOc85ehoiJ8j8CHT56RYyHiTzRXNeyIhThPhrh3fv3HuOBKGcick2xArd7IMQ/NCKfVEDeucN136j+GtIMLrHNGacHU/u6vLVIgLX023H/4pE47D7jg+o7j8cdiSL+yHeSsuWaB5cDUVnJjhqv4zEJOsWmpU/RVLNdGuwplDslGbCBAg2Diew12BsVggTKmjgZp/0z66w21kheuWNLMzZkAIjbnRrISioqT2b850P/CGjjx/DqhZfLrj0c48fzla1K9oFKtDB/KgsE7C1sF+w6fTOZqjI+LKGP0JvqxaXvDB7lsi/PGnVSkYp3OyydzYNEmuNZs2U2AHsZ2JoFyvowD6b+37kyojbEiuLA9Cf2eeg2bSExXg2AQo2+aWZwH1kvbbmlw8eoNZuupm8BqGybMPwdaOqlVUwOhUHOsjdr1JL5Z/NqPdcE1gLIWg21xgglgYzA+/o4EV2Bz7ePHMvWeehG6p00g5EHaNaI9ZwLFMxFBHO26p5GZzLq8N3PB9Z3vFB95dgW6n1nKrrZohJKk6Gl/ko3ZraQY/87B/JWbuS/Fhk7oECwhGQRRm8Oz/Jj4jgPos1vV4kuLga8RZMn9IS5tKMRvmsIkEAaP3Tk0hCp4LKAhkkV7oLGiKbls35RCQNS3z54PK+6dgLdfP/Jrj0fYUfbpk5qAHiC7ng0MMw+CFS64+kM5vvMgOHDcDCF4/eYdjJy8wNIYmJUUY/Vi1JQFpJoRbYaumGRs3nUQfmvZyTzLJFq1NwVaJTupr22+J9We2mqhzFKFb7IqgHUzfJYtXProPigdbt976MnxoOAaO2MRaekURJl53rWkOkGzbrGlEwf/v0cPq/rYUihQq/H09agTXC+Lv8vzh9UuNFNO6DXMMLtLuc8zWnRxDhWNmNEPjgsuHnWTuFR8gdk39kHC6XmUdjefbTJvJVyYFa4QKjVWSb7xeSWFYXysOKuEYcRvnkLaAs2thakWpML+0LzbQGg1b1wNKIOJXFcYs2Y6yAQb+EHF3YfYcqh9LsmpAHYxb9ZOPb60i+vh6rtH/Jrj4Rlt9cLlApB7DLUBZ9D9l1BAzF+xUbfbiZWM2/cfQsvAYLuobykUGiVYPja2fa3FOYEPpdF3vior4ahyBv5s2x0amGAjZtqiYBjYx8H1boPGqYL0bYwI8s+w7/ApaNN1sMlDjSZudB5r6r+Y1A0dPxsKHxd5cjyvit/CtAUrKRVGyrGJCfp5OvUY8e+mzl9BXhe//mNdcMnm+5KYYMbDG9br91jhMgZagqBpslVbt9lawf81bnYMGTeLgDm44OJRZ3Ht3WPombfcBNCQshyIHCe+WE7aFF0Z/foowAmfc3HFECg64XLKBy1n/k3gF1TBlaQ1Pw7ObrUYNRza7JruuuXOFQBDcSpSfR7Nh4UH4+icmwEbC7Pga1U5v954eDajE5iL0dMEKf4sFCGGLSZDJ/jgybPnNY+J5phHVFGCYkwwINMbiPRZrgBRDOmEiT2HEbRxtJhsGrsZbt0thMRew1Tx1F4jOqxFpFZkNk3qAxeu3oiJ9YGkyVWbd4HYrkcNJlqgVPUEMYEqpFFwTZi9hOCqvTgenOlbvnEHmYWj4fgFS58wbINtD/1GToHHRc/59R/TlEL6DJegW6P0Kg0XXP579Jyl68ksqqDZIBEoLbnG+z62FuM9+trNu1xw8ahbauHSO0chOWdBeIAGxQPgg4v5IMmR+W/osIg2e2dA3MA0xwCN5j0HQ+ul44lYa6u4EZA2wsWpobQdiCOSQBNGiydWTidd2wF3P/BEgYf3VYyVG3fqUeesahdlLgnFR875SzWP9+ZtCfkw/7lZMtUPJzhPIWsEl//fn5t2ILunt+8VRm3b1+Onz6H74HT4USO4WBjy4JxR8P//UcXC1j2HY4dQOCtD7+XjInAeb+WmXfDOI+8erMiijxZiwekbBLKZqqlZwz80SYDkvqPgwpUb/NqPRaGgw8LLlLbCBFt6IRdc/o22K9dvE+GE81yOr+nqa6ptt8GkM4ILLh51GvdLX5K2L2NroRuUuNMZJNpjGee9PKP0KXPYrXkOHrf14vHQrPNAe8GVUo2BPzAzPKFnJa4Uj4WRYmhPVLz0RvNH33OrYH9RPnyu/MqvMx6et8mdzD5nQC1btRTq//2jdRdYt20fwcNXVrcT9ho6UZMQy4w5C9k0d/HfNl0gY81W0joWrecL59MQNOInFSaYiWgm7x99ayFWxoZNmEPAItG+Ls5cuAJdBo11ZIgtmP6VSUXp8KkzTOuAUCLrzEVV5A/3z6CIbMElaNoMA1/j32DL6tY9h6JuPpCHS0qhKDPuS9brlAsufyBddtbitSZPQZqhuNHUvLHcE9Zu3csFF486viFUlsPeogvQKXext4m3G3Ncl38jKZGv3kiHZkGLYcMYAI1gxA1Ig9ZrJ/mrW+Eek+IRRl5xiYNXvK1OdsheCPNuHoCisjc8SeARkd3OOw8eQe/hk9jwA9EotIJVhIZNkmD6gpVQ/LaEtKocP50Hccn9zRUfA+WQJt7iOvSDgyez4dPn6J2xwYogIuv/aNWFYeRsFph6iINMZubqcofYSXxUXyd67uCQvLaCJ5hatWjVS//XLTqmEusBL+9bN27fJ22BxIvL0oRZ1vugVR8zVl4n+pbCm3fv+fUf01h4us+WFeqcCy4tQKMC9hw6SUyRG9RsXsimOUzaOcSNi97DJnHBxaOO2zCqMfHTC/ZCh5yFzv2bvE7iIz2XpNBx9kxqIla51k0yYeJ1rYTdBkLLGWOgzaGZjMf1ua9sOYWShCDejMJNclr9c0GUbJc1l1RM84rvwleOgecRodaxsrLPBH7x7xadbNpKZBMIAtu0eqZNIG1aaIi5atMu+G+brnQ4huYDXWikFyEIlOg/ehrculcY1RsLWMU7mXOO+EuRKp6oF1Y1u8Fi0KdLMAgxrArOU893WRRXuRD3P/Dv6dCwcQIduy4a8euGHXL174ZOmA1PX7zydme+5AMBX/zaoiNFtGsTRvrGASaLHfqOhLP5V/kGVj0QXFo0vECZpzR6AHLBFbzvn82/RjDvPzRJpG6CGc9d4NziNdRjSDoXXDyiAB1cVQnZr27BwAtrQDYANJz5XvmYZMOQWukcCQhfyG2OTo+xDVa5po4m/lomwdVxAMSNGAbxW6dC25M0hL4H3lmGfyXFIL4C3lqKS9qjYkdu9JHjZ7Z7Wjxfl5zFsP7BaXj95QO/tnhEVEQcPpkDzTv0Y1Qtqnc7KeIBd0dbdkwlNLtHRc+qTXI76Kshoqa1TjRWg/yP/2tcRzL7FQvJEIrCviMmw0/NkkytkkIjmTH/poeNdB7wNzGHjsbXh35jOGf2l9xLY3DMQLAzcNzYcrl8ww7P8dHlFRWw7p99xFMriLamGbdSzn214ELBu2z9dvgQZcbaPNxh4c2G2zJlLfAKFyvQrgHvY/9q2t5RdTBQLcZrqGfaeC64eERHvPxcAsvuHoeUnAxrhLkXFS0lFEKhC1x8lkczUKd8BBMfN3ioqbWwee/B0GphOkiHZ3lXzWPMnLEqc5JX74mNyJWyLFD0mmPFOUA01Eb6ZYUq4vl1xSOSu52Fj4qgU+pogz9LggNyIVZsOoNvyVqCTO/UfwyhDdLMgK0CE+hDJ3Kiup3QCAbBxL1BY/Z5Mf/fvwuPMAn0hFq0ajO8jzL8PYrv6zfvkra9ho3b6xMwUXbgO+b/nfgugyD77CXPq0j4eGiKjfAL7VoVqMl2AnWWDmfLcJ1eunbLE0NmHnUkuEwzk/b3Gy64gvHw8VNIS59dvXEkawiFMvXe1UAzC8kFF4/o+dD6VgUXiu/ByEub/VUuxYFprxO6ntPfUcKEZNjNF4UoiqQjs6DV3HHQvMegoODqNABajB0J8TumBcmETPHno4s/u2qe1+AMJfKP0S13Kex7chHel/NdWB61gwoeP3sJ/NS0A0U0WBvd4gd2Up8RMGDMdGjUtqd5/ku0SYjUn6eoYg9NOWOhzQtFyYnsc4TQ2JBQvowwEPp8k/Zr/Duc5Tpx+qzOx6zONwtfv1GF4Bb4vVVnpoGsDh8tGkiN1f8fNWWeZ/5bxnjx6g2Mm5kBPzdPdpRkC5TKI1bgpi9YpQpebiIfu4LLaAsg25JWueAKRtGzFzB6ynz4uaYjgUKSpdzDuODiEXWBifKmh9nQ5cxi+9Y+CmnQERJda4isuBBWiouqjFP4hEMBF799GsSNGkGIhKS61W8ItF4xEaRjs/XVJ6qRsQtAiBMsfKiYfiuj5SyX55ZxHmcU7IEHpS+J3QC/nnjURpVr294j/qoNNXGRmYILP4ARHf5z844GAWIQXCKtpdD//ynzlsOzF69jZ3f4yVMYMWkugTDoSWkyA1MtmxJD/Nuh6bPJY0WD0Pzw8SPsO3KKCEmczXMiZmjrAYEi67dlet5OqBW8SBr0m7fK7B15i2MM0NawqsqrXLEouGQKJVO2aHXlgst8D3sGwyb4aiw8zFVimWH3wAUXjyhMYO58eA4Trm6Hdo4Egc/GaHiORaXMWWIvKaG34oVTudE+r3R8NrTKGE/aCFF0tZw6Btrsm+Ec1qG49MtSwkTvKzbn3QXVUGLN5hlEdvczSyHr5Q2OgedRq4EEOExmaDvFugFqUbbcRTa2EgqiRcVH/d1/t0iB7ZlHCQEwliqCm3Ye8M+9NdZCJAxJn8hGVuN5QkrYvOUb6nyeCJNZ9FNLHTW1GhUtW7z/jBmu6tfabdBYOH/pOlRURK4V+ubdB9BVfZ6Gmjku3SydKNv4MvkDK7P5124SDD6/B8RehUtoZA3J4NAMdty5/5Bc736fPdkgsrRkUrO/XteBY7ng4hFlw8dVFXCw6DL0yFumr0bR6HaahF/ykFIoMdoWJTsRoVjMHylmMIQzsqFfVEqZM6DFhFEQlzaMzHVJJ32u5qAcCT2FMYvGPEYfm0aoUCiMVr5bCoWGqOgrYBJDWOPsFhpov/lSyq8hHrUrItSEZvC4WdDwryR9e4nImpOQKT5UNl44FKR4ux5pkH/1RtSaHbPi/sMnMPjvGcRbi35uZNO5EQzGvPjz/7XpTlDzKDjrotKF7zsKJJzn0LYSCgwoBms2D4U1EioRlvG25ENEXwse85K1W+HPNt0ceMcZ57xknT9Xn+GT4ErBbfjy9WtMbOSikEXBj/OOGNiSWpvrBp8LBSqixTGwQlgbz/+lxvjYMMNlFNcM2wJ8/70WXFhtxTbcY1l5sHT9Nli9ZTfkXbwCb9+9J+9TtLZI470268wFIl4bNtFXCM2zmvqWXGzHHT11PhdcPKIvXn1+DzML9kFS9gJNAu7zBgtvUxGTKBUhySLZd9tyKIU6E4UAjfWTofWaiWSuy1Tpc4NUtxBctm2PCkOYMf5GCmN2y0l1ESuhw/I3wvni+2QOkF8/PGo7Nu86WNNiYjnLJSZQfHDshtdpQAkZRk9ZAE+fv4q9DbXycti88wA0SexDOR+sWS6DP1d1y2XT9n0IGRATtdoUnpi4n7lwGYZPmEOqbT80prRoibJ+Dk80tE1WA1IQstEjbbwqnm9GtLpVU5G9cx+6DRqnEbwWdgYMI1x8LTi3OGjMdMjLv0oMqaM1SUZh9UpN7hFGggJ9+fodamwnyT4m/ZGeBcT39EPpR7j/sEgVFVeJPcIpNS5eKYAH6vdw7UbyGPSCywh4SDCvS4MRN65TLwUXiq17hY/Bt2QdJPQYSjzrEP6T3HckzFy0GnLPXyEzgtG4nvB9zFi9BX5r2cl8XxYpFXrN9Y9U2kMnc7jg4hGFOwnqxXbq5Q0YcnF9EKChhEG+U9zRCCUaadBDEIZrJHvguI7OJnNbpjk2xcVclbZVUqG355m/9lnTGJ1SJZUQ5scUi/dTjU65GbCpMAfefuWD3DzqJm7eeQB/tu3uJw2yMNvaJFy0mJ0RrWZp/F9jOyEmjx+j2JPKKh48KoLBY2dRRapgOwOlF6tSt8Gwfts+gtevDZBG6ccyQvwboh7/f+K71ogtWiXOmk7oD7FtD+LD9u79h1pJMnHNIN69SWJvMlciMNtXjaQ1MwgGd+0HjZ0OJ1QBEW1JMlaTUFDlnr8Mc5ZuIIRFFOiN5V5kDi2p93CYt2wDgc5EokqHwgLf04tXbpBrdfgEH3TsO4qIjMSew8jxDEmfpSbwW+HMxSvw5l0JqXxFrKUQBZdodz3Rq51eCS5cH6+K38L8FZugSUIvjV9dAvHn+596PWG73q4Dx4kXXSTORzg56dWbd6DLwLHVmxV0GiGt/RuvM5zxRJIpF1w8ohQT/x5W3jupJtSL3cEs3FagFAuh4AZHH878VpbPHVzDjrLIQLpLLqt9jl6722PzEOePrYQTru6A6yVPOAaeR50FJrHdB6VrPohlSyS8u5A1u6X+aNttCCi5F2J2hgZ9ofYdUUDqOthvhGwQXIKpNU8LD9GfR/x7bPHBHfNL126Sua5IJP6YQL8qfkMAGX2GTyZthDpPK1FTGdD6qIkJDFhBAvHyGfj3DDJbVVvvJb4ObAUcNHYG/FsVTNrEsMaEmnKsrDWN4h/bCzFJRqBAeR0nyZgYo20A4utRzHQfnA5/St3916amJRLXDYrdyXOXw90Hjzw9/1jVuvvgMWzcsZ9YBTTv0JfM+GmR/CjUf2meTMQfnj8UZXgcXm8amI2P2ehygUHY80pw4Xk5quRCmy6DyRyhYLLBkIk5d3tVDM9VxTB67pVG6Hp2T/kshlkZa6qvewYgQ6S1ZPpBP4PU6/zZi1dccPGI0g9lNYG++OYBjLm8hSTWYftnOf1bbTVHa+4bbutiCFTDsCpZDkSg5LQaRplpkwwVLinLYl4rhNZLJ+9lr7zlkFl0ET5UfIZv//eNXzc86qi3vwoWrNxMdvzZ7YB6c0yBaYZr9X2ZVNEGj51JkvRYwMFbodSRsugnPBqMQ0UKQU2kn09/W14iaUvCisHB49nw/OVrz3bH8Rxj0oeVkGXrdxBghB+QkWCzw63/GY2+2DJlADHPxpmi2nwv8fXs3H8M5O5p1YI3wSC2ZPvXpvl9PB84Uzh1/go4d+kavC15T4Rdbc9p4Yzag0dP4J+9h4ndgtiuezXcQIu5178WpDau3bqXtPZ5dRxojjt57jJo0TGVJNuBSqLZcNj/NQqv+M7+TYM7Hos/JhZelClfy1TzcSK4XoYvuErel5JrNFjZNoj66uP4119J8L+23cjvHjiWBc9evqqVdlvW+4mthDhn5id8aqtXTiryCarg70aqevg4XHDxiM5BVzWwTWzLw1zokbeU0drmI1AFyYXYkmrIhr6aSpLEmn1yJOrMvyfZVHv0kA/rdj1JM0fWVnPsbY1/z5rVUuiVLYkGqbARX5LiYvZK0f7ro2Lg/UAQn6aq52Mfs+HcJJ6eDzML9sLDj6/47BaPOh/Kzzl3iSQJDRol6gang3h3M23PFhsuGis72MbVUf3w3giv37yL6XOGCRS2e+H8EsHEa8ASVnhlQaQP+WNSi4lrUu8RxGAZh/Bfvi4Oq+KCrWaYPCMNMm38LJJw/atJEkNEM2bzGC2iKAQWqEkYJqG1LZzx+Z48fQGzM9bCn+qa/aFRIj0ZF4PthEYogHH9onD7d4tO0GfEZFi1eRdcvHqj1oQXiuunz18SE3EUOvFdBpK1YN+u6z/uLgP+Jq1/XswB4nU5ftZifyUExaxoXQEJHkd7aJbUl1zb+Fq8WhMswcUS1wLFFNmrCteN6tZr6znVYPwSlwzte/mrXRcuFxDBUtugE3zdW3YdgrgOfa07FkT6BgyugXbdh5KZwbr0DuSCi4ej9oC7H57DdDWxbh8AaDCTfJ/Zc8ogKCRL/HiILW9KGK2DlKqapLhEsDv0vzLPW/nCbvuTDNU/SXEJCFEY4A+a2NWIVwRl9D+3GnJe3YYvleX8WuFR54HtIl0Gja2BEQgGap1g8L4RKOhgmhmuMeLVxAmrIrFAh3PSipl5RCHzLMZdbzt6nh5SoSEaquftx2YdQO4xDCb4lsDugyfgyo078PLVGwK7QGgHVhBQCGCC7Y8qIgDxnGL1p/DxU8g+mw+rNu0k7YM42N+wiRWq3mgmy/5/IMnHCgxW4uqqSokiBVsLh0+co4qDLnRwgihTknOGlYEY9Bv6QxUb+J5ixQZFELbXYbIcOPehChs8V/i3+BhYzUJxg21nKIhRFGBF6cdmSf5qnaiplIpWnngyMYNeum5b2BUIPKcrN+8k9wChhurIQrCbKXd47nDObMXGnfBJXasRrXBpj0FkiS9/eFXh2rjzgA7WIjTStrHKTB++X+M6kfW0cNVmcl3ivfbL13Jyvr2+fnB94TrFWbMz56/A1HkrQGzbMwjGMWDf7ToTsII/dsYiePL0eZ3ea7ng4uEoyiq/wNFnV2HA+TXQDgEaRny7W0Fkhzl33Nrm89TLylVLJPV1+yID8PACtR9q+yfjd5FeueLeCVIB5a2EPKIhMFGfoyaYQYKV87ktwdTGQ8fIY0KGQ+XY3lYfPJAwWSp+W0Jaulqm9K82gLZp1RMNVEOaQXR1VQarSHHJ/cgczWz1vUGTatxpxt1ybMlET5079x8R6AlWKFH8rdu2D8bNzIDkvqP876VoILmJCY536GnirGGTJLJrf/bi1TpH+iNSH6l5KCp/apZke+z080xvffUnyh3JvOGISfNg5aZdZKMABdJDVdAiJAJNo1F0Y0slimEUUSh6MeENBH4fjxNn84rfviNiGD3AcAZw3oqN5NgRANKQzGhRBLpobz6Nvzvg7+mk6hdOon7rbiGZS2zQ2H6zgFX1wteBxD5ck5ERXLIe7uLAnsKrCpdv8ToLOqass1YwAlvw3odVw479RpMqJrbEoi0DVgNRKOM6wU0TfB/ciDDc1Md1hmsQwS+Fj4rINYGVRgRk/NaiE9tDkbHGAvdzvJ/hvNqOzGPk84ELLh4x0Fr4DZ6UFUPGnSOQnLPQW4NhJUTfKsVjQeLmWJUwxGBtiTHFJXjDJZhjyMV1UFBSxEEZPKIKP33wxGkyIO+vhjgFYlTvJIs2M1xiAmnZwsFtxFzH8vwWDRM9U31djRN6OTLetcfnG0xHmyQS8YQtW0gL656WTmAVQ8bNInMiA9VkG3fQcY6mUdueZvEhuhBWFoHJdHyXQUT4ffaoguHFRgGKl4Sew2rmnVitUwKjAtHAokoSaJdD7y+5RxoBRIyaMo8YV2/ZfZDANg4cO02EMCa6KHzzLlwhgS2nx0+fhX2HTxHrBWwtGzFpLvRMmwBtVGHze+vOmmtNNs32NWgkO7ZdwPcf12E4IJg1W3bDL6Y5TrfQHPSY6wbrt2V6Isg/6yiFMr0N1mZmzyvBtXrzHoPgku2tNCjxU9NkiOvQj7QjT5qzDDbt3A/HlDNw9cYdIprxWFHQIyUSW3ZRSKEowyj5UEq+jzN7eB9FYirOHe5X1+DaLXuIV1aHvqPI2tJCTqi0Wcv3VVbFWgqMmjyPbO5UVVVxwcUjRrxbqirgXPE9SMtfH15FhuYhZeFTJXlB1VOipMpURwJMsjl2ycYA2vjzxOz5sO1RHpRVfKk3SSeP+jHHhR5HSEVDjyK7xEFwnIQFP9ibJvUh7VO441/fxCpW7XD25beWnSmEPAdJq0hJuh2eV4FZCaHPtwgajyqB8fxacULAHqroiEtOheUbd8CbtyVRde/CWSsk6mE1Kii6nFTtDP5DludZL8CwjbG5mjQjOASrQrIq+BJ7DSfVnZR+o9UYRaqMCer3UAijWP6tVWfdZoZQA/vQQzGcXVt6MYazZ0hZDPXaxwQe20R/aJLoekPAGNheO3rKfFUglHlX4UoZ6GyzglK99Epwncu/RnzryJyr0aeOKvBlXQum7veqKaC/qOeqWfs+qpgfqgrx8TBm6gJSAZuzbD1pE8V5wvXbM8n63qCKWLRgWLL2H1LBmj5/FWmpxUqW1GUwIUbSDdnN9xrB5F+mF2C4DrC6tfPA8aiw7+CCi4e7D4WvH2Fj4WlIDBALTeLIR/eGYpjpSjqjYx+jTc+qEuajgihYdD5JcTc3JSkO4RUKw2DYCO9w8JokRjVNooAwwjEy1j6W5ZwX5XtpF9bDs7K3XGzxiEry3rQFKwkqW5tsC8zhahuzY63/kfp3mICev3y9ToevI7apVl4OV67fJlUnQgEUzRQzQZTprW2eBL2ViSrsdAmXvq3IlOyL/rkmFAwZa7aqieubOm8lpAVWBDaoiSmKLqTEBe0IElwRGVlixyRQmWARWWMeSxEDIqXaJibYV0ZFdisYwhkWr90assDB6gXCVbB6qmvZY5jj2p1PXC+dB/xNvOW8ElytdBUu8/HUiFUK5McrwRUQpdpKqsCqbjkkAGpbI/G8YfUL7x+/t+5CKoVi2+5ESDVB/7V2PYlFwH/bdIU/VMGPs2E/NetQU8kSNELOXpTKlHt5cO1jhWzKvBWkghYNuQoXXDzc7yCXPIGR+ZsYwsTnuHoi0SAaVGKhj/H9OY4hF45mk+ygGYqHVTCmqPRZEgcdtTAqvohW6JJyFpB5vnLeSsgjCgPbdxBJjR/w/g9xSkIpsgl2QiPGbIzo92waOXkevFQTn/q62YBzaThfNXDszGrRJTurFIhmQqAg2hiSGqEQTipcokxp/aS0rYkUsaUm9DiDFK3vXaBKs3nXAYKL/1EDfxHsiJGNXGwimAQqZd5JpFD0RJkKLTC934a2L0FkVSYCCPL20Hv4RLhccIvM84S6bs/mXyWVOMG0WSIzRaquldjwcxRvBbfueSu4TBsY+vuR7tyKkfHhOp6Vp56nAdCwcXvDubIQ8jXvo2zb4itQoUN0bz+jz59AuzcEKqgirWJOn33De3Xf4ZPJjFllVXQQlLng4uH+5lFZDvufXoTOuRmWlRHJZVIvuajO6Oh8isNWuhArQXavTXLyuhWPzYednmePn69d1lyYfSMTir+U8muBR9QGDvR31dAK6QJBZlLuaLCMgJcLViDqWzshrVpw4/Z9SJ+RAf+N70qIfuZEiZ6sNxBZM3HaxFsOtjMFzH41yZQgGqiDop03mrY6JhtmTTpAO1W8bN93FD7FyPuG6wvnpnoNnUgqtcHdf8o5F1nURjlo+qz9upE9fIOeyMpM82j278mmapNgSNiRZtl14Fg4nXcRvn4tD2vNXr95j7zXAuUYBStBKdJFGAoufMyIUApFdvsgDRnvleAKzAxu3nmAECURIKNrLRSNIovSoismmNoRqefZcP4Fy5lZ2fZ902+6aMSpqKd2/qxe88l9RsKp3PNR1YnABRePkLy5Cj++gtkFmTVmyJJtZcV55autEpmZKcnD2SjJ4nGlcCptijfHKbmEZDgVu73ProTzxfejZseIBw9aPC56ThKUX1p0ZIgE2bSjKlDgBNqEH5HEbbulkV30+thOSNsJR4Ig+kQR1HfT9gwks5kEpzdOphhOi/pWT0HbYsZI/k2VR5GS/IvBeTDiCRbXkbSF7Tl0MuaIklipRV+q9JkZpBVLW61lQTMEZoVCZlYL6YJWW4mQKb8vM0iDhtZFY1XEkHTjnBSCMg6dyA57xibga4YecIJN65uga4GUDcdZvRbV891t0DhPWwqJ4BIpQlU0V94FQwXJS8EVaC1c+89eMruH1SDtuaBWN01thrKuWinoZr7svdcEK5sA5hqWLSpwQXuBlNTRBPLyKUqgOFxw8Qi7ynXyRQGknl8dNAT2EEQheSCgJIezWZJHYksKp3LnEbijxqA5ApAQ9GBbde8klJSX8WuAR9Qnq2u27AGxbQ+Ch6YlAVqhJVB2lI27rVjlGTJuppr0vI7K+Z9ItReiTxUS/XB2jQ0jSGBANqz9zvTvi2zxGPazS0KgMob4avU40bcrLX022eXG9RCr5//pi1cE2Y/VloCRsNVaZbUdUj2LRMPci2gHlpBNgkFgVC+syHdkzqdZB+g7YjKcyD5H5rbCbfPEv0fyXb9RU9lkO4pfm3mt+pN6TNzTZy2Gsk+fPBVcgslXjWVLEVnBhfGu5D1BuyMR8MemHaitq4Lj69xJq2vwOqXNygphzoCigEf4RuZRhVARo+165oKLR8g3t+ef3sHSu8f8mPgsB/CHcKmCSgSw6VlRSC9UHIoyxcPHt5kRQ++1tIsb4Nq7x9xzi0dMRNaZi5DUZwQRSvbzLLLtXABWS1Zv2U28Yr63c4nVhzMXrsCw8T74nXicWbX2MXxyQsbLy45oiDUeSk0SyK490tFu3yskIJBYP/+I0j6dlw8TZi8BsV0PhwhvFiWQMhNHafWzFV5G6IOY4AD/7l8v/2nTBWZlrIWC2/fCaiOkCVT0cPtVi4UXExxAM8ztfDgDirh8rzaAgi2FTvzAzBEJwRVoX827eAWGT9Cbb4dLebS6t9IhHbJtRdYqfm2RAgPHTIeTRMB/jMo5TS64eISFic9/UwhD8zdGtsUvFJGkRE5w6UiBbjzCFJfHqEQAcW/lKWbxuJ1yM2DzwxxS2eRrn0dMtBU+fQ4jJ80jxKwGtpRCVqtU8P9/tO5CPGbqg9lxqDMyaHi7Zuve6jkZ2VGiqG8HogzGUytcMp2KyNxh9z/+b606wdDxsyEr7yLZ4a5PlUhs8cSEe9+RUzBg9LSaahet5c+SPMdo82RXHq3n5mpazER2C6NQbZqLJEL0bcIWwjfv3nueFOPjYUUwqdcItnhkmXhrvvevpknQfVA6PH/pjcChznAx3h+BUbWMlOAKXNvYho3XNrZkYvVR1z4o0lquZRfC3FhhpZEI7R+Huv7UfxFzP2PhamJUjabd0XoNc8HFI4xZrm/wvvwTbCrMIQl5yOJH8ciUOFRPMC+qUREAhJiw8IrP20qeQwNprG6Nu7INisre8HXPI6basbbtO0JMkI1zWzSEsBUNDpNFNHvFYfPvvbMBq10oPKfOX0GqLejnFJzBkjWEMtkwME/zi5IpsxmyZSVSNx+m/tuwsX93G+c2sPXxdfFbIk7q7UanmlAiaRGNktFvDtuosIqLa1SgVv3kkE2ABZECzhBl3futhZXQWvSI0FKPEVtS0TgZE/tIzkCiyD6qnCEtgU4rJdo2Pzzelin94cDR055trtAFV4KjY4pkS6Hx2sZq1617hQTPj55aP+NmVWML6IUbZLyF4bxxXQqs2S7DPRmtE7oO+BsyjynwSr3uKyuje7acCy4e4d3cvlXBo4+vIf3qdpKYh9zCZiUQ7ISGlbGy4rFAY+HalTmRFUNG0eVU6CkOBKuNCXXPs8vhxIvr3HOLR8wFJijow/J7q84EesHerWfDANCvpuugcXD7/kOyE8zPqz+p/fz5CzFKnr14LTRL6ge/tUzx0wxFmTonRxVVIgXIwKqmiAZE/1/tiadP6qipxAYADXO/fC3/rjYU3n8oJTNQ42ctgXbdh8If8V2q/bsCJD7ZmW+XKNu3DJqgGbS5r+q2TvVa+3dcJ/grsTepxu3IPAZFz15AeUVFrXyOoMBZvn47oYrWzHNZgCACrwvXb1yHfrBq0054/77U0+OpmeFiVmvo96LAtRNpwaUVXnht3yt8TIyKuwz8G/5s2520VGvbswXRYtZLZFzjxplNRhuqwDRMl8n9uJF63fcZPlldV0fh2YvXZIMlFvITLrh4hB2fKr/C8efXoEvuYuciS3HR+hdONcpK1IUrWmyEimv6oMI4RptzQZ5X8YU+K2chGBOy5xMMfGnFF77WecRkRebOg4cwwbcU/mrfG35o0t6U5Au0Fig08GyCrSpdYeDo6d8NmTCUpB8rXtlnL8H8FRvVJGgS8UHC9kucpXJebXEyD4aJfCJpH8KWxuETfbBdTbgwMcSd+e+RnIrrG9flu5IPcPHqDQKKSUufBXKPNFJ9RDy2f6NBtmxlEywNlK0qDcHrBRPh/7XpCvFdBhGcvW/xOjhyMldNiF8RwVHb7Z1Y8UCT61YpA/wtchZAEHydPzVLAqnLYFis/s2z5688TeC/UGa4zEh067VfW4IreG1XEeF1V72+9hw+CVPmLifUxpYpqcSwGCvbDWzaTgUa4dLwWvXVUvp7hO2zuJ6xVXTkpLlEwN9/+ITYPMRS2zAXXDw8aS18/eU9wcTXamteJKAXYbYzSooHrZJO2v28OnaLaht6bvU7t4rM6fHqFo/YnX2pIB/Oa7bugZ5pEwm58Me/2lMH6QP0tCaJvaH7kHRYuHIz3Lxb6Olgf30MTPqx2nLn/iM4quTC/OUbYdDYGZDYe5iahHcjybjbgftAgoaJMGLRO/YdRR5z0eotBIjyVE2KidCqrPzu709EeKnrHMUvUiXx/Kzftpcg5VH8tO81DP5K7EOAJ2Tti6wWQ9lAzKO/Z6RNsHlH+LNddyLucC4LBcHKzbvgaNYZAitBYuDnOhBa2irsq9dvCIVv8NiZpHIVNJIOVrSwchPXMRWGqEIVKyY4A+Z1JZvZUujIX65uBJd2UwVBQa+L3xFvvgPHTsOSNf+QWclug9MhoccwAhjBtUVaEG0hLjS8e3Ct+e/BSQSs0qbrYPWePZ7AYtb9s5cYsuP6xuOJxVlaLrh4ePOBW1UBF4rvQ/czS8MTSQo9XM8vKSE8bzjEQK+JhIrHXlwagSXZVf2qo2NuBiy/dwLKeHWLRz2oxLwteQ/nL12HTTsPwCTfMug9bCIk9x1JhsST+owkRMOeaRNg8txl8M/eI8QDyT8XUMnPoYvzjMnlm7clJOk+mXOeJErY1oliCc2o2/caThJcNFTGVk+ctcHAr3EXu1WnAeS96D5kPEmCZy1eA1v3HIbc85fJY+JjY+tgFd8EYoovPD8fPpbBk2cv4MqN2+r7cI5UA5et305m79DeADcfcK6qTZfB0CSxF2nTwtax/8Z3I4FfN1ETaZxnwvcMf7fboHTSIjhWTf5RVG/auZ+0NF4puE08sHDGEd//aBHBuEaQWIetr0gcnLZgpfraZxEcPcbwiXPAt2Qd+dmNOw/I70aiUkoTXIJFtY1W6akrwaVdV/i+YtULgTQPHhYRg3mkAm7ZfRCWb9gBvsVrydpCkd8pdQzBzSMxtIkq9rHqjfRINCLH6x0NvfGab9a+DyT2HEZmMPHvsHKN1dH12/bB0VO5ZG09ff6SrGfc2IllEA4XXDw8BWisvHsC2jkRR4qFQFDCQ5pL4bQPOhA+EkvQaV83RdRIikfVPrczbln2rYpGEZaQNQ9G5G+CgpIiXt3iUa/arzApfPL0Ofkgz7twBXLOXyLJPGLPL6kJBCapZWWfYmYuIFrPNRFfmPiXlpGqwY079+HClQJyvhFqsPvgCdi6+xARZBjb9h4mIIhjWXnk/ci/epPMzaHoLSv7TN47Xs1yX+XBCi+i8dFP6t37UtLih+f18vXbBAeOohirFplHs4hZLJpE71YFCH6N38f3A1tG8frAtkWscjwqek6EL15L+Nh4rURrIozrBc8BVkOxOnL73kO4euMuXLt5F+4+eAQvX78h13sk11aN4EoZaAuVEESaXYVc54KLRjbE9x2pgHhuUawisAbP7+Xrt+DcpevqmrlKxP6B49mk0rhheyas2rybGC7jxtf2fUfh0IkcQhU9m3+N/B22CL9+89Yv3tXHxveuvmyucMHFw7vdzW9VUPDuCQy9uN6ZuDDR93xUsaOtbklWOPZw0ek0gIRN9c3J65TCmUdT3AA8fO5EpkX1rtuZpbD7yTle3eJRfwWBmjBg0oCJFgn8Wg2e0EfmfGNCrj3fKKCw5Qzb4DBQnGECp30/8G/4+xGB9+Kb/70IvB943oNRUR2VpvdD+57E4vuiXYdVtbi+rARXwARYEK1R6NEmuJyc30rN+kLxhK2AKKTwev/0+Qtp1a5ZY7X8nnDBxSPmAxP0vUUXICUnw5DY+zTwCJ9t+59kV+1RnIo5yvec0AEp35Ns2wAtCIJGgIZVVUoJvdXREryhOAOSoJH1zIJ9UFj6iic7PHjw4MGDh9czXGKCAdgTnTNcPLjg4hHFOxyFH1/BlGu7QA5g4hXnrW2WwkpxSNhTHLTpWYk8t4/lUAhKWrGn2CPgnRMXfexzQHtsC2IivmeDLqyDE8+vwefKr3xN8+DBgwcPHh5SCmt8y2j+VKJMNQfngosLLh48zDeXynI4+uwq8W8Kyeg3AmbIEkuIhIOV9xiU4aot0Yk3mWIBImH8TcfsDFh69xg8+/SWzOXx9cyDBw8ePHh4XeGy9uEK/o7MBRcXXDx4sOPF5xLw3cyExOz51qALJQSTZBc+UmF7eLkVZopDWqKTFj/FYxKizbnG6taIS5vgbPE9qKjiZDYePHjw4MHD6wqXtdCSDb5cclRCM3hwwcUjWgg2377Bmdd3oN/51dDOrRjJMhP0JCd+Vw5nnyQ3UAuFMnfmlISosOfKJIdeWG0dHBtbaPlczLz5oFNOBqx/cBrelZfxNcyDBw8ePHhEqMIliLIlJMP4/bEzM7jg4oKLBw96fKr4CsvvHocOOQudY9EtSIHBGSif8xksavisSX9eVZ5ocAwHlT3JZfVK8qAFUs6aC+Ov7oBb75/CN752efDgwYMHDw8F1zFHLYVCtRF74F//TFcCjJ+1mBg58/PJBRcPHtS4X/oS0i5sgHZZDv2zqALE568wWcxmBSpQQVHns6/6OBBr1Oclj+GzhGO0NRyX+Wu/GJOyLGAWRuqhpSCjVbN8FlW34M/wvemZtxwyn+bD16oKvm558ODBgwcPLwVX5jFoldLf4K/FmN2i/H/S3GVccHHBxYMHO9Cba9ujPEjJXWRP9VNCq0xJCqXVMKSZLV/koBehAj8Umxk2mgeXm2qc+vP2pxfArIJMeFLGb+Y8ePDgwYOHl/H58xfYvu8ItOiYqkPCCyY4hkxaDQVDxQvDt2QdvH33np9PLrh48GDH009vYdyVfyDh9Dx78aKECYxwaUwsuWnhc0k4lEzVLg8Ih6EYJ1sdbzUG/vjzaxyUwYMHDx48eERAcG3dcwjiOvSjtBAG5raMlS89NGPpum3wofQjP59ccPHgYV3lOvL8KvTIW+YHaCg2Rr2OsOihCRXJSeWJBcAwGic79PSSshhmz0oIYkpxSCJUGNW+QBtj9fdScjNg2d1jhCrJZ7d48ODBgwcPj+fZP3+GTTsPQLP2famiSgvKEGithmICrFi/HT585EArLrh48LCJlwQTv58ANFjiScryua7ymP7GiXhzLLx81O9r2/eMc1mWs19u2gwVNx5dPht8vo/6+4iBH5m/Gc4X34dyXt3iwYMHDx48IiK41m/bB03kXsE2QTFYwQoaIBtx8EGi4dote+Bj2Sd+Prng4sHDOiq+VZHEfsiFdY5aC11VtFAYKdazWGZaoC+Mlj6fBYDDZ5o3kzybI/PZV/5qzpXPUsQiKKN73jL45+EZjoHnwYMHDx48IhRlnz7Dqs274H9tuzHQ7/65LhYy/ofGCbB19yH4pD4OP59ccPHgYRuY2G94cBq6nFkS9OayEg4M0SQp4WDUfe6qSor18ZjmtBRfaFAQWpVPCRHG4eA522fPh2kFe+Duh+dQpYphvj558ODBgwcP76O0tAwWrtoMv7fubG98LBrbDGX4NS4FDp7IhooKThHmgosHDwfx7f++QUHJE0i/uh0S1YSfOX9kUfWSslwaA3sw92UHxZCyvH3ckGa2XBwHVrf6nFsFR55dhbLKr3xt8uDBgwcPHhEKpAvOylgDv8R1ZIitBFN7oaARXgjbOJt/Db59+8bPJxdcPHg4LK1XfIE9T85Dz7PLmaa/WtiD5BatnuULTVwpoePcnc6EUcWZae7K5/5YFefPj/8mqGJ34e3DUFT2hohgvi558ODBgwePyETRsxcwbkYG/PhXez0O3kArpHlwoeBK7jsKCm7f4+eSCy4ePNzF47JimHFjL7Q7Pde6CmXXOuiE8qe4x7k7Rte7QbErYSLurap3is2xGr7ud24VnCu+x0EZPHjw4MGDR4Tj2s270G/klOqqlUyd07IyQO6ZNgFu33/IzyUXXDx4uAvExJ98WQC9z620N+tVDNUhJQyCIRWf7nOOi3cgyiQWRj7cdkLF8Ni041QsTJA1P9/wIAvel3PaEQ8ePHjw4BHpyMq7SKpUJkCGaMDDU0TYD40TIX1mBjx9/pKfSy64ePAIobWw8issvn0E2p9eUDuzT+GaKTutRrkVbIrNMSou4Bs2v4uzW6Mvb4VbH57xNciDBw8ePHhEenb92zfYfeAEtEhJrRZVCQxwhhmWgYLsp6bJsO6ffVDKPbi44OLBI9Sb0OU3D2FE/iZ/a6FLqp+r9kInRsMeAjV0FSbFIUVQcfh95vnw2b62zjkZkFl0kczR8TXIgwcPHjx4RDYQ5T536Qb4uXmyeXZLZLURBuM/8V1h7+FT8PUrB1xxwcWDRxgAjU0PsqHrmSXe0wQVl7h0JcJUwXBmt5QQRKGh2oXeZ7MLMuFB6UtOOuLBgwcPHjxqIZ48ewFp6bNV8ZRIFVRY8QoYIWtnvAL/tu81HPIuXoHKKm7fwgUXDx4hRpWa+N96/xQmX9sJSdkL3IuXcKtaXoknLx5LiWxLZf9zq+HE8+u8usWDBw8ePHjUxry6KpJO5Z6H1p0H2uDgadAMf0vhkHEz4e6DR1BVxTdKueDiwSOM+KgKgMyifOirAWjUGBzbIdIV61kpiSm+fOEDLVjPr5h/JikuZrhcthT6H9v6PCXnLITFt4/Cs0/veHWLBw8ePHjwqIV4VfwW5q/YSNoJzbNaNDS8fo7rl+YdYeHKzfDmbQn/7OaCiweP8KtchR9fwZwb+yE5e2H4YAuFInKsMPFZLsWQ4gIN77IKJbGO1SkCnvE7Qy6uh/PF9+FrFXep58GDBw8ePCIdFRWVcDovHzr1H1M9ryWbZ7VELSQjwQDNSIC45H6QeUSBz1/4/BYXXDx4eBBfKsvhzOs7kHZxA8hagIaTmaxwqke28IsQqIAWzyFZoe9pCPhw2iKrf9YpJwO2PjxDMPB8h4wHDx48ePCIcCthZSXcuH0fRk9ZAL+17KSrbvnntcytgzVVrwAavnECpI6cArfuFUIVn9/igosHDy8ChcCrz+9h3YMs6JybYTmTZecx5YlBMK11UCuC7ASaxc+lUAEatkLRZ/LkQvpj+pVtpIJY+Y2bHPPgwYMHDx4R3UD+8hVu3nkAMxauhiYJvYlw0rcTylQyYQCYEWg1/DUuBXyL18G7kvd8s5QLLh48PCy/V1XC1bePYJwqENqyqlxuARSKvQhyVOVS7P2yJKcC0KHRs2uKIuW1puRkwJFnV+FzxVd+w+bBgwcPHjwi1kJYAS9eFRNIRvrMxfBXYm9o2KS9QVixBVewyuWveLXuNBAOn8yBL1/L+fnlgosHD28D2972PLmgqXL5Qif5RRjzbgvCUMKkFCoOWhptHmv69T3w+ssHLrZ48ODBgwcPD6JcFVbFb9/Bsxev4PHT51D4uAgKbt+DE9lnCSCj26Bx8N/4rqrYSvS3B4oGwSWaWwn1QiwBfmrWAYZPnAOPip5zOiEXXDx4RAKgUUXa36Zc3+1sJoohakKqarl4fFceWjXf94WGr2eQD+2iy5klkPf6Lqkc8rXFgwcPHjx4hD728PnzF7hz/yEcOZULGau3wsyMNTBl7nJIn5kBA8ZMg3bdhxKh9WOzJPihcaKeSChqTI5p8AwdvVCGRnJP2HvoJHlOfv654OLBI2IADWyD65m3jAKd8JkEhyU6XnEGuZDCwcJrhJSV0JNCMWhWQpsDa6fG4jtHoKS8jK8pHjx48ODBIwyxVfKhFA6rQmvYxDkQ32kg/NaiE/wS11GNZPilWTL82DQJGjahzWqxxBXbf+uHJui9NQOevXjNq1tccPHgEdl48bkElt45Ch1yqjHxTkEZTrHxTNS6j151cgjKqPEPCxyv6Xl87g2cbSppxudEsTU0fwPcfP+UVAz5euLBgwcPHjxCFFvvS2HngeMg90gLtgnWQC6qq1eOjIyrq1wi++f4mE0SekHuuctQWck/v7ng4sGjFgAaZ4vvwXBVOLSrBmjUVLIUl2LKASZe0okkn+4xJFprYM3z+NyZFTvx8FIMWHiXj5GSuwi2P8qDj5W8FYEHDx48ePAIeV6rvALOXboGXQaOrQZgBKEWgRBEo3+WXP21XpgFvg6EWazJ8HOzZJi2YCWUlX3m558LLh48amFXSY3iLx9gY+Fp6JS72Bv4RSiEQlq7IkNkSUodHKPhORNOz4MJV7bD/dIX6jnkrQg8ePDgwYNHqPG25D0sXrOVtA/W+GQ1YmHetbRBWUcepFe0NKJMjR//SoLuQ9Lh5t0HHHTFBRcPHrVb5bpe8hjSr24HWRUSLLEhGSpSjrDsSujzWxJLXLEAHqRN0WeNnA9DZGmPv3veMthflE/m4Pga4sGDBw8ePEKPwkdPIXX0VGqlyrKN0KJtUGeCXP04CNlokdIf9h89Tapq/NxzwcWDRy1Wub5VY+LPEyGhqyRR5qtqZpkohsDUipVOBPnc0Q4Vm5ksBvhCChyf4gAvb3hsO1hIQvZ8mFawF559esfXDw8ePHjw4BFmIO49vssgipdWAuN75jZBPf7dXBX7oXEC8exavmEHvPn/9u79t6n7DuP4H1Sp0jRtk/ZTtWndzU24Qy+UroXRamVr15axTdVK1RpCLhBCQ2ko1xZKhzrKpcWJ45ALCQGCSEJICCH3G7nZ8Y0fn/kcAsTJOfaxYyCB9w8vBYztwDmW0JPv9/t8hm5z3QlcwKMXiUZ1Y6xPm2NBYlFpToKZWO6Ev0+r2j3F1SXHA5Ad1cq77cOazb9xbXWxvL1X2YoAAEAG1F26qt8sWztrK+EzcStd2TPOcMXP2Jr92uz79fBGI+FzsbCVW7xfXb39/P9N4AIeH384KF9fo16vKn64g449FitdjiRZKZt6X5fDAo+kNfQWjy/15qmw+bR5rfjMAAAwd1eaWvTC6r84byGMC1XZU2Ere1ZYM7YQGlXyf3jxTRWWHFbfADtTCFzA495aGI1qaHLMDBSLphoLEw4nLp3W8peB4ce2W/w8zmZzJTsPZvf7RO8R97qyLXrr/BdqGunm8wIAQIbc6OjU25s+nTbI2L744sFqVuLZW8a8rp89v1Ir172nr4+f0u3RMa41gQuYJwUa0bAab3fqjarPUiq3cBSsPA+j3XBuYcvpa42vK8oLtK/NqzAztwAAyJjRWBjaf+Q7/fKPL1k2C8ZvEUy8AmYELaP2/fkV67Tx43yVV9XJH5jkOhO4gPllIjSpA22++3O5Hma9upMQ5Jpj4MoEowb+g7qD6hgf4DMCAEAGhSMRNV+/ob/9e4uenbXKlXjo8TPTZnQ9+9xS8yzY+x/l6bvTZbp5q9t8b64xgQuYf1sL70TVOtqrd2r3OdrWZ/vrTGw1TPY+VgOY0/2+du8T+/pKRaFOdl5UMBLmMwIAQIZNBoOqb2g0Q9fPf7sq4XbBmcUYxorW71au14dbiuTx1ainb8B8P64rgQuY14LhkH7ovqwVvoLZgcSTQoCxqn6fOvflmt4Q6EktpNlV0k+vsnclC2GeJIFryvLyfOVc/Z96/NTIAgDwMFe6BodHzNWpv3+Yo18tfl0/jYWpn/x66ZRlpl/8/iUtfu2v5nN2lnwlX/UF3erq1cREQBFWtAhcXAQsnFWuO+r2D2tbLGjc21roSmVV6n7Tn9smGLkt5nU53C5oWXLhdlwxbzvDKy5w3X2/7NKt2lC7V9X9LQpxdgsAgIcfvMIRdXR267tTZSref1R5xfuVU7RXBZ8f1K4vj+jgsRPy1VzQzdhzRkbHFQrz/zMIXFjAP2mq7L+mddW7U9sO6GSlym4LnyfJalmys2CeNLczWqyyZcW8XLFDJddLNTA5ymcCAIBH9YPfaFTBYEiByaBZeuH3B+5+jTG2C4bDYUUiUWZqgcCFhX+W63ZwQp9d+0HLyvNSDy+ZqolPMSil9XqLx40B0P+8+JUuD980B0PzmQAAACBwARn/CZMRON4+X5JaWcZcQlAqBRyeDL2vxeOvnivS0ZtVGgsF+CwAAAAQuICHwx+e1P7WcnMOlWUA8th8nUvQ8iQLSu65BzCPRQPjvV+XbdXHDcfMtsYonwEAAAACF/AwdU4M6oP6gw9mc81YwXJZVMe7Zoai+0UZKczQut846J4Vtlw2q1V27zvz+a6Z4W3qPbJi1lYV62zPFWrgAQAACFzAo9la+GNPg1b5tptlEumsJDlaifIkWvFy25duWKxSpTsUeYUvXzuaTmk4OM69BwAAIHABj8ZoyK/NDd9qiTcnM+eyMlGaUepwO6PH2euzy7bq3br9qupvofkIAACAwAU8Wuf6mrW2uvjB1sJ0q94z0V7opAAjUdizqLF/paJQX7Z6Wd0CAAAgcAGP3r2a+BW+gtTCTdxAY7ezOVtJ39s969yY7VyuJEHLsNi7TR9eOqqG4Q6FGXIMAABA4AIeNSOIXBpq1zt1+7SoLCfl1SmXTbugK+7P3Ym3CnpSWL2KO9PlTrAV0a03qop1vKPW3DrJvQYAACBwAY+FMZfKmE/1akWR9dbCNAcXu1LYRuhK8jzLJsQEQW25N1+5V0+obayPs1sAAAAELuDxid6J6vpoj1mgsbw8L83hxO702gw9SbYPJgp1Nq8zijI2nC9Ree9Vc+YY9xgAAIDABTxW/nBQpzovan3NHnNI8JwGEJdmcHBywvNcbsu/30pvgT5vOase/zD3FgAAgMAFzA9dE0MqaDqp5b68hIHLlclmwtIM18nHbLxwSPVDNxhyDAAAQOAC5leBRkVfs96uKbE8Q+Wadt7KlailMNXVqaQFHG5HAc34Oy0rz9WxmzUaCU1wTwEAAAhcwPxiNPrtbjkbCy4F1sUWCVen3PFlGSnO3nLNfK8E39Pq8azYazZdPKzWsV6KMgAAAAhcwPzUMtqjjfWHlFWWqbNW8QHLNSNUzSzdcCU7+2Xz+OpzO/VD92WFI8zcAgAAIHAB81QkGtXR9mqtqdyprIdwxiojZvw9lnpztb3xlG6ND3IPAQAACFzA/NY+1q9PGr41z0QlrX9PIYi55vIcm5UvIxRuqC1RZX+zgpEQ9w8AAIDABcxvk+GQznZf0Zs1X8xa5XIlGmDssQtQ7lmvM0oyTBaFGak0Ia705avkeqn6AyOKcu8AAAAIXMB8ZwSXrolhFTad0gpvvqMtfq5UV7089s91zQxeVgOTYyHNCIPv1x3QleEOhaiBBwAAIHABC4URYGoHWvVO7b5YsNk6t+HHcUEpyfM9icPYdC9X7NDR9iqNhQLcMwAAAAIXsLAMB8d1JBZojAZAJytTjgJXqqHM5nssKsvRxw3H1OO/regdauABAAAIXMBC21oYjeraaLc2x4KNEXAcB6skNfEui5Bl+XiC7/daZZHO9Teb5824VwAAAAQuYEEaDwV0uuuS/lS5y3FzYMoV8mlsV9zZfEa3gxMMOQYAACBwAQu5QCOqWxODKmg8qayyremFJU96DYR2jPDXNNKlcJQhxwAAAAQuYIELRsKq7L+mddW7U1ut8lhvKZzTqlgs9B1o88kfnuTeAAAAELiAJ6dAY3fLWS31bpt9JivdLYKJCjI88ee77v363br9ah3rY+YWAAAAgQt4ckSiUV0aatem+sPKnra10FU6x7NaKZzfWlVeoDNdlxUIB7knAAAABC7gyTISmtC3N2u0pnKnRSByJw9aHgethR7r91nkzdGnV46rc2KQGngAAAACF/DkMUoqjJr4Txr+qyVl21LbOphoy6CDFa91VbtV3ttoDmTmXgAAABC4gCeOsbI0Hg7oTNcl/bl6t7JsApSjgcd2z7WwrDxPhU2nNTg5xn0AAAAgcAFP9lmuWxMDKmg6aQahlIsxrFoLbf7cWPkyqug31JbowmCb+b25BwAAAAQu4IlmlFbU9F+PBaG9yipNUP2eaPXL4XbEVb58fdlaRg08AAAAgQt4erYWGgUaB9t8WlleIJdRmOFJXpBhfWbLpmwj9rjRhviP+kPqGB/gugMAABC4gKdHOBpW61ivNl44aBuoEq10uWZsHZwZ0IyVs5crCnWis15RthICAAAQuICnjT8c1Mlb9Vruy3dekOFgK6ERwJZ4c7W54RhFGQAAAAQu4CndWhiNqts/pP9c/sYst0h/uHH8tkLjvdZW362BZ3ULAACAwAU8tYKRsBmMVlcUOpvJlaRgw9hKuKK8QIXN1MADAAAQuICnfZUrpj8wqqJrZ7TYu80+UJnlGG7bogzX1GOLvTl6t26/Lg21UwMPAABA4AIQiUZ0eeimNpyPr4l32TUQ2pzxMl675lyRjrRXajTk59oCAAAQuAAYxsIBHbpRoZXl+WltLTQsLc/VR5eP6dpIt1k9z3UFAAAgcAG4c3c2l1ETv6n+kF64V6DhsCTjblHGFq2v3q3vO+vN9kOuKQAAAIGLCwFME4qEdbyjVi9V7HDYTjhtdcu7TXmNJ9TlH+JaAgAAgMAFWDGaBf918WtlG6tc5oBj94PhxhZf73nr/B75+hopygAAAACBC7DfWnhH1f0tevXcztkrXDaDj5eW5+mL66UKsJUQAAAABC4gMaO1cHvTSS3x5to2Et5b5coq3aqN9YfVPNLNtQMAAACBC3Di+miP1td8fndrYYLzXGsqd+lYe7WCkRDXDQAAAAQuwInJWIAyauJX+QoezObyxH9d6s3VJ1eOq22019yKyHUDAAAAgQtweJarbazXLNBY4t02K3AZIezNmj36sbtB/vAk1wwAAAAELiAVxjytk50XteZc0YNVrikrfQUqbD6tW+MDitJMCAAAAAIXkLrOiSHlN35vBiyX525RxqLSHL1Xd0C1A60KRsJcJwAAABC4gHQYw5Ar+5q1oXavFpXlmNsJV1cU6qu2Sg0GxrhGAAAAIHABc2EMQ97T4tGLvu1m6NrccEyNtzsVZnULAAAABC5gbiLRqOqHbmjTxcN6rXKXTnbWazwc4NoAAACAwAVkwlgooG9u1pgrXR0UZQAAAIDABWRO9E7UDFod44MMOQYAAACBCwAAAAAIXAAAAABA4AIAAAAAELgAAAAAgMAFAAAAAAQuAAAAAACBCwAAAAAIXAAAAABA4AIAAAAAELgAAAAAgMAFAAAAAAQuAAAAAACBCwAAAAAIXAAAAABA4AIAAAAAELgAAAAAgMAFAAAAAAQuAAAAAACBCwAAAAAIXAAAAABA4AIAAAAAELgAAAAAgMAFAAAAAE+D/wMqczK5Ujtq+QAAAABJRU5ErkJggg==;" parent="Pg3yXxrsNYTh1cJ3KZXr-25" vertex="1"><mxGeometry x="25" width="110" height="46.94" as="geometry"/></mxCell><mxCell id="Pg3yXxrsNYTh1cJ3KZXr-21" value="" style="aspect=fixed;html=1;points=[];align=center;image;fontSize=12;image=img/lib/mscae/Docker.svg;" parent="Pg3yXxrsNYTh1cJ3KZXr-25" vertex="1"><mxGeometry y="33.46999999999997" width="50" height="41" as="geometry"/></mxCell><mxCell id="Pg3yXxrsNYTh1cJ3KZXr-18" value="&lt;div&gt;&quot;dm3k_api&quot;&lt;/div&gt;&lt;div&gt;&lt;font size=&quot;1&quot;&gt;&lt;span style=&quot;font-weight: normal&quot;&gt;&lt;i&gt;Back-End Container&lt;/i&gt;&lt;/span&gt;&lt;/font&gt;&lt;br&gt;&lt;/div&gt;" style="text;html=1;strokeColor=none;fillColor=none;align=center;verticalAlign=middle;whiteSpace=wrap;rounded=0;fontStyle=1" parent="Pg3yXxrsNYTh1cJ3KZXr-19" vertex="1"><mxGeometry x="55.360000000000014" y="120" width="110" height="30" as="geometry"/></mxCell><mxCell id="Pg3yXxrsNYTh1cJ3KZXr-27" value="" style="shape=flexArrow;endArrow=classic;startArrow=classic;html=1;exitX=1;exitY=1;exitDx=0;exitDy=0;width=6;startSize=3.51;startWidth=15;endWidth=15;endSize=3.51;" parent="1" source="Pg3yXxrsNYTh1cJ3KZXr-11" edge="1"><mxGeometry width="100" height="100" relative="1" as="geometry"><mxPoint x="370.48" y="159.99750000000012" as="sourcePoint"/><mxPoint x="450.48" y="140" as="targetPoint"/></mxGeometry></mxCell><mxCell id="Pg3yXxrsNYTh1cJ3KZXr-15" value="" style="rounded=1;whiteSpace=wrap;html=1;" parent="1" vertex="1"><mxGeometry x="442.92" y="239" width="260" height="160" as="geometry"/></mxCell><mxCell id="Pg3yXxrsNYTh1cJ3KZXr-31" style="edgeStyle=orthogonalEdgeStyle;rounded=0;orthogonalLoop=1;jettySize=auto;html=1;exitX=1;exitY=0.5;exitDx=0;exitDy=0;entryX=0;entryY=0.5;entryDx=0;entryDy=0;startArrow=openThin;startFill=0;endArrow=openThin;endFill=0;" parent="1" source="Pg3yXxrsNYTh1cJ3KZXr-28" target="Pg3yXxrsNYTh1cJ3KZXr-29" edge="1"><mxGeometry relative="1" as="geometry"/></mxCell><mxCell id="Pg3yXxrsNYTh1cJ3KZXr-28" value="API" style="rounded=0;whiteSpace=wrap;html=1;fontStyle=1;verticalAlign=top;" parent="1" vertex="1"><mxGeometry x="452.92" y="259" width="50" height="90" as="geometry"/></mxCell><mxCell id="Pg3yXxrsNYTh1cJ3KZXr-29" value="&lt;b&gt;&amp;nbsp; Optimizer&lt;/b&gt;" style="rounded=0;whiteSpace=wrap;html=1;align=left;" parent="1" vertex="1"><mxGeometry x="522.9200000000001" y="249" width="130" height="110" as="geometry"/></mxCell><mxCell id="Pg3yXxrsNYTh1cJ3KZXr-30" value="&lt;div&gt;knapsack&lt;/div&gt;&lt;div style=&quot;font-size: 10px&quot;&gt;&quot;&lt;i&gt;generic optimizer&lt;/i&gt;&quot;&lt;br&gt;&lt;/div&gt;" style="rounded=0;whiteSpace=wrap;html=1;" parent="1" vertex="1"><mxGeometry x="592.9200000000001" y="254" width="100" height="30" as="geometry"/></mxCell><mxCell id="Pg3yXxrsNYTh1cJ3KZXr-32" value="" style="shape=image;verticalLabelPosition=bottom;labelBackgroundColor=#ffffff;verticalAlign=top;aspect=fixed;imageAspect=0;image=data:image/png,iVBORw0KGgoAAAANSUhEUgAAAZUAAAIICAYAAACmS3M7AAAgAElEQVR4nO3dd7gkRdk28HsTm9glg4CSg2RQMsgiyRwQMOCrqCAKiAqKH2ZMCKJgRgnqiwEVEURFeVVAQAmiZAkKLKBITrvAxjPfH33a7a1TVV25qnvu33U9F+xMd9VTPTP1nJnpqQa67c0ARgAMFHFWvtSIiKgLxkNdRHSxc45kiYioXDdgbLGYp9le9i6GiIhI+u5jL4P9dpPsR0REQ+w7GFsY9rHY/0nJ/kRENKTEgrAgQBsbBsuOiIg64yUI8y7j3YHaISKiDrsK4YoBiwoR0ZCbjaULwWkebbGoEBENuS9j6UIwrnHftwHcCeBaAEej+g2LykKMLSpTIuRLREQFE3/sOB7AdIwtEC5BRERDqFkIfgFgZbCoEBGRo7MwthiwqBARkbNmMTgYwJFgUSEiIkc7YOmCcAD8CsqMtOkTEVFp5iPMx158l0JERADCFJRjkmdNRETF8i0qk9KnTEREJZsNfvRFRESBuRSVCVkyJSKiTrAtKjvlSZOIiLqCH4EREVEw98KuqKycJ00iIuoK23cru+ZJk4iIusD1bLALHPpaDcDOAGYBWMM3cSIiKstaCPPDyBDxs8hjJSKiyHIXEjEWxx0uERHFMgv5i4gspsccNBERxdE2uY8HcL/BdqFjUcxBExFReG0TOwC81WC7AYBnNP3cZNhGM0bCDJGIiGJbB2HfVegKSs22TX6vQkTUAT9D+I+qNlb0tS6ABY5tfj3YiImIKIrU34v4BBERFWpN5C8SLCpERD1wH/IXCNt4PMqRICIiL7mLA9+pEBH1wEzkLwosLEREPXA08heDkLFq2MNDRESmZiF/EYgV4wMeJyIiMpB74q9jv4ht/z7Y0SIiIqXzkb+YDADMEfL6cMS+5gE4yuOYERGRwu+Qv6AMoL8eysao1vSKncNtAA6yOXhERDRW7oIyAHCZYa7TUK0ZljK3awCsaJgfEREhf1EZOOT8zkx57u2QKxHR0OlaUal9OlO+W3vkTETUe7mLiu87gBw53+2ZMxFRb12P/IXFV46cTw2QNxFR72yA/EXlWMucvze6X31K8vaZ8iYiIonYk++NACa09GnjjQlyNonTLfMmIhoKoSfbxwGMM+h3nrBfzpz5boWIKJAQk+u/HPt+qNHGosQ5s6gQEQW2Btwn1PmBcnCZqOd45M2iQkQUyV9gP5FuJ7SxDYDFFvuPoCpIt0B+9tlig7xf5ZB3zBgB8A2DvImIes1m4lwo7Psby/1Dvgu4wqG9awF8E8CCyHkPUBVLIqKhMgn5/8Jvi0clea9ksN8H0H6yQIr8H2/JgYioN3IXjJBxK4CpFmOfkDi/qyxyIyLqnBuRvxD4xkEe48+V8ySPnImIinQC8hcElxgBsGWA8a+deRy3BRgDEVERbkL+4mATF8Lsh5Qq0yW35R5THeM9xkVElNVk5J9ETeJOhHk30vQS4d+/KGCcdfwu8FiJiKLaD/knTlXMxtg1wWJ5p/Dv3GMXw+YkAyKiJHYEcBbyT5C6ONRjfB/x2HdbAHsIt+U+FmKIvwMiIkruTOSfDHXx8UDjbLZ5lkcb+2jaLSVs1kAjIgri1cg/+cni5EjjFfs53qONkxq33SBpu6S4GcAKDmMlIjKWe6Jrxh80ea4J4ByLtp4a3cd0zLZnTzX3XaS4vQuxreW4iYiUck9oTyryWhbAA4H7mtJoX7VgpQ3Z/qtGOk4por7yJRGRk22RZ/K6QpLLOAC3J+ofALZW3HepxfHLXQQGqIrjQlSrNF8M4GOoztDbGsAMId9VUa0I/QZUV5mcjWoxTFmBfb3FcSAiApB28pN9WTx+9PYck/FamvtMnJggx28BmIZ0p0mPk+QwAr8fixLRkNgB6Sbw5sdOz0vYb1v8UXNfmxD9Lwawq3B8ctNdx0b1USURUfYJvQuhsq9lO8+iuvCY7i/+vYV9cv140XS15Ysy5UdEhco9YXclxHcRq7Vsfz7UZ5zpyNp6vsX+HwWwrkO/prnoYq1A/RJRh/lMtMcJbY14tteFkF3dcR7CnY6r6ldnomT7jSPm0hZXBuibiDrKdsLYXtKGyyV4uxyPAljf9ABb+HBLvzKHSbb7eaB8fI/T4kB5EFGHtH2MU8f3Jfs+ZLhvH+IVNgfV0VMtOYiWEe7fL3A+IY8fLyJGNET+AfVk8Iiw7Zs02/YpznM5kJ6eacnpRGF7WaEJ5fMtubhGqtOiiSiziQD+ieqFfw+AFzfuewvyT/Ip4gCP4xdCW1G5sLHtuxC3qMQ8zlw1mWjIrIfh+NL9P6guMlaKF0Kfb5PstlB2a8kjVLwtUv5EVIi5yD/Rx47LHY7LMgA2Q3Wlx/ej+kL97QB2AbC8Q3umzka1mvBvFffH+p4i9WNCRD0yCfkn+tjxPovjsatHP32wEPEeh78D+ByAOyT3TUwxOCKKK/dkHyuegt0kdXCAPt9g0V+pzkbcx0WmeTr6cyKMiYgSuBD5J/7QcZXDcficpB3ZulbLKfq83aHPUn0SaR4nlfo7vNXDDouIYss9+YeKxfD7TkFs7yUG++zm0V/JrkLax051ckRdWLgaMlEHbIr8hcA3dgp0LMah+st830DtdZluNeKYIbsEAhr3E1HBrkT+guAS6wU+DvUEStWFu2TH/AOafaYh/Eenjwp9NO8jogI9ivzFwSQORvwzgAbgL7plF+ByncTX17RlE81VG/7QuH0lh5yIKKK2taRyxIkAVok5aJI6FPrHxdcWLe23RS10XkQUSKrrvJvEaoHGdJDidlmfWwTqs4tmoLquyn0we3zGB+7/jYb9inG+5LZpgXMjIgevRP5CEvIvzbU17a2ZoP+ucP2oM6a25fzbQvzOhYgS031mniM+HGBME1CtmquSc9LMaV0A8+H3+IR6F2liL1RnfZnmVtK6bERDK1WxeAjyHw/KYkHUEVeGpaicgbCPY24vBfBpACcDOBLVOmtEVIhvIk4B+RXkn22Pt2xHvDaLC92X/NcCeBzV5X3vAvDxAP3ltAKAcxD3jwMiIqVQE811MPtV82cc23/aYWyya8Nv5tBOqZ4D4KuIW0BYVIjI2IPwm1zucujTpz/Vcu4yN2naUf0yu1TrADgJ8YvFOQB2APADzTbNi34RES3FdfI5zqNPlwt5uejSX9zjUS2J8yOkfccxQLVigMq9ku1frNmeiIbYB2E/Af0oQL8vsOzTxfcit68yDsDzAHwW1eWVB6h+TPorVO8ATE9SSBVrScYgrvgr7rO+y4Ehov5L8W6hhL7vamn7+x5tT4b8e5uSYgGA+1GdMWVinuS2ZntfNWyHiIaM6aT0bEs7qyj2e6tmnx0t+q/Dd2nzqZq2beUuFKo412EstuMdidQHEXXYnjCbpHS/TF7WYP8ToV7O43jDHHwLgOhZSZtzDfZ7rWO+MSPVemhvE/olIlqK6VlfKts57idyvdb9TIs+ZCZb5PxnxxxjhOlp2zGwqBCRku87AtU+X3DMZwPDnEJPbDNRnf10q+S+vzrkFCtiL+9vgkWFiJTaJrF7HfcN4ZMG+cXUvDZH7tCd7psaiwoRKcV4lxLj9wsTUP0mZgDg8AjtN52J/EVEFbdEHLcpFhUiUnItKldp9tk2Yr4xHYd8xQIAtkG1BI3J9ntEGL8pFhUiUnItKj7vcErzIeR996FahXlHyM9QqyPXEjNdfZyJKIGuFpWXolpVuO5va4c2SvlV+6aG+W6O6kSC3AX8mYx9E1HhYhUVnwlnQwCbANgJwDsA/Clwf7oFJnNE1zRPQ185cy5EVJi2CVtmnZZ96pjtmNMEw/abcWVLm1s4tMmCIvcEluTfp8sHEFEAz4P9pPeWln2a4bIkPiza1+W5uUM7viFe2GtlVCsGXIvq9OzZAC5HGb83cdUc75GZcyGiAukmyZ0l23+qZZ8Qf5HbtL0Y1Y8XD3TIi+9Axvpdy/3NcV4dPx0i6hrbCfJLBvvIYgPDfMY5th8q/mR4XHRxjOFYSzMXVf4LNdv0qYASUQRtHxOJa0y5Xga4jikt+eQsKM1JMkQbXSIWc5U+jJWIIrOZJN9hsL1JyFY+zl1QQoRs/bAuMC0WLCpE1OpN0E+UzWXrt27ZdoBqqZbvGGzXt7jc/JAXh0WFiIJqmzBNtrVts0/huwx/TrJl/WuzANzW+DeLChEZWR76SfPExraqbaY2thlpaa8vcYLpAS6YOKaHhPtu0GxLRKTUNoGabjcMsaf10S2XOLb6SpLjR/997Oi/V5RsS0SktBvMCkvuCT10zB8d1xRUp9PKtlkM4EUuB7VwM6EuFB8X/n2pZlsiIqncE3zquC/MYeusx6EuFKp/s6gQkbHmKrTDEMNOPB4LJPeptuXxI6JWuX/RzqKSlng83iPcN0ez7QDAjDRpElGX5Z7oSy8q8wFs6bhvacTjUV/f5ZTRf28x+u81JdsOUF2mgIhI67XIP9mHKgjjAHwC1cc6fKcylng8lhdury2WbDsAsHeyTImo03IXDNN4xnJcZwr7T7Dcv2/E47kVgGUa/1ZtV0fz90tEREpd/PHi7oZju0TYb5iZHE/d92w3gIjIgMsVGEuKyS3jY1Gp6I5hbeWW7YmIjOQuDDahemc1XTKu8yXb+fic5/45qY7nrxTb7y/ZlojIiOrL7VhRLwfSNNlwXxuy/cdr92j3I8PtRgCs6tlXSPNgfzxZVIjIScqPwL6iyePDBvubaFs004fJ/qVOxOJx2MVyeyIiYynfqfjm8A/F/hsZ7n+w2SGRmtIyBnEcW7Rsm9IrsSSvbxlsPwdmjxsR0RgpzwJ7RNK/OIHlKmwmBgC+q7l/YqOfj3n2ldNWYFEhIkc7Ie2kPsDYH+CljOM9jlXdxjyD7bqORYWInOWY3E3eSbzGcf9Y71beL7Tzbo+2SseiQkTOTCbrRYbbhSwqezjuH6uobKhob6pup45iUSEiZ7+G2UR8usF2oWJ+xLZdbd6Sb5+wqBCRl7aJeEfD7Vwn+NkR2g5dVEzereU0JWBbzTGt0rItEdEYqSb0Zvy80f8xifoc53GM6tOKVZH7l/chi1pzXLsGbJeIhoTs4yZIbgsdtwG4LEE/sSbcEt6h1NYO2FZzbIcHbJeIhsTuyFNUUkZI50Ru39UnA7XTHNf5gdokoiGTe9IPHY8BuB5xr6ki/ni0L5pjavtdDhGRVO4i4BKxJrxJMD9VWLweSR+U+C6MiDrmVuQvEjYR0w6S/m5F+xf9CyLnZeI7AdpgUSEibyshf6HIVVB+g6ogiEVjmqJ/1fVISvDFAG2wqBBRELmLhUmclGDclyq2E5fXL/X7hjme+7OoEFEQqd5ZTATwx0BthaBaEuYHiu0/K2y3OFJernyOU3O1ZRYVIvJyHdIVltqbArXjS9fn8op9xO9enoyYn41lAdzuuO/nwaJCRIGshnhFZQDgEkW/JRSVtjzavoRvrqG2ScQcTT3ruJ/sGjdERM5iFpU6rmj091WD7f8HwAXwn+Dq9lRXQLzTIJfdDPrZ0jPPnGRrnBEROUtRVHK9MxGvaii7QqNJTosC51US2XhLujwyEXXMg8hfSOr4vwjjO1zSzzLCNqcY5uezQGWpZOPs8wXJiCiybdA+mU4b3fY7BtvW0byU77sM97k0ygiBQyR9PSXZbhyA37XkuEOkHHORjfHXWTMios6z+UjKpDj81bEfsS9Xt6M6I6ppW0V/06D2XsU+MX47k4O45Ezox4GIhpTNRP8qg+1Vk9JFjvu5GAD4gHCb6hopn21pa7xkn2MC5prL/wB4JcYulMmiQkRe2ib691tuPwCw0LGvrQKNqe7rIeE22Y/9BgDuN2zzk419+oRFhYiCeTXaJ/vlGtubFJVm/BTAyhb72poL4BHJ7UcJ7a4zevsyin5vdui7L1hUiCgok8m+XvvqBsPtXeO7HvnvYjCu2n809w0b8VgQEXkJWRRqP/VoY21JjrpTelXXOVm5JUeq/Bw8PkQUUMiiIi5x4trO6Y02mh9ZqX6MeKiw/xRN/3caHZXhcTRYVIgooI8h/MdYT4+2PT1C23WIZ2GdZ7EvLfFBLH1sds6bDhF1ne43C12IlRpjud5wH1pC/GHrV/OmQ0R9kLsw+Ma/GmO522D7dVqOxTD5O5Y+NuKp2ERE1nIXBZM4dzTXyYr7m1dnfKClrfpX9/UyLs2P0nK9mxnJ0CcAzAffyRFRYBcjbYFYHtUvuk23nyDJWfwuYADgb437de1B2K5pwuht9yiPVhwmk/kMqH9cqrITlv6I8CpJvywqRBTUDJhP8LDYNkSIKws3fVSyffP0Y5OiIrPQcLuQTPqr81/Fot0rAGyq6YdFhYiisCkqqrW0QsfLDfK+T5Gjalw+NvTcX6etgNbbDGB3nZcBgOeO/v80sKgQUSKmE/3U0e3vstjHJa7zyD2Wc9s3cbYI1SnYKvvBbYzNbd8t/Ft2nXoWFSIKwvSiXVc29olZVGw1993XYX8TF6C6+FcM30a16KXKw/AvKuK+qmM/y6J9IiKp5aGe3OdKbgOAAxT7pC4oQLVuWL3/vY5ttDkQS+dXX6slxZUhxWM0yWK/5v8/qmmzjvN8kyUiAvQTvGrSL6GgrA5gywDtmBhg6XcUdX+bROyz2U8dl4/evmLLfpOFNsaP/v8hLe0TEXmTTfKrSu4/rHHb1or9UhSUkwO2ZUpXbF+WoF+f8eq2E0++ICLy9gTGTlaLG/dvBPmkE6KguPz4z3WS3VL49y0OfdbWFfp9qUVbNmIXFbEPIiJvqotYNY1IbjtCsZ9LmH4/MbulHZUBgB0a/66vCGmqbv9pyW11xDj1OERReafmvhUc2iMiaiWbsNaVbPOwwX6uIf7qW+bJljaaJgj3NX88+D7J9jpfkPSxlqT/Zcfu6iVEUdG5P3B7REQAzCatIyW3ParZ1zV0/m2xr+6+Uwz6EtXtPKnpYwD58jKuYhcVsb0PBmiTiEh51UaR6rbQIV4muCZ7d+BSVFRjaRrB0hf3krX1a4M8fIQuKiOoThUHgE9I2rvPM18iov+STVo3Cttshuqa9W37hYjLLPIcAHi8ZTsbzZMX6u977m7c1lzgMda7CF3bLn2s0thvg0BtEhEpmU4y4m3P0ezrG3dY5Pm3lu1sLGjsd/PobeMV7YV8JyH6QMD2TY85EVEQ82A20WyKsWIVlQGqa9E3iZN7Hee35GTLpIAA1Ud1qtxt1jIzySNkURmnuJ2IKAjx9NJmPE/Ydk3h37KLPoUM0Yhkm28K2zTvm29yAARTJf1fJ7R7mqQvMZqnMrvQtb2rYRvNsYjH8xHNfUREXkwndvH03zVb9tXFpQY5mOR6nOb+LyjaULX5yOi/xwOY2dKvKudQE/VlAdo/qbGtuNT+zkJbP/PMl4jov3QT11oe+7bFDwB8X3O/jLgY5hc1+bywJXdV/iHH6cO37Xq7Xxi2T0QUxBkwn7zEM8N8iooudBenGqfIDQBOb9y3vm7Qmr5/LNn2RY7jOLolB53dNe3+0mD/tmLBokJE0egmxvGN7Y4Q9lvQsq9LXOgxjpmNdjbQbHdvSw6yHzO6jGWBx1gAYE9Fu6vqdmrk23Y/iwoRRdE2OTbNa/z/1Qb7msbpAcYxudHeuxTbmOYjOspyPLcFGI8qX9P9ak8ZtEtEFMwVsJtgB6g+hjL5Qtkl2i6+tcXodvMBHIQllz4W1/6S5W0a13vsH9Ikx/YHiv+vnSW0eYlHjkREY+gmyXsstw8VqmXyTfevf5exl2P/XxX6bVsyJkZRgdC2eGaaym6N/1ed4hw7byIaYrYT5QMG+4QKkfiOJGaIqxAvkmzzqdH76tN4Y1x2eATA7wK3yaJCRNF8HvrJdXvJPqkmdtmE99GMfevun4HqGjBdwKJCRFHZTq7nGexj26YuF9EPW9r+Qsv9piF7h7BQk/+bNeMqibhS9U550yGivnEpAL4T9jyhPd1HW3Mk/Z8wep84QR4zev/BFrmchLEXsXL9K34bh31S2xbtx5eIyJl4HXYxZD9KvLVln9Ahc6Bku+Mb95u2/ahm+67areX+voyTiAqV492KTajOCFtfsu1dqD7SEW8/DMDtlv121bSW+/syTiIq1F3QT66HSfZJWVR0E99EhzYWe/bZJeMlt4njfE7SjIhoKNhOsCcb7BMyPuuZ/wBjLwam+1J/Vkt/XXEcqqtBNl2CpcfqcskAIiKttglZ9gO8Ut6t2OTzDs3+Kxn00TXHA1hDuK25Xlqf3pURUUEOhf2kXlpRMc3pLYZt9RmLChFF1zYZi5/Pn22wT8h4neE4TK5Q+XvDtvpKPB6H502HiPrIZFl7UYnvVgDg6cDt9c3/gseCiCJrXgyr60UFYGFpw+NARNHZTsLnGO6Tqqg0t90WY08fvq+xbXOhyEkGbfeNeGxNV0MmIjK2P9ondnFF3pRFZbYmd9n2st+kNI00bl9Pf2h6pzl2vlshomhs3zGkLCoDAKs75lyHeMJB874urN8VyupgUSGiBFRnT53e+P+XNLbfSrF9zHii0b/L/tDsP9nqaHWbOPaJedMhor5STcT/htnEXHo03dtyf5/pijURUTC6ibj+d3OhxwMU+8SI+wB8AGa/RzEpLGtI7ltge8A66gUY3oJKRAmthrGTzacb99e3nS65LWZ8QZGveG0V23crbff3mThu2SKURETedBPt+Y3bNhi9bUvFPiGj+V2OjGzZe1Us1zLWq1v66gtx3I/qNyciciO7JnzzWh3N2ydJbosRDxnmvo5BW59TjGXY3q18HcM5biLKQDfRrijcvjzMfpXvG7YeU7TTPNPpqUB9dZXuXRwRUTCypU6axB/QvRfAVZJ9QsZvPMZzCIATJbd/TNFXm74Un2EuqESUmDjZnNtyv+yX2rnfrZhw6We6Rz43Ou4XQ3PJGhYVIoqqbamTeyT3p4jQUv+1fiKqd3WlEMe+T950iKjPxAlnw5b7U4R4eeDQYxy2v9aHffxElFDbhHOLYpuYsWngMe7TMsa+Y1EhoqTaJpw+fgT2rgh95FZ/5yX6D8aOf9eEeRHRkBEnnMXC/bLvXlJFqF+Bv1nSdt/Y/mFARBTFpijz3UroCVD8XcsqDm3U+x4RKKeQ7gKLChEVQpxw7mq5P0b8xmCb+Z7j3E5oz5aYzyLFdj8HcKdLgh42wpK8xBUKZMdStd4aEZG3Q6H/S/a3kvtDxWmNfjay2G+qx3h1hWVjLPnIT7dfM/6q2PYWjxxdqMYV8x0gEZGUOOGIE2Lsdyp/d9xvhsNYJxq2LdJtK75rqW//gUN+rmxz58rFRBTNCdBPqrGLim9MsBzvyQZtXtnY/m0G2z/Y2H5C4/YXW+bmamajT5Fs/bYRyXZERMGIk86/G/c9V3J/iTHOY7yysNl2AGBZxT6p3hWoigoAfA/q8RERBfcl6Ced3AXDJkyYrL58N6qP2Fz6Xkm4fYphXj7a1i0Tc/1PgpyIaIiJk07zjKu9JfeXHAsNxntfhH51x9PlVGZbf1Tc7lOAiYicfB52k2QXYk7LmEP3d2mj7V0l9y/fkk9of5Hk0IzbEudDRENG99es6ZlTJYbqdyUx+mprfxlFLqG55EtEFNT/w9hJZ4PG/fMl93ctDmiMJ3ZRucNgmxhsroHzb0UbRERBuPz1zVgSPzc8XjH5FEIioqD2w9hJ51+N+9eV3O8aZwVsq6RoUm1zsvIR8PMeh3znRcqFiAhA+0T5sGIb18l3ZqD2chUO8Zjt23IsVW2EEGo8RETBbAX3v8B9JrPchcImZD+2lI1L10aMxSdvavz/BS39s7AQUTKySWcjg218Csu2Aduso7kkyQQAfwvY9u0BjkcKCw1zSX3KMxENkRXQPgmG/NjqqdE2QxcV3cQ9CdW6XSH6+CWq755KLCoA8KnC8iGiISSbdMQvdY9XbFdSXG84XtlJCrFjomFuIXzIIB8u30JE0YyHfOKZKWz3hGK7nNF0D4AbLce+VoY8Y9hR+Pc/DXKyWZyTiMiK6WSYu4iYTNbfcxh/7PHF5vpYERFFI5t0bjLcLtSku47lfl/0H/Z/PRRpbLEXmdwE8gIx1SC3z0XOjYiG2K2QTzyy7wNiTL6TGu1/S7FN07IAnuc+3P+6P9J4BqhOhIjtdVC/66jzeFD4N9+tEFESbe8karF+yPhEow/VNe1DeEek/OvYL1CeplTHpb7+ynrCtiwsRJTEKyGfdK6SbPsZxbYhol4AcR/F/T4eC5DfsQCOGo3XYexJDSURj9cxGDue01MnRUTDQzWRyj4Gs1kpN3S4uiFgDlM98kjlWcltCzB2LKkuiUxEQ8hmIm+beE8z2CZ1YbkpYA6/9sgjhU0Ut4c8nkREWs9CPumo1rHSTbqbGWyTo7CEzMnk0sYlEsfxQN50iKjPbD7yaTuDqv6iuMTCEvJql10kjmHzvOkQUV/9CHaTZ9uEe5DhdjEn8FhFreuF5T50fwxE1AGqifMZybYXarav4wEA0wy2Y2FJ79Xo/hiIqHCToJ44p0u2TzFhi7Gsw7j+nCCvLmrm/0jmXIiop2wmzhxFZQDgDw7jUi2kGTL2ccgrt2b+szLnQkQ9ZVpYftyybcxY5Di2T0TOa7FjXrmIv+MhIgpOd42OlwjbXqnZNkW4ip3XQqS9rorKRQbbhDqmRERKNhN5yNN0dXHmaH93CLe7LJuSqwju7ZCrj8VoLxRbg4WFiCKbAPt3CCkm5aa/N25/l+X4chWV1JN28xLSOmJ+f42cFxENoeuhnhS/othnsWafWBPyt0dvP8xibLmLygDAyhb5+qj7m2O4XR2b6TcnIrKnmxRVl6hNMSG/O/LYUsX2AcbRpnlygs6NGJvfhLipEdGwWRF27xpqqSbl5TzH93TCXFWxrucYTLwIZr9FsXmMiYicqBacHKD6Zb2M7oeUMWKyx/hirqxsGqp3fanNAAsLESWgmxAnKfZ5pGW/GOF6yeG3Zsi11Ilbdt2cp7NmRES9sxzcJsRcE/Q2DvIEji0AACAASURBVGN8MGO+AwDXOOQciyy/U7NmRES9ozuz63LFPvdq9kkRtkun6Noah+pSAHe1bHezR76l+DDk+W2YMyki6p+2CfFRy31SxSoBxjdPsv2lwjZXe45bdjngWGa33K8rrkREwegmxfMtt08Zbetyma4MoCL7LsIlUjHpK3eORDQEnoR+snmvsH2qZVxMYxnFuGzaWFFzfHzze4Wm7ZBMisMxYGEhogRs/9LOXUjEUL1rsfndyojHMdLFQy3thrKR4XaqPF1XiiYiGkO3NtgGku1zFxFV/F2S60cs2zhHc5ymCNuaHo/SqPK8LWdSRNQvf4L5pPgqzbYlxLeEfDdwaOMGzbF6WDg2J2jama9pJ6bTNPdNhzrfQ+OnRkTDQjXR/NBi25LijEa+6zq28YTiWG1luL/u+5qYBgAe0Nx/BtQ584wwIgpGNdGYbldizAGwUoB2llUcs+MV279HsX0KdQ5babZZAPVYiYiCOADySUZc2uNLiu1ixWVC/5sCuD1xDnUcbngsczItELpxEhEFMQ9mk0yOCX0Oqi/Mm452bAuoTpG+yXF/1coDJdgGS+eqW/aehYWIojOZZOZqtutC3CWMZ3mPtkq8VolNgVCNa2HMBIloeIyHfJI5UtguZREw6bM2GWYfj81VjF/1bq0tdla0l8PHsXRuj2m2HQf1mL4bN00iGhafhX7iBoD/VWyTMy4RcjzIYJ+rIT/ryTWHUlYBFvPSndml+kNiAPvFPImIpFRrYDWVcMVFWSwGcKDjvls2xvcpjxxSLiqponvsRLp3LCtFzJGIhohsgllb2OZ+xXaMJTHd8HiH9jUhDxOqMUyMkSARDRfVX6+iyYrtQsY/DPI9AtUXzG1tvSxBvrIwXbo/pHsa/V9guI8qf/44koi87QuzwlJbMPrfRYr9XMPFWYFzCBWvdhyPq2ahNaH7joWIyJtscjFZHfcDin1d4jWeY7jYoq/lG/ut0bKtzDgALzTo58ueY7JR/4re1OVgYSGiiFwnF93li1O8WxGtYtiX7PcnstONTb6Qf3dLXz9yHo2dGZbbx34siGjIiRNL27VIVPvlLixA9RHPZ1r6Ol6xb9sFzlTaxnam82ji2BMsLEQU0bIYO7F8xmC/yyT7lVBYmjZR9KW7iJUqv78a9HWdZv9jXQcR0LPI91gQ0RD5BtwmlpBFJeZkNlXR3/6K7d+oyXEuqndEJk6V7L+50wjCuE2SjypKXKqGiDpkDuwn+fdL9gkRF8J84rYh62sZxbaTAFxjkOvVAHZ36DfG+EzYPA47ZMqRiHpCnFRU14vX7RM6Vg8yMv0VHXc1bOMWj3GoIrVPWOb39Qw5ElGPiJPKpS3bz5TsEyO+6Tge06s6DgD8yrDN0GM7z3FsrlR5nDR6/xPC7fcnzo+IekS2NtZuLfuIk1Cq+AOqs7mOAPBBVIXnn4HaPkQz3hUjjaf5W5rYZP3XVD+UJCJyIrs0bdsXtzmKSh/jpy3HOZT3SPpuUuVHROTEZULJPSH3KVJ4zDG35yfKj4h6ZtgLy/UwW8yyy4XFNbcrEuVHRD2i+pK7zS6K/Xwm6E1G2z7Iow3bEJeGvyNh33Wk+L1I6YWPiHrkHISZTEJNsnuMtqe6kmVbHGaZ06skY9Gt+BsjJusPbRA++U1JkB8R9YjJFSN1Uk7AsSL32FJcUMsnv3sT5EdEPWI72Zrs28WQrT6cqm/Vr/9D0vVvsw0RUSvXiUR3rXSGXUwzON6+VH1PMthmAOD1CXIkop5QTSRty6lsqtmXYRcpvmM5yjNH00soEBEpJ5IzWvbbS7PvMMVPANzq2UYKEzxzHACYlShXIuo41SQyr2U/1TVOhiVUVgTw+0BthfZ0Sx7zAFyrud9kYVIiIu1Eo1vaPdbaWV0IGwcHbs/H2i15/NAg1yMT5ktEHaWbRK7U7LdMy765o3kK7xoG29fWMdxO5/mWuaaku7plifkSUQe5TiLLG+ybM2QuUWzbPDPqSk2bbR8FueSZ40tx32N7cfqUiahLXAuL7tK9seMYVJcaXh/ALy3z/omm3UUt/a6vadd1LE9o2oxlike+JseCiIaca2HJtWjjskIe31ds91dN7q7rgamc7TGeRzTtxjTNIkfb40FEQ66tQLSZgPazjULHxQBWMdx2RUXeISdSn6tp5v59iM/jcGOGfImoAx5AmL9K29rJHXsJ+bq0sbFm/OMAzHFsV1X8UpkN9+O6x9jmiGjYnYtwf03nLh6+sdhgm7UNjsOeAP4N+QKfzwL4hUEbqW0P9+M2PUO+RFSwLaCeMB6wbGu2pq3SYwTqlZ5l0del5C+C2/GjOMajKtxTcydCZEN37ZF/Wra1rqatvsYI0ix7n9pvYHcc+Kv8MA6C/ji3rYhBVAzVk9j2HctETVvDFAtQnUb8ISz9G5kuWh3m474rU45d9zu0H9vmqfAfzZMmkR3Vk3m+ZTul/xq/xOjSRxz7oX0852fLrlsmwez5UZPdRlQ03eq8NrbStMPwO7alMBnX17JlV75/wv750fXnDA2pbaF+cn/Qop1HNO20xQiA3QGs5tFGV6JLxHxNx3hdwhy7wPY5cjeq3wnV/74wfcpE/nRP8ucHaEMW2wr7+1yVUuYCj/ZixH7th7Bottd0eTZPmkUZtj9EiJbS9uSeD2BLj/3FOBVLrvV+mMP+srgH1erEvhfeCh2PaY5blzwPbuPfLUeyGYW4qBqLCvXC5TB/sh+P6t0FABxosV+ueL9kvO9O1HefzIL7cbgiQ76prQw+b4iWsjXyF4CUk3vsPhe0HO8uMjkrrC12SZ51fOsg3POGJz5Q7+QuADGjeeXDkO1+F9VvPWqbCvff23rUu2MXhDlmz6D6uKjr1kbY5xJRL81D/gIwDsC3C8hDF6pJcePGNjPbDnYHTUXY4/irtOkHU3/kdQeAE8CCQqQV4kUyDPHlxjETl++/1eJ4d1GM4/mlpCNwNx1jC8GzcB/3+CRZE2Xmc7qvLFZAdWGu+YHbLTWetj/kneMzkbbFdxOOw0ZzqaL6QnPrwX2cqyXMnagINiv8toXpxbj6FH2XYqHRx7HkVPScQv+hdXza9InKcQ/yT85dj/pU7L56EEuPd9Ho7aEn4gGAtVIMSCLkGJ5MnDtRcWxWs3WNvRP04RKqZUiWgf0JBU1zhfumKfrpktQfb85JM6zgeRPRqJgTBACcGLmPEmKR5r6Fho9Dm98HasdVrt8+3RJhLDGe50TU8Az8XlQrAvi85PazPdvtS9hejkA0ALCqZxshLQPgCKjH+xSWLAf0kGY7l7gXfh89hn5siUhhWbi/sO4T2trQoY2fADjUI4fSY7PWR2Csuigfrdnmb4b9PwTglQ45+PiGYW4+MQ/AsYb5hO77EcvjQTSU/gj3F5nMmQ775S4AscLGxaP7yBay3DVALo8DmGyZk61cx/kxAMckyKUrZuROgKjtDJ8nRrdbUXLfjxVt6k5l/odF312O+gyqNgc39hHFyGsh4v1gL/cxjxmnBDxOsdS/wxnJnQgRALwD+hdVTVYIJkram9nS3hdb7u9DtP047i2S4wtUy4ekyO/clvxc/DpR7jniSZh9x7M7xn4K8AiAHyLeKdUzMDbf6ZH6IrKyEOoX1U8b242X3C/zck17wxAq5za2qd85fDxgv7cC2ATA1w23D/3x2BsCjqWvsQjADq4HuOEjLf28MUAfRF4mQ/8kXaWx7XThvmsUbX6mpc0+R/PjJlkxdo17JbfJfpdzhUWbMa54+QqEXd2hr/Fpy+PaXHbGJv4P1Qkhe6I6c29jAFuN/vutqFYLuAjVd3GmbT6BsVeHJRrjNOifSE2/Ee5TnaXz3ZY2Ge3xl9FjKd4u+xgSim3b4hxNW74+65DPMMbBGLui9lQApxeQmy4+CqIWut+2/EfY9mHh/n0UbbYVrGGPvRS315q3mXwx65pHqB906hzlkZ9p3I3qR6U/AvBNAN8H8FsAN6L6riT34923iPFDVuqZto9t9ha2f0S4f3NFux9taXcYo76KYPO2enJfTbj9BsVxFan6+o6w3dOabdcz7MuX7Me1tnFyoFxeAOAyxF3VOVTMBfDhAvKoQ/fOmei/Xgv9E2mKsP3dwv2qiWmdlnaHKWC4nc16Y+K+rzfcThaXWfTry/ajspSXg14VwOUYuw6cbYT6vqmW+/lbh+lp9UQAqrOLdE8o8dTLs4T7N9K0rVtfi1HFTprjJyObfHTbuMSZyP8bmNLorrZZT7ohTt6oV06eZLDtg6hWQHi+59hM1ogjsrYA+ieV+BZ4OeH+L0PtiZa2F6GMSyjnCFtt+8XIUXzX6sr0O4/US9OYMHkM204JzvWckZmC6t1Zyj5pSLU9ubZr2Wexpm3ZX0S2/fcpbhPG/iLNcQGWPjVUZLOqgeu1eUYw9iymNrt59HU1gAOFPt+G6qSSRY14ENX3Vztb5mZiK8Nc/+w4Tp/YXZP3ZFSnFC9AmI/liLyYnDd/p2Q/8Xsa1a+Wmx8TiGclpX5h2sZ1AdtqLhki/lZF9C/N/eJ9qmg+Hj8NkP8dkjyB6vF9KuBxChUjqL43eQDVx0a7oVoxorYZqhUi2t5ZD2MQBSH+IFIWqlNV7xq9v+068e806KOU+Opozr5f6DZDPLuujuYKyaqPBtH4/5sb279FsW1T7mPJ6FYQBbU8zJ54so/GALMl5Ceg/C/2a7KPExChvwcMt5skHEvx/s807tvPon/dacmM4YlLQBSJ7gyYkE/Cl2rabn6+/gKk/ahCt1jnCxPm0QzxI0bZCRe1xZL7Dpfc9rPR7VUfkd2caayMPFHSxeaop0y/FF4Evyv+AfJ1sQaormQomgjgVMPc+hJNNt/3NB8XWXuXCrdv37jvQwWMm5EuiJK6DGZPTN91hLZRtPuGlv3ebphfl+NxAHMstm+qb2v+or/Z1nnC9sO+WvWwBVE2B8LsSep77Xeg+nhGbPdgw323QvsPPvsctzeORduppuIPMy8qIH9G/BiB/ycMREGZfs/h++5lBsZOjI/C/gWxI6rvD2Yb5t31MCmq84RjlDtnRtxYjOp3ZERFezHMn9QbevZ1pqTNxagucOXily35lhRAtQZYyDYfGG33FQWMjxE+LgLwHBB12Fdg9mRfALsFFkW6C5M9DPvi9RLDvBmM0uIJVCeucJVh6j3Ty+0+g+o0ZldXG/TxC1QrK7f5j2HODEaOuB/u78qJeuVVMH/hrOnYx7oWfTTjZlQfq53vuD+DETPOBhFpvR/mL6hvOPax0KIPBqO0MLk6KBFJ2H6XcQTcT4N8O7pxRUBGt2MRqqVvrgHwR1QnQ8y32J+IAjG5YJEYC2D2XUlbv8P8mxaGXywLe6+UtHO7dg8i8nYU3F/oT6K6tK2PKWi/HDNj+OIShDVA9VssIkpoAqqrToaYFB4C8KkAOa0OYH9US5+EyOtsAGtL+jk2UPsM9/ir5HEhop7ZA+Enj38AODTlICylupQto/po1fYKmETUI9NQfeQVY4IZAXAFgF2SjcbceqgK7CGolsT5KKqLou2Dag201QP0MRHAkcg/0ceO+aguWkdEpLQ/qu9YYk5GF6P6/mVYrA35cdhC2C53kTB97MYHOSpENNRej7DXolfFXFTfl7wszbCi2xZjr8NSx72N7WyW6U8Z34bfCg5ERNZeh7SLTS4G8FtUF8baNsH4dMajuhzx2Sj/0s+3o/1aO0RExdsU1fc3f0L+ibWO+agW07x3NO5Gdabb3AJy8y24Z2PsR2tERENnCoC3APg5gDuRf4IuNS5H9bsknm1FRBTYdgA+jepHdnch/4TvGs+g+s7qaxh7dUkiIirYNFRrm/0GwB2o1p5yLQbPovoY7W5UP+y8BMCXUF1Ket1UAyIiIiIiIiIiIiIiIiIiIiIiIiIiIiIiIiIiIiIiIiIiIiIiIiIiIiIiIiIiIiIiIiIiIiIiIiIiIiIiIiIiIiIiIiIiIiIiIiIiIiIisrFZ7gSIemLr3AkQ5fI+AAMhTsmaEVF3jWDs64loKLwcY5/8fCEQubkH6tfSVRnzIopuAvTFpI4X5EqQqEPWgdnriaiX5sHsBTAA8FCmHIm6wvS1xKJCvXMI7F4AAwBPZcmUqHwnw/71RNQLa8P+yc/PgYnktoT764mo01aG+5O/ji8lz5qoTOvA//VE1En7w//JX8f+iXMnKs2nEe71RNQpzyLck7+O5yYdAVE5FiD864ka9gJwL4CfgBNNSe5A+Cc+XwQ0rO4DX09JHAqzAzYC4FEA/0T1Be83UJ1xtB2AFZNnrTcZ1WekO6P6iOd9AL4G4FcAbgRwO6oi+jCAp1HeE+u4wDnxRUDD7H7w9ZRUioM9TOFr+w7lSlS6Lr32eyP3JNy38NWlXIlKNgV8PWWRexLuU/zJ8tjL8EVAFMYB4Ospi3HIPxn3JTa3PPYyjybMl6jvUr7+SSBbzpmR50l1WsfyJSpVyj+aSSHG+dvDEqG9qGP5EpXsL+DrKavcE3QXI5ZYf20RDaNYf6yRgc8izWQ8B8ANAC4GcJEQF4/GpQAuB3AlgGtHt78FwF2oftT0CIBnEuWb60l1QsfyJSrZmeDrKZsYE/ChSUcgdyzCFqIUQp4mSUR8PWUTsqDMTZy7KZ+TFRYnzHOmR558ERCNxddTJqGKyuGpE7ewEtzG9LfEef7JMU++CIjGWhZ8PWVxK8IUld1SJ+7Adkzf6UCOfBEQqfH1lMmwFBXAbkzvzJCf76qrRLTEXuDrKYthKioTYT6mLTLkN94iP74IiNrx9ZTBIRieogIA16PsJxRfBETh8PWUyTAVFaDsJxRfBETh8PWUybAVlW1Q7hOKLwKicPh6ymTYigpQ7hPqJy15lZgzUamuAV9PWQxjUdkcZT6hdmrJq8SciUr1TfD1lMUwFhWgzCfUWi15lZgzUamOAV9PWQxrUfktyntCrabJiS8CIjvvBF9PWQxrUQHKe0KtqMmJLwIiO/8Dvp6yGOai8meU9YRaQZEPXwRE9g4EX09ZDHNRAYAzsPR4xmfMhUWFKBwWlUyGvaiUhEWFKBwWlUxYVMrBokIUDotKJiwq5WBRIQqHRSUTFpVysKgQhcOikgmLSjlYVIjCYVHJhEWlHCwqROGwqGTColIOFhWicFhUMmFRKQeLClE4LCqZsKiUg0WFKBwWlUxYVMrBokIUDotKJiwq5WBRIQqHRSUTFpVysKgQhcOikgmLSjlYVIjCYVHJhEWlHCwqROGwqGTColIOFhWicFhUMmFRKQeLClE4LCqZ9KmoTAAwOXcSHlhUiMJhUcmkL0VFltu4rBnZY1EhCodFJZM+FJX70Y8nB4sKUTgsKpn0oaj05cnBokIUDotKJiwq5WBRIQqHRSUTFpVysKgQhcOikknXi8oUqHM7P2NeLlhUiMJhUcmk60XlKahze0HGvFywqLibgOrxfgmA1wDYBcByWTMq30YA9kZ1vF4NYE8AG6P6Q60PWFQy6XpR6dMTg0Wl3ccBjMD9OF2QPuWsPgH/17gY5wJ4fspBOGJRyYRFpRwsKmO9EeEnxTrekXAcqUyC/t17rDg5xeAs5S4qsnb/AeAUAAcA2CBQP8XpclGZoMmrixMti0plL6SdEPvwMdkrkL6QqGJ85LGayllULvHoO1XMCzBOKd/EchaV2E+M1Ia9qDyCfC+wrp3UUVsL+SenUp+POYtK7uOf9bHyTShXUdnHILeuGcaiMhn5X1R13B15rKEtRP5jpoqpEcdtikUlzViDD/6wGElprGqRW9cMU1EpqZg0Y++Ygw4o93Fqi3fFG7qxnEXlGY++U0dwuZKaimoSXQPA6wCciuovxVAH6jrHvHIalqKS+0XU5WM5DfmPT1eOY4lf1JcYweUeUKw4NeRBSqTvRWUx/B/XhQAWBWini8dT90Nf21iE6lguRJjHpcRjmLuo1DYDMNcjl5hxT+CxAgUMKlYcHPIgJdLXorIS/B9PnXGozmQJ+fwpketYdrfsZ6ZHXyUdw1KKimgcyvg+bEKsAeYeWKzYMeRBSqSPRWU+/B7HCy37+4Nnf3Vc4jDWmFzGEOJ6Qg879l3Cc7LUotIUcw48D8Dy6YayRMxB5YwsB9NT34qK72P4H8d+236/1LVj+n3Y5X17hBxcVjHYIkIeNrpQVDbyyFGMixPmrZVqkk8dXdSXojIeZTyGufsPpZS89ygoFxNdKCp7euQ4QPXdWHFXuE092aeKLupLUSnl8dvEM4fpgfLwcSbKeh7Y/sGQUxeKimt+f06Yo7Xck3+s6KI+FJUQj90dheTzsoB5uCr1eVBaPjKlFxWX7/9uTZSbl9yTf6zooq4XlfeivMdukkcelwbOxYVNvrcUmNvkxDk1lVxUDiswp2B8J4C7AuWxIYB9AXwRwNUB8uqirheVEAUlxtL0XX0eHQ27XM9MnN90g5y+njinplKLyuWWuXTuTFbfSSDF2l/7OuTVRSwqcfic1pyTba4/ypCjybvTXEosKs8WkkdUXSgqLrl20bAXlYmR8jrOI6ecbHN9Nk+axR7D0oqKTf/HRsohiS4VFZt8u6jrReVbcM//vZFz6+Jx7VK+JeZUUlHpwmMYTNeKCgzz6qKuFxXALfcUf5V18bh2Kd/tCsyphKJi8r1THSMB+82qi0XlUIO8uqgPReU82OWd6uygLh7XruW8ApZ8ZxDqBB4fuYvK6yz6+3egPovQxaICg7y6qA9FBQA+jPZ8U18fvovH1TXn/XIkW6CcReUhi76+FqC/onS1qHyxJa8u6ktRadoI1YrRa2fOo4vH1ed1mXvdrRLkKio2/Wzj2VeRulpU0JJXF/WxqJTC5Zg+nSXTJXxfm3PSp1yUHEXFpo8SlgGKgkWlHCwq8bgc04eyZLqEy8rAspiVOvFCpCwqtmuiLeM4pk7oclE5RJNXF7GoxONyTO/OkukSNl/0msS0tOlnl6qomJw41IxJHmPqhC4XFUCdF6+nQk0ux/TmLJkuLWRRqWOVpCPIJ0VRucey3Vg/8C1KX4vK5jmTcsSiEo/LMb06S6ZLi1FU6tg93TCyiF1UXD6eHApdLyqqB3ZWzqQcsajE43JMS7iS3qsQt7AMAJySbDRpxSwqfJ1qdL2oLIP+PHgsKnG4TswxVkx2Ebuo1FHCx30hxSgq+3m0OQDwl4DjK1bXiwpQ/ZCuzmcBqjMxuohFJQ7XY3p2jmQl1kO6wjJAf5YLCV1U7vNob6heq30oKn3BohLeBXA/pmdkyFflGaQtLHW8MMXgIglZVEIe03mhB1oaFpVysKiE5fvc/kr6lLVyFJU6Xp9gfKH5FJUBqtUgnvRsQxUzIo47OxaVcrCo+JmIqhCEeuF/Lm36RnIWlgG6ta6Yb1GJHb3FolIOFhVz41CtKRbzRf+RZKOx43Mly1CxcfRR+iu9qJRwdmEULCrlYFFRm4HqzJmUL/r3JRmZm08g/6Q4QNknxZReVEo/fs58DwqLSjgsKks7CXlf8IfEH6K33JPiAPnXSFPpQlHp5WvX94DMSp9ybw17URkPYDHyv8jreGPc4QZzLPIfqxKfg10pKn37fZD3AZmVPuXeGtai8hjyv7Bl8eqYg45gIfIfs5JOQY5ZVOYCmAD1j6+H6fU7hu/BmJU+5d4apqKyG+K94O8GsC+qL9p92tkj2ujjGYd4x9U0vhN9lGZiFRWZWO12ku+BmJU+5d4ahqJyOcK+wB8DsEZLnw84tr2L/3CzmYj0xaQZb44/xFahi8pkTV8nB2i/Nz+K9D0Qs9Kn3Ft9LipXI9yLez2H/l362dGhn9LkLC65rxsSqqjcbdhfiL5e6T7ccrColKOPReU1CPNiW9UzD5c+t/XsszShriTZledliKJi8xyYEaC/3McsCBaVcvStqPg+ty7KnMs2AfsvyWykKyrfTTMkKd+i8kmHPkP9MLXTWFTK0Zei8lL4PaduipCTSx5bRMijJCcgTWHJxbeouApxzJ716D87FpVy9KGoXIMyJyCXXDaNmE9J3oC4RSXX7318isp7PPrdwaPfZnT2h+UsKuXoelF5BO75Pxk5N5ecNoqcU2lejniFJYcU16hXCXXcJgTIJTkWlXJ0uajMhnvuDyTIzyUvl7PM+iDG8jg55Cwq8Oi7hGPnhUWlHF0tKm+G33MoBZe81k6UW6nmIdzEuELi3IH8ReVFHv2X9Pq2xqJSjq4WlS68WFxyWzNhfqWajjCT4kmpE0f+ogKP/sW4L2BO0bGolKOLRWVBS166SPkLYpf8npMwv9KFmBhTK6GowCMHMd4VOK9oWFTK0cWi4vPcSXktCZf8Vk6YXxewqLiZ5JFHJ5+TLCrl6FpRuccyx5w5u+S3fOIca7kKr4muPN5AOUUFAJ7yyCX3cbTGolIOn6KS49TDLr04XPKbkThHANhfksfUDHmo/A7deLyBsooKPHIp4VhaYVEph09RmZIh3y69MFzyyzGZl3Cs2nTh8QaAtxSY61AUFhaVcvgUlc0z5NulF4VLfrqlzlPnWdIle7vweAPA4QXm+n6PnEo4pkZYVMrhU1Q+nSHfLr0gXPJbLXGObXmWwuVY3pIhz1Mcc419rH3OmCz5eQGgenvPolKOleH+OMzNkG+XXgwu+R2WOEeTPEvwKOyPZY7rhFznkGeq4xyyqJTyvABQLS3uO5i3J8+6v9ZFt55Yvs+dsxPlOc0jx9RKzEnUheMIhxybsWvh+ZVyjMcIMZCrkmfdX59Ct55UXXkh+HzcsFKiHGslHTeVUh9nkc/z8oIE+e3tmWMpx3kpvRlIT/g+Dvt2LN8BgGMi53hGgBy3a+ljDQAnorrs7Mc88+3C6872+P0rT5qdmNduC5CnGDlOhQcA/MEwwVIO/jDo2mMRasHBWKfu5rh8ru/jUPLjDQAf70COQLVuW1deSzGefycnzP+/SnkRUWU1dO+xWCdgzs8PlNN45C0mvo+BS18pPv/3yS+HEI/huzuWb9Zje/XrHQAAAuNJREFUH3JJ69xPnr7o6mMROu+JDjlMAHBZhFxyHH+fPmMv6VLy87BpnGWOpeQf67n49diJXx4x+Tq2ij2Inon1l3WMa72LnoiU+wDAhwFsAGAmqh8izgSwPqpLvZbwbiTGZBSi79CLDrqe6v79wHmYCv1Yplp/7bkRcm/Gt2MkvTBy0qp4I/L8Orl0U5DuMfgG4q0PluM5VXLsXcixHIHfDzi38+w/NZ9Tx03ibQnG8OXIY6jjL6hOMJkCh6I5AdUP43K/0GQxG/lWgs3pQeQ/9gNUk86yAcZzfQFjKSV8r8GSIscHUJ2+/iYAL0b1W7OfBO4jlYkAFgfO3SZuBrAlgGUCjml+xvHUcWYzoWUKSMgl9jM+5N1V8kc2vnLnL4tDE+cYQql/AKY+DiZyjzPm+HOP4b/jOKyARHI/GKXKfWxTHP/c+dcxLXGOe9gfKqXzIuWYIhYHPA46GyUck2uEUMQYcifhGytYHfJuyX1sh+GFMClxjnNsDoyhkFcJTBkHRjgWKrnHahKn9WCs43InECJcTiftitzH1iS6ONYRh/wmBug3ppkB8uvi88ZU7vGaRMjTeLM+rh/LmEAXn5wp5T62bRH67Lz3Rs73x575reTQ50LPPl2kOhvIJXJd6jj3uE3C9F2ziZC/uzGNpVY9/7dio58BeB2ADUeTjGUcgLUA7A7gaFSXH9V9Qf0AgOkR8ymF6YN5LaqJ5AAAOwB4HsJM+JNRrYL8UgAnAbhjtL/YC4KGWAm7jkeR58V6VMA+fTwHwDXIO1lG/yGdgVhj+xeASwB8C8BxAI5A9Tp82Wi8ZjTeiuo3VN9C9XoV23kywphTvnvdJEL+RMEtB/tTqZ9GVQRjm4ilf5F/PYAdE/QbwpaI/+X+q5ONxtxrUE3ezTyvBXDC6H3r5UstqrYVt+cC+AWAI1GdLv7cPGkSUV9tD+CdAE4FcCGqVXH/hepd36MA7kT1bvIEAK8Ff6RMDf8fB1spmY7Dg90AAAAASUVORK5CYII=;" parent="1" vertex="1"><mxGeometry x="458.84" y="289.5" width="38.17" height="49" as="geometry"/></mxCell><mxCell id="Pg3yXxrsNYTh1cJ3KZXr-16" value="" style="aspect=fixed;html=1;points=[];align=center;image;fontSize=12;image=img/lib/mscae/Docker.svg;" parent="1" vertex="1"><mxGeometry x="420" y="379" width="50" height="41" as="geometry"/></mxCell><mxCell id="Pg3yXxrsNYTh1cJ3KZXr-26" value="" style="shape=flexArrow;endArrow=classic;startArrow=classic;html=1;width=6;startSize=3.51;startWidth=15;endWidth=15;endSize=3.51;fillColor=#ffffff;" parent="1" edge="1"><mxGeometry width="100" height="100" relative="1" as="geometry"><mxPoint x="381.0551986221458" y="255.1300000000001" as="sourcePoint"/><mxPoint x="442" y="302" as="targetPoint"/></mxGeometry></mxCell><mxCell id="Pg3yXxrsNYTh1cJ3KZXr-33" value="&lt;div&gt;&lt;font style=&quot;font-size: 54px ; line-height: 0%&quot;&gt;DM3K&lt;/font&gt;&lt;/div&gt;&lt;div&gt;&lt;br&gt;&lt;/div&gt;" style="text;html=1;strokeColor=none;fillColor=none;align=center;verticalAlign=middle;whiteSpace=wrap;rounded=0;fontStyle=1;fontSize=30;fontColor=#707070;" parent="1" vertex="1"><mxGeometry x="59.52" y="50" width="190.96" height="90" as="geometry"/></mxCell><mxCell id="Pg3yXxrsNYTh1cJ3KZXr-35" value="&lt;font style=&quot;font-size: 14px&quot;&gt;Decision Support System&lt;/font&gt;" style="text;html=1;strokeColor=none;fillColor=none;align=center;verticalAlign=middle;whiteSpace=wrap;rounded=0;fontSize=30;fontColor=#707070;" parent="1" vertex="1"><mxGeometry x="39.99999999999999" y="85" width="230" height="20" as="geometry"/></mxCell><mxCell id="Pg3yXxrsNYTh1cJ3KZXr-38" value="&lt;div&gt;full_house&lt;br&gt;&lt;/div&gt;&lt;div style=&quot;font-size: 10px&quot;&gt;&quot;&lt;i&gt;specific optimizer&lt;/i&gt;&quot;&lt;br&gt;&lt;/div&gt;" style="rounded=0;whiteSpace=wrap;html=1;" parent="1" vertex="1"><mxGeometry x="592.9200000000001" y="289" width="100" height="30" as="geometry"/></mxCell><mxCell id="Pg3yXxrsNYTh1cJ3KZXr-39" value="Future Optimizer(s)" style="rounded=0;whiteSpace=wrap;html=1;dashed=1;fontStyle=2;fontSize=10;" parent="1" vertex="1"><mxGeometry x="592.9200000000001" y="324.5" width="100" height="30" as="geometry"/></mxCell><mxCell id="Pg3yXxrsNYTh1cJ3KZXr-40" value="" style="shape=image;verticalLabelPosition=bottom;labelBackgroundColor=#ffffff;verticalAlign=top;aspect=fixed;imageAspect=0;image=data:image/png,iVBORw0KGgoAAAANSUhEUgAAA+gAAAE9CAYAAACYz0hRAAAABGdBTUEAALGPC/xhBQAAAAFzUkdCAK7OHOkAAAAgY0hSTQAAeiYAAICEAAD6AAAAgOgAAHUwAADqYAAAOpgAABdwnLpRPAAAAAZiS0dEAP8A/wD/oL2nkwAAAAlwSFlzAAAOwwAADsMBx2+oZAAAgABJREFUeNrs3XecZXV9+P/X+3POvXf6zJbZvjOzvYIgICJYUESxojSNBVussSAiRv0l8WuiiTFf8zXFxB5jTBSQaCxRxAYqKrC7wDa29zo7feaWcz7v3x93FhbcPjPn3DvzfvpYWJmZcz6fc++ce96f8n6DMcYYY4wxxhhjjDHGGGOMMcYYY4wxxhhjjDHGGGOMMcYYY4wxxhhjjDHGGGOMMcYYY4wxxhhjjDHGGGOMMcYYY4wxxhhjjDHGGGOMMcYYY4wxxhhjjDHGGGOMMcYYY4wxxhhjjDHGGGOMMcYYY4wxxhhjjDHGGGOMMcYYY4wxxhhjjDHGGGOMMcYYY4wxxhhjTEWTkfzw4VvPhcCBExwxPlAoBfgSlGIh1hxtn7kv7T4aY4wxxhhjjDEVLxzhz2eH/yiiHlEvqGpBoqEhdO6Cbj38kfOHv1WH/ylH/wocO0LgASl/SQRUERFEhr+EoAIqHglifMnhfEjGKZEMEaviydJ0cC613fUgitx2W9rX1xhjjDHGGGOMOS0jmkHv/PD55yi8EWhG6AOKoHmFbpQYpF9gECFWtBfwIHmUAqAofSIUUSkKUR8eVYg1DDyq6kS8CIoX76LAlzLgCvjYCWEYE7sSkQqB5ghQkJg4LIKARCFSjvnx5cgenCeQ8uiARAEBAXil4QuPEHTl034tjDHGGGOMMcZMYCOaQRfn96q6LPDa4WMpiAr44clwP/xHBRkCvEIJoQioCEMoJZyWFDeEwyvSBwwAkUf7RIkRBnwm6hUl9jmOiGjRe4rig4EMeCjmFYqqRK6U6ROIVSiAFobPX3q8LRqBICqlgCB2JdXOm1fGh4cijo5X6PA/RB7/O6II4NUBihteBiAMB/8oCqgrXxvV4al/8SgheAGJ0CBANaJEHfU9yuTBEvKlB9N+HxhjjDHGGGOMSdlIZ9BRZBHoZxBeNNLjnYQe508EDA7/vTD8/2PKwf3R/5YHYpQe0KJCXkSO/kwvqoOUg/duBK/IoMCAln9mQERjRfKi9KloLNAb+6CgGmtGKQkgzsVSCr3i1UsU+axTCPxU/4iH5fREtUi2FwliYq1BShHqAoSIUijgZTjI1+HRAMGJoAjqtfx3FaIQpn/8/rF8LxhjjDHGGGOMSdGIA+ri/7mUnqHBS8Xxj8B5aXfoNBzdAe95PNg/+vcYKKGoCkUUj1BCKYioguS1PBBQEjgC6kEGUYZUiFC6EC2BDA0PCsRAn4oURYkQBsvn0kFwg+I1Vqf9IhKjGotSVMQ7XEkFVa+xwxVAdLA2LNbkh/S4PZLHOybDSxfKIf7Rmfzy0oXyN3qcU1BFxaEyvCLAexgeDFAfo+KQrJIZPsWkj61J+3UzxhhjjDHGmHFtxAH6kY9cQKEoYZiN/kiQvwFmpN2pCnE0+M9TDuo9DO+9L//76PL7ISBWKAJ9KLEIAwoRShHoprxloFdUjx6re/jfeYVBETzQo2hBcEUVukF9oFJSL7HiNfYuUkSVUpQNSxGqGksuKoZZDShRPzig2pLVWj+Ar2kjHugjP+iIskpmfki4MEPTs36V9jU1xhhjjDHGmHFrVJak7//gBbhcqV68u0mQDwH1aXdsHPHD/37C8n5VvAgx5UBdgaKiXpB4OLD3iPZS3vsfAX1aXhEwKNBbnt2X7uGBgSLlJH6xKP3DqwQiRLolUO8mB/uCi2oflcGib3r+79K+HsYYY4wxxhgzLo3anvGDHz2PQN0MVf1bhFcx8hJuJjlHZ/oVhoP78p88IT4zL7MumBt+tK6QfcC96Odpt9UYY4wxxhhjxqVRTeq2+cOLaNaGc8Tx/4DnjPbxTfIkKz6zPDvkWuSHonozTnbWX/GbtJtljDHGGGOMMeOOG82DtUoL2VK0FuXTwNa0O2dGaDjbnISSEeQliLwXYdLQjy9Ou2XGGGOMMcYYM+6MaoDe/Fe/R514KUR3ofwdcDjtDpoRyhBISBahBuSN6rlRIDt416Vpt8wYY4wxxhhjxpVRDdABWj71EFoTlJzyn6p8jXK2clOlJCMRAX64ON0kQd4TEbxQnLrCpvlpN88YY4wxxhhjxo1RD9ABpv7VaqJC0A18FtUfUq4vbqqQZKVA8ITXbx7wER9z0eCvl9F790VpN9EYY4wxxhhjxoUxCdABaloKbP9Kxw7g04quSbuj5uxIRjK4J75PRLhQRW8NZx2ZmyvWpd1EY4wxxhhjjBkXxjTL+uE/Ow/1UYCG16DydyLMSbvD5gwIZOZlNGwLj/c+yavyeRH9uBN3uPaKX6XdWmOMMcYYY4ypamM2gw4w9f+sxsVhrC74LvA5oC/tDpsz4PDkKJ1gGKdG4EZVbgxEcv0/fVrarTXGGGOMMcaYqjamATrAlE+uJohdHuIvgv4XUEq70+b0iBC7rBRhOEXcH3wDzSLynpL3L0U0HPjfy9JusjHGGGOMMcZUrTEP0AHuvfT3IO4gKn8P3Jt2p81pUCCQgFCynHwrRBtwK6XwwkdfYC+tMcYYY4wxxpytMd2D/mQDH36aDFF8HiL/D1iedufNSSi4Bkd2ZRapkxPNoT/23ar6PVG5Cadb6nqmIdd+J+0eGGOMMcYYY0xVSWQG/agCkar4XwKfAQ6n3XlzCllKx9RAPxkRkStx3AS09k7dmXbLjTHGGGOMMabqJBqgT/7Eg4AUPXxT4UvAUNoXwJxERkpPqoF+Mjng9ai8JSzW1vb/6NK0W2+MMcYYY4wxVSXRAB2g9a/W4JQ+0M+Bfg/waV8EcxwCLiNZcRKcwU81Am8HXipxEJR+fXHavTDGGGOMMcaYqpF4gA4w9ROr+O79F+1Q1b8G7k/7IpjjECBLiJzhe0RoU/iwhtFl4bQSA3dbkG6MMcYYY4wxpyOVAB3g6ot+R10hWA18Ctie9oUwT+KIJSd5TpUe7jhEOBfRDw5uzy0I8pm0e2KMMcYYY4wxVSG1AH3KX67BO3wcyw9U+UegJ+2LYR4nTlSycrbbD0SQK/Byi8/GM3p/fEna3THGGGOMMcaYipdagA7Q+LcPErh4CNWvAv8JFNO+IIbynLkjkIzkkLMuxZdF+COFtyjU9FuQbowxxhhjjDEnlWqADjD1E2soTcp2Cvp/Fb0bSxpXGUIg4EwSxB1PoyLvCIRrQDODd1lmd2OMMcYYY4w5kdQDdID6LX20TN25WeBvVFmfdnsMSEaKEkp05jvQn3QcmCXwQcFdun+onwPfuzDtrhljjDHGGGNMRaqIAL35X9cz2D9Znei9Inwa2Jd2myY6yYqXcLRWM8g5wJ9Oq6lfMq1tAX7tnLS7Z4wxxhhjjDEVpyICdIDG/28zXiV2+G8r+iVgKO02TWQSSg6R0UrBLgjPAW4e3L97+uDOBWl3zxhjjDHGGGMqTsUE6ABT/2o1kqvvRfgnhW8DUdptmpAcUE4Pd7YJ4o4nK8KrEX27yxbrB39s+9GNMcYYY4wx5lgVFaADRId2QN7tF9G/A+5Luz0TkuDPtgb6KTQAb9NYrnG4TPHep6XdU2OMMcYYY4ypGBUXoLf+wx543g5yvrAa5a9R3ZJ2myYcAcmKjur8+eNmInwokuhZmal5hn7yjLR7a4wxxhhjjDEVoeICdIDWqzopSUYj1Z8o/APQlXabJhJx4iSUWhijEB2WCfKng7vqlxVKFfkWNMYYY4wxxpjEVWx0NPmvHkKgAPw7ql+j/HeTAMmKSjhWsfljnq3IrZlQZ/b/2GbRjTHGGGOMMaZiA3SA6Z9cjSpHVPisKncx+nuizZMpkKGgISOugX4KocC1oG9DtX7AgnRjjDHGGGPMBFfRATrAtE+uxs95dKuI/g2wJu32TAgZQYJEzlQPvF1EbgDJ9v744rR7bowxxhhjjDGpqfgAHcDtXUDk9D6UTwH70m7PuCbgMpJDJEzojNMRblHRy7fpPnr+95K0r4AxxhhjjDHGpKIqAvTWjz8MSBSI/w7K54C+tNs0bglKVlRGtwb6qSxF+fACmXXOpsP95P/7hWlfBWOMMcYYY4xJXFUE6AAzPr6akpdBRL4I+m0gSrtN45LgJUceSXa/vwjPENwHlk9vml1s7Ez7KhhjjDHGGGNM4qomQIfyfvTvPu3BfSifBr0XSxo36sSJSFZcovPnZSHCtYq+y5VyjZbZ3RhjjDHGGDPRVFWADvDi+8+jLty2VuGvFd2cdnvGnQBHKDnGrgb6ydQBbyaIXw3kSr94etpXwxhjjDHGGGMSU3UB+vSPr6bkJ2mJ4Geo/J3C4bTbNG4oEIqXMNWVCdNQuUXgyjBUGfyhZXY3xhhjjDHGTAxVF6ADNP/ldkKh6OA/ga8B+bTbNF5ISFEyUkozRBdhIaIfGBySc7ZeOjPtS2KMMcYYY4wxiXhsGfPGa59CJDGKR9UhoogoqCMOhfZcPU377oMfpbP2+Xi6PnguUejmCfJphKup0gGHiqEQtLpidllWCCSTcmtiRe9A9VYCtnf6I7Q//9G0r5AxxhhjjDHGjJlja11ngOmAQ+n1MOhCoobBej+oPeyIeqB5Be565SHvEFWyuSJxHLD8mxtSaXy+oY4Za6Zu61yy528U2gUuSPuCVjUBMpLBVcQQTCDIS1XYCv4Ts92MPrAA3RhjjDHGGDN+PRaJrb12RQ3Cc0FfhUg96D5gnyIHEfY65YDie1Sl33vXi6fY1NIT9/ZN9oGL8AKiIF7RY+axvXdk6kpIPSyZsRH589HtQM/NFxPVhM7r4DUIfyvQnvZFrVqChu1hlOnIpD17fqxDin7MOf8ljcJ8/Qt+lXZ7jDHGGGOMMWZMPBag//badmq1sdY5f5WI3AJcDMRAgfIe7z5FO0GOoBwE3SuwX0X2CBz0QhdKj4u1SwMGVYh9OBRnolp8JKACrrwGXVHwHg2ElbetG3EnDn/4AtBirUrwHhH5CNCY9oWtSg6fWZQZDGeG9VTOTgaArSjvC3pz/6PNJWqff2/a7THGGGOMMcaYUfeEIGzNK1fig4xkpXAuyAeAq4GGE/ysB0pAEcgr2gXSKXBY4cDwDPxeVPaI6GGQbkH7xAe9qlrUuBRJLhOpevACThECPDEOQcUjomhJyAZFcs0F2r6w+4QdOfyn56IirSLySZDXU16yb86EQ7PLs8WgNchVWoV5hV+j+u5aV7Mqyoeae8ldaTfJGGOMMcYYY0bVH8ySPnzdSgTFIbMUfQvC24GzSaUd83gA3wt0qtIt6AFgH7APkb2gh/DSidMjQnjYa5QPkDg7tzca2NmMCxT1DiceRPFARh1T/DRab//pE054+CNPRdAVqvw9whVpX9xqI1khuyKLa3FUWoBOOWncnap8gCDa0fi836fdHmOMMcYYY4wZVSdcxrzxFSsgyNRFUno5cDPC+YxelnTlmNl3oHv4zxGFfVKegd+t5UD+kFN6EDpVdMCLFHPeFfa7w6XJfjKCoAoOIVZY/LSc9Hb754D+o4gsT/sCVxOplyi7PCeuQYIKDNCh/F75J1Q+DtpTf+Wv026PMcYYY4wxxoyaEwboD7zxPLL9RWribFAMS08DvRXkBUBNAu1SyjPwRaAL6AE6KS+f3yewH9ir6GFBDqlyMFA5XIJixhVLzbMzZOsyrwP5BOXM9OZUFFyLG8oszziXc7m0m3MSnSh/Dnyx5ONCywt/m3Z7jDHGGGOMMWZUnDIR2MZrn8LirT2sn1/f7oV3ILxJoDXFNisQUZ6Bz4P2MbyEHuSAqu4FdocZ6W+cFl6frXOXi1h99FNSCKa6UmZZViSUcOQHHFPbgQ8U4tKdtSq+9qrfpd0eY4wxxhhjjBmx08rU/fCrViJxjDhpQuVVCu8TWJZ2409CgYEgJGpoDZtqGpwF6KchmBmQXZQdvY0MY0iV+0Hf0bVg6f1zF3wl7eYYY4wxxhhjzIidUSmttTcsR8iG3pcuA24V4XKgkpdDE+aEpmkhmZpKqhpWgQQN28Io05EJkYoqsXYiHuW7ov5mDdg60JVj2nW/SLtNxhhjjDHGGHPWzmiudMU31yFxFPU8c/LPQd+H6pcp7w+vWFFBGeiKiUuVmfWsYgheslJEKjQ93B9yCFepc+9Roblp2lDa7THGGGOMMcaYETmrmdINL1hIcVodYaE0SVVei8h7gIVpd+ZkvaxrDmiYEiBVsHw7FQGaWZqNwmlBiFbFDPpR3ar6MeBfZGgwX//yNWm3xxhjjDHGGGPOylmFq0t/tJmwr4B610XsP4/qTcC9lDOvVx6FfF9Mvi+uxPreFUECEZeRDGc5aJOiFkHeC7zEDQ24rp8+I+32GGOMMcYYY8xZGXEwtvaVy5CSita6lcBNINcCjWl37HiCjNDYGpCrt2n0JyvXQM+qa3CZKh3EeADVPxmqcb9tHMhp7qqfpt0eY4wxxhhjjDkjI45UV3x7PZp1Cu5hRP9UlU8BO9Pu2PHEJWWwKyYqVmcEOmYUCCSWjERVGpwDnK/IR2ryuqCUqei0CMYYY4wxxhhzXKO6nHn9q5fiI1eHyFWK3irIU4Eg7U4+ocMCNY2OhqkBLqi21dxjRMFNcXF2RQ4JKuv1OkMlVb4QqPyZop11L/h12u0xxhhjjDHGmNM2qmu99+2pR70bLNRk7kR5F3AHUEi7k8dShXyfZ6jboz7t1lQIAclKIK6qg3OAjAh/5MW/Eajt++GlabfHGGOMMcYYY07bmEwhr37NuQzKEVqKTXMV3gHyRmBG2p09lguhcWpITaPtRwc0bK+qGuinsgvlljiS28NiIa67+v6022OMMcYYY4wxpzQm0el5//EQk/KTUHW7vMgnUG4F1qbd2WP5CAa6Yor56t10PWoECAUdD6F52VwVvTUI/SW1/7OVXd+8JO32GGOMMcYYY8wpjXlI9vANK8hEEsSBXqroBwR5PlCTdsePytU7GlsDgsz4iU7PmIPMsqwPpwWuipPEPZkH7lLV92UCt6FQ9DRd9Zu022SMMcYYY4wxJzTm67vP+eZavGgcSvxLVblJlc8DXWl3/KjioGewO8ZXZgX3REgguMzYvxcS5oDLgffGninZMEy7PcYYY4wxxhhzUokEZctvX0spdtTUFbaol79Q5SPAo2l3HspJ44Z6Pfm+GB0/s8dncAGAEK+hjMfeZ0Xkjzz+bd5r/cB3zk+7PcYYY4wxxhhzQonNmq68fR1HDrQgzncJfAn0JuBnQOpz1+phsNtTHJygad1DUQllvHa+SZB3qPiXayl2fT95WtrtMcYYY4wxxpjjSmXj9SPXrUCCvKC5papys8B1QFPaFyNTKzS1hoS5CbQfXcFNCTS7LINkZNx2XOFh0Hf7oHRPjc/57BW/SrtJxhhjjDHGGPMEqew7XnnbWvBZRWU98GFV/UtgZ9oXozSkDHTF+Gg8rvY+AQHJIrhxUV7tZN1cCXzYRZklA9F4XSxgjDHGGGOMqWapB2WPXL8CYp8TJy9WkfcLPB0IUrsgDupaAuonBch4S5t2AsHcMM7MzzgZHzXQT6aE6r8L8iHv4kMNV/w27fYYY4wxxhhjzGPSD0HFg7hCbVz736K8W5XbgYG0mqMehno8+f4JMssqqGREx+/i9ifIIHKdh7cBDX13PT3t9hhjjDHGGGPMYyomLNt0zfkcyh6m2TfMQuWPFXm7wIy02hNmhcZpAdna9McwxlQAmcVZDWcEMo5qoJ/KXlX9U3X+GyVfiiZf+WDa7THGGGOMMcaYCphBH7bojlW0lqai3u0V/KdBPwishnTCxqioDBzxxMXxHbVKIOM6OdwJzELkFvHumfm4X7p+/Iy022OMMcYYY4wxlTODfqx11y+FbCbwRX+RoB8CuRKoTbwhArVNjoYpIS61XfFjSIFa8dkVWQ2aXDCBZtCP9v5neH2vQx7R2iJ1z7o/7TYZY4wxxhhjJrCKmUE/1vJvbUAKcawa3KfwflT/GTiceEMUCn2efG+MjtPgVQJUQnSCBedQHpx6Nk4+EMM0HaxLuz3GGGOMMcaYCa4iA3SAZbetY7rsJZctbCXm/yj6YWAdkGj2Nu9hsNtTHBifSeMkI4GEMh7XB5yOALgGp+8iW2rMf//ZabfHGGOMMcYYM4FVbIAOMO1bh+nrb0AD14vqVxXerfAzIEqyHXFUro9eKoyzaWYByQoSTLg96MdqAHk7EdfgCQb+95lpt8cYY4wxxhgzQVVNYPbIdcvpanZM7tWlir5HkFcDLUm2oabB0dAaEIRVc9lOKZgdRpkFmUBc9bwXxsh6VN9LnL07Cod88/N/l3Z7jDHGGGOMMRNMRc+gH2vlbeto6VO86Abgo6h+HNiWZBsKA56hHo+Oo9XukpMqeheMqaWIfJigtLKGXNptMcYYY4wxxkxAVTlr+sj1KwByqFwhorcClwBhEud2AdRPCaltclT9wnAH2SVZDSZWDfSTiVX5LxX/Qae6l3+6j/rvVPuLbIwxxhhjjKkWVTl3uvJba3FeCzv2zfqBKu9R+AYwkMS5fQxDXTGloeqPaCUQJWMB6DECEa52yDuBRnnnZWm3xxhjjDHGGDOBVGWADrD89nVMburWqC67Gvigqv4NsDuJc0elctK4qFjFQboCAUqYbFb8KlAP8scQvFo0yHT+5Py022OMMcYYY4yZIKo2QAe45Ae/I9M7hFM9EMTyf1H9gMIDMPYLtotDnsEuj4/TvgojEApiM+jHM02F98cuem4xjKT4u6ek3R5jjDHGGGPMBFDVATrAijs3sPy2dQADmo1uQ/VPUP02MDSmJ1bI98cM9cRolU6kS4iTkIlaA/2kBJYgfKSp1Hj+zo9dReHHT0u7ScYYY4wxxphxruoD9KOWfXstEgX+SN+k+xB9nyqfBQ6N5TnVw1CPp9BfhavEBciKIiSw3qA6CTwD5YOz3vvz2YNimd2NMcYYY4wxY2vcrW/OfyDLll0LwWsTyDXATYisHMu+hjmhaVpApqa6xjvc7DDOLsg4q4F+UkPAP4rqJyUIumqfd2/a7Rk739wBYRNOI1625me89N47ePPPvpl2q4wxxhhjjJkwxmVg9shL5qM1dZSKmSBXU3gWyC3AFUBmrM6Za3A0tgYEYfVc0nBeGGfaM45x+j4YRYcV/j/ngi8Sl6K6K+9Luz2j564eGPQQecpvA6G1v5uDN84D7I1hjDHGGGNMksb18/eql5/HgoZB2VXIzEP0fYi8Bpg8FucSgdrmgPrJAa4adnU7yCzOEM4MbYn76dmk8P7ARz+MJIgbr/xN2u05fd9ScD2Ah0GBugg0BPHl174hEzBYqke1BQmmZ+NCx5vuuSP37h9+4ftzioNdzTsfTbsHxhhjjDHGTAhh2g0YS+d/ZzUbr1+mBLLVefcXsfpNAu9DmD/a51KFod6YIAN1zUHlD30EosMZ3Cu9pZVikcCHvQv35Zw8oN9/DfLi/0i7Tcf3QYVneoh7IAI4As6DKGjGAbWgTUA7jnYGowWozEdkEcLMumJh2jm7NxZnDXQ3SCb75YMzFxWn7duUdq+MMcYYY4wZ9yZMcLb+unMoOs2GXp+L8EHgMsZgyXuQERpbA3L1FbwfXYFa8dnlWQ2aXWAz6KfNK9wJenNX3W92zOEZyKW/Tq81X9oMDZN5LA+/1/JvdE5hqAgNtSFD2gQ0AbNA20AWIywBFgAzgWagjvJgneAcS/Zu8V/46p/qObsfXRe78J1+KLjXk2PGkYfSvPbGGGOMMcaMe+N6Bv1Yy771EA/fsLKY7S/8qNSY3a3ITcB1QONonicuKQNdniAjhNnKHf+QAJEMtrz9zDiBF6OyY/LgJR/vE7oTPfsvFHo6oeiGt4tLeWY8F8NAGCDUA80UXRtBzQLyughhIdAGzACZSvn9ftI35qID26NZ3YcCdcEKFd6rdfGWXLZ7H0fSuejGGGOMMcZMFBMmQEeEc4B1L1+ig0O1j9TW5v8UdCPIO4H20TxVacgzcAQapwa4Ck0aJ6GIhFKZjatsNQhvANkujs/3fu+yQtNLRjGzuyp8F8j3QhBDg4NBwMew9yDks9BIiGgz3k8mltlE4TyEDkSWgs4HnQnSDNTCmdW5D6NIz9mzUZqH+sSLOIEXOvT1cSH3/7o75udbtm9N+/obY4wxxhgzbk2cAH3Y8u9sZPNrF5LP1xwMwvizPnZbEG4FuZBRXPJf6PeEGaFuUoBU4mr3cg10C9DPzmSF90nMTl/S/xn84RW+7qqfnP3RvqUQ9oKP4NvD09Q5D/tCqPEhKo3AZDLhbDJ+IcISvCxAZB7CNKAFqAdkZG9hoT4/oOfvXO8D9RlffuM2CLwF8auam3t+nPaFN8YYY4wxZjyb0AHaulctxQ+pk5w7H9wtwEsp78cdFS4o70evaaywCF0hmBNGmQWZwGqgnz1V7hN4b13f+b8rNv6e3JW/O/E336+wvhtqfXlpeuzKc9uq4ArQMh06O7M4aQSZjNKGsABYDMxDdR4wE5FGyu/R0X/dRFix+9H4a1+8RTs694T6+AILVfRHgr5LvGydsndL2pfeGGOMMcaYcWnCzaAfa/l/bWDtNcu8qnsA9GaBRxH5Y2DGaBzfx8pAV0wQQqa2goJ0AcmKq8iZ/SoiwtMUPjzQ+OBNpSC37Q++4YcKfUfK2dO3HynPcStQn4PeQghuEuhUNDubrq555SXqLABtR2Qm5f3itYCQyG4E4dw9G+NpfZ3hk8J/EeRylLco/FV3++KBlh1Wes0YY4wxxpjRZrOnwx56zUoYpN5l/DUgNwmcC4xKCJurczROCwgyFXK5HWQWZQhnWQ30UVAA/VfgY7vjaUeWRF+HYgTqISpAXOPI+CyBa8LrFIQ5cDQQZxEwm3I29XrGamb8dIiQKxX1z777D/5tv/hPx/FHBPao8v6abHB7oeT91N1Wes0YY4wxxpjRNKFn0I9Ve3iIYlN2IHbuPwLPFoVbBa4EciM9dmHIE3QLDVMqZD+6EyUjyigNQExwOZDXK2zfqdP+hVJDCe2aBMwizM0h1IWom4eyCJE2ysF4A5ClogbIhCkD3bpy96M+8BrE7rhNm43wnnwpWudjHkm7xcYYY4wxxow3FqAPW/Sj8r7ah25YES//1tpfrb1uxU2IvhPkRmDKiA6uMNQbE2SE2maXzGrlk7SFAJWMeCxAHy0tAu97yM+bm/GHa0oEC4E5IK1APUINFRWMH4dA++HdvqNzt1M56bddjPIO59xHO2cv6pqyx2bRjTHGGGOMGS1nVIJpIvjc2kPc8IplEEgXor9VlcMiLGIUgvS4pITZ9OujS40QzghEslZmbbQ4tNnhn77aL7xor7YuAFopL1nPUOnBOeVt8s9fe69/2ZqfilM92cCNU6ED2CMiD703O1//7+DetJtvjDHGGGPMuGAzqMex/M71rPjWWoCeQNyXUP0ThbuB4kiOG5eUgSMxpXy6G78lIyJhRSy2Hzc8wnnBVrk191/Md3upgpj8CXKlvD9/57o4G5VOOWgnSCvCuz164axD99MzY0HazTfGGGOMMWZcsCDtJFZ8cz0RUbFnfvNdKO9W1a8CvSM5ZimvDHbH+CilIF2AjHgEtQRxo8vhuTJ8gHdnv80U6aVqgnQRpvR3y4q9mwI5zTeFwLko7zo8e0FrKbSFOMYYY4wxxowGC9BP4ZxvrWfRf68jrg3Xi9ePAB8Dto3kmIV+z2CPR31KncqIJxALz0eZImSIeHXm59yY+RE1I1twkRwRlu7fEs05sk/09AcVnAgvE+HGwGvu4JyFaffCGGOMMcaYqmcB+mlo3dhD2FdAnTvsJPxnVd4P/Bo4qxBbFYZ6PPl+n0qZM5fFiauW6d3qogjNMsDbs9/jRZnfEpzdWyRRQRyzYu9m15zvd3pmaQmaEfnjWPTp9VL5/TTGGGOMMabSWYB+mlbcuYGVt60FyNfGme+i+k7gG8DA2RzPx8pgV0xxKOHAxoFkxVE166+rj0eY6w7xgey3uDjYQEVfahEa8gP+KTvXx5k4OpsjLFL0fYPq2rvaFqXdG2OMMcYYY6qaBehnaNk311B0sRfn1uDlgyifBs4qjXVUVAa6PFExwWn0cg10m+4cYx7hKcFWbs7dVuFJ44SZPQd18YFtwZmsbz/2ACJyJegbUWoOzVqSdoeMMcYYY4ypWhagn4Vltz/MmtZHENjn4G9Bb0Z5kLNY8l4a8uWkcXECDVcQh0rWAvQkCMoV4YO8P3s706SLigzSBRbt3+bnHtmv/uyr7tUJ8qbI65Woc4dmt6XdK2OMMcYYY6qSBehn6dX/CMtvfwSvbiDKZm5T+BNV7gQKZ3IcVcj3eYZ6YzSJifQQkaxY2u0EHE0ad23ml7w+exd1FKi0ID2IIn3K7o3UF4eCM9x//mRzEd6rrrRYtS7tbhljjDHGGFOVLEAfoRW3P4x4jQvnLPmNKu9X9LPAgTM5hnoY6o4pDIz9xLZkRCSosChxHCsnjRvk7Zn/4WWZXxOSxFKJ0yRCY76f83auk8DHI35PCFwm8DYoNnctmJd274wxxhhjjKk6FqCPgnO/8RA1q9fjAt3pY/dxlI8AG87kGHEEg10xpfwYT6NniHFWAT1JHmG26+Sm3B1cHKynYmbRRWjv3BvPO7R7tBqURXiNiLwExB2a3552D40xxhhjjKkqFqCPkhXfXs+Kb64D6HORfE2Vd4H+L2ew5L2UVwa6YuJo7OJnyYhagJ48j7DCbefW3DdZ6nZRCUG6qLJs31aZ1tcpI1ze/vgxoRX4k6gg57m9k9LuojHGGGOMMVXFAvRRdu4dj6BOS02DxZ+CvBvlS0D36f58ccAz2O3RsVjtLiBZCcSNUjRmzohDuTxczXtzd9AqXaT66ydCtlTQ83aujWpL+bNM4H6iQ8tFqLzLT+mf2jlnQXp9NMYYY4wxpspYgD4Glt+xls0LJoNjM/BnwJ8Dm07nZ1Uh3xsz1OcZ9XluB5ITQSpg+nYCUiAg5pXhvbwl+0PqZYj0ZtKFyQM9unzv5iDwfrQbEYjwSuB6IHNwdkdKfTTGGGOMMaa6WIA+Rp772d8iEaDSGfrwX0BvAr0HTp0lzMflpHHFoVGeRheUjFRQlrKJRxGaZJC3Zn/Ay8JfpZc0TqD90O54waFdjNby9idpEeGdqjw9p7bU3RhjjDHGmNNhAfoYWn77Wlbc/ghAMSPRD0Xlnah+Heg/1c9GRaX/iCcqjuI0eiAqWdt/njaPMEOO8P7sHVwaPpLKggbxXlfs3aSTBnrcGAXoAMuA9xSld9YBW+pujDHGGGPMKVmAnoAlt68h1sB7/CNe5UPAJ4Ddp/q50pBnsCvGx6MQUytIgJOMsxroFcAjLA92cEv2myxOIWlcTanABTvWUhMVRnX/+ZM4RK4CeS1C7sjs+Yn20RhjjDHGmGpjAXpCln1rPStvW08khf2upJ9B9Wbgd5xiyXu+3zPUMzpJ4yQrWA30yiHAs8KHeX/udmbKERIL0sUxo+ewX7p/i2MMo/Nh9QhvDVSe57xK76xlyfTRGGOMMcaYKmQBesLOK11NnHH5TJy7HXgX6J3A0Im+Xz0M9ngKA6MQoYfDNdBtkXtFUMovyTXhPbwl+33qJU9SQfr8Q7u0rXPfWO0/fwKB+cB7o9DNy1NMpH/GGGOMMcZUIwvQEyb//WlWfusREPVhxt2vyM2g/xc4cKKf8VG5PnopP8LIOitKYBPolUQR6iTPm7M/5JXhPWSIGOsgPfCRnrdzbdxYGAiSCNCHO/RsVP44o2FD15x5SZzTGGOMMcaYqmMBekoW37GaUsETxLrTi/y1wocUHjrR90cFZeBITFw6yyBdwGUlFCuxVnEUYbp08f7c7TwzfHhsTyZCfWGQc3ZvdJk4SrKbOeB1sYtfrKj73TmLkjy3McYYY4wxVcEC9BStvH0ty+5Yh0C/V76O8ieo/gAoHO/7C4Oewe4Yfzar3V15D7qF55XJ41jidvPB7DdZ7nYwZi+UCLOPHIiW7N/O2J3khGYh+t5Y3LKLNpVYfe7KhE9vjDHGGGNMZbMAvQKs/OZaBCIR7lF4D6r/AnT+wTcq5Ps8+d6YM95H7qwGejW4LHxkOGlcJ2MSPyssOrBNZvQcCsY+P9wfEJALRd07DrUGk+Yc7kv6/MYYY4wxxlQ0C9ArxDm3rWXFt9YS12a2iPN/oeifA4/ypFDcxzDY7SkMnsE0uoI4sRn0CqeAw3N1+Cvelv0eTTLIaL9gmTjSp+5cFzcWBhJJEHe8JgA3iHJtFEh4aK6VXjPGGGOMMeYoC9ArTLYrTxwH3S4Tf0HRdwM/40ml2OKSMtgVExXOYBo9RCSD1UCvcIpQP5w07rrML0Y3aZwIzYO9umLv5iDwPs3f/anAu0MfnOfibIrNMMYYY4wxprJYgF5hlv3PRs65fS0CxUyfvwvl3ShfAnqO/b5ivpzZ3Z9unq9QlECswFoV8AhTpZd3Z+/k8nA1btTq4glzuvb7xfu3qU9n9vyYlshyhPf5oDSrc0Z7qm0xxhhjjDGmUliAXqGW/cdGojqnKn6dgw+r8klg12PfoFDo9wz1xOhpxG8S4iWwGujVwiMsdru5JfctVgTbGZ1ZdGX53k1+6kB3SMoBOhCAvEyUG1DJ7J9vpdeMMcYYY4yxAL2CrbhjHSu/tR6gE+8/q6rvBv01w0veVWGw15Pv86dMGidZwWqgVxdFuCRYx83Z25jtDjGyIF3IlQp6/o511BTzlTJO0wjydp8JLitlS3K43UqvGWOMMcaYic0C9Cqw7La1EMjQiuVrvwP8Cei3gEEAH5X3oxfzJwm5BCQrgTh7vauNw/OS8D7envkeTTLAWQfpIkzrO+JX7HnUiWoljdQsAt5XO1AzN47Opn6gMcYYY4wx44cFbFVi5bfWUXr0ZTAUrPIqH0D5W2APQFRUBo/ExKUTBOkOyNr+82qkCHWS503Z/+XVmZ+So8TZBumtvZ35Wd0HDyB0Uh7gqYSIWAS5AtW3iJP6jR1z0m6PMcYYY4wxqbGs3lXk4488yrsumIwIfeqD+wW/C5H5wIw4UlAhU+OQJw+7ODSYHsau3tmATFUqB+kL3D62+Fls8bPO4hhKKczcfeW6ez8698jeH8bO3QvyAMoGQXchcphy0J7n8aoBAckU5ssoskDQR4+40sa/bJ3Op44cSejaGmOMMcYYUzkqaamrOQOPXHsOHh84p08X5IPAleKoaZgcUtvinpgDLBTNrsz4YFIQVMrmY3N2fh8v4ab8O1kdLzzTjH8lRD7GK1o+uemiZ/t9zffwlM2LXCHSnECtiNYoNABTgJlS/vd00OmozASmqtAKNAjUAbVADeX1GaNyH1H4ucA73JDfMLlza9qX2hhjjDHGmMRZgF7FHrluObUSkiduB96F8qYgI1MaWwNyDY9PlkuNkD0nh2uQUyaTM5XvjtIz+Ujhzezy0zj9VeraCbzhwoN7vvf79zyN7int+NDjVQFBRMvVAEQQ9WgUUzswSUot/dlIfZ0iOYc2IEwFaVWYKqozgJkI00CmApOBZsqBfiOQ48y20RSBfxWnH41i1zt9z6a0L7UxxhhjjDGJsgC9yq165RJyYQjELV7dDQLvydS6ZY3TQsnkygG5NDvNLc8itSIWoFc3QRnUHF8ovZi/KbyKbm3gNEddVoO8kmsmbTvdcylX0DN3JyWNURUClCgMYKBAXbaehuZ10tW/oMYjNXiyQIOiUxGdKipThwP3WSjTQKchMhWlUYV6KQfxWcrL6I/danMY1Q9EBF+XI7l4+tDDaV9yY4wxxhhjEmMB+jigwLrrlgMEijxHRG+taQie09AaZIJQcJNdnFmaFZcV24M+DghKtzbw8cJr+XLxKgpkOHWQrl+H4O1c0zIwknNrUxPdc+bQ39dLPQGqISoCHnQ4D6FTIQpg0tQ6GdhfzMQuzuKjjBI0iUir4idLebn8TFRmAK1AK8IUYLKqblTkVj1Su9YCdGOMMcYYM5GEaTfAjJwA3LaOtdeuiPt7sz9taCzsLgz494VZeXVdi2uWrIgEYoMx44QiTJJ+3pX9Drt9Kz+ILiY++VhbAbifFjc40nNLby+sW3d67Zx5oQpRUYiLw/vlu4AdPgghCMh3dUtDXV1OhayiOSfSoMgUQRvw2qvlt7at+TDGGGOMMROGBW3jzJpXnEMYxvhYp2Tr3OsapobvqV+anZeZn7FXe5wRlPvjxbwv/04ejBdzklh2J6o3Evqfc3Vrqm0+2sKhTD39rdNxw4s69LH/Aerob/A07KrHZtCNMcYYY8xEYiHbOPXINctAXS47u+ZlDeflPtE0l4U2hz7+KMJ3Ss/gw4U3s8NP5wRB+i9QuZFrJ+1Iu73GGDPerZiygqGmISQWYhcTqIII3j/+Ibx3/14KxcJxf34601nMYjawgUMc+oOvB87RNqcdAHFa3mYESCRooNT31vPIkUfSvgzGmAnm1bya1bNWU6opoHGMF0FUERHUK4pDgO27d+D98ZMcL2YxU5nK/dxPkeITviYi1NbUMr21/LwrrpzEyKsQx6Chp6W5hTVr1qR9KUbMQrZxbN31K3jN3htbb75qzZevOn/nS2ozsa0XHmcEJU+WLxZfxCcKf3S8pHGK8o94/SDXT8mn3V5jjBkPnHMsWLCAUqlE4AEUFUAFdYrzoHgCdUTOQSkizEI4nAkmyDm2bz8iKk96DlNokkZmy3TZrfu0Twcef1JTwHldMrtdh6I+vAqlohIoqBMIFFWHd4p4h6CP/azLZJl8YDKr+lb9wUOvMcacicbGRmbOnEk8VEICLdcT0vKzp4pHYgFxODxeHd57wlDIBJ5I4KZXvJxb/vnf/jAvlsJMmUaTNMgWv0MjiZ/05Vhnz5qioYcYhy8qJYVMAAioCqogDkQpnxvIZbPUbatjlV+V9qU7bRagj3Nt53120TOX7P/6R19x/0UdU/vEq73k442g9Gg9nyy8mn8tvoQCWY4J0gdQfTczJ3+FS8ffaz+vbTG1WTc8i5R2a9IngKqCKqpKqRgjokTqUedwzqGqtLS00H3kCKIKzpEvFtm7d29q7X4lr2T7OZspFAupDCJGhQKPbt+eWv/TNrujjQaXIwgFEl5qJUAmyLJ6XWVtZ1kxcyZD2SwAtf0NFOsLKCU8QiYMcYFQGBwiX5N1tZHPidesFzIgWUFqEG1QlSZEM6B1ICFQD9QM97tGlRaO8xwm4BAyqhR58rIowVPO51FE8Yj2gxSAIVHyKvSJ0qcwBL4kTgrifWGob6DoJufIaS1x5MmglNSz88AB2mfMQlD6oxIHUrwPjER7WzsNNbUgWvkTEQqlQsymHZvTbklFu7Q9x+FMO6GTcvCVdoNOU7amhtVVPoPb3tFRTlKmymCxSK4mh8SCEyUMHIIw1D9AmGkMXLaUi5UsqllRyQB1OBpUtRGRENU6gVCVRkQyoqBCA0rj8c4tUq7uM3z/e/LXSkC3IhFoDNon5RK9g+rJq6PX4frB50Upxt4VYqWADkVSH5ItZYjVgw8oxkV2793Nwo4OglLArD2X8DO+nvalf4wliRvH6lsfpS77/Tmb9jfP2rSvJeqY2pdJu01m9ClCi/Tzrux32emn893oGcdWRz+MsIYtD6TdzDERx5HkC34FoktVmPBlBAU8Qr+AR4lAuoE+YAAooRqhWizk8/laH/gh5xAfUZvJsqC9vfwQFIfM3jWLe7gnsXb30CtdPT2LEc4RRRJ8GUXQflHund/W1rt1587kzlxBIilRitzSUqQrFBKv9iGafwRYn+Y1WLhwIQjEhRjEMzRcnUJKShyWnKK1itQBTVEUzdBYWyUMp9VE8VRVWtUxVZAmoBm0HqgT0TogBKmhvBKzhnJ5SSiv1jzpaMhJxkqU8q1fQYYoP6AWEEoCAwiDAgOodOPp9BLsr2lqOkCJAzHxAZD9Cp3AQF1N3VAQqkaR0JDJ0NA+D0qObXu34fFUDw2H8kNPB2ZphcdyAnnU/XrZnDmd63fvTrs5FWt/0I6WSjNK6i8Caiv9dQUQYWuQyayCqvrlKd//AC2WKD9JKKrgfJbAlQJR6oBaYFIUxzNUaQ1rctOgODX2Mg2YLEgLQhNQh1IrSC36+P1PhFogpDzeIozg/leeJ8eDDAIRkBdHUWAAdBCkX6HTOe0U4aBQc4AC+7z4A8BehF4nMtiQayyUSqJxpsTOtnuZTwc1g/XMPjyLu7gr1dfEAvRxbODQIoL52t6fz7au2jFVnr1sjw8DtVJr45DHMdcd5JbcN9mrU/hdvJThz7INxLqT11+YdhPHRDYoOY+7WkRuGp51msiE8kNBedZN8Ko6hFJw4vLq6Ra0D+FQYXBot4oeEI33I3JQ0QMC3Qi9hEOlbUs2sTDfTlgqUQwzROrZuWvXGDZc1IlMV/gzEdoSnCwRhV5EPoqP/2P6tNb4wMFDIz9qFZkzfRY5n52O8FGQF0uy1RNEYRfwLhIO0J+WeTpHph/k0OEupra2oMUIXyyhmbpApNgs3k9WkTbN0FaSYjswT6GdclnIJkHKQTgSIjiSHdg49k7XeOLvkqPfHAMxwpBD+hXt88hekWBb66TmLXEk2wXdosouEbp15bahJXXzKRZiij4m55Qtu3ZVdHSU8T6nQfge4MoKn2wVYADRDwZx9A0qu62pyoiXIvpiEfk4UFfhryuU1298tX9g4CEqPEBvmz6dTC5HXMgTZuvwxRJxvkimJptVpUmFqeKkQ11xbo7MPFQ7EOYqOlWQRhHqKQfsgZQHH5N8+jp6rgBoPsV3aXmolRLCINAP0o34fZkg2DJ9+pStiG7Fu60ge4Gew7N3FftauuiIOhgaGqIxm2XzGD7/nIgF6OPY/Ms+H2gkC1Ulu273ZH+or1ZnTxrAlrmPT4pwfrCFD+S+xQfzb2W7n+HBr8K7nrTbNlbKU+ZaCzIJ27LzB+SYIeijfx3+l4pIEegH+kC6gB3qWQeZjbm8bFbVnV7cIReEhUwcs6C9g1hg+1gtBXfuQby/G3g35Q/eZK4R0qzwJpz7TXND86aJFqCjOOBFwFVAS8JnL6H8GCeJLfFpa2/HAYdkLwjkcjUCTAJmu2xmqVJaLshKROYLTEdoAepIfPH/qAqG/2SB5uGJq6XD4btH6Ac5BOxQdINsbFtTpLQGcducaGcUZuP5HR2I92zdubMiIw8pD/Y0cLIH9srRDLygIDXfB7rTbkylKkRRk8ALgZlpt+UM1Hkfj/woY2TJ/KVEpQIEiqhDAhcqTEZoC2pzK73qCnEsEaQDmAbSDOQYfnSQ6nvMEh6//9WATBZoA84d7kpMeXLiEKpbENY3dk1eg/BwDDsDcT3eBX5hWwdBBMv3XsSd3JZIwy1AH8dyUV8OgsUCsutIo3t0X0s8a9JA2s0yY0p5fvgA787eyScKr+nq9M2raKgppd2qMe90+U/VfXKkSCh/6OaAKUAHcL7Ay0AGgB6Q7XEQPqBxdJ8iqxzsaRqI+hfM7WDbrv14Ri/n4E+4i4V9s/u1PvM1hWcLnJ/wxbgYePVgYfCvYeJk0Jo3ex7idJ4qbxBhctLnV1gF/t8uzjcMbB3jc7VceSVTNm0i9J4hIZONg1aF5Y3N7kJFnybCcmCaQBMJDhBVAEe5z03AAoHnAoMgBxFdHwbB74mjezz6cKjx4SULF8aFUomtOyqyKEilz7Ae6+ne6fJZs2b+eu/efWm3peLMn7MAIV4JPC3ttpyhinwPLlq8GF8qMVA8TI021XiJZ4Ce5zK5i4DzBVkCTEOknon1LBVQfgaagrBU4EUIfQr7nPJwTS77G1G9B2TztE7tvn/+vbqI+WzaOtafWBagj2/eTcXRIaL0DmVk1Y6pXLp4v88E3lXkHcSMmCLkKPGazE/p0YYDXyy+eOPe0vS0m2Wqh6O8ZLYRYQ5wmSBvENihcP9AXXAXnnuDbLinfVaHOlX29/Qw0N094hP7Ba1wsOcRYv0awmLKCbWSUoPy6myQ/d/5bQt/t3Xn+E/e1DFvLloiK8KrRFJ5CO5D+XJJde3/1o/NwPHf8xX+cfbHIBSyG9eRl3BSBOeEnueq6GUIK4ApApaf5YnqKA/adQBXInLQIQ953E8KxeLPELd+UUfHoPfKUFTEAsyz0qHIs1H5LeVZPPMEmlX0eYJU0+x5xelobyMjASWNJVCdkQ0anqrqnyvingEsorx6yLa+Pk6AJoEmhCUgL0XYrcqqvdPlx9ko90sf+i3zOtoiUSHX0MD6tWvHpCEWoI9jItImMB0g9o6HdkzlcF+Nzpo0gNoy93FMOKKNNMvAxuXh1j17X7Yg7QaZ6tYMnCtwLsgrcNw/d8bUH4jXu3Bsaps0pbh+FAL0rb9dzfz580tIfAe4FwAvIMmRfJGFKDcKpY1L29t7NlTmDOGoiRvzZHrqngq8ajiJT5I8cLei30Ek7toyNtf60+0foT6fDYqBn50nfBaqL0PkIhFmY0H56QooLzGeifBswW0DfhZ77lDV+6fUNffWtWfZPM5/X8ZARuD5tUHuK8D+tBtTacTFs1B5DmK/p2dj/sKFZIB8qZiNvO9wRf8ClBeLyFMQpmFB+enKAQsQFlDebrGOWH/o1H3fi3+4r/NIftLUKXQd7hz1E1uAPk49+8q/5HAPcxnejyUoOw43ukf3NcezJg1MpOV7E4agKMJ98TI+U3hl6Z7o3N9R0zD6dw0zkU0Cni/Cs0BuVK/fKGj0rY557TuIHdt3bhvRwbdu3cqscxbvru0pfgnhfIYHGBMSinC1wo+eMqv1u+M5QG9rb8f10CAqb0BYmkITdqF8PuppPLCr55FRPfAzMs9g/+y9RKJkomBulItf7ESuB546vJ/SnL0aYBmwVISXCvL9geLQ1x3cP6+9oxAGLpGln+PIuQT+4ukdl3/nwPafpd2WinHR0sUcGSpeAJybdluqzcK2NhDBe+dKcWFxoPJKEXklsJxyFnVz9hqAp4E8FeEGh/t2tib3n4P9+XXz2zt8mAl4dPOWUTuZjaCMU109NVlgMeUsi4hAXz7rVu1opRi5SszxYkZAUAa0lttKz+L9+bfz/dLFvd2+flU3LbabwYyFHHCeiPy5iPxLEMsrnMZN89raRnxgF3l16u8G/R+SX/o5U+CNv993eNrc9vaET52cEl4cXI7wcpIfqC+h3Bb46JcuUxrV+9Pi5UvZtGQDzvuWTMx1uPjziHwKuJzqSB5WLQSYi8gfi8iXFG4NvM6rb8nJ0mlpjPdUrUnAVfXRlsYRH2kcOdTTX4PyPEg+L0Y1mz9/HnkN8TBTouJbUfmKiHwUuAAsOB9FIbAU+IAoX5pU3/RWUd86cLibp7e0jNpJLEAfp2KC2uElGY8tD/IqrNk5VTr7a1SSrDRsxpTDc0hb+Gzxaj6U/2NWx4vw4rbh/KO82LYymDFVj/BChM+Jcx8Epi9sa2fJ7NlnfcDd6zdDUNMl8GUg6ek4AXkOqi8DHZcrjRYsbKeWcCbKm4AZKTThIZSvlbLZgR2HN47aQRe1t6OL59DU27xUkf+DyD+BvJCTlSEzIxUASxD5sDr5x97DQ1eoEC4YhYG6CcKBXErgFizsmJV2WyrCwo52gjCzENFnMbGSlY3I8O9ckJP4UkH+HuFTIjwdC8zHUpbyjPrfIPKpmuaGc5d2d7OwvWNUDm4B+jglIs2Ua7Y+doMTYFdno9u4b5LNoI8DR1/YNfECPpJ/E58pXst+nQx4RfVhovBg2m00E8Z04L0O99deWJYrFUf2YBUNEqCrgG8AQwn3pQW4MYMsWjRv/OVviAsZB/oyEXlOCqfvVvRLgYvX1wyN3su6oG0uIhr61ZuvUNF/RORtlOuVm2TkgKsQ/qFUM3SjijR0jOMVKKNsocAzC4XQnscB9eoQeTblMl/mNMyfMx8V6oj9qxH5HHAtNjCZpCaQ1yryT/e0tV8laGbe/HkjPqjdEMavacAThmRFlJ7BjFu1fSrFyHkbmqxeDqVIyI+ii7gp/06+UXou/VrLcIWPIYQHySQe2JiJrQHhdQJ/O1BTu3z2vLN/QN+0ezdxSfOK/heQWI3sowS5SJAbgMyMtjlJn37MLJw9m0CiRcAbSL7muQI/A+50JR+t3zc6mb8Xt7ejSCb27hUo/0/geZRnNkyyRGCJIH+FyttQ6hfOtSD9NNSAviDMMGnR0iVptyVV89tAYaqKPo9kq3hUrQXzOgAaUPd2Qf4GOAeL7dIQClyGyGdi5GpVMvPnzR/RAe1FHIemz/sEqr6dcubVJ/DqWLNjqjvcV2vL3KuUQzmiDXy++GJuyb+V++LleIRjym92ovIwgq2UMEkLysuK5aO1Jdc2b27H2R+oJiAW2aSqXwZ6Eu5HDrg+9vEF+170VwmfeuxEztUBrxE4L/mz605FP08ue+Dw7CmjcsTn8kJijULEXYPwV8Dy5PtlnmS6CB90yFtFff2SRQvTbk8VkPMd7qlaN7FXI+cLcxBkuSAXpt2WarB40WI0lnqcf5sIH+JJk3ImFUsE/jKI9ZWCDyfNOPs8txagj0OCigqLOM7eE0HZ2dkoj+5vseCtygjl4HyTn83HC6/jE4XXsMXPQnnSQIvqVmArr2hJu8lmYgoQuVqdvheY1DF37lkdZOPW7QjEinwfuBtIekRxCfD6+f/7501ts6v/uWfu9NkE4i5EuJ7yAESSSqrcJvBLolgP//6hUTnos7gQyFwi6Eco1/Q1lWGaCB/wgbta0WDeTAvST2E6cIUc6U663GFFEYlCyitgqv+GO8YWlD9XQ0SvFeFmbEtPJVmM8BH1enHX4MBZH8QC9HFoytRMRpDFHOf1FYHeoaxbvX2qFmPL5l4tBKVEwD3xObw//3a+XLyKbq3nODGLIjxE6A6k3WYzodUgvEEc1/nAnXWW8O3bt+NcfAj0i8DOhPsQCLzceb18qJj0BP7oWrR0CdmaXAsibwISj5ZUeRDk3wtBMLh1lMpwzZ83j39v+/p8RW8BsZnzyjML5JaoEF2oAxnbUXdyAcLlsdeOjhFsDapmHUsXkcvUzEHkeZSTD5qTUClKXCg8TeBmjrNa1qRuBciHOlomL1gy++wmKSxAH4diCSYpnDBDgVdh9Y6pQWdfjRf72Kx4DmVAa/hG6bnclH8HP4kuoEjICSYUB0Hu5+XNxbTbbSa8yQJvCb0smzfn7LO6q4p6536J6p0kX3ZtFsgbGmtapy/s6Ej41KPHiRPwzwdeRPIPv73AV8JCbu1LRyk4X7RsKSg5FV4nIldgzzKVaqWIvCuYNDR1fnmvrDmxZSJc4okn5FOZSEZEuJhy+SpzEgsXzEe0bioi78S29VQqJ/C8QNzrQGvmtJ95ZQv7UBuHnLjZcpIRNQF2dzbKxr2TVBJfNWrOhEPZrVP5dPF6/jz/BtbGHZQD8xO+bvuAR9icdsuNAeApwGslyNSd7QG27tgJMADy76BrE++BcLkILxWpzlmdtjmziQbycyknhpua8Ok9cLdz/DdC/LlROujM974QVC8UeC1WRqiSBcBLQF+MiD1vnlyDIldKyTWl3ZBU9A82qHAF0Jx2Uypexok6fTHpDLia01cLvDYKgot2b3/5Gf+w3TDHIUFnASfMwiOi9A5lZNX2qRSiwLK5V6CjAyer4oV8KP8WPlt4JQe1hdPYhrsBYReL7FU1FSErwvWgFy1acPbJUrZt20YxKj2s8FWgL+E+NCO8wSuLFrVV1/LTZRc/FZRQ8dcAydcVVnaq8vnN27YfeHT/6NQ8nzt9Nrs/+Z2m4eB85LVszFibBPIGjX37/NnjpyLCWBC4JHBu5XkLxl95x5NZvGAhTnSRwKVYXHJSi2a1w1A8W9DXApPSbo85pQ6F13e0f2dSR/uZLXW3X4RxZvHT/z5QkUWcokRFrE4e2jVVDvfVeMvmXlkcSp4s3y1dwk35d/DfpcsYIstpBOcRqmvAdafdB2OOMVeUl0WF2hHOdGpJ4HbQX6XQhwtU9QatsvJdA9sOEgbhMkReAzQkfPqSwu3Ou3vmB6OXlNkXI1B/EfBCbPaoWlwg8FJymbPORzFBzBTh8p4oyqTdkCS5rAzXPrcBt1OJMkGg6FVYpvtqEYjIVYHIJfnc4Bn9oAXo40wIOUEXAyfNBioo2w81uU37Wyw6ryAO5aC28LniS7kl/zZ+Gy8jfmIJtZPpQ1nFK5pLaffDmGMECFc455csazv77YW79u5l0dLFu4CvAIcS7kONIK9W4fx57dUxu7V47lyCmmydIK8TODeFJqxB5aulbH5gq79/1A4a1udyIFcD1bWcYWJrEOQVRDp75rRpabelkmWB5zuYubitOu4zI9U6czqlgXgKcAWneG6d6NpmdeC8TgNegW0FqCazQF7RMNBSv+xZl532D1mAPt7EvhGVeZxiKaMI9OUzbtX2Vi3GgQXpFUCA9X4uf5a/kU8VXsVubeXMKkvpbhwbueNI2l0x5klkCeJeUCgWRjSD1t3bi8Z6l6L/Q/IJ4xai3BgStyxYWvllo2riEg5/KcJ1QNIzct2KftnFwYbcYOOoHXRuexuBk0UiPIekl+ubkTofeEb/0JC9bie3UlWeFvhgQlynfh1E8eejnJd2WypdY5AD0YuAp6XdFnNGBOW5PojP7Xtk/Wn/kAXo44xzTEE4rY1eR7O5H+nPxZbNPT0OJSbg7ug8bs6/na+Xnk/P8UuonZzKOtBdXDvlzH7OmLGXA14YZEdWq/W+3/yWmtqgC/gysCXhPgSIXO3hOSMbZhh7C9ra6M/kpoC+keRnmhW4G5X/roF4tPaeAyAEIJcDE2N6cXxpFtGXtDa3jN6Izfg0SYQXFDOl+pEfqvK1BlNywPMQbGnFKeS1VKtwFTA57baYMyTMFeGKsKX5tAfLK/wxw5yJRU/9DF70pBncj1XO5t4gG/ZO0hnNg6pYmJ40QenWem4rPZvPFl/BFj9rOCw/40UNJdBVBL4/7T4ZcwJLY/HLO2bP37d9z9mX2xocjPHIA2Go/yXIB0l2WeQMlDeEvaXfzG1vP7Brx44ET336RNWpyAsRuZLkZ5p3o3yhrrdl/7bmrlE9cEZlKqLPBamWpbAR5ZUeEeWM9hHgFYYE4mNu8x5hSFF/zM+GolLDsa+fkKO8DNpR3n/vKK+OyFAVKwrkYpwsX9I2976NO3el3ZhKJcBl6lm0Ysb0VWv3H0i7PWNm9uwZhIG2SXn/eRLxiFIVvyd/aHZHG3i/QIRLqqgP0TF/FChRvg8OAf6x+58Qgeb12AdfJSdIdvjrR/9ZS/m+d+yfcPhPpV+TjKKXSxR9DTitBwcL0McRjQPQeClyesmAjmZzf3B7q16yaL9mQy9qi90TIQznAfDT+VzxpfxH6Xl0agvle9dZUI6ArOL+1qSX/U4kR4BHgEqpMS+Uk0HWUH5Arwcah/9/OPzfKmmV1BRReTrKLyh/YJ+V7Xt2srhjUT6m9B8ozwVOf1PXyAnCcx3y0hj9Cskvsz+leW0dePx8gTdzkmoeY6SI8i2Ee0o1QzowigMYLdObQGWxCOdTWQ9jnvI9oZ9yboQjQCfKYdCDKtKD0iVCQdEeVEpAnxctHe2FgBcvQ4I89n4SkVDF1/rhvrrhB1RVqQXNIdKEUgNMRXQyMFWQyZQzO8+g/NrnqKzgfbYgz0D4HWf9YZcqP/xnrJ+d54vqc1DWUJ3X6bSoeiGh2ucKXcBDUt5qUXWl7NR5Ue8ulMpLpBdTvv/1AIeH/xxR9Ojfu1DpQbQo0D38vf2e4fRKgEAsKkOix7zXRWsQzR79Dw6cqjQAGYR6KT/vNKBMUXSyIFMQplBeXTCT8h79HBUU5wpyLsJ5l2Qv2fGb4m9O+f0V03AzcmFNMUCC+ZzBfsNYnTy0c4oc7qvR2ZMG0Ir5HB+/BCXG8ft4GZ8pXMNd0QXkyTKiz2FhByqbufhg2t0bv1QfUXiXKodVNeVfFEEAJ1KjolmQEKEG1TpEpgDTgDkCbcAcYO7wf2sivaA9o8LTgoyfAoxoWqg330dzff2WqBR9BZGVQEuC/WhEeUNG5Fcd7R3rt+/YnuCpT00CyYqX60AuTvrcCqsU/dq2HX82WB4fGD2Tw0lO4OnArKT79SQR5YfRXcAmlC0quklhq/PusErcp9CPunzgJCo54q7iYDx1z0FlzlzE/WHi+TOd1ssEARtnt7Ns/V5XrMkHEkro1YeqUitQr04ni8osFeaBLhRYDrIAmEry2fyPVYNwWQn5N6AzxXacFYWtoPcL8lJOUSlnhLKKXpGvrf1GlssOFLk37a6PTSczdQ3A80kmYF4FfANYltD5RlVtKazH8QzS/f0FKFAe7NgBbFB0C8hWUd0O0uWJex30qwZFROOiEO8vdscr+732TZ503HW6x73/neSGGCrsn1bPtMM+8HEp0DAKiDUjKnUIjSpMRpkrMB9hMapLEWmnfP9Lc/XVJFQu7Zx26Afs5pTJnC1AH0+caxZlIWfwWS+ibD/U6Dbtb45nTxqwkjVjzOEZ1Bq+H13Mp4vX83A8b3hQZERLFxTVh/FuPy89+1rT5uQUChq4/c5zWCpgIEvFA4rzgg4vfXEiiCo5YgZ8xgU+yPiwNFlhJsKS4aDtmZQfUkZY9uzMCaxUWNg6c/qBQ/vOPkbfv38/TfPnx3j5Ho4XIlxLgrOEIlwIXC/wyTltc4u7K2S57rw5i8CXzgV5DVCX8On7Ub6S96W1bdM+yc5RHiuMna8LxF0sSFolqI4Aa0DvVZXVDtZL6HZpSQeLRD5LiDqPE4fXxzcqOYVJQQ1uwQIymQwbNmwYcUNmzpxJx+7tlGrEI3ighAiI9iEgKtvU8UDXkDKtMRtGpUKrqnQA54hwGfAMyoN3KVxLOVfUz587ra1z18GdyZ9+ZPpRvotwDrBiLE8kIuercsHzLr/3Bz/8WdrdHn3t09twsETK78WxvnerwG9VOYKk8Z4fmQUoyPwZoE8lnQF2DxxU5ffAr0V4UNEtiOwBLcQaa+ACFE9IgPflySaRcpA5K9NIb2uIc44tW0aeOqa9vZ0pnYOouhjRWBREGFLne0Vlv1MQiX8bF0WkJsxqzAzxdCB6IcKlw89BM1K4lk6Ei1WiacCeU32zBejjiFOZBsw+k58RoD+fdQ9umxZfuni/Bi7tmcHxS1D26RS+WrySL5euYrc/mqV9xPsKCgj3o/mhtPs4AbgtO7al3QYApjOd5qnNDNQMkM2Ut2qV4hgnjogQnPqgFBZ8WNoH7Nsyq+PBBXt2fgehTVWvFOEG4CKSfUifAbp4sDg04lrmj27dyqXu8oP752z7EuWZ1bkJ9iMHvErQHxVF7kvwvCc0f/YMAik1xvB6Elgy+iSqqj9W9LtOJd55cPOoHvz8yy6hd9feDkWWJdwvgP0oP1L4nuJ/m4X9cVBTIi4gInjxZCUkRskUsvT6Xg4cHNt9w/v27Tvuf1/KUvxUpVQ3iPMBk3JCriYXxcXCPoV9TaW++/pyDd9UZTEqV0o5w/8Kkn0WnIW4C0vh4P2MwodfsjTEyXZVHiivShjTwHIa8Lx1W9ruhp2FtHs+2rIN9YGPhp5FMvftLoX7EM2AVNK2r9PS1LySXvxSkPkJn1pRtiJ8X+EHqv5BlwuP6FAxljBARcALIRlcFCNRjoOFQ3R3dY9po3acYOvUeZxH78xe4hqPizNIRpXAFYjjHbEEOzL54r1xTv5NRJ6iwksErqacRDXJuGeRh6Vz29v3nCqHjQXo48QlL/o4PZ06C5EZZ/qzXoU15WXu8YyWodD2oY8uQVGEh/08/l/hlXwnuowBzTGKzyYHER4uz9WYieIABzhw+PQDgSVxRBRkB9XHG5paWjf293berfAB4AaSm02vA1nS2jgpHOjsPet96Ed1TT5IEAf3xkH0bUTeRbKfaYtA3lSr/tHl05YdWXfw9MunjAWJVeKAZ1N+6Eh6NdQOhc9vq+3cx8aB0e+bKiDnyBkOQI9QCbjXq35O1f84CMKegACvHh8NsnVXZayaONYGNpR3fZ7AorlzFehxyO/DQm5VKVf8X8W/RURuoLx3PQm1ChfUS0MtHBxM+5qdCYEa9VJC9JfAtYztKpVAlOc4aF+wcOGjWzaP7qBXmtrntROXhqaLcCXlwc6xtlHhEafybKT64h6VjAO5gHKOmaT0Az9Q+FdEfuOUIXUBxIqrq2Xzpk1pX5Y/sJrVcPyxS1bOnEY+UxOLyOFY4rvDIPMbH8c/RHmriLyY5Ja+T0E4T9Cfc4ocNlX3RjXHd/DQHKlxXfM5i1/gcjb3Rrdxb0s8s8WyuY8mQSmS4e7ofP5v4Vp+Gy8jImB0Jw50EyrbuMGqlJgT27invKJq8fwlhDmnvia/lnzNn0k5OL+W5IK6pYKrA3pHeqB1h9fSOv3cgcag+2uiPBORpybUByhfr5cGuP+t622+kxRnA9va25HYTUP8m0CSDGKhHMje7vH3NMdN9DD6AfrAnn05kJWM7b7fYxVV9dvA/ykEujET4dUrB/u66Rnj2aGxtGl4UKG9rY2sBpGGxQeIwq2o7kHkJhIq3yTKcg21ldPMZlw5JCtoxsPvBXYy1itVhCWCPFPCcBNVt9rgxPqaBmjprj8f5CkJnC5W9D7E7QPNUjkJE09bX0tvM8o5JBez9aP8c6z6mRV10/avL3YSa8y2Cq1acjoe2Vfec1U/ezIzgxYQGQwHCj+OG2o2qGqnIK8lmW1hGdCnhqr1nOIZqOqWepjjq832ZhBZzFm8wUSU3nxGHtzeSqEU2Br3UeJQurWBLxRfxAfyb+NX8UoiHKP8OetBHkL1SNr9NdXh0a0buf/+35M5MgXn2aWqfw8kNhwusFDQURtNWpw7gA+ChxW+BmMQHZ68LzMQeUP3tAMz5s9McoX941rdVSgE3ulLQZ5Hwp/riq5S9V+tCcLBns37Rn7A44iUJmAlSZViUv0h6P/nHOszXvyOXbvYunN7VQfnx9qxcyfrDq4jGGjC4bpi1X9Q+ArlBFBjr5y8bt6UjqrLmZJV0VwmCrYADyRwvnqQF/p8fvLK9qTH3cbO5MMtueF7VWsCp+tG+WUgpQLlZKJVlWvpBgAfzVRYmNApC8BX1MmnA+f2rxncx9ZtW6s6OD/WwJ4jbN65lc1btlBqrAWvO4G/VPSHJDMIJogsFYJTrna2AH2c0EgaFF3AWb6msXfy8K6pcri/RkXGzUBtagRls5/Nxwuv4y8Lr2Gbn8kY/e4PojxIITvu9qiZsbXx0FqiALx3q1H9AcmVDGvFs2C0DvarnQdwIiWEbwO/JuGZJoFnqfiryQapJB9qXbGKjJdFItxI8tmJe0T5CoQb+opjV31Qy/txkyovdAD4l+kNdZvj+MT7HceDTQfWk9cSQI8qX1VIap9GM8ryZl91AXqNKHW+LhpE+CUw5kv0BS4Q5ZyW5afMKVUVZrTPRYOoTeDZJBIs62ZgTS5SR3kZc1XFPZ8CwM2TcumwJKxF9V90qHQoXyqye9futC/BmNm2bRsEwpbt23eBfBlIqgzSbIW2+e3tJ/2mqnqjmhMTiVuknOzgLH9e2XaoKdi8v2Xc1txMwtESavdE53Bz/m18qXgVPdrAGMUMAyg/xutvcd5GVcwZ2759O5ncYB74ISMsfXYGGgRmT174nFE74NatW3E+vxvVL5Dch+xRzYrciGfxwvmjNu5wWua0zaXY35gV4Y+ACxPutyrc5YX/FleM9+4ZmwBi0somhssFJjGFqIr+0gu/29XTz7Zd4zc4P2r3rt1s37UTcW6DKN8jmYG6GmCp0pXE/uPRJIiEEoui/A7YnsA55wCXd65eWHXZx49HHYLwTGBJEqdDuV98uK+IOFWqbon7y2fOdKBLKdf1Hmsx8AMN3KN1z1jMnr3jY1DoZLZs286y5csRlftQ7iGZAf5mRBchJ1+wbAH6OHDJ07+Mqs4AOesRtnI294w8sK2VUuwsSD8LgjKgNfxX6XJuzr+dn0QXUBz1/eYA5IHfofwpyvspsIVXJ3HvNuNRcagBdW6dwrqETpkBnTVlaOuoLldWj6L+J5SDjETvYQLnIXp9MSrWXPTmlyV23t2+Fx9HF1DOyJ90fdedKF/sj0oHDmx/4ZidZHrPdEFZTDIJkvqBn0k20717z/idOTouIQL9JckMcInAAkfQkna3z1AING/auh1V3Y7qqgTOmQGuKGbjpGZQx1SjDyZRrn2exH7fXkR+1Z/L50VcgNBAlS1x78vU5hQWkUwyvf2K/gIkWnvnT9PuemI2rF9PqNoN+lOS2SaXFZWlLgqyJ/smC9DHAQkmMbz/fERRmvfCQzunyKHeWu9smfsZcXj2+qn8XfF6PpJ/M4/4eWMRIcTAetBPAK8nqv8nhB0EyQYjZnzZsXcLQSY8CKwimcA2BJkdB25UA8otew5QzGS6EL4MJF0LLycirwoluHDfl+5K5ITts9uY7yZNEvRNJLc/8aiiwm0uCH9ZEwTazxfH7EQlVwyBxSSz/3wfygN09U64e+rWbVsRWIcy8kLtp6O8Dz2JPcij22o09+x//nuaBvt6QX4DJFHedAWqF8+dk8Sk89hZvmQZ6llGubxnEjPZW1C9PxOHaPm1q6rgHMCLb0ISK6+2EWTD1m1b0+524oaKzoP8HtibwOkcwkKcazj5N5mql4+3OkXnM8IZFBHY1dnoHt3fojqOMoaOJQEUYVW8iA8V3sxnC1dzSJsZ5cunwC7Qz4G+GZW/paQbceKJBP5oStqXwVS53Lx8BLqWBPZUAqKi0xAd9RmBmmIREXkQ1W+QzIPzsRaIcmOmffqkGTPGvqJCseQF4bkILyb5z/JVonwt11Ma2rVzbMuNKdI4/IA69g/0qltV2E7HuJisPHOBdAIPkcxA3WSE2fMXnvXOvDQEIA17/+FfXKDiFX7HCQs7jaom4AUZhpLOMTGqBgsDoQrPJpna56rw+0j9nt3bd+CFAKWFKlvi7mDy8BafseZR1oGfkAmHJzXGeGE7sCWhU872xCd9ULAAfRwoiWsQZSEjXLojovQOZeXBba0UI8vmfioOpUCG70aX8L78O7mj9CwGqWGUg/NO0G+A/jGeW1F+A+S5fjJcn4VXJVW61oxng6vrcV42AX1JnE+Q6Q5pGPmRnmjT7t2IC/Mg/wHcn0RfjhEgvESU50Qaj+ntc8m8edTWBLME3kRyyYOO6lX0K9lSYd2Bi8Z+a416mZ5QH1VhQyZfc2Tr/WsSOF3lqamtzavwCOVtVGOtUWGe16parOCARlTdA52duNg9quWVR2NNEC7FybJzpq9I+xqcleVTz8ERTBuufZ4d8QFPrR/0vgNBfhDAq4iIVFXOg+WL20GZQzLlD/OKPkJjIoP0FWfN5h0U4lL38Fa/JG5KMwRaL2s88c4tC9DHgcjrZBUZlWHoWEUe2jlFDvdaNveTcSgHtZl/KryMD+X/mN/FS4bD8lG7Zn2gPwD9E7y8jy75EcggAlw7GZwNn5jRs/XgBlTlAMklWGvGy5jMBvkoD3Fm83DZtRHXWj9D00V4Y2OuYdaiuXPG7CT5qBQKXAM8K+H+eeAu591/A/HhHz005icU56cqJLFMKBKR9R0HOpKqZlBxCkN5BN0CdCdwulpgri9W1bJjQQl80QuABr5PlF+QzGqdeQLPKgQD1XS9HjP98CLw+jTK5RLHnKI7UX0gHp5qEpUMyefpGJE5s5qgvNogif36PQ7ZNDDqw+bVw3sfibIOGLuSJI9rROioK5VO+A0WoFe55VfeRFAeiRmVDLeCsv1Qk9t8oGXCPqScjFC+Rhv9HD5WeD1/U3wVO/2oLmctgP4G9EOovJVS9r8I9DBTFa6bDNfYcnYzNjxxP7A/odPVq9MxSfq1ZecuEB+r+u8Cd5FswjgBniPwclTDF4/BCRa3tRFIuAyR1wFJP07tUvhitnD4wPp9Y7+yt7a+FkFmSTLl4/oVtuYT3xlROTZt2wawCzicwOlEkLmZTKY27X6fAYdooy+VA3RR8ZQTto7tPo+yHCJXqnNTlp9zTtrX4YztmPtgvaDPAxJZ9ifIg865HaUd5TFnRXNAfdrX4Uw89Mh+UXQu5cGssdaFyq4D9+1Mu9spErScv6YngZNlVbV9+6TmEw64WYBe5QbXvQZF2hmlEgwi0F/IuAe2tYplc38iQSkRcHf0VN6Xfyf/Xnw+fVrHKM2aR8AjqP4lnjcSRZ8H9pApwqEcXG2BuRlbTmRAVZMK0HOKjtlDx5bdW4h8dAj4oqJJPDwfqxF4beyCRWsXLh7VA6sqXqgdLqt2bsL9Kil8U4V7D8yYmsgJZ86aHWi5fGgSS1MPiHLwl/wykb5VKlHtSijgBJipkSQxOzhaBMioKwfom3dtQ0Q3q5DUnoinxIG/aM6FF6R9Hc5Ie+scEJ2PyKUkE3cMAb8K6+of27LlRFxC5x41jblsHeX7XxLt3h+Ldqbd5zTt37sXwR9UOJTA6QKQmcVsnQXo41V2zj1Oyxl8R21k0Kvw0M7Jcqi3Ri2be5lD6dF6/r34fG7Ov52fR+dRImSUgvMdwD8Db8TJpxDdiHMR1w7PmL9tAq85MokJnBYkmZkzgFrRsV2258SpxvJL4E7KA2CJEZHzEXdNGMUZFo/eUncRQXEXA9eTzD7OY60W9N8kivs7H0omSb56HwIzKJeaGmsHBZmQCZKOVYJBRBOpMafoTCVOonzeaBFUmlzkHnuoDuvqugT9HVBI4PxTBJ6/9ee/qKZBDXysAnIJ5WoMSdirqvdrFD3+gOaoI5lSjaPGu0w9IjOSOZvuUnwSuScqmqp2SnKlJmcFqif8XbYAvcoFXuuBJYziA4wAOzub3KP7W7yF5+XgfKdO45PFP+IvCq/nUT+HcmA+4qtzAPh6OQGcfISG0v2IFFEH11Vb9RlT7bJxFCPSCZRGfLBTq1ehaSx3BO7YtZtsJjcI/Luqrk2gT8eqEeV67+NzFg+Nzsfs4vkdLGzvmKRwI9CRcH+6Uf1q4IKNmkmi2tmwgmZRnUkizyp6CLQ/uc5Vpv6B/gKwmwS2hgjSIkJVfdgp1Kk8IYeuF+XXJDPr5oBnqdcF8zqSSOw9OjINmSaEF5DUEnNltSpbNz668dj/FpJMqcbRI1onkMxyJZVdxaFSEoNMFU3F9SuaRGUGVHSqCi0n+roF6FXOIU0iOqp1SsrZ3DNuOJu7n6jpyARFEX4TL+MDQ2/lXwsv4fDolFDrBb6H8k7Q94DchdDP/a3wiknlvebGJCwOUNAekkmQEgINLhjbfEcbtm3Al/RhQf4NSDb4EpYJekNJqJ01e+STIEEoonC5wFUk+9mtqnqXV77tcfG2bcmVmBfnmxCZnsCpvMKBGJ/Ee7+iXXDRM7yWB4+TuBa1KEm8vqNIs4T+sQmRDevXg/cbgNUJNWAJqs+kSp7f586fj5S341yY0CkLiP46lPiJ+4iVDMlslRlNLSSTILME7Jt0aMqEzz0V4EqU739JDFBOQk+ci6cqfsHNSTidBjIqCeKO5dXx0M6pcrhvYmZzF5RBarizdCnvz7+D70dPp0CGEQbnQ6C/Am5F9R30feTbKF2gcO0k+Ij9Opr05OfNUkXyJJNUTYDmaVOmJVHbuoTwbYVfJdCvY4WIvFRELtjfO7Kt/ctXrqBYkFbgNcDYF1l/or0q8uXuaPBANk52jEOhUZJJKhWLSqdqmOhWiEr085/+AJTDkEi5pRySSAmp0VQvqk9Y+1OMwx5V7iGZZe51iDw/iIOxr3E4CmqjUhb0uVLeqpKEvYjcz5M/x9RnSH5b0AhJK8msOhgE7aytqbLLMwZ8KYwoV7RJ4rOgWURO+HtsEUEVu+zpH0dhAWNQI1FQdhxudJv2NU+4RHHlEmqT+PvCK7k1/1ZWx4vwCCMIzmPgYdCP4+UNHGj4V0R20/gxuHaKZWY3FUGiPFLOXprILKIgLiNjH59v37eLjiULd6J8CTSpMnJHLRb4o/bJ7fVz2s9+oZMEThR/BfAcyoMbSSkp3O693lPrsrpuZ1I5BMucSCOceAngaPYT2BcWa5PY3lHRikUPIkdIKEAXZPrUy2al3e3TJwSIPGHpTyk8HDv0N8CehFpxoTr/lEWzFqZ9NU5qfns7sbhZiFxOQsGxwkNeZf2mnU9KoyAuJJlcFqOplWRKww0idN+ffzDt/qZua2dTLOXnhCQC9Fpg6osuPv4iIgvQq9hgmBXKAfqoJ74Qgb581j24fRrFaGJkcz/61PuQn8//l38Dnylew16dwggmFD2wHeWzqL4R0b8D2UwYKaUYrk16IsyYk5AARYskV5ZMiJOJNQd6B1W8/gTlfygPmCUlAK4SeOpnD684qwMsmN3BUHffbNDXMQaDsSejsFq8fHXS/N0De/ckFXscc36liWQSO5UUPSyjlPWz6ql2kkyAHqC01u/KVs3UnSANGj+xAkVtsQ2cbALWJ9SM6apcUQyjil6yLeVfqAuBpOrCFQX9FY4/yEauQh3Jl6U8a8vb5oAwiWSW5feLMqEzuB/VPqkPKQ9QJjFRkVN0xqZ94XEfhCxAr2Jx7GoEmccYJb7wKqzZOcVNhGXubriE2o+jC3jf0Dv5Rul5DGgtI3heO4jyFdA3ofoRhAdQKXLdJHhrHbyqqvLimAlg6z1roDyTmFSA3hgVokQ+g+6779d4qe8C+SqwJaH+DZO5gtxwy5T1DTNnzTzzn/biBF4g5SzISepH+WoMD+9ftSThU8MtXAXlGaQkgrc8QvemA0nnEqxYvcBAAucRFSaFsSQxSzhaMsgTn7m2HlhLSfWQwm9JZuYtIyLPDZE58+Z3pH09Tsh7akBeQHIDiwdB7uU4n2GKVluZNVFlGskE6IMqkkTt74q348CjqKeHZHLWhECzEhz3fVlNb1bzJLG6ZtAxW+MkwO4jjbJpf8u4nkF3KJ3ayBeLL+KW/Nu4L15GfPZL2nuA76C8A/EfoLflZ8AQsdpSdlP5VHpJZuRYUBqafHNin0FOe8lofL+q/ieQZDmZALhKxT+9Nzqzz/ynNJ2PhjoLuAFoSrDNXtG7Ff/f6ny8v3ddgqcuu3PGOqEcoCexLHVIkglIq4QUKX+Wjf2ZVFtwvmpm0IFQ0D/IbqkQC3oPyZWqXA56cRxWZh7fRTOX4ITFAs9I8LSrYu83HS+RpSBZkt0eNCJ5JCeikxNqcz+a6GdiRVPRQZJ5RggFaRHEAvTxxqubCoxZrQ0RpXcw49bsnCqlKNCqubOdbv8oRwmb/Sz+qvAaPlZ4PZv97LOdM88Dv0D1FuBtuKFvA91MOQjXTYHrk6mUYcwIxSS3zFcymk3strJl92766+ryCt9ANenNdvOA103PTmlaOPP0SwEHxUAQrgQuIdmHy90on59U3Ll3x44dCV+qsjgbOdBJJFEaScmjiSzprgoCRVVNakatUasreVetI/iDGf+dO3ZA7NcDDyXUjmaEq7JDYcMLX3192tfkONSh8kySKwmZB+6pddJ1gq9PpprKrImr0cRKrCWXe6YaDA/WJrPFByb7E8TiFqBXLaVcXk3GNMNtrI6Hdk6Rzv6cH0/L3AUlRvhVvJKb82/ny8UX0qt1nEVsUqJcXuUvUH0zeb4McgBfBzoZXnbmS1qNSVHC43DJ3lOmHunCx6UtCl8BukZ8wNMnglxBwDNcVHta17ht5hy6px1qV/RVJLt3soRyR4z/ZSGb3lYc50IZzuA+trX4ANABEfpS62ylcRpLMg+oINKCVNUS9xMulS5pfAT0XpILdp6uzi/75X/envY1+QNxpjAV4QrKibASoHtRvW/95JYT5BjRqop3HGREE8m/AegAwoRPkPkYYVBVk1pR0AJy3G0MVfWGNY8L2QblWZkxfXATlO2HmmTz/matnsVBJ+dQ+rWW/yw9l/fn38GPowspkOUMgwUFtqD8Pegb8NHfIbKFkJhrJpXLpl1rv17GVJLVhw6CuBjhf1DuItkRghkCN/ia7pb2maez8EkDEXm5SOJ7zx9S5Ku5IOxfu/NQwqd+XBxpgEgLCQwaKRTiZLc9VDgpIckscQdqn1y2rMLVI1p3vC909ZVKCr8GPZBQW9pAnztn7uKKmhlu75gP5cRwF5HYoK884pH1t69a8wdfmbJoHlJl8Y6qZChXsUiA9ItagH6MgcS2PCn16PG3+FTVG9Y8bunF360FljLGJRhEoGcw51btmEopclU/hS4ou3Uqf1e8jo/k38TD8TzKz+hn1LW9KF8E3gj8BbAGJcLH8CrbZ25MJduxezctM6YfEOFLwO4RH/D0OeBKLzwz7j95IvklbW1kMmE7cB3Jzp73onxVNFjXX0x3xWMQuBzJZHBHhEGnmmyR9wrmY4kSXPKfkyrKrg1k9ARLpac0ZUHdWpSksg1mFa6I3NAMeHra1+XxRonPiPA8kqt9XlK4NyLuvPY4X2wqFAWYQhUtcddycrgkat0rQq84tQB9mMZSBCkkci5oAjnuKhML0KuUOt+o5QzuYy5WYfWOVjkyUL3L3GU4AF8VL+RP82/mH4pXc0hbOMPAvBu4E9W3o8EHQO4BBrlmClw/Da6zzOymusnR1AwJSetuMtjTS1AK7gXugERnDmaBvCZsCSfPm32C2/c/vQcgBLkaeGqCbVNVvVvh2y5bjNIoq/bE1vha0KQCt371mkT27arQFEdHZ9CT+BXNKVKfdp/PiB5/ufT23Xtw2cxBhF+STDZ3BHmKqFz4tmvuS/uqADB/4QJir7NBnkMi21MAOIDKr4TjP6Bm41go5zmonnWg5VUaSWwPUEUHIhfY/W+YBBojHEnkXEINyHEToVqAXq2UKQJzkziVADsPN7pH97VU0d3t2PYrebJ8t3QJ78+/gztLz2RQc5zBs8cQ6M9RbgZ5F9dM/h+gF/VwbaJliY0Zaw0kkzUboNgnPanE6Bs2bKArbBlU1a+jiSV1AkCE5ziRy/0JHhaX/+l3iJDFCNeR2P5NAPaAfJHazL6hvdOTvCTHpVALSS3xpEeFeOSHGR9CvKKJ7aPOaUIrJUZJwMlmNkU9yi+AfQm1Z7LC8+/6bVvdyA81cpIJBZVLgGUJnnaVE9m0c+fO437Ri0B648FnRcr3vkSSJ4rSR0IDStVAw0AhsRUFdSJqS9zHi9b2vwakjXIJmjEnovQM5WTV9lYtRq6qsrk7PJ3axL8WX8Ithbfx28dKqJ2WEugDwEeBNzGdL4Pfx38dguua4Vpbzm7Gj3NvfDEq1JDMrIciHClkC6kFRSsHNxAUs2sU/gMYSvDU0xBuDIWZ89vbn/CFZ77g+UT1uSwi1wBPSbBNJdDbFP8LIq+7h36f4KmPzyEZdGy3cD1OSursceioB/buQZE+IIllnlkk0YGokXJ6giWpAJs3bUJUH0VZlVR7RHiWC2TBktmz0742+KF8I3AlySzPBhhSuMdr6YRJP6MwgORm80eJNpJMDfRYhfy2rVvT7nDFEHFekSESGdTR2hNVsbBPpCp0aOcAWk4Q15LUOWMvw9nca6pimfvREmob/Vz+onAjf114Fbt9K6f5+xYDW0A/DfImPP8Aso1OAWrg1dPS7p4xo85lQ6Q8Y5vUg0ycy2ZTu5n89PAACJGq3onyKxKcYRG4jMBf7nnieOem364hzhSWAdeT6Oy5rlHVf9OmpoGtW7Ykd9qT8JBDEgnQFbSvLirZDPoTaB4SWVUQMsa5dEaf0tZ24vmR2Gm3it5DcgN/CxR5psslV7byuI3oaENUFokkWhZyD+iv0RPPADsfCuXVYVUT8yjUk8wMelGQ3rT7W0mCIedFGSCRZwJp5AT3v6p5s5rHLb5wSkZgAQl+qAnKtqPZ3CucoJQIuDs6n5vy7+SrxRfQow2c5u/aHuALwI2IfgyNH0Iocc1kuHoSXFNdW+WMOV1D+3sAmkhuiTua8qrDTfs2kQuiHcAXgaQyL0O5fNjrAmTOsvnzAVgwv526poZaRG4AliTYlj7gq6H6tcH27Qme9uQUyaKJDVLEQWTx+ROJJ5lBK0GRWZr+torT5EBq9CQB6OGiRKLyS5JLQlmr8MKi91PnzlmQ2oXRckzxLKB9pMc6A6tU5JGtu3ad+DvEQ5XtQReVGpJLaufT7m9FiRN9m5ww748F6FUodL4eZXGS5zyazX31jlZfiis3m7tD6dM6/q34fD6Qfzs/j54yvKT9lE3uAu5A9R0gtzIQ/woo4LK2z9xMCPmt+x3lvaBJBOgKSY1Qn6ohTr3wY4UfkOiDijwDlRf1FYYCgN7uAqLxU4FXktwgiQJ3q+q3BYm29FdOInNBaxCS2FerQH4wCOwh9Ql0gGQSKOZAG2sWVM0keihCSyC5Ez7Fz8gqqHsU1VUkdI8TOB+V84fSLL6grlWU55Hc5FFBlV8ODuVPZwY49c+a0/WCtitQ0VqSCdBLkFjFhqqQJx9pOUlmEp8JgZ6gioUF6NVIZQowP+nTehUe3N4adA3kYqmwcUihHJzv9K18svhq/qJwIxt92+nckQeBnwA3gb4D0XICuGlZeOVUeGVS26iMSVeYLzhUp5HMsjpV1aTqLJ/Uxu27qHPZLkG/AiS5Ea8R0etzQW5O+9w26hsydTiuBxYm2IbdCl+sCXL7Np5sBiodOZLKhwBdOzo7LUB/oohkHlBD+f/bu+84u67q4Pu/tc8t02fUrK4ZjaqtaktytwEngMHYxsQEQgmBJBSHTpInCU+ekArkhZAAocamOHTbWLLBvTcVq426NJqqNqM2fW45Z6/3jzsuMurSPefemf39fAZkzejufc7MnLvXLmshSTlUaKOKE1Mw8ZMsxu5qbceUlXeDPEx429wnKLyxqiyUc8u/Y8b4qQgsRlgaYrPNCM/EYrGiCb5Ph2+yDOXfCCNAD1RDyTVRNOI1SSu52CCMnytPEBegDyPTQENf1hWg/XCF7Nxfo4IWzANRUAKEVcFc/jr9Yb6TvpEjWsUpxhZpYA2qn8fqn+Ml7kQ4iDXw2xq43gXmzshis0FShYmE877Qr0hve+u+qC8bgN4ghYhZC/ycUBPGyVKF631rjRFzGcjNhJcDIIvyK4VnBoOCHJ9VE+JOAj+dLpj3tBFHkHhZJHFlHmUV1dWEN+kXE+VabDBlzsVh5pccUhpPAr8HjA2pRQVWY2jeuzeskwTh2JHdDSJh7WZDiir1c/6Z09t1ez4dtzEXoBeZmZd9HURrEakKu20RpWcwIetbxpHxvYL4lTYog5rknuw1fGrwNlZkryRFgpP8cllUd6L6FZQPEPANPNOC9S3vGAPvHA23F8KVOU7IlHJBJoTUWkok1MzpJ9XW1oYlNgj8BNV1ITZdJcK7kp63QJB3EVLpTACUTaB3lJtET/MJyhNFSkIbn6iGs5W72IQ5Qi3vNd3D6o13147tGBvbrbkElOHszhAuAq6KT5gV6rVOHD8RtUEt8DrCm2DsVXi8X/3eU33hUL4AjyI5g54+KLk6J+H0N0BswbwXF4J4IgGElg3b6Amy9bsAvcgkbTYBzCbc+rgv862RjW1j5HBfUqPO5m5QDugovp65hc+nP8RGO3NoRHHCfu1B9bugfwL8K8o2DAEDaXhHTaTX4jhREyOjgCkhNZcStKAGBUbT+MIukB8CYW6/v1Tg68AthPee3I3oD0XMju4gFeKlnj5RSYR0PyzQFfX1FqAuwimzhioVfsYWWRms07iuksygCI+Sy3EThnLQNw5uXhvqAk7CHxRymdvDTG7ZCLrK6KkHoqqI5hJzFgVTnTYSTgULgAzCKSc5RpKy8goF+gjriI8c/2czrAyBzvkiUiHITCKq6SgoTZ3VZndHdTCxZiCyPgBstnX8Z/oP+LV/NQOa5CSB+RFUHwPuQM1zQC9ic6vljuMwddo0RKUeIbQVdNT0R33dr9bY2kZdXV2A4T6UN5NL1hZGgFiOyLUhXqqq6qOi5m7rid/eWnir51cD+9FRIKGMUcStoP8uJYOEUmYt11xRHTBQ8fU0xu6BUZRVCJvJrS7nmwCXq7ELp06Z8mz7nnC2fkt5VaXAGwmv9rkFnlZjmvc3t57OXRFCrE5yrkrKSmMK1RLOCrqqy+J+DFWLoP0a3ir6cWMpt4JefGqQELdBvoYI9AwmzLqWcRpFNndByRDnIX8pnx38GL/Mvv5kwXkf8BDwSeDjvHn0g0Av4sOtY6K6hY5TcIxBEF1ALot7GLqRwlu1bGlpQa3fqfADwiuRFLZ9Arfv94/ur+k6EnVfjusiEBA3PolQ+PFy0UTonqiUi8ZO+fPZ2NJKIps+oOijQCj51UVkKsgb4jETSkA6tbYWI2YOyBVhtDfkEPDo2PETCjJ5xrkLfSd+UWz9D8valaui7gLgAvSicsHEZ1GYDEyMsh9WhQ2tY0PP5m5Qjmol38+8lc+lPsYzwQKyGI7zxp4GXYXyt6j+OfGen6B0srwD3jkKbh0X5e1znIJS/4dXYyw1iiwjnAzuAAdVtTC31YlRD30K1XvIZbIeTjIov7QqT1ebcl3X1RV1f47Lhp/Q2w1QndMlQFLEO62fmbbRY7LAIwphbVVJCryJwIy/cP68MNrzUH0D4R2PAliryrrB/oLahHXeJAIfwovPVJDQdso4p88F6EWkc/9VSG71PKwsmcclQNuhStmxL5xs7i+VUNttJ/Kv6ffwb+n30GQncpzAPEDZjuqXET6EF/8O0E6mChIevC+s3buOUzzkkSYEmStwcUhNKnBQPAry8HNTbst3vyJ3Alui7s95tlHhRyVTD/Xv37s36r6c0JN1U0EoJZyjXBlFhulKXPEomvXzM3TR/n0obANdGWKz8zAs3bY5v4+v+tJLiSMTROQ6wpvcTaH6qGfp3LypIaQmw6XxeEKgJpS2lLRaKYiSp86xXIBeRC5a9AMPkdlAWZT9EFG6BxOyvmUsGd/kNZt7roSa4dlgPn+V+gj/k7mBo1rJcd7O20C/BXwAw78RyFbU+tw6Bm4dDTfXRHnLHKcgXZ64AqqSCRG5AZgWUrNW0Q7VwgzQAXa1tuaynCt3AsNlmaYX5QeJbHpzz9owS62fuSOpjICWEcIYRWEQdLh8j4tVrKQkOSx3Maw5coSjZfSAPER4ySerBd5SX1tfce4vdWJlgzMBlgCLQ7ougCZVedyPlQzbVd9AMaoaUpI4tao63HaKDQsuQC8isURvArSeAtiOF1gjDe1j5XBfic1XNneD0q+l/Dz7ej6T+hgP+cvI4HFscK6HgZ+BfhTVv8N4q4E0CQvvcLXMHedkGi/aAspC4CbCS6LjC+xJpgZCOZN5DrIgd6vybNQdOQ8U5TGL3otIsDe9Ier+nKq3YTamYbfoHEtgdDKRLJokXmcqlhVQXgA2h9SkAS5XG8yYMb0ub42k6leXkKt9Hta5QVXV59VIY+nggZCajIK+/D/OyDC27ndTi7ks7kUkkGAUypzow/PcKnpTZ7W3u7Pan1gzcP5fH6Vdx3FH5nruyFxPp44ml2hyqDSk0gXyNCr/S7by4b+fflv3QFDGlRXP4MlQQsqNSxEEo7nRqYpgXj7bqKgoqrnXM6pYUdQIJYFH2f4yrr3+8ahvs+PkxcwZM8EPkEMy1hr7USCUw4pDBlDZZ41X0AOQpvYWZsy8sJXM4P+gXIxwQdR9OmtKu8L3m6vK9rN5W9S9KUB53QjmnFrMS5lh+z041NhCRV1du1EeFbiUcCZDZ4iRq0TYRB6ydNfV16N+UCvC6wlpsU/hKMiDOkb7tq7rCqNJx8k3D9Wy48V1LkAvJsZMUdVxhfAuJkDvYJx1zeO4fGaHGjk/AxwhN224MZjBVzO38oB/Gf1aQu79xZCQNOPj+45MS7SuuKrimeXXlD+1V0RnK4K+/BMur37BrBXSuTobmg0IsgCqJiV+LCtis3hkUbEqQZAtjdnUQErTk7Msb1iKWEHFYlXwYykG9k5i3Pa5vPVTX4/6W+A4Z2VmfT3Znh68kpJxYuTjiNxKiLupcoMsbd6xb3/Ut+KURH1Vy2N4/Bb4Y4pz11kW0V8J3tPjU2k6ou5NYSroySJnWMgAj6B8AKEuhPbKBa5TKz8jD3XYrTHi4V8FzAjhWgAQ2IzIagmrqrzj5J+oUDoUwBzzPuQC9CIxZ94XAa09UUH7KATWyIbWsXK4tyS4oHowdq7p4gxKigQP+kv5WvpW1gRzXg66DcqURDNXVz7FNRVPVk2K77vZSHCDIkb1lVXx1xCQAcmVWwNk0OClhj7TSywYJHe+9KgaugxeT6Jfjwrxw6DdQO/Q5/uAo4L0p/tKbPaNT+vyhmVgBbAYMVgsgkVjATfP2xj1t8ZxXjZz+vTcqW946aPUKyu7WODDwC1AVbg90jYroWU0PieNu3cxv37W0UE/czsiVwBzou7TWWgQkR9JKujraD2NmsGO45x3LS0tzKqb0WA1eAFCCdABLlXVi2bX1T23s6XlvL5wPJutQbgOJKycSBlUH/bU27+7dXdITTpOGI5f8d4F6EUiVlUWU7UzBUqj7stLRKDtUKXZeaA6GF89oMrZ18YxKAe1mp9mr+PbmZtotReQW/W2jIsd5LKK53lD5WPUJptJSCamyCh9aTHr5K2OPs0u+OTOxmaBDEgGZQDRfkF6jJFDni3ZO37m/r3ix/YA+9Wzh4GugKBLLBnBpjVV4S9vWIoBRJVYeRk1JXEun+K2yzv5VVlVxaSKCrKxGGJM7mitQk9zM1W1dSVW7VhB5mkQvEWQNwMzieA9QFR2CdoX9f06Xf2ZLAmra/2Y/ALh/wDJqPt0BroVfmgkti0oL6JF4vwXB3EKjBbj3pQzvcaM7SOmD4K8hXCydI8HvSZr7UrgvCVVmzJ+MiizEVlKeDmR2gV5ciQkNBMRERkJvxEOuaW+PuR33/RcgF4k1AZlCLNBwiplcUq5bO5JWd86zlw2s0PiRs94n+BLT/btdipfz9zC3dlr6NFKwFLldbOkfDW/V/UIc0q2USqDHLuV/byKDX28kjlTXunhy5vnhYBcMD8oKoeBg4J0Ah2KNBFLNwEtQAfQCWT2d/QEKxqWAZo7Ph+Al1FuWLb2HKY0nAgoFjtzWljJzk/UCcGKYGzuWKEYQ0lJks07dgnlFR650lSlwAXABZW1dbMV5hsxixXmS65MY1Q/eT6i2wfTg0VT1qp5TwuTp88ZTPqDPxXkjUMr6cVAUR4H7iLm+027WqLuz2lLJpNCrmyTG6SOBEJGk3b4z8oYVIw8r8oW4KoQWkyAvF7U3LlgZt3eTY0t5+dVFQNyBVAbwjXkWoSVVs2Wpj1NITUZHaMaU6Qy6n44obBA+njBkwvQi4WlUjyZRgFkcH+1wIpsah/jHe4rYWL1AHoGR9EFJUuMp/0F/GfmVp72F5IlRpnpZV7pZq6repiFpRuo8npyQUlhjNU8EI/cKloNL52/ygXzacmV7DmkyCFFmjIDg00mzg5V3QOyV9FDWPr8CpNd3rCM5RshbhN0rZnNez78g6ivzTkZkSrBLrbGHCXi30OxJNWYBGhcoWIgla6snzZtrA9jRHQCyiRFxokwFhhFrjSjVwAPj4OobKHIzvxe0HuYg15JYyLp/UBgLhTOUaOT2KOitwfxWAe7JpCbNywONWolI7EaXIA+UhwdGBjMRt2JfGvc08ycyZPbfC/+BMJlhDAGF1igIvM3NbbsPV+vWRL3qhWu49ULGvnVAzzglcdGRr1ua42KiYXyfi24haICcKhlz+/8nQvQi4QRJihMibofryUoTR3V7O6sYmL16WdzNyg9Wsrd2Wv5WuZWdtmpxCXNhSWbua7yEZaVr2RM7DBAvlbM8yGZ+5AaYCbC5SBWIINwFNgHtOKxSbK6FWGnqrSD9tTc+Ez23o3LyOWxVcRadly0nr9MFFUcM6wJLAC+g57/jLhn0ZkkuRXGOFAOGAQDGBAz1N/Co+wSke0HDnRG3ZMzsv7QIaZNnBIIch/wJuAPKNBbPCSr6C9j1j5prdUmnou6P2fEsxY1BTGh5ITkJAw/AABHSElEQVRAlSCTzY6IN7ujFRWZilTqYUH+hHDGdBNEeN30qdMeb25vO+dJkDnTpuFjLgRdHOIjcLtVfU78EbDLImQCvRgd9pNjxcgF6EVgUu2XUcNkYELUfXktEegZjLO+ZRyXzejEO42a6AalxY7ne5kbuDP7Ro5oBXWJ3Vxd+SRXVTzDpMReDLaYAvOTX25ulnkiMFGQJQg3AX0oHQK7fZPdRGfNZiNsF9ij0JVJlqcu2nQF923K0G0D3rdofdTX4UA5SGgZa09PUf2OWBXWWbS4ovMhbfv3MHvh/I6gq+8OhCuBSVH36SQ2YuVOoL+lqTnqvpwxNwofeYrqSXYOag92crCsssHz5HngD0No0ihcLcaM+/lzT+x791VvOKcXS6GxGFyFSFhlJ31UHxHsvsbGxpCaHEFUBlRl2J/rL0YuQC8OoshMya2UFRw/MDS0jeVwXwkTqgawJ9jmLigBhjXBHP4jfSsPBcuoiR3m5oqHeF3lk9QlmolJFosZLsH5icSAGoQaclmhrwcZAA4otIFsimdSa7Nx3WCgPW2D7hUNy1R1aCtS4NPsGz61bG3U1+E4Z6JXYGXTEn+QIk0mbgfTKoH3tMaCu4GPEk494zPVA9zhi93S1NYedV8cx3mVNUeOUl9a0gOJB0GuJ4QqGkPHci5591Vv2Heur+XBGISrCC9Z5l5EnrDqZUJqb6RR7GmsrDmhc+e7isD4CaWeKDPJJX8qOEagpbOKxo7qE658yFAJtV9nr+Yzqdt4RudyVeWTfPKCr/Ke0XcyI7kLI0GhnDMPmwEqyGXVvg74JMI3BfmZqnxnnEl+RuF1KjoBSNqScmYlhRVrL+cHf/MPUffdcU5XM8r62vXFOy/cuGsXV+5N9Ktyp8KWqPtzHAo8jpF7hOJdFbGqJyg84zjFzxhPVXke1bCeIaNV9fXT6+rPqQrQjNppIGY2sCikfgOsUaTBo2gfZ4XPxecFqXhHSiNI1vrV6snsQh2tiChdAwnWN4/j0voOXpvN3aDst6O5I/sWfh5cw6iSvXy06icsKltPhenLZ2b2YiXkZtXnAfMQbhE4CLIL1XUmk1qZha2Cto7/+E/7lr9nGQJ4CDcsXB113x3neALgYRP3Wlt3F3cN2+WzBxmdkQ1i9X9zlTUIqw7w6WhX5fv9Rw93dHT1RN2Xs5dMQqCDiCguUHeGmcb2PcyeMqUp8LzHgEvJ/+KLJyJXitpJ9dNrdzc1n/UWJiNwBeHlQxpAefjgwNHDvYe6QmoyehZRCemkjwoVagpyJ9iI5wL0IqBGJqNMLORhSmANDW1jeHU2d0FRhE3BdL6bfSsbvfG8qfoeLi1fyejYEQQdqSvmZyoBTBaYjMjrgKMC7Rq3q7OHa540qqsFs++w1zuwvGEpgSe8Y96aqPvsOK/WDjwglBVNebUT6d7Zwpjp07OK3iUqb0b4fQojiMwq+ktEnq4acwHFHKAfDawtF+kmV4KmIHeOOedVwAhLPaCQVZWHRfggMDmEJmeDLlThrGdIA0u1Z+QawosddqnoM6Umob0hNVgIAvA9pT+U7OqqFai4AP01QnwYBSjH/fF2AXqBu+z6r9B7lMkijIm6LycjQPPQNveJ1QMISlrjPBUs5C6Wkqjay4crfsGE+IGXA3e3an5WBBgNjBZYhPBuFdmt6MoaLX9cYT1o24qNSzO5+hmKifXztou2Rd1vZ+RS4CkVXR/4wyPJT1NzM/UTZrZpwr9dYCEwPuo+gTYI/Cjbl+prOnwg6s6ck0w6TXlJiWWEBW2FRERihDTxJMKRRCweRH3NYdq1Zw8zpkzfhNHnEd4ZQpOjgGtNwG+BM54onTFjBmT9eaq6UMKpyxUAT1iVls7OoswretaMMRZr06HN+6p7zL7arAvnEPSnS0RC+QYE4AL0otSzHyMl1AOVUfflZESU7oEkG1vHcsXMA/RKGU9wIRtLR9ml5Q/aaYlWjUs2UEQVyQBZIKPHGYCJagqOOXAkIEkV4gx9vUAcNP5S6+RWmT14qdQUhsJY1cq3SmBx7kPeCbrTC1iF8BRq14rS4afGZFZsuIQrZq1jXEGmGXSGM1UOgN5T1X20e0PXYNTdOX88VdHgYTAPIvJ+os3p0qUqP/Bi8W3JMUko8gDdFeYtCFWElQhMCcpS53Q8uiilY+mehCYeFXgz+U8WZ0AuR2XSuIkTmg/uP7NnRNYGXkxYJoSWvb1DVR/L9JSlQmqvgLiAOWIiolUvlayNigvQC9R9664kXprij68flRg7oWcm4WXMPGuBCutbxrGze9yhllETGprLgrZF5U8NVJueHsX0qkqPCoMCPao6gDCguS2Mrx6NWUR6FX15hldURIRKoOSl0+0CJSgluVV49USkSqEStEaQUaAVKJUg1Qjl8PJHFVAzdD+F4RXEjxHkCuAy0A8gsknhKeOlHlZl0/0b3tS9vOEouYe/x80LV0XdX2f4CxB+baw+ni4pJZdgfHho2rubybNmHU2mM/8jcBW5JI9RUOBxQe8xcT/YsaP4yqoVgOH0PnCeaDzMAaqYkfctiGfFSkyfAtlO7ix6vs1RsZcGqi2cYRToBdQgciW5srF5p8paUdaYkbWxwikcYQbn9nh/6QL0ArO643oOHjqCr2kSno1/4JNPznn8N/MvSQ0kCv4cnhFl5/6a4JuPLf7VpFtjX7pk1K+7S30/yATJbCaW8UtjyUD903xPeOm9+rS+PPfFZf1Kf4nGxJBQ1ZgIMSCuljiGcoFKVWrIBbITEZ1IbmvqRFUZA1oFUilCBbkAvljP5RiQUcC1wOUI7xG8lWMqjj6A1Res6B5RP3PfpqWMGlXN1VMei7q/zvC1BfSHflr7Gjs7ou7LeVc2OIBvYmtF9ReIfI6QBq+vsVfR2/1E7EBfSxTN50H4Wy7dklV0MkB/Ip4Ycd+D5plx6ptts4g8CSwh//kWalC5tqqk5L4jMHC6/6i2diqi1Et42dvTAo8ks+mDuw8WaU3OczfyZqwKREhHOF7iI3Qf7xMuQC8Ad939DmL17RijNO5qoXpUVSXWzB/I8sbpszvfWvXM4MWD/cmhhLaFbSAT815YW1Pd+1isa+7dlT1xekEghodNBdx8Sf5qd9+zdRleRn1e3h4/9EsmuYVyVSVmDGIhWS70275Ytr/UM2KTBkZhZAwwGnQKKtNB61VkiuSC+PHkSqHFKa4HZwKYgTADuAmRTaI8isijoA3f+upj3csblmJUqKvuZkHdzqj76wwfhxS+HcCGitEeDMNjhLv27GXGtBmDaoL/FeX15FbSw5QFfqnKk8Za7UgXYuW3M1dSXgqBZgglcC6mx3moYoSzipTJ7aYr/PHNefdUC1Wz52R60ukHRfV9iEzKc4uCcLlYps6YXrdjd3PL6f8ruJjwsrc3gT5pjbHn/lLFx1irioS3dcAdKTpGJpU2Xm6yPYwbY3nVjuFXcwF6xO5au5REaRP+YNzDY1J5VeWlfqBvBb0WlanpVDzZ11dCsUzwC+B5LKke7c/6m3dcv3Zv49+G1vY7Ljpx5vJfN8zDM0kyQQAiBAMG4sYfqhWcJrf3thVg/0APU8qqEr7VEhEqETNOVcejOh2RekHrFZkiucyro4FSimOUVwlcKSJLUd6nygvv+uCyB0GeMcqe7V2jgxUvXsFNS1+Iup9O8etH+Z4G9qcSN9kt21ui7k/eWDJYvF0e/EhgPlAdYvMbQO9sURnQpuGztf3ydFo3xpJ95BLo5HUnk0AJyMg7AH1KUk54u8h0c+fITGTacuQQY8urG1TsSuAW8jyWEKhH5GIvFttxuv8mTrxcsdcSzg4hq+jTamnevm9fCM0VHrU2KyZ2NJTGBM+IJqK+5kLi4XmgNYQzQamcYHbSBegReHD9IjImjkXIZm1cM/GZXowbQK4XuAQYBYJVONxZSToVL7YJrmkIl2ug6yiQmYVbFp7+ytKDmy/Ht34GyPiB9AjBXhFDx8BVTCx7PmY9klguEJgGzAGdn6uHLHXkVtorKezSQAmEepB6gRtB1wbC/QkJfqsa231vw7KsUaU0EeeNF7pg3Tljg6r8BOQbiUSiZ0fz8MjcfiLNbe3U1dUFwApF3yzIOwhnwq4X5Q6Nmc2XYMnf3qTwjd27H6bV5Yp95F8JuUlW51hhJVrNAMMoe+SZ6Tp0mFHlo44K9gGB3yf/yeKqBK7IpFL3AqdMwDa9fjqa1ekYFhPOz8Mh4OFmjvSF0FZBCjzPepAJ42YLkiT/P3NFxRv0JIj7JpSfdtUeTvD8cwF6iO4FWL+Efi9G3PqlxnBhImFuEuWtCPN5zSBBrXC4oxIbFF2t8FJRvWbU+JI79zUXX1ao6+evfPnPOw/PZfeRsfjpNBMrngU1L22hbwaa9xz0n548Lp4ErRZlgqL1gixCmAvMIhfE11C4v2tVwBsQLgP9I0lkfyPIcmNlW9dgOrV886X0lwS8Z+ZwGv47eXQE+BHofza1thwYXT066v6EoqWlhdkT6jv9ZPAD4HJCqGus6NOisgLFX9s6vM5p5vZ2qg9hnesqiHnkwiIkCWei2ceeedmvYUXVivCcqu4SkSV5bs0Ay0S8SUDTqb7Yq6wU7epZQm4sE8K9YDPI6tFSwRFGUvXzV90Cq4qR0Lb3K1p0QUY+ZWIZMWhSwlgaFVLkjqr9jkINGoaVFZuWoNYgItjAr4xpsFBF/kCQNwvMQo6/jSyTjnH4YCVBIBhTZAMIkSVWdca8y762fsuqz0Tdm7M2e8z2k37+rrVLFTQFmgqMdGDjG41NryAeLzNWJ1jsTJRlIlysyIUCEynM2coyQZYiLAZutUYfTop3r8KG6m56VjQswxDnbQufj7qfTuFqUtVvqMiPSox39KIxi9jaszHqPoXGeqoCaxTdLUi+A/QAZZ2odO5uHj5b219iQRE5yrHlNvNFVHEFKF9lTn0d2SC0MmtpDCN2tRSguW03M6dOa8KYp8md9c53wDRHRC6aU1fXtKOl5aRfaHt6ylGuHUqem29ZRR9OZYJ9Rw7sD6G5wtTT1RuMHlXdNbSDKN9BosHFgseK4YmlghB2jKhKP+DOoEfh3oYlBNk4nvjVanSZeOZWkN8TqOMk919E6esp4ejhsqI43HwckwxyhSAbGMbLE7cueRGAZ5ffSGrifgZK0mBMoNAL9NYMVu3qiHU9nIx5o0CngsxHdCnKxSCzEGqIJvPzicSAeYjMBW7G6pN+3Nylwko/OHj03s1L6auI8b66lefajjN8dAGPonoH6JOCDPb5WdqPjJzgHKBxbzP1U6cHiPVDeGgrYLMme84vVIgEUFVfwsmMKiIFOWkaGQER1bDO1mXlDDKKD1ejv/XP6UMf/4cHBN5NbiI/n6pRrkyrfYgTrN4B1NfWor5ONkYWEUqwQjvwhBhGZHK4l5SXV1gRwnq4J0WlJuprLiSiVlCJhxR8ZcWa4yYEdAF6Hjyw+XIyQTAUldpRJuZfhcofCryB3NbHU37bRaC3p4Te7tLiSD/2u8oQrgms/Tm5ba/D2tU333fcv/9G+yQmHZ4YCByyYg4le1LrByoSvzQwTqAe9GLJ1RZdRG4LWaGchfSAeoHpwFtFedRIzU8t+kL1Eb9r+YZL0ZjH2+e7M+ojWA+wDrhTbXBfOpE8mMxmaGptibpfEZKX/ycMwzXz9R1APdLPS7vd80so1nfZPAlU40OlOsO4L2lFR3yA3vX5r4DIelRXAzfnuTlPhCs9NRPqpk1qb2k7YTI2EeESYEYIt8AiPCuYHXv3Da8jO2cqma2CZH+K3A6ifCdqNFrYOZNCZwKJqehoCeHxJ9BnsMfNBeHOHZxnKzZdRn82hRFTYYTfE+SrgnwP4f0IUzjNNzxrhSMHKzWdilPEC9CLjVB/zRv/J+p+ROYTU/fxB4vXctOiNST8DOmqJJLbzrLHlKWe7r6v/r+s8jFV3q/K/0H5JbAb6I+670MEmAC8F+F7xspXNSavw9hyk+lh+YZLo+6fEy4f2Av6K0U/reiHEsnED0EOlmayNLW1Rd0/Z5gQoZeQtrijVNdNnOgGqUMCJaZoWUjNpVAZ8QH6zoZNaKBHUB4mnPf/WaAXWnPi4//WkkS4mlzi23zrBh72s1J0eYvOOxWGdmGGsYruiWgh7eIsAJogrJ2tQr9PkDnep9wK+nnw0HPXMFg1mEtnI5QlvfglVu17RLhx6CzimUzDKOjBIDBbmnZcMC6b8eYXWQb3V6tD5FLPk7UU8SzD+fLWSzYc898//+6HqLp+CwJHxMgRL7AvWiM/tqr1Q6XQriE3ez0dCGuwdCJCrgbqB4HrROW3Giv7OZY1KzYsS2FgsLqXd9VuP8dmnAKUAfYquhNktShPYGV9Vaqtq7d8KoHv09TuAnPn/FI0JblV9HwTRKrKEglDOCv2hU9JkEtuGoZeGOFJ4l4iWKv6hBHZQa6iTz6NU7jKCyqegMO/EwjOmnchfu/AJEGWEsJinqJbgecknMoNBa3pyGbqK+oGCGebexyVMPILFA0xUqYa2gRlt4q4M+j58Iut8xnQfsQ3SZSLVO27EW4RoZ4z2zbSm0suxJNG7OOb1tc2b1hV9wVVmR/1NZ6DEoVrD/f23QkjNB3nSbz7I3e8/OflGy4hEE8lN4u8/u671qz/g3cu+5Uq0wUuVbhO4DJyZ9OirFkpQB3CRwSuU6PLgV+pBFsqOken7tp2CbdeuC7S++qcEx9IoXQDBxC2ga4BWSfQ5BkOZjNB1ohHb9kUAlV2N50yEbDjnDFRUoj2h7DLWlAqBoy4HYVDRDEa0gqSQh+imXN/peLX3NbCzCnTW6zqUyIsIr9bj+MiskxERgGdr/3kgs1b2Vg3fREwM4RL9wV5Qm2wt2XvyN7e/jLRAZAwfi/iKlp10bQpbG3bE/VVFwSLlopIGM8/VbTXeOLOoJ9PKzYuA6CP/pjxzWyEP0TknQKzOf37mgVayWX+fUSFZ20m1tprSzLf/+p1U8sqMhOLePU8R1kSBHbWhZf/x7ptKz8bdW8K1s2Ljw1qH9l1JYOpbJcnrI8HyfUDXv/PPPUWAK/XXJLBhcCYCLvsAXMFZqHcLHh3Z0syP7Nit63YuMQalLctcoF6gVJyK4W95M6RdwNHNbd1vRnYISItijZL1j/SNzgwWFpZox6KVRg3awarn3wy6mtwhj1NoaY/jFPQKlqjVt0W91ckRKQ6jIYE+lAZntkOz0Ljrc2D9b+uexB4FzApz80tRO2c6ROndzbvP7YaxKb6+gRwDeHspNir8NC8yoqsm+7NUaRbwtlZ4olSSa7U2ohOzvcy1QpEwlhBD1COBmKOe99dgH6GFOX+9ctI/91vSHzxhknl2fJbBd4LLOD0EnxZ4CDQgPIowtOC7pz0//3gyN6//iAYZWzpEcorMhMRpkZ9vedKhImoXh54wQbcL/9pe+OsXDmze9YvxZo0otIDPGetWS0m+InCJYJcD1wFMp3okst5QzXf/1KsXFeSif8QYcXP/O8duHfDR3j74tVR38rzKUMumLWRbMITLJBSVI/9a0AljZDWVx0lEcgqDEpud043SJ+gAwqHRelApFOhS+AwaDfQr7FYP+lMRryhWEWE0vIK4mKxpaU0bt8OpyjL4zjnhZi0wkA4c9RSLSIuQH9FkpC2uCvaJajb4j5kzs/m4pelN2B1A/kP0C8ArjSJxHO8ZnwWWDsRWCLkfWeJqrJaVbeu7XbHz1+m9CKhBOiCSE1WY3HcURMABFNGODuIfKBXfOsC9HPx7IY5HKaS5d5SPF+qEl9863UgHxLhOjitGqpZoAnlURUewOgawRyygW89Mez/9Me4eUGuZNeiZd8Ck5o5lEW12JUjvM4E8RGRzf18e8fFLx7z3/duXJY1eC1xibVkTOoB9c0chGtQ3ijCpcD4iLqaFOEKYD7K9e/y/vx2q+apFQ1L+0SF+nWTmffBeyO+m+dsk6p+WYUuwkjv+RqSm23tFxX72k8gOiAw8OqJg9y5JukzvvEH7YBVxBpRG0/EgoGU2tK4IGKOyWEt1uKVlrBr164Ib7PjgKjtV5GuMBKJC5Sb3DlMdxQLUKFSwsl7oqgciWmQOveXGh52dGxnet2sQ6LZB0V4A/mdfI8rXKU2dfsl02oOrWvrAmDK1MmgXCQis0O45F7gARlMHt13yG1vf4mIdoH0hdEUqtVWvQQuQGdOfS2+TzWnF9edqyzCEc9PuQD9bN39mxs5aDqRwI+JymL1+BOQW8idBz7V6KGH3MD+QZQHPc9sP9Ld21ddXQ6qeCbBjQuOrSktkhEVZkhh1cc+WymQHkIqqDrcvX3RGn6xeS4JW4anMghs8GI0WF9/aZVlAjeLyOuBOqL5/a5EeDvIUiN6Dyp3WpGGxmXt2ZXb5nH5hVuivoVnTVUPq5EnUD0UaUfO9DdJFGMMIBgB1FBeKqgIgeY+N2PGDB555JFIL8txXs2KNzi0syP/lCqDHQXsj/q6C4GojEVCGaD6oIdBXHK+Y1ir6FMgOyVXgjVvRORCRGevS889BLmxaAwvJiKXE8YxOqVRhBdszI745HCvkSa3Yy//REaDTeImKIkZ8EXHQShn0DOCHDzRoM4F6Cfx8M4rGUxlKFnwEOlNC6epkVsF+RNgHifPammBDpSVKtyH6pMQtEncC7BQO2UCr6t74oT/OGNMqaAzKP7vzwFVfihGvq3WutXz8+Rd84/NlL5i0zKr0BHzzP1BNnhCDQsRbhDkrcBcwt/+LsBU4OMIbxD0xxLIry6bt6VtRcNSesu6eO/Mxqhv49ldl4hpHoZbvJtcojen0FgbIBxBhuqj5FeFEs6Z60IXy406RhPO+0Ya4eCOtvaoL7ugNLfspq6urtFYfQqR+eQ3WdxkQS6vi7WuahmqYmBgtMKlkv8a3IHC4+J7zc0HinJMkD9q0op2h7S0NU7RqI5JFpRUgIcyDgmlNvwAyuHdBw4c95Mua+kJrGi4hO7eQVSlOtWw6O3At0XkH8mdNT/RfQuARkW/q6ofUtGPymDshyDNYIKgT3jbgtUnDc4BEDuWXGmtYmUV1ip8zij/BrQNDbKcPLhpwRpuXvgiWT9AhP5yT17wrPwzou9X5W8VHgOORtA1j1wyuy8o8t37Gpa+XTWoGNM9kRVrlkR92xzHKWDWqM3lRwihFrpQoaKjpixbFvVlR+5zn/hHQMcSzhbPjEBX1NdciFoOHRgAeYhczqJ8KgWuxsSrAcZPnIgYmQmEUUGoU+DRspLSEb+1+rUUSRPeuK2GcGrdFzxrNaYwjnAWSHsUTniModhXaM+7ezcuBUAITDIRm4/yMYVbQE52tjcL7FDlQUF/7dlgg/GSA1YDgkTAzYvWnHb7F13+T4jVcUWcIK5X0RWq/NdAZ/bF8gs83frCX0bdpxHhlsVrAfjSykuYV+qlrbJFSGxDs3cj9lqFWwS5hvDPqVcgXA+yAPV+kY4P/o/p0x3LG5baEhPnzfNfiPrWOY5TYPoy1bY63ttB7v013yt5pYKM1XiUFSwLw09+8T2TjMcnkP97DpBSNZ3n/jLDz5jKaqzqGiOyDnhrXhtTXWJEZtbVT1/dNzgoqnKpCONCuMy1qKzbtHtzCE0VlyDQVDxGWL8blUIo3++CJxAXYSIhLGAr2oPQf6LPuxX0V/lVw3xEwPNMtar3PrV8D/gzOXFAk1XYosr/h/IBG8jfJzx5XsUMpG2GDy5cw80Xn1kW60SmD4RaQsqgep61ovplg/zV5AM715SMiuncjsui7tOI8zeXr+PGRWtIeoqQtcCeC/et/SkqH1O4TZVfkf9Z+eOZLCKfEOQ7Wm7eaYyt6M1muH/N5VHfMsdxCozJFUvYT656Qr7FUabE93SM+EWLUmOSaDgDVNAeRKN4Lyp4h/d34Hl6GHgIGMxrYyLjUbnS90Qq4yU1CJeTy+SfT4PAI7kcBM5rtVU1Z4eef2GUIKxAZOzEC8ZGfdmRM9arOMWC7Pl0WI2cMM/AiH8zArhr83wStpR+6TVxy0Jr9SMicqvAiX5aU8AO0PtRucvEZJufCdIiho7eDB+4YuNZ9yVVUm2M1VmCVER9X85AFtWVKvIVq4mHrQSplikLaXzuNnZE3bMR7C3z1r7859+uXwRwyEsn77HJ/idVvWtFeDfI6wl3RT0OXIvIHBuYyxNGbpfAbF2+calVL8Pb5zdEfdscxykAnfu3UDmt7hC5RKs1eW4ugeh0sekkYWypL2CBkTIRnRZG9nyQA6iGkam6KKliUZ5BaCR3vDJfkgjXJjP6YxWdLkheE9MNaVR4Slz53eMbuADQTpBB8r+bpQqYBioQSRHZgmFFx0poY2LpMLH4CZ9/I34F/TebLqfcHwPG1pRpxXsFviPwZxw/OE8DLyr6T6r2jxH/n4ENajWdTMR5+8Vrzik4B/CC0hJgJuFsLzsPtBvVHwF/MZjK3i/YVA1ZGp+7LeqOOa/y1os3cvOiNQTJFCBHLqwouxfl47kjHHqXhr+iPl5EbgO+G5Rm32sMNV66ivs3uzOgjuPkqGoP4ZTnFJApYrximhjP160YBUwJqbFOK3leHS5iu1vbCMTuBH2aPAeyAgsUOxdkMfn//luUp42vjbvbW/LcVJFq7URUOsn37omcmKL1XrxkRJ/xmTV3DqDjOPHi7PkUAPus2hNOCI/YFfRfr1mMScQQES9j+udj5WOC3Ioct6xEAGxV+IVB7o7HY41+NvAVe0bny0+H5lYK6qO+P6dph8K3jPCTNN7heEzZtvqTUffJOYmbF+bqqv/vuoupjJtDsbj/az9jngLvGoX3CLyO8FbUEwhXArNV5SpiqW8bkU0rGpbZIJHglrnPRX27HMeJkqGL8CYPJw+9/3dEfdlRmVtbS0ZlCmGU1wIU9hmMC9BPoqW1rb9+Wu0DoO8SkXwGDpNR/nTo/G2+J6qOgD588d7Wfpe7/aT2kSu1lvcxmSj1cTGljOBa6GJERKSecI4YZ0XZd6jr6Akn3kbkCvq+9tHESxOo2Ips4P8RKt8V5EP87puSAs0K31TVP7OWrwDbgyDwM5ripgXrz3/nhNGCTI76Hp1CBtWHVfmUJfZdhcNlmmXni5+Lul/OaXrfJeuZ/3w9fioByJELjoxZDvpx0NsU7ies+ps5Y4E/Vfi2H/BORcriA3081HxR1LfJcZwIeSK9qro3pOYmoUyaO3du1JcdmZhREOqAMErOZYE9xpMwztgWranTpiKYFyWXLC6fSkXkPcDvhXBZG7Demk0TJ4bQVPGyot2ohjJhqCK1It6IPoTuZ3yPXGniMHYwDyK0GmNOeKRgxK2gr9hwKfftq2Ji8mi9GPNRET4AXHCcL+1Q1QdBfojqKk9igyoBNy48s6RvZ+Lq37+Do71dMwkne+bZOqiqd6L8t+d7TTahbFn52aj75JyFGR/51ct/vnP3XCr7qg9qquQeSQ48j+EG0D8BWUb+k8UAxETkCqAW1YtsLH5H957Rrcs3lHHz4hejvlWO40RANZ4RybaROxee7/FKjSgXi8hjjNBzmGnflCC6EJGyEJrrA9pqppYrTVFfeeFqb2tn5vTpB63VB4aqsOSzXnVJCJeUVtVHYp7t3L5nfwjNFS8V6QHdF1JzExDm1U+d2tjU3h71pUdCs9lqkAsljMVr1YMKB7o6D53wS0bUCvqvG5YS1yA2saTrdWrk64J8gt8NzrtQ7lO4DaOfrfCTTwKDPmnefp63s79WdrBLFGoJp/7ombLAZtC/E9V/SmZKm4JEwPaVn4q6X8558P4Z2ymtbsWU9QEciHveDxX+DPTfgG3kjnmEYRLC54CvJat7r1KLt6JhadS3x3GcCCR7Sn3QVsLZdumBLkkNDhTi+28oArRGkPmEMzbsUdU9fQdTUV92wVNVq5anFS36HeGqNIM8pSphjSmKlqj2Ay2EkEhPconiFmVNseS/Or9mzZiOqEwTmBFOi9IhmEMn+4oRsYJ+74bLEAIs1GSNeRfwKYELX/NlKYVVoD+2yAOa7d/vJco4kujjnQs2hNLPtEkmRDKzCGfF8kykgN8q+pUgy5pYDL+rppPmJ/8h6n4559Gb6w4ABwC4f9NlgcCOVCL7xWQm8QDo+wR5B+EkDyoHuUWUmXj6DeAXKxqW9njiccOCVVHfJsdxQqJGFZUmFe0WJO+BswpzRGVq7bRp21rb2qK+/FBNr52OqJ2JMDucFrXTCB3bt+6K+tIL3u6WFmpr67bHcsni5hNOiv18UBGeQ3XrrraWqPtS8OovvNhv3rZ+t+TG4Pne1RIX4ZKE9WpGja05ePRQV9SXHyoBAV0MMimkJvd61hw92RcM+xX0ezYso73xCoyR2Z7KFxD+BTkmOFegEfiiwJ+VBpkfCuyPJSq4ef6LoQXnAH7GrwSmR33PjqG6V1W/YtV8btTKgReMh79l1edccD7MvW3BKnyBeOBl+/oG1ojwf0E/guovga5QOiEsEJF/A75gkVmvHzuPX2+8JOpb4zhOSLYe3gToAUE6w2hPkDpUr4gH6WE/NnqtsR0XGJDLgFAOBg+tpB4991caGQQGUHkUKOZ71qOqj3Zl0q603mnYtv45UJrJHQcJwyKECy+rGnnVdNKZbLkIV5H/BIkAAaKNfix70u1Dw/ZN6Ffrr2L5xksBktNmPff7qvpNhNs4Nn1+l6I/R/XDnsl+KVDbmBXPvn3RGm5asDr0OUorwTjQQsngHqiySpHPBVa/GJN0y8E3VbJttTtvPlK8Y8GL3DJvHTNnTAXolSD9WzH6cZS/AlYRTr3gsSB/Ieh/P3aw4Y2KJlZsWsIj6+dHfXscxwmBhf1Aa0jN1SC81cZLRs2cHNJOxwIwfWoth8d1XKDCG4EwSi1ZRHbZRLwn6msvFi2tLRhlFZCH7MThUNisIs8nPW9E5ng4U/s6DoJKC7lnYBimIvrm3QNNsfqJM6O+/NDMmFaHJ7FZIFcRTlycAnaNVT3pGHrYBuhliUGsao0nfFiEbyDy+7ySmc9HWaXwfxA+/ZlFLz5h1WRKvQQ3LI7m2bdLFUGmgoRS3uQU+lD9icDHNK53GZGBQVvNzofdefOR6LLxD3LTghdRrxTgYJBO/kBV/xzlW+TKgORbQpDfB/m6J7EPkI1V9Hkj9pio44ws6vejuoMQzmECCHKVqFwm3VVRX3lojtisYHiTQFhLZwPALllQ584hn4GYHzsIPEQ4tbHPtwyqj9qsf2Df3rAKMwwDokdQDSuNogfyFpsI5rbsHxm7ZOsn1uGrTSDcRGjnzzksKrsHT7EKPOzOoN/bsARRgx/IVGP0EwJ/Cox+6fMK7cA9gvxPPBXf6pem7TcbL+UtM/OXnf10zIp9knnL6mcSzvaKk2lW+I4iPwzE74xZj61u1dwBbhqqYHDv2isCo/FNgWQ+L2qelNzOlKvIb3ZZAeYK/AsxWxtT+53lG5fu+fDV+ygfNWznGR1nxEt61s9a2Uw45zABJqjqx+zoo1tmjKlrzaqlbZieR59eV0cyniCbziwA/oxXjZXy7CjoTjq6or4FRcUbrPKJH3kC4U+AYqtDukeQR4+mJBN1R4pJAu3NYraTm6AMY7AzD/jI9Gl///cqdV1BzNC6e3iWWZg1tR4/bU0sbq4D3kM45dUA2i26Z1Pryd9XhtXI9r6NV+LH+kVE54N+WeAveOUNp19VHwA+boz5+4zazX4iazPGRh6cA8y9dHpS0ZmEU+bieLKgT4F+ikC/IdBZYhNsfd4F586x3r7kBbJmAJC+/kPJe1X5qCpfAprIf3miC4DPKOZfDXJR1TgFHZklkRxnJMhaA8pOIJR6wAAi8gZEP2nVTijBY9ak4bfdfWbtNDrHlpPOpC8CvgBcHlbbCk2itDc9l9/KOMNNproTa9gOPEvxlQJcY41uHV9RbN2OVvVgbxbYCvSG1GQC4V0K748FtiKW8Zk9J6S8kSGaXldHMlNiTIleg/AFIKw9/QrsFPTwqb5wWKyg37HrWsYODoBKLO5XvkHh7wSuAbyhL2lS+L4x/KSknfbBqcqsknIWzX0q6q6/zChVqMxAIsnOeQT4BSrfmLWjZ9vO2ZVsXfWZqG+JU8DesXAjAPe8eJkao7uzVr/sqXlOhA8D15Mr2ZEvZQjvVZjybz+f9KXP/9HhmJ9FpVjz2jqOc0K72/ZSP7W2VZAdhJdEtRzkI0ak2lf7jZiarfW1tVlU8UQYc9FFrHzggahvzRmbXleH2JcW4mzp+IN914F8BuF1hDceVFHdYtUejPp+FJudrXuYVzOqb7Cq6rci8gdAIRyJPB19qvx2MB4/cqAxrHQSw4NvPIDN5I4TVofU7DiB/+sbGY/wAy8Rb55RW2cVsAZamluivi1nrLa+npi1qOYmiBRGDSYHbkLkU8DFIXYlo+iGQBg41RcOiwD9gsE+fBsrF8ncAvy1vFKGIgM8juo31PA4Sqp/Krx9QfQr5q9lkBqVUEpYvZqiulORb4iYn4M9vHt2hdvS7py2dyxdxa/XXY7x/PSA7nuszEzcIirvBf4cmE3+Ui16wBvicRk//7JEz4Zn3a45xxm2YnJUA90guVwyYY1byoH3i8giPxH8TOA+C21pTLpj8xbqptZhY5a25sLe/i5A/dSpqHgkUga/VMrV6kWKvF2QPyL8yjGDijRIwnMP7bPQP7oGz9oXUd0A8ntR9+f06A6F50v8MPLKDi9rOw4xfVplm6huF/md8tD5I1wgyGdQvSLT0/djkMcFcyCRDbL1dXWYIEZje2PUt+eUxo6/gKpkGcYP8GriEvTaGg3sxcC7EG4BxoXcpSOiskVET5lTpagD9LvXLcXzBMWOEbG3ichHgZdq2O1R1R8b5PtbF85smbupkRsXvhh1l49r/JR/RaEWmBBis2lUHwX9qvqZZ2Jewm9wgblzFm65ZCUAv2l4HfiZA9lk9uviy4sonxXhTeTv2IYgMm/c5Jg1JmPU7ZxznOGpoiJNT99aoIfwzklDLqP5UoF5IO8Tkafi2MdVZKsqHVXZeN+MabUwtH3n5bUZK6hY4j5M2jeNJ3k2bx2cPGUKcWPw1OSi8ZenRBVFmDxhIvv27akEpmQSdj6WNwm8AaSWaMaAnaAbsEW3RbsgtDQ1M6t2RkegwSMiXA0ko+7TKWSBRyBob2nZE3VfilLaT3eVxhJrgBsJ93e2DJHrgKVAgxI8HnjyDLATlY4ZtXVpXlmRJvfwsYgaBCXwhImTJ/P8c8/lrYO1dXXEVEEVRFAV5KUnsUDT/lapmlA3SpGpfre/FHizil4lyAQiOOat0GiUHS2nkdekaAP0u1+cx4KFsH2r1quaz4jwx+S21WaBlQpfN0YfUCv9F23cxY2L10bd5RPq2NPN2Cml00FGhdRkJ6p3IuZbYpNN4vUzmMhnfi9nJLhh4VPc0V7PmK7R2boDE59qGb+vTZE/FfgA5G93iAgGofhO5DmOc3oGUyi6XqAJJMwA/SWlwMUCi0H+CHS3MewaINiMslFV24FuVe01RtL4Egxqr/rVNdpS38qMoBYdOr8mKljAmlceWDIU4Gez2Vf+DiFhE9iYRY0igFHNjToBUBAwaij14gymfKNxNaoas2qrxDM1WKbt27/vQsQsEWEBMI3ctujoDgSpbhWlZXez2+p8thT1FZ4APigwJ+r+nEIHIo/vmTE3TZsL0M+GZzyrsFLgMDA+gi5UAVcLcjmwH6VRvew2lE1W2IKy31PbGyC9Ijaj1rOj9/bbI9NKOdDWzoza2qHAOfdcs0Z/pySHqhIEwTH/HYvFXn42igieKq/E4oqqYALoPpCgZtKgCcR4aomraLWIjBGVuhkT6+arsoTc7oOpQFU0J4lzlyXKWtSc1vGeogzQ71t/KTdevJp7Ny69SET+WYS3kZvp7lT0p4J+J8h6O00CvWlR4SchmTNvbByVeiSvWbABVFU3iMh/Ssy7x6azfXjK1lV/GfUtcIaJD01tApr4QfNsxnWNah70gn9JIC8KfBa4giJ95jiOE52mxkamTZqyx8RiaxCWRtgVAcaLyHjgSnILAn0ichjYg8geRfcSt51lVHXJoD0M5ghCL0oGSAOB5v4//arXzSoMBtbqS6vxkluZimtuckA0NwUZJ/ffiaGPpEWr+mz6AhJyAapjRWSiEVOLMk2F8SDlFM4qawZ4LimcMkGSc2KNrU3UT6/fig2eA8nnUbLzYa2qbhjdsT+8LI/DTPuedmbU1u1A2YxEEqC/JAZMlVyg+waElFHpAz2oxttroE2RfeLZziPTynpUOCgiXaB9gE+uEoclVyYwAy8vrWQspAK1vPyjnHv+lXDssys59PHS86/ECjWVEzPjrXpjBcaJyCRE6kDrVHS0IGUioWVnP5VuVX2+t+ZImtOYqyq6wfLydcswflKWNyy9TODvgTeRO4+6Fvgva3SFZ6Xbiyk3LijcVfNXS1YmSgPVfGcQ7AceQOQ/8Lw1WOubZCmbn/uLqC/fGYY+OH0nd2+6GE+9VMx4KwL1d6nycUHeSfEktnEcp0CUxUvTWc08DfIewkuWdCpxREYBoxjKAiyIIqTIBe9pcoPSfsn9eUDRQGBQrA6QG5yKQFqFvtJ44th9QBokDVqBzQ1kVSQpQoWqJoBSQUoQygUpAUoQKeGV5LgFF7UpdCA8vzVZ6g4jn6PqC8b0de/vfHDoHG1Yuy/PVAr0oSx6qGPLlqj7UtQ08A+J5z0NUkjHGkoQSkDGQu58vCABQhrIDD3zUgp9oFmQfkUtVvtN7rk4FKDLoBEZiMcSr7loLUO1DFBERZFSlDIgiUqJCGVAKUgpLwXz8tK29QjXyU9sp4puLO+rArpO+cVFFaDf27AMsnhBPHWtqPwLwpXAoMK9KF/KZCvWJZI9elOBnjU/EWt1FELe6rgo7AW+o6o/kKzdS4mw+YVPR33ZzjD3BwvWA3Dfpktt4LOFuP1bz3prgE/zSiJHx3GcU7JqQVgDNJCr0lKohNwqd+nv/O0xf5QTffqYvzzeMFOKt2RFgxqzRXdudw//c5QZTGGEFxQ2AG+Iuj8nsFOVp0TEHUA7R02ezcwg9hi5I4P1UffnJDygbOgDGHqGHfP8O83f/uM956RoB46BwrOo197c0nxa/6Bo6qDfu/4yVPAkpjcg/PtQcN6B8jXQz42NjV+biA/oivlFc0kvs8Jk8pNJ0AIrQT9jMV8Tkb1S4rHl+U9HfcnOCHLjgtXES0BUusT37lS4DfR+clucHMdxTmln2248te0oj+GeHcUoDTyeTCQPF+kAu6BsadiE8cwB4FGOPS5RKAJFn1JoaWt1+QbO1UXWw9hgM1B4Zaic03EQeHSgfe/g6f6Dgo9m7396Mcs3LgWk1CjvQuQrCEuAjaB/bSz/ZgLa9mXbuHnRKm6Xwj9z/moXLf0aCHXIea8b3a3wY1Q+li7rv0ugf+vKz7DleVff3Anf2y58kbcvWIuKZhN+7FngU6DfBT0Sdd8cxykOB8dNzIjobwE34i86ugP0YRE5ZXkh5/SUlFX6qjwMtETdl+M4KPBoMnnqes/OqW1tb2fXA9/pBu4G3LipyKjyolhZM/6NV5/2vyn4AF3HxPFiXrl4/gcEvgjUqvJbi34Soz9ToT9TIrxzcUPUXT0rJubHBZ1Lrubq+dKM6j97hr/q7U9vSAyW6baVn4r6Uh2Hmy5eRSqWBWhG+ILCP4A2Rd0vx3EK39S23WQCuxnlUcAFesUjq8pDorp72/ZtUfdl2Og60oGI3amwKuq+vJZCg1pZk3F7Xc6bi97456ja50FXRt0X54z0IdyvcKThkcdP+x8VbIB+39OLWbFxGfhabX37cUH+EahQ9L8F/WTyqPc0KtkbF6/hDy4srlXzV1PrlaNSz6sSu5yDjKKPqnKbtXwz6weHJoyrYNsLn4v6Mh3nZbcsfJGbFr4IQXDEmuB7Cp9SeJpclk/HcZzjajh4mLY97YOgvwJO7yCfUwiajMo9Hwm6Tnt7p3Nqbfs6qCgv7UV5kNPJOhWeDMojyYGKzia3vf282bp/H17gdwC/AFcJoWgoa1B5hDOcVC7YAN2OTRJIUKUityH8FdAL+v8M/BPQlB4TcNOC4koGdzyKVCPUnodXOqKq30X55MGg5CER0ovrp7P6CZel3SlMQXkVoiZj8H8DfBLVX4HbDuc4zomNHzMeDexqlLvJZUp3CpufyzkSbLjdK5Tk+8NHKpVRhRcUNkfdl1dpQvSJIJ4Nzv2lnFezYgKrPAA8EXVfnNPSC/pLG9Da1H5mc8oFl8V9xdOLoCYBvtZ4am5D+IyijcA/eQl5JEhJ9ubFwydHgohOApl0Di+hCluBb1r4mcZsd7Vm2Lr6s2wdPrfJGYZumfUUACsalmjCS2/M+om/UmWHCB8FJkTdP8dxCk/H4Q6qJs7sH2eyPwZeh8hlUffJOQllHfDjZCKR2rJ7d9S9GXZ2NDVTVzdtj1h5ZOh3IeqazxZ4LvDtjqYDO6K+PcPO7j17uPzC+oMHB4L/AVkG52OBz8kTCzyKMfeK5YwnqwpuBd2OjYOlEvQ2RD4BrAb9dF8meFB9shVVR6Pu4nmz5MovAUzj7DO4ZxQeAD6OZ24X6I5nYjSudufNneJx08K1pLJlAHsNwVcV/QKoG8k5jnNcU71BSoLMdpDvAoei7o9zQkcVbg+wW3sH3OaovFHxEXkUaIu6K0AX6MNx8fuj7shwtb/fB7XPgv4IcMdGClcTqt8u8ZMdzXvO/ERWwayg/2jbNEZlL0B9rcbIX6DcBjys6L/2pyp3JhK93Di/eM+aH58ahOlAxVn84/3Aj7B8p6TXb02NirNt1WejviDHOSu3LM7lPLlv45I+MfIDLHsVviBwCUVb9tJxnHzYsmcvF06eFFj014LMEfgkr6077kQtg+r/iuovEPy2/fuj7s+w1dLayqza6VsC7LOC1BPhe6aqNmB4AYyrfZ4nrW1tTK6t60+qfB+xcwV5BwUUzzkAdIP+dwz7tG/8s/pdKJgV9AnpaaBUicrHUf2Aiv5Yhb9LJjM7K8t6eOfFa6Pu4nmXTseSKHM5s4epRXU9yl+DfBGhdbAmxlZX29wZBm5ctBa1ZDwteUDgc6CPwplvDXIcZ3jbtncfAl0o31TlXtxzopAECg9a+CbQ3dLWHnV/hr1Yf1kPyENEmywuK8Jj6nn7d+/ZG/UtGdaqbZYv/PCrewT9d2Al4CZECscgyv9aa++0SHpHW+NZvUhBBOj3NiwlbQZrVPg4yK0g31HVLxpf9x48OI4bF6yLuot5EcSkEmHGGfyTfoWfKfKRIG1/CvRsXfUZtr3gaps7w8fNC9egEgQ3LVzzlIp+BvRuIB11vxzHKSxNba0MHOneIyL/qKq/xlWCKAS+wgMon2/ubN25u70Qdl0Pf2qsovY5hSjr2O0Beazr4GH3e5hnW9v38p9/+S94fmqdKn8LPI8L0gvBgKI/wvClsvLE4V1tZ//8izxAX7FhKSaQMtR8FJU3Ifw7Rr8jIr3ZUuH91zwWdRfzRkSmKEw8rS9W2lD9Mti/HvT615iEsVtWfjrqS3CcvHjbwue5b/OltB0eswXVv1XlDqAv6n45jlNYKsePwZ92wQ6Ez6vqj3HPiSgNoPxMlL99/Qev3zxt7JSo+zNibO/chlX2ifIoEU1UqbLSKlvr5syM+naMCOvWrcN6SR0M0s8j/DXwIK6yRZQOoXxTxPzLYF//nq6jqXN6sUgD9OUNywBK1PB+RZch/Cvi/RJl8OaFL/KOIq5vfirzr/gGYKaC1JziS33gedBPGvX+Xa3ZNy49nq2r3aq5M7zdOH81187eifVoEtH/B/o1lINR98txnMKxa3cj3v7DCOy0av9Gc1s+90TdrxGoFfiyGv46VTq4efU9z9C2x30bwnTkyKCvymNAFGcKuoEHvHRN9/o1w+9IaqFqbGsnJp4dONTzvFj5pCr/AwyfbNrFwQINqvytWvnXtJ/ee/VNN7C349yOeUQWoC9fv4yYCWKI3CRwhQr/MViWfhS1wU0Li7+++akEkvJAZ8nJE8R1q+qPBD5WVlFynxWbjsV8Vq/986i77zihWDSphZgvKByyVr4K+s+4wbfjOK/S1NiIBUTkoMB/qOonhvJXuAzH+den6G9QvU2Er6AcKO+rYPOmLVH3a8SZOqUa0M2ohr/dWXU76Eob7436Now47Xv2UD6uGs/zGlX171X5P8CLuCM/YTgE3CnKR+P4P0LoqSmr4Zd3/PCcXziSrH/3N1xK4GssCMzvA5eCfqN/XM/akq4Kblo4Mop3C/FS0BmcuGblTlS/hehPfPUO+dmALavcqrkz8rxtcW7C7r7NS7sNse8H1h8A+Xtc/U/HcYY0t7YCMKO2tv/mUTfee9/R+zco3IrwXuAiIBF1H4eZfkU3Aj9VWF4aK9uTsoM0tbZE3a8Ra8uORi6aPulI2sYfAG4EqkJqOkB4LGaDtp17WqO+DSNSY3OujFf91LrDvs/t8ZiuAt6LyDuA6YAXdR+HmaPAs8BPTWAfSpf6R0vSHk3tZ15O7URCD9B/0/A6PFLGxuwyYAlwZ9uhbMMUU8XbFwz/lfOXBVRIrsTaa3cxZFR5UoSvBmqfMkg6IT7rn/5c1D12nEjt2lDNrIW9KYz/U7WxrCB/B8yJul+O4xSO3a2trOB+gBbP+l/3Pe8h4O3AzYJchCvHdi6U3MB0nSrLEXlYErHdZLLBoN9P0zkkRHLOj0wQQ9BnVWQrcHkYbSp0AI9axCVzjVifl6GchB1IljRUpAcbA5X7EG4ReCtQj5uoPBcBcBB4TtF7Rc3jjKvYrwd7tGSwhJ17ms5rY6EG6A9svRINYpKxdj4iC1D95Y0LV+/65YtLR1ZwDojaCxB5bQaVQyh3InzLaHejpZKtq1xg7jgAn31fLmHkbzZdMthbmvpp2WBpL+i/kFsdcxzHAWD30CrurKlTMwKb1Mh2An6lcB3o9SKyBLgAVzv4dPUCzaArFR4WqyvjmZJ92bK0EliaWt2qaaFobGujbsKkvV4i8RDCEk68S/O8EViFmA2N7e7nIGqdLfsAeH1ZGXvHjh2ICc9aP7ZWY/5PVXkj6JtFZD4wmgJIFF4EFDiq0Ag8CfoYImt3t7QcnlU3A+0epLEtPz/3ob05/deChyiv+DLdR7ungswQ4ZG9L3yo+X65nHctG1kJJeovvAtM+2ReyeCuwFZF/wv4JSrdVqrZ5ra0O87v+L9j1/H/jlziJ2PZ+/sGPPq67L8LzHT1RRzHebVd7e3UTpuGZ8mCbPfL4jtiA+m7sbII4WrgSoR55AarbmXpFT65bPjNKC+CrgJZFQjNVSr9/QJ+Igs9MXYf3h11X53XMJ7xFX1CkD8mt705n/pV9SE/yHZHfd3OK54cGIC2Nmqn1hHzgsFsOru2PFmzIaN9PwNdAnItuR0Ws8gdhXCTla/IKPQI7ERZg+hzIBsC0daESiZQmF5bR0tbO1ibt06E+g3p7uofq8IEo/rc3oMdnbW/9++8ZWZLmF0oCGpjospMEWrIneN6WES+aktjq+jx/e0vusDccU5k/US4hXU8sOXi7MMren6zZbV/nVX+ApCo++Y4TmFpfdW26+n19QrSEcTsw+LzuAfjFDN7aKXxEtALQSYCo4CSqPseohRwFHQ/KrsRGhTdiJXtIrp3vPEH9mEQNXSJ0uZWzAta0949zKit3aywSqCO/L437hDMcyKSv0iluBTUOKS1vQWAt77rrTSubAyskdZUvKS1ItX/GxUz0YpcKLBElYsRZktuZ9EoQth5UUD6yB3d2YfqToWNimwE3Rmz2uHHvTTWIghpwnv+hRagj3n/g1jfiibszky6pGvq+Mm8ZebKsJovKDWj98UyVueAdKJ6uyDfz+w/0BqfMoEZy4TtI2u3v+OclbfMW8/E0XVBabn2iEj+3xYFQd06vXNyIhLGAM0AIoU1Fix4zU25M4KzJtcTeIGvsB/YX3/965/a/dCTVWJlElCrwkXkVpZmijJVRccKUgYkKd5kS5ZcjeQUMIBqJyKtQAuwW5WdIrQg2hFkUt1VNWNsX/8AAJ02xoSDE1g5uCrqazghJQ6qJoRfCUOBBWHHU9Hfd6SvrPJhhBuB8jw1Y4FnJEZTa1PBF1cJ5XsmEMobwJn67S9+C8A1VVUcqK7GikkLtNggaIlXVjzk96VGgZ0IzAAuFJHZwHSUaeQWE0vJ7TIq1udfAGSANNCH6gFEmoFWhV2o7hJoQ+lsam/tnTtzNplsBisggcWUltC0Y0eoHQ4tQE9MOUh2MHtovH+BXr3s4cL8CQ5JNkiVYjgCfNYzsRWDIv3JaVPY/Mwn2Ppc1L1znOJRUi0qVreg/NrzSCRKpCQ1oP1qz3eJGRURWW8CXBIc54Sspxmj+oyo9JAbvOZLAGxTxM0YnYVde49N5hN7aiVAj4rtyRrZnrD+I+KVJPzArzJQDdSq6lSQyQiTRZmg6GgRqSFXKrWcXPCeIDeQDXuE45MLvDNDHwNDH10KR4AjohwA9qroAVTaReQAxvT6mWxfaSyZTcmAGo0jAiaWoGHb1mMaaKSwV82zxvox5DmUDPn93VMV3RxIHve2ngd+LKYqPCaqPx7aFXL+b4QwAPyK9r0DUV/vyYiIFWUNShl5Lj+nwvogsAX7XH6mpwd6el7+78WLF9PX12cRDnvGHC4xbO5PmftiJZT6QVAJjAGtBaagMgVhssA41WOef2Xknn1Jotl59NJzL03uOTgI9JN79nUDB1HdD7JH0Q6BdoRDCj3WBgOlGvezCV81EFCYOGE82xt3RvdNGhJagG4Hk8QTnrZWN3PNCA7OAQxe2mr224EJDoom/OpMmhfX/k3U3XKc4lNaaiWVWm794JFkuWfGTfTie3b7mUDP+xukCJJOpspckVfnhIwn/SaQ/1A0Qf4GgqKIWjUD1guCqK95ONixfTsAH+bTPDVlOVkvZjUIUpIb7HUaMbuSySTXfGoGj39pa2ngaQWqZSjlYKpVdKwoFSpUoFotIpVANUoSYRS5Vde4opWixwTvormvLQcFJSvIEdBjgj8FK0gfQnboL3oQ+skNRHtUGRDoAe1HpA/VoYGpDCgMqpGBZLa0n1Fpq4Pg+0HuVVXxPIOPj6elmArDrq27ov52nB0hrWq/ISJJ8hmECYAM+rlJsoK15UAHc2bN2uNnMp8HjefhngiqAcZ0S10t7Crcn5uE4vtwu4r+JA/34Zh7IqqDhzo7i6b++IYNG175DwO1U2rxPLU2oF+gX+GA53lbYp7Htt27pG5aXbmXm5AsRanQXP6O0QjloJUC1SBV5AL3UnITnJKbHNFjK2jkdpuNUjQJILnnWTd67PdIhUCgFyQAVZCjvLQSDr2q9CP0otoH0kNuu3ovQr+BlEUHmtpaB+bNnqPpTAa19uWfAiOGjFj8tKH1YEsuzC8QoQXo7/7T26O+1oKxt2xfeuzAhP1GYfNKd97ccc6ataDaD/SrQn7DFUXdMTvnZBQLdIXVWH7Xgkae7/GfcJKdukc/30t5VWKQ3EASFUXx0RQElT7t1TOp3b9DYlJmfLGeQYyJmzhWRVXF2CBmFPSlEF2NBMZ41tgYKKKiniUjErx8mEZy0TnWeL4M7ZjI+kFWhEA8sZ7YQDKV2PFtagcm4qeyxIzgDf1bEVAU62Xp3dLPAQ5EfZvzRcmtluW/lRBOVJ2XrqpacsFKfgxthW0s4OD8VXqGPvLOi8UgU0CR3umy0HqSjOTjJ0xQyQXFfQDWC5AAMmlDpryK/kQrY3pLxMSSRgM8LxbzDMRUVVSt51n7miMongQicWvUoGDEWM/aLNa+PI0pCoERtZ4JjKIK6mezWRHPxjwvCGzamlRSSwfKOTIhS7lmCcgiwbE78cePH8+WneFuUT9XxfCMGXaWLv02yWQXEyeu5q67fh11dxzHcRzHOUM3cAONUxrx4xnwFWtA1CKYoUUgQQxDcymK/M7GHkFF0KGTCqIgKhxvh7aK5BacFKwOjV/N0CBOc38vWMQzxIOA+vb2XDV4x3GcPLiWa9kzbS/GBGAtVmRogVuGJrJeypKSi6zlNTl8ZOj5Z4e2FeWeZfA7uX5k6Pk39Onc1whihNwclIAoRhVrIZEpY3vn9qhvj+M4juM4juM4juM4juM4juM4juM4juM4juM4juM4juM4juM4juM4juM4juM4juM4juM4juM4juM4juM4juM4juM4juM4juM4juM4juM4juM4juM4juM4juM4juM4juM4juM4juM4juM4juM4juM4juM4juM4juM4juM4juM4juM4juM4juM4juM4juM4juM4juM4juM4juM4juM4juM4juM4juM4juM4juM4juM4juM4juM4juM4juM4juM4juM4juM4juM4juM4juM4juM4juM4juM4juM4juM4juM4juM4juM4juM4juOE5v8HgFGMvzcT8L4AAAAldEVYdGRhdGU6Y3JlYXRlADIwMTQtMTItMzBUMjA6NTg6MDUrMDA6MDC1R61AAAAAJXRFWHRkYXRlOm1vZGlmeQAyMDE0LTEyLTMwVDIwOjU4OjA1KzAwOjAwxBoV/AAAAABJRU5ErkJggg==;" parent="1" vertex="1"><mxGeometry x="525.61" y="362" width="94.62" height="30" as="geometry"/></mxCell><mxCell id="Pg3yXxrsNYTh1cJ3KZXr-41" value="GLPK" style="text;html=1;strokeColor=none;fillColor=none;align=center;verticalAlign=middle;whiteSpace=wrap;rounded=0;dashed=1;fontSize=17;fontColor=#707070;fontFamily=Garamond;fontStyle=1" parent="1" vertex="1"><mxGeometry x="632.44" y="372" width="40" height="20" as="geometry"/></mxCell><mxCell id="Pg3yXxrsNYTh1cJ3KZXr-42" value="&lt;div&gt;To use UI &lt;br&gt;&lt;/div&gt;&lt;div&gt;&lt;font size=&quot;1&quot;&gt;&lt;i style=&quot;font-size: 14px&quot;&gt;see /docs/user_guide.md&lt;/i&gt;&lt;/font&gt;&lt;/div&gt;" style="text;html=1;strokeColor=none;fillColor=none;align=center;verticalAlign=middle;whiteSpace=wrap;rounded=0;dashed=1;fontFamily=Helvetica;fontSize=17;fontColor=#3333FF;" parent="1" vertex="1"><mxGeometry x="20" y="349" width="210" height="41" as="geometry"/></mxCell><mxCell id="Pg3yXxrsNYTh1cJ3KZXr-44" value="" style="endArrow=none;html=1;fontFamily=Helvetica;fontSize=17;fontColor=#3333FF;strokeColor=#3333FF;exitX=0.5;exitY=0;exitDx=0;exitDy=0;" parent="1" source="Pg3yXxrsNYTh1cJ3KZXr-42" edge="1"><mxGeometry width="50" height="50" relative="1" as="geometry"><mxPoint x="140" y="320" as="sourcePoint"/><mxPoint x="160" y="280" as="targetPoint"/></mxGeometry></mxCell><mxCell id="Pg3yXxrsNYTh1cJ3KZXr-45" value="&lt;div&gt;For Endpoints&lt;br&gt;&lt;/div&gt;&lt;div&gt;&lt;font size=&quot;1&quot;&gt;&lt;i style=&quot;font-size: 14px&quot;&gt;see /docs/api_devGuide.md&lt;/i&gt;&lt;/font&gt;&lt;/div&gt;" style="text;html=1;strokeColor=none;fillColor=none;align=right;verticalAlign=middle;whiteSpace=wrap;rounded=0;dashed=1;fontFamily=Helvetica;fontSize=17;fontColor=#3333FF;" parent="1" vertex="1"><mxGeometry x="220" y="308" width="210" height="41" as="geometry"/></mxCell><mxCell id="Pg3yXxrsNYTh1cJ3KZXr-46" value="&lt;div&gt;To Learn How to Extend&lt;br&gt;&lt;/div&gt;&lt;div&gt;&lt;font size=&quot;1&quot;&gt;&lt;i style=&quot;font-size: 14px&quot;&gt;see /docs/optimizer_devGuide.md&lt;/i&gt;&lt;/font&gt;&lt;/div&gt;" style="text;html=1;strokeColor=none;fillColor=none;align=left;verticalAlign=middle;whiteSpace=wrap;rounded=0;dashed=1;fontFamily=Helvetica;fontSize=17;fontColor=#3333FF;" parent="1" vertex="1"><mxGeometry x="633" y="410" width="217.08" height="41" as="geometry"/></mxCell><mxCell id="Pg3yXxrsNYTh1cJ3KZXr-47" value="" style="endArrow=none;html=1;fontFamily=Helvetica;fontSize=17;fontColor=#3333FF;strokeColor=#3333FF;exitX=0.5;exitY=0;exitDx=0;exitDy=0;entryX=0.921;entryY=0.983;entryDx=0;entryDy=0;entryPerimeter=0;" parent="1" source="Pg3yXxrsNYTh1cJ3KZXr-46" target="Pg3yXxrsNYTh1cJ3KZXr-39" edge="1"><mxGeometry width="50" height="50" relative="1" as="geometry"><mxPoint x="135" y="359" as="sourcePoint"/><mxPoint x="170" y="290" as="targetPoint"/></mxGeometry></mxCell></root></mxGraphModel></diagram></mxfile>